<svg width="344" height="374" viewBox="0 0 344 374" fill="none" xmlns="http://www.w3.org/2000/svg">
<path d="M326.643 55.0715H126.418C121.893 55.0715 118.226 58.7393 118.226 63.2637V309.105C118.226 313.63 121.893 317.297 126.418 317.297H326.643C331.168 317.297 334.835 313.63 334.835 309.105V63.2637C334.835 58.7393 331.168 55.0715 326.643 55.0715Z" fill="#0C7489"/>
<path opacity="0.6" d="M326.643 55.0715H126.418C121.893 55.0715 118.226 58.7393 118.226 63.2637V309.105C118.226 313.63 121.893 317.297 126.418 317.297H326.643C331.168 317.297 334.835 313.63 334.835 309.105V63.2637C334.835 58.7393 331.168 55.0715 326.643 55.0715Z" fill="white"/>
<path d="M299.738 216.619H153.31V241.688H299.738V216.619Z" fill="white"/>
<g opacity="0.4">
<path d="M160.696 228.662C160.689 228.171 160.783 227.683 160.971 227.23C161.159 226.776 161.437 226.366 161.789 226.023C162.141 225.681 162.559 225.414 163.018 225.238C163.476 225.063 163.966 224.982 164.456 225.002C164.944 224.985 165.429 225.069 165.882 225.25C166.335 225.431 166.745 225.705 167.086 226.054L166.605 226.535C166.328 226.255 165.996 226.035 165.63 225.888C165.264 225.742 164.872 225.673 164.479 225.685C163.689 225.685 162.932 225.998 162.374 226.557C161.815 227.115 161.502 227.872 161.502 228.662C161.502 229.451 161.815 230.208 162.374 230.767C162.932 231.325 163.689 231.638 164.479 231.638C164.873 231.651 165.267 231.581 165.633 231.433C165.999 231.284 166.33 231.061 166.605 230.777L167.086 231.258C166.744 231.608 166.332 231.883 165.877 232.064C165.422 232.245 164.934 232.329 164.445 232.31C163.955 232.331 163.467 232.252 163.009 232.078C162.551 231.904 162.134 231.637 161.782 231.296C161.431 230.954 161.154 230.544 160.967 230.091C160.78 229.638 160.688 229.151 160.696 228.662Z" fill="#263238"/>
<path d="M167.769 229.557C167.767 229.012 167.926 228.478 168.227 228.024C168.528 227.57 168.958 227.215 169.461 227.005C169.963 226.795 170.517 226.739 171.052 226.844C171.587 226.949 172.078 227.21 172.465 227.595C172.851 227.979 173.114 228.47 173.221 229.004C173.328 229.539 173.274 230.093 173.066 230.597C172.858 231.1 172.506 231.531 172.053 231.834C171.6 232.137 171.067 232.299 170.522 232.299C170.158 232.311 169.795 232.249 169.456 232.115C169.118 231.982 168.81 231.781 168.552 231.524C168.294 231.267 168.091 230.96 167.956 230.621C167.822 230.283 167.758 229.921 167.769 229.557ZM172.525 229.557C172.508 229.162 172.374 228.781 172.142 228.462C171.91 228.142 171.589 227.898 171.219 227.76C170.849 227.621 170.447 227.595 170.062 227.683C169.677 227.771 169.326 227.971 169.054 228.257C168.781 228.543 168.599 228.903 168.53 229.292C168.46 229.681 168.506 230.081 168.663 230.444C168.819 230.807 169.079 231.116 169.41 231.332C169.74 231.548 170.127 231.663 170.522 231.661C170.795 231.666 171.066 231.614 171.318 231.509C171.571 231.404 171.798 231.247 171.987 231.05C172.175 230.852 172.32 230.617 172.413 230.36C172.506 230.103 172.544 229.829 172.525 229.557Z" fill="#263238"/>
<path d="M179.721 229.12V232.254H178.993V229.187C179.026 228.962 179.008 228.732 178.939 228.515C178.871 228.298 178.754 228.099 178.598 227.933C178.442 227.768 178.251 227.639 178.038 227.558C177.826 227.477 177.598 227.445 177.371 227.464C177.112 227.446 176.852 227.485 176.61 227.578C176.368 227.671 176.15 227.816 175.969 228.003C175.789 228.189 175.652 228.413 175.567 228.658C175.483 228.904 175.453 229.164 175.479 229.422V232.254H174.752V226.848H175.446V227.844C175.664 227.502 175.97 227.226 176.333 227.044C176.696 226.863 177.101 226.784 177.505 226.815C177.81 226.791 178.116 226.835 178.402 226.944C178.687 227.053 178.945 227.224 179.157 227.444C179.369 227.665 179.53 227.929 179.627 228.219C179.724 228.509 179.757 228.816 179.721 229.12Z" fill="#263238"/>
<path d="M183.459 224.588C183.86 224.567 184.255 224.685 184.578 224.923L184.332 225.472C184.105 225.288 183.818 225.192 183.526 225.203C182.91 225.203 182.575 225.55 182.575 226.222V226.848H184.242V227.464H182.597V232.254H181.87V227.464H180.907V226.848H181.87V226.188C181.853 225.975 181.883 225.76 181.956 225.559C182.03 225.358 182.147 225.176 182.297 225.024C182.448 224.872 182.63 224.754 182.831 224.679C183.031 224.604 183.245 224.573 183.459 224.588ZM186.906 225.136C186.907 225.207 186.894 225.278 186.868 225.343C186.842 225.409 186.802 225.469 186.752 225.519C186.702 225.57 186.642 225.609 186.576 225.635C186.51 225.662 186.44 225.675 186.369 225.673C186.294 225.684 186.218 225.679 186.145 225.658C186.073 225.637 186.005 225.6 185.948 225.551C185.891 225.502 185.845 225.44 185.814 225.372C185.782 225.303 185.766 225.228 185.766 225.153C185.766 225.077 185.782 225.003 185.814 224.934C185.845 224.865 185.891 224.804 185.948 224.755C186.005 224.705 186.073 224.669 186.145 224.648C186.218 224.627 186.294 224.621 186.369 224.632C186.437 224.629 186.506 224.64 186.57 224.664C186.634 224.688 186.693 224.724 186.743 224.771C186.793 224.818 186.833 224.875 186.861 224.937C186.889 225 186.904 225.067 186.906 225.136ZM185.999 226.848H186.727V232.254H185.999V226.848Z" fill="#263238"/>
<path d="M191.484 226.815V227.52H191.305C191.048 227.507 190.791 227.552 190.553 227.65C190.316 227.748 190.102 227.898 189.929 228.088C189.756 228.279 189.627 228.505 189.551 228.751C189.476 228.997 189.456 229.257 189.492 229.512V232.265H188.787V226.859H189.481V227.923C189.665 227.558 189.955 227.258 190.312 227.061C190.669 226.863 191.078 226.777 191.484 226.815Z" fill="#263238"/>
<path d="M201.701 229.121V232.254H200.974V229.188C200.974 228.069 200.403 227.464 199.429 227.464C199.176 227.452 198.922 227.496 198.687 227.593C198.452 227.689 198.241 227.836 198.068 228.022C197.895 228.209 197.765 228.431 197.687 228.673C197.609 228.914 197.585 229.17 197.616 229.423V232.254H196.889V229.188C196.889 228.069 196.318 227.464 195.333 227.464C195.08 227.454 194.828 227.5 194.593 227.597C194.359 227.694 194.149 227.84 193.976 228.026C193.804 228.212 193.674 228.434 193.595 228.675C193.517 228.916 193.491 229.171 193.52 229.423V232.254H192.793V226.849H193.498V227.834C193.711 227.506 194.005 227.239 194.353 227.06C194.7 226.882 195.089 226.797 195.479 226.815C195.874 226.783 196.27 226.873 196.612 227.074C196.954 227.274 197.227 227.574 197.393 227.934C197.615 227.572 197.93 227.276 198.307 227.079C198.683 226.882 199.106 226.791 199.53 226.815C199.833 226.792 200.137 226.837 200.42 226.947C200.703 227.057 200.958 227.229 201.166 227.45C201.374 227.671 201.53 227.935 201.623 228.225C201.715 228.514 201.742 228.82 201.701 229.121Z" fill="#263238"/>
<path d="M212.534 225.069V232.254H211.907L207.285 226.423V232.254H206.524V225.069H207.151L211.784 230.9V225.069H212.534Z" fill="#263238"/>
<path d="M219.417 229.781H214.941C214.955 230.045 215.021 230.303 215.136 230.541C215.251 230.779 215.412 230.991 215.61 231.166C215.808 231.341 216.039 231.475 216.289 231.56C216.539 231.645 216.803 231.679 217.067 231.661C217.377 231.671 217.686 231.612 217.97 231.488C218.255 231.364 218.508 231.179 218.712 230.945L219.126 231.426C218.738 231.831 218.24 232.113 217.693 232.236C217.146 232.36 216.574 232.319 216.05 232.12C215.526 231.92 215.072 231.571 214.746 231.115C214.419 230.659 214.234 230.117 214.213 229.557C214.193 229.201 214.247 228.845 214.37 228.511C214.494 228.176 214.685 227.871 214.932 227.614C215.178 227.357 215.475 227.153 215.804 227.016C216.133 226.878 216.487 226.81 216.843 226.815C217.199 226.808 217.553 226.875 217.882 227.012C218.212 227.149 218.509 227.353 218.755 227.611C219.001 227.869 219.191 228.175 219.313 228.51C219.434 228.845 219.485 229.201 219.462 229.557C219.428 229.613 219.417 229.691 219.417 229.781ZM214.941 229.233H218.768C218.768 228.725 218.566 228.238 218.207 227.879C217.849 227.52 217.362 227.319 216.854 227.319C216.347 227.319 215.86 227.52 215.501 227.879C215.142 228.238 214.941 228.725 214.941 229.233Z" fill="#263238"/>
<path d="M228.739 226.848L226.691 232.254H226.008L224.307 227.833L222.606 232.254H221.912L219.887 226.848H220.581L222.27 231.437L224.005 226.848H224.598L226.322 231.437L228.034 226.848H228.739Z" fill="#263238"/>
<path d="M238.308 227.531C238.308 229.064 237.189 229.982 235.365 229.982H233.44V232.22H232.679V225.035H235.365C237.2 225.069 238.308 225.987 238.308 227.531ZM237.547 227.531C237.547 226.412 236.786 225.729 235.309 225.729H233.44V229.322H235.353C236.786 229.322 237.547 228.661 237.547 227.531Z" fill="#263238"/>
<path d="M243.813 228.908V232.265H243.119V231.426C242.916 231.725 242.637 231.964 242.31 232.12C241.984 232.275 241.622 232.341 241.262 232.31C240.042 232.31 239.292 231.672 239.292 230.743C239.292 229.814 239.818 229.187 241.385 229.187H243.097V228.863C243.097 227.945 242.571 227.442 241.564 227.442C240.912 227.434 240.278 227.656 239.773 228.068L239.449 227.531C240.085 227.032 240.878 226.774 241.687 226.804C241.972 226.77 242.262 226.801 242.533 226.895C242.805 226.988 243.052 227.142 243.256 227.344C243.461 227.546 243.617 227.792 243.713 228.062C243.81 228.333 243.844 228.622 243.813 228.908ZM243.086 230.631V229.747H241.385C240.333 229.747 239.997 230.161 239.997 230.709C239.997 231.258 240.501 231.728 241.362 231.728C241.729 231.751 242.093 231.657 242.403 231.46C242.712 231.263 242.952 230.973 243.086 230.631Z" fill="#263238"/>
<path d="M245.045 231.639L245.381 231.057C245.936 231.46 246.608 231.672 247.294 231.661C248.324 231.661 248.738 231.314 248.738 230.788C248.738 229.378 245.246 230.486 245.246 228.348C245.246 227.464 246.007 226.815 247.373 226.815C248.045 226.8 248.708 226.975 249.286 227.319L248.973 227.901C248.498 227.591 247.94 227.431 247.373 227.442C246.399 227.442 245.974 227.822 245.974 228.326C245.974 229.792 249.477 228.695 249.477 230.766C249.477 231.695 248.649 232.299 247.238 232.299C246.455 232.321 245.686 232.089 245.045 231.639Z" fill="#263238"/>
<path d="M250.07 231.639L250.395 231.057C250.956 231.458 251.63 231.67 252.32 231.661C253.338 231.661 253.763 231.314 253.763 230.788C253.763 229.378 250.261 230.486 250.261 228.348C250.261 227.464 251.022 226.815 252.398 226.815C253.067 226.802 253.726 226.976 254.301 227.319L253.987 227.901C253.516 227.591 252.962 227.431 252.398 227.442C251.424 227.442 250.988 227.822 250.988 228.326C250.988 229.792 254.491 228.695 254.491 230.766C254.491 231.695 253.674 232.299 252.253 232.299C251.473 232.322 250.706 232.091 250.07 231.639Z" fill="#263238"/>
<path d="M263.657 226.848L261.609 232.254H260.926L259.225 227.833L257.524 232.254H256.83L254.815 226.848H255.509L257.199 231.437L258.934 226.848H259.561L261.284 231.437L262.996 226.848H263.657Z" fill="#263238"/>
<path d="M264.059 229.557C264.059 229.015 264.22 228.485 264.521 228.035C264.821 227.584 265.249 227.233 265.749 227.025C266.25 226.817 266.8 226.762 267.332 226.867C267.863 226.972 268.352 227.232 268.736 227.614C269.12 227.996 269.382 228.484 269.489 229.015C269.596 229.546 269.543 230.097 269.337 230.598C269.132 231.1 268.782 231.529 268.333 231.831C267.883 232.134 267.354 232.297 266.812 232.299C266.448 232.313 266.085 232.252 265.745 232.119C265.405 231.986 265.097 231.785 264.838 231.528C264.58 231.27 264.377 230.963 264.243 230.623C264.109 230.284 264.047 229.921 264.059 229.557ZM268.804 229.557C268.785 229.165 268.65 228.788 268.418 228.472C268.186 228.155 267.866 227.914 267.498 227.778C267.13 227.642 266.73 227.618 266.348 227.707C265.966 227.796 265.619 227.995 265.349 228.28C265.079 228.565 264.899 228.923 264.831 229.309C264.763 229.696 264.809 230.093 264.965 230.453C265.121 230.813 265.379 231.12 265.707 231.334C266.036 231.549 266.42 231.662 266.812 231.661C267.085 231.665 267.355 231.612 267.605 231.506C267.856 231.4 268.082 231.243 268.27 231.046C268.457 230.848 268.601 230.613 268.693 230.357C268.785 230.101 268.823 229.828 268.804 229.557Z" fill="#263238"/>
<path d="M273.751 226.815V227.52H273.583C273.326 227.508 273.069 227.552 272.831 227.65C272.593 227.749 272.38 227.898 272.207 228.089C272.034 228.279 271.905 228.505 271.829 228.751C271.753 228.998 271.733 229.257 271.77 229.512V232.265H271.031V226.86H271.736V227.923C271.921 227.557 272.213 227.255 272.572 227.058C272.932 226.86 273.342 226.775 273.751 226.815Z" fill="#263238"/>
<path d="M279.94 224.632V232.254H279.246V231.135C279.031 231.49 278.724 231.781 278.358 231.978C277.992 232.175 277.58 232.27 277.165 232.254C276.438 232.254 275.74 231.965 275.226 231.451C274.712 230.936 274.423 230.239 274.423 229.512C274.423 228.785 274.712 228.087 275.226 227.573C275.74 227.059 276.438 226.77 277.165 226.77C277.569 226.756 277.969 226.847 278.328 227.033C278.687 227.219 278.992 227.495 279.213 227.833V224.588L279.94 224.632ZM279.224 229.557C279.204 229.165 279.07 228.788 278.839 228.472C278.607 228.157 278.287 227.915 277.92 227.779C277.553 227.643 277.154 227.617 276.772 227.706C276.39 227.794 276.043 227.992 275.772 228.276C275.502 228.56 275.321 228.916 275.252 229.302C275.182 229.688 275.227 230.085 275.382 230.445C275.536 230.806 275.792 231.113 276.119 231.329C276.446 231.545 276.829 231.66 277.221 231.661C277.494 231.666 277.765 231.614 278.017 231.509C278.269 231.404 278.497 231.247 278.685 231.049C278.874 230.852 279.019 230.617 279.112 230.36C279.204 230.103 279.243 229.829 279.224 229.557Z" fill="#263238"/>
</g>
<path opacity="0.2" d="M299.738 265.682H153.31V290.751H299.738V265.682Z" fill="black"/>
<g opacity="0.5">
<path d="M154.216 157.339V159.017H156.454V159.409H154.216V161.233H153.757V156.947H156.7V157.339H154.216Z" fill="black"/>
<path d="M157.114 159.622C157.114 159.297 157.211 158.979 157.392 158.708C157.572 158.437 157.829 158.227 158.13 158.102C158.43 157.978 158.761 157.945 159.08 158.008C159.4 158.072 159.693 158.229 159.923 158.459C160.153 158.689 160.309 158.982 160.373 159.301C160.436 159.62 160.404 159.951 160.279 160.252C160.155 160.552 159.944 160.809 159.673 160.99C159.403 161.171 159.085 161.267 158.759 161.267C158.541 161.275 158.324 161.238 158.121 161.158C157.918 161.078 157.733 160.957 157.579 160.803C157.424 160.648 157.304 160.464 157.224 160.261C157.144 160.058 157.106 159.84 157.114 159.622ZM159.957 159.622C159.948 159.385 159.87 159.155 159.731 158.962C159.592 158.769 159.4 158.621 159.178 158.537C158.956 158.452 158.714 158.435 158.482 158.488C158.25 158.54 158.039 158.66 157.875 158.832C157.711 159.004 157.601 159.22 157.559 159.454C157.517 159.688 157.545 159.929 157.64 160.147C157.734 160.365 157.891 160.55 158.09 160.68C158.289 160.809 158.522 160.877 158.759 160.875C158.922 160.879 159.084 160.848 159.235 160.786C159.386 160.723 159.522 160.63 159.634 160.512C159.747 160.394 159.834 160.254 159.889 160.101C159.945 159.948 159.968 159.785 159.957 159.622Z" fill="black"/>
<path d="M162.911 157.988V158.413H162.81C162.654 158.4 162.497 158.422 162.35 158.478C162.204 158.533 162.072 158.622 161.964 158.736C161.857 158.85 161.776 158.987 161.729 159.136C161.682 159.286 161.669 159.444 161.691 159.599V161.244H161.255V158.01H161.669V158.682C161.777 158.451 161.956 158.259 162.178 158.135C162.401 158.01 162.658 157.959 162.911 157.988Z" fill="black"/>
<path d="M166.65 158.01V160.842C166.684 161.061 166.666 161.286 166.597 161.497C166.529 161.708 166.411 161.9 166.254 162.057C166.097 162.214 165.905 162.332 165.693 162.401C165.482 162.47 165.258 162.488 165.038 162.453C164.495 162.477 163.962 162.302 163.539 161.961L163.762 161.625C164.115 161.924 164.565 162.083 165.027 162.073C165.844 162.073 166.213 161.692 166.213 160.898V160.484C166.075 160.686 165.887 160.85 165.668 160.959C165.448 161.069 165.205 161.121 164.96 161.11C164.744 161.129 164.526 161.102 164.321 161.032C164.116 160.962 163.927 160.85 163.767 160.703C163.608 160.556 163.48 160.378 163.393 160.179C163.306 159.981 163.261 159.766 163.261 159.549C163.261 159.332 163.306 159.118 163.393 158.919C163.48 158.721 163.608 158.542 163.767 158.395C163.927 158.249 164.116 158.137 164.321 158.067C164.526 157.996 164.744 157.97 164.96 157.988C165.209 157.978 165.457 158.031 165.68 158.143C165.903 158.254 166.094 158.421 166.236 158.626V158.01H166.65ZM166.224 159.544C166.231 159.301 166.165 159.062 166.035 158.857C165.905 158.652 165.717 158.49 165.495 158.393C165.273 158.295 165.027 158.266 164.788 158.31C164.549 158.353 164.329 158.466 164.155 158.636C163.981 158.805 163.861 159.022 163.811 159.259C163.761 159.497 163.783 159.744 163.875 159.969C163.966 160.194 164.122 160.386 164.324 160.522C164.525 160.657 164.762 160.73 165.005 160.73C165.166 160.745 165.328 160.725 165.48 160.671C165.633 160.617 165.772 160.531 165.888 160.418C166.004 160.305 166.094 160.169 166.152 160.018C166.21 159.867 166.235 159.705 166.224 159.544Z" fill="black"/>
<path d="M167.522 159.622C167.522 159.297 167.618 158.979 167.799 158.708C167.98 158.437 168.236 158.227 168.537 158.102C168.838 157.978 169.169 157.945 169.488 158.008C169.807 158.072 170.1 158.229 170.33 158.459C170.56 158.689 170.717 158.982 170.78 159.301C170.844 159.62 170.811 159.951 170.687 160.252C170.562 160.552 170.351 160.809 170.081 160.99C169.81 161.171 169.492 161.267 169.167 161.267C168.949 161.275 168.731 161.238 168.528 161.158C168.325 161.078 168.14 160.957 167.986 160.803C167.832 160.648 167.711 160.464 167.631 160.261C167.551 160.058 167.514 159.84 167.522 159.622ZM170.364 159.622C170.353 159.388 170.274 159.162 170.136 158.973C169.998 158.783 169.807 158.638 169.587 158.556C169.368 158.474 169.129 158.458 168.901 158.511C168.672 158.563 168.464 158.681 168.302 158.851C168.14 159.02 168.032 159.233 167.99 159.464C167.948 159.695 167.975 159.933 168.067 160.148C168.159 160.364 168.312 160.548 168.508 160.677C168.703 160.806 168.932 160.875 169.167 160.875C169.332 160.882 169.496 160.854 169.649 160.793C169.802 160.732 169.941 160.639 170.056 160.521C170.171 160.403 170.26 160.261 170.317 160.107C170.374 159.952 170.398 159.787 170.387 159.622H170.364Z" fill="black"/>
<path d="M173.42 161.043C173.223 161.191 172.983 161.27 172.737 161.267C172.61 161.281 172.481 161.267 172.361 161.225C172.24 161.182 172.131 161.114 172.041 161.023C171.95 160.933 171.881 160.824 171.839 160.703C171.797 160.583 171.783 160.454 171.797 160.327V158.38H171.215V158.01H171.797V157.305H172.233V158.01H173.207V158.38H172.233V160.305C172.233 160.685 172.424 160.887 172.782 160.887C172.955 160.89 173.125 160.835 173.263 160.73L173.42 161.043Z" fill="black"/>
<path d="M179.274 158.413C179.274 159.331 178.603 159.879 177.517 159.879H176.398V161.233H175.939V156.947H177.551C178.603 156.947 179.274 157.495 179.274 158.413ZM178.816 158.413C178.816 157.73 178.368 157.294 177.506 157.294H176.387V159.432H177.506C178.368 159.476 178.816 159.085 178.816 158.413Z" fill="black"/>
<path d="M182.563 159.241V161.234H182.149V160.73C182.028 160.911 181.86 161.057 181.663 161.151C181.466 161.246 181.248 161.286 181.03 161.267C180.291 161.267 179.844 160.887 179.844 160.327C179.844 159.767 180.168 159.409 181.097 159.409H182.116V159.219C182.125 159.1 182.108 158.98 182.065 158.869C182.022 158.757 181.954 158.657 181.867 158.575C181.78 158.494 181.676 158.433 181.562 158.397C181.448 158.361 181.327 158.351 181.209 158.369C180.801 158.349 180.401 158.485 180.09 158.749L179.889 158.424C180.26 158.13 180.724 157.976 181.198 157.988C181.376 157.946 181.561 157.948 181.738 157.994C181.915 158.04 182.078 158.129 182.213 158.252C182.348 158.376 182.45 158.531 182.511 158.703C182.572 158.876 182.59 159.061 182.563 159.241ZM182.127 160.271V159.734H181.12C180.493 159.734 180.291 159.98 180.291 160.316C180.291 160.652 180.594 160.92 181.108 160.92C181.325 160.933 181.54 160.877 181.723 160.761C181.906 160.644 182.047 160.473 182.127 160.271Z" fill="black"/>
<path d="M183.302 160.92L183.503 160.584C183.83 160.817 184.221 160.942 184.622 160.942C185.238 160.942 185.484 160.73 185.484 160.416C185.484 159.577 183.391 160.237 183.391 158.961C183.391 158.435 183.85 158.044 184.667 158.044C185.061 158.038 185.449 158.142 185.786 158.346L185.596 158.693C185.316 158.502 184.983 158.404 184.645 158.413C184.063 158.413 183.805 158.637 183.805 158.95C183.805 159.823 185.898 159.163 185.898 160.405C185.898 160.965 185.406 161.323 184.566 161.323C184.113 161.327 183.67 161.186 183.302 160.92Z" fill="black"/>
<path d="M186.301 160.92L186.502 160.584C186.83 160.816 187.22 160.941 187.621 160.942C188.237 160.942 188.483 160.73 188.483 160.416C188.483 159.577 186.401 160.237 186.401 158.961C186.401 158.435 186.849 158.044 187.666 158.044C188.06 158.038 188.448 158.142 188.785 158.346L188.595 158.693C188.315 158.502 187.982 158.404 187.644 158.413C187.062 158.413 186.804 158.637 186.804 158.95C186.804 159.823 188.897 159.163 188.897 160.405C188.897 160.965 188.405 161.323 187.565 161.323C187.112 161.327 186.669 161.186 186.301 160.92Z" fill="black"/>
<path d="M194.381 158.01L193.262 161.233H192.848L191.83 158.592L190.811 161.233H190.397L189.188 158.01H189.603L190.61 160.752L191.651 158.01H192.02L193.05 160.752L194.079 158.01H194.381Z" fill="black"/>
<path d="M194.661 159.622C194.661 159.297 194.758 158.979 194.938 158.708C195.119 158.437 195.376 158.227 195.677 158.102C195.977 157.978 196.308 157.945 196.627 158.008C196.946 158.072 197.24 158.229 197.47 158.459C197.7 158.689 197.856 158.982 197.92 159.301C197.983 159.62 197.951 159.951 197.826 160.252C197.702 160.552 197.491 160.809 197.22 160.99C196.95 161.171 196.632 161.267 196.306 161.267C196.088 161.275 195.871 161.238 195.668 161.158C195.464 161.078 195.28 160.957 195.126 160.803C194.971 160.648 194.85 160.464 194.77 160.261C194.691 160.058 194.653 159.84 194.661 159.622ZM197.504 159.622C197.493 159.388 197.413 159.162 197.275 158.973C197.137 158.783 196.947 158.638 196.727 158.556C196.508 158.474 196.269 158.458 196.04 158.511C195.812 158.563 195.604 158.681 195.442 158.851C195.28 159.02 195.171 159.233 195.129 159.464C195.088 159.695 195.114 159.933 195.206 160.148C195.298 160.364 195.452 160.548 195.647 160.677C195.843 160.806 196.072 160.875 196.306 160.875C196.469 160.879 196.631 160.848 196.782 160.786C196.932 160.723 197.068 160.63 197.181 160.512C197.294 160.394 197.38 160.254 197.436 160.101C197.492 159.948 197.515 159.785 197.504 159.622Z" fill="black"/>
<path d="M200.459 157.988V158.413H200.358C200.202 158.4 200.045 158.422 199.898 158.478C199.751 158.533 199.619 158.622 199.512 158.736C199.404 158.85 199.324 158.987 199.277 159.136C199.229 159.286 199.216 159.444 199.239 159.599V161.244H198.858V158.01H199.272V158.682C199.378 158.46 199.547 158.276 199.759 158.152C199.97 158.028 200.214 157.971 200.459 157.988Z" fill="black"/>
<path d="M204.162 156.69V161.233H203.737V160.596C203.61 160.809 203.427 160.984 203.209 161.103C202.99 161.221 202.743 161.278 202.495 161.267C202.083 161.233 201.7 161.045 201.42 160.742C201.141 160.438 200.985 160.04 200.985 159.627C200.985 159.215 201.141 158.817 201.42 158.513C201.7 158.209 202.083 158.022 202.495 157.988C202.737 157.98 202.978 158.035 203.193 158.147C203.409 158.258 203.592 158.423 203.726 158.626V156.69H204.162ZM203.726 159.622C203.715 159.388 203.636 159.162 203.498 158.972C203.359 158.783 203.169 158.638 202.949 158.556C202.73 158.474 202.491 158.458 202.262 158.511C202.034 158.563 201.826 158.681 201.664 158.851C201.502 159.02 201.393 159.233 201.352 159.464C201.31 159.695 201.336 159.932 201.428 160.148C201.521 160.364 201.674 160.547 201.869 160.677C202.065 160.806 202.294 160.875 202.528 160.875C202.691 160.879 202.853 160.848 203.004 160.786C203.155 160.723 203.291 160.63 203.403 160.512C203.516 160.394 203.603 160.254 203.658 160.101C203.714 159.948 203.737 159.785 203.726 159.622Z" fill="black"/>
<path d="M207.33 158.044C207.33 157.596 206.972 157.294 206.345 157.294C206.125 157.279 205.904 157.316 205.7 157.401C205.496 157.487 205.314 157.619 205.17 157.786L204.846 157.54C205.036 157.324 205.273 157.155 205.539 157.044C205.804 156.933 206.092 156.885 206.379 156.902C207.229 156.902 207.789 157.316 207.789 158.021C207.789 159.062 206.67 159.141 206.67 159.991H206.222C206.211 158.939 207.33 158.838 207.33 158.044ZM206.122 160.92C206.135 160.846 206.175 160.779 206.233 160.73C206.292 160.682 206.365 160.656 206.44 160.656C206.516 160.656 206.589 160.682 206.648 160.73C206.706 160.779 206.745 160.846 206.759 160.92C206.768 160.967 206.767 161.015 206.755 161.061C206.743 161.108 206.721 161.151 206.69 161.187C206.66 161.224 206.622 161.254 206.578 161.274C206.535 161.294 206.488 161.305 206.44 161.305C206.393 161.305 206.346 161.294 206.302 161.274C206.259 161.254 206.221 161.224 206.191 161.187C206.16 161.151 206.138 161.108 206.126 161.061C206.114 161.015 206.113 160.967 206.122 160.92Z" fill="black"/>
</g>
<path d="M299.738 264.138H153.31V289.207H299.738V264.138Z" fill="#0C7489"/>
<path d="M185.239 279.549L185.698 278.587C186.495 279.242 187.498 279.595 188.53 279.583C190.007 279.583 190.645 279.012 190.645 278.262C190.645 276.169 185.452 277.49 185.452 274.3C185.452 272.98 186.481 271.85 188.731 271.85C189.707 271.831 190.667 272.096 191.495 272.611L191.092 273.584C190.386 273.137 189.567 272.896 188.731 272.89C187.276 272.89 186.649 273.506 186.649 274.256C186.649 276.348 191.853 275.039 191.853 278.184C191.853 279.504 190.734 280.624 188.496 280.624C187.319 280.654 186.168 280.274 185.239 279.549Z" fill="white"/>
<path d="M199.318 277.713H194.047C194.13 278.269 194.419 278.773 194.856 279.125C195.294 279.478 195.848 279.653 196.408 279.616C196.758 279.627 197.105 279.563 197.428 279.427C197.75 279.292 198.04 279.089 198.277 278.832L198.926 279.593C198.449 280.081 197.84 280.42 197.175 280.569C196.509 280.718 195.814 280.672 195.174 280.435C194.534 280.199 193.976 279.782 193.568 279.236C193.159 278.689 192.917 278.036 192.872 277.355C192.848 276.917 192.916 276.478 193.07 276.067C193.224 275.656 193.462 275.281 193.767 274.966C194.073 274.651 194.441 274.402 194.847 274.235C195.253 274.069 195.689 273.988 196.128 273.998C196.566 273.986 197.001 274.065 197.406 274.232C197.811 274.398 198.176 274.648 198.479 274.964C198.782 275.28 199.015 275.657 199.163 276.068C199.311 276.48 199.372 276.919 199.34 277.355C199.34 277.456 199.329 277.601 199.318 277.713ZM194.047 276.874H198.221C198.157 276.366 197.909 275.899 197.525 275.56C197.141 275.222 196.646 275.035 196.134 275.035C195.622 275.035 195.127 275.222 194.743 275.56C194.359 275.899 194.111 276.366 194.047 276.874Z" fill="white"/>
<path d="M204.634 280.198C204.225 280.505 203.724 280.663 203.213 280.646C202.936 280.677 202.657 280.646 202.394 280.556C202.131 280.465 201.892 280.316 201.695 280.121C201.497 279.925 201.346 279.688 201.252 279.426C201.159 279.165 201.125 278.885 201.153 278.609V275.072H200.034V274.11H201.153V272.688H202.328V274.11H204.197V275.072H202.328V278.598C202.302 278.742 202.309 278.89 202.35 279.031C202.39 279.171 202.462 279.301 202.561 279.409C202.659 279.518 202.781 279.602 202.918 279.655C203.054 279.708 203.201 279.729 203.347 279.717C203.679 279.725 204.003 279.618 204.265 279.415L204.634 280.198Z" fill="white"/>
<path d="M216.463 274.983C216.463 276.852 215.108 277.971 212.881 277.971H210.755V280.579H209.535V271.995H212.893C215.108 271.995 216.463 273.114 216.463 274.983ZM215.232 274.983C215.232 273.752 214.415 273.058 212.848 273.058H210.755V276.908H212.848C214.415 276.908 215.232 276.192 215.232 274.983Z" fill="white"/>
<path d="M223.19 276.65V280.578H222.071V279.717C221.821 280.038 221.494 280.292 221.121 280.454C220.747 280.616 220.339 280.682 219.933 280.645C218.467 280.645 217.538 279.862 217.538 278.732C217.538 277.601 218.21 276.829 220.146 276.829H222.015V276.605C222.015 275.609 221.433 275.027 220.269 275.027C219.523 275.027 218.799 275.275 218.21 275.732L217.717 274.848C218.494 274.278 219.439 273.983 220.403 274.009C222.183 274.009 223.19 274.871 223.19 276.65ZM222.015 278.586V277.68H220.19C219.071 277.68 218.702 278.139 218.702 278.687C218.702 279.235 219.239 279.739 220.135 279.739C220.529 279.768 220.923 279.672 221.26 279.465C221.597 279.258 221.861 278.951 222.015 278.586Z" fill="white"/>
<path d="M224.6 279.885L225.092 278.956C225.759 279.389 226.535 279.622 227.33 279.627C228.449 279.627 228.875 279.303 228.875 278.743C228.875 277.288 224.767 278.553 224.767 275.968C224.767 274.848 225.808 274.009 227.476 274.009C228.305 273.994 229.124 274.199 229.848 274.602L229.345 275.531C228.783 275.177 228.128 274.998 227.465 275.016C226.435 275.016 225.931 275.397 225.931 275.912C225.931 277.445 230.061 276.191 230.061 278.721C230.061 279.896 228.942 280.646 227.252 280.646C226.311 280.668 225.386 280.402 224.6 279.885Z" fill="white"/>
<path d="M230.699 279.885L231.192 278.956C231.858 279.389 232.635 279.622 233.43 279.627C234.549 279.627 234.974 279.303 234.974 278.743C234.974 277.288 230.867 278.553 230.867 275.968C230.867 274.848 231.908 274.009 233.575 274.009C234.401 273.996 235.215 274.201 235.937 274.602L235.433 275.531C234.874 275.18 234.224 275 233.564 275.016C232.535 275.016 232.031 275.397 232.031 275.912C232.031 277.445 236.149 276.191 236.149 278.721C236.149 279.896 235.03 280.646 233.34 280.646C232.403 280.664 231.483 280.399 230.699 279.885Z" fill="white"/>
<path d="M247.374 274.076L244.946 280.578H243.827L241.946 275.643L240.044 280.578H238.925L236.519 274.076H237.638L239.529 279.247L241.488 274.076H242.506L244.431 279.269L246.367 274.076H247.374Z" fill="white"/>
<path d="M247.789 277.31C247.789 276.646 247.985 275.997 248.354 275.445C248.723 274.893 249.248 274.463 249.861 274.208C250.475 273.954 251.15 273.888 251.801 274.017C252.452 274.147 253.05 274.467 253.52 274.936C253.99 275.406 254.309 276.004 254.439 276.655C254.568 277.307 254.502 277.982 254.248 278.595C253.994 279.209 253.563 279.733 253.011 280.102C252.459 280.471 251.81 280.668 251.146 280.668C250.7 280.685 250.256 280.61 249.841 280.447C249.426 280.285 249.049 280.038 248.733 279.723C248.418 279.408 248.171 279.031 248.009 278.615C247.846 278.2 247.771 277.756 247.789 277.31ZM253.384 277.31C253.373 276.868 253.231 276.439 252.976 276.077C252.721 275.715 252.364 275.437 251.951 275.278C251.538 275.119 251.087 275.086 250.655 275.183C250.223 275.281 249.83 275.504 249.525 275.824C249.22 276.145 249.017 276.549 248.941 276.985C248.866 277.421 248.921 277.87 249.101 278.275C249.28 278.679 249.576 279.021 249.95 279.258C250.324 279.495 250.759 279.615 251.202 279.605C251.498 279.608 251.792 279.551 252.065 279.435C252.338 279.319 252.583 279.148 252.786 278.932C252.99 278.717 253.146 278.461 253.245 278.182C253.344 277.903 253.384 277.606 253.362 277.31H253.384Z" fill="white"/>
<path d="M259.674 274.009V275.128H259.405C259.114 275.108 258.823 275.153 258.552 275.261C258.281 275.37 258.038 275.538 257.841 275.753C257.644 275.968 257.498 276.225 257.414 276.504C257.331 276.784 257.311 277.079 257.357 277.367V280.612H256.238V274.11H257.357V275.229C257.592 274.83 257.933 274.505 258.342 274.289C258.751 274.074 259.213 273.977 259.674 274.009Z" fill="white"/>
<path d="M267.194 271.48V280.578H266.075V279.549C265.809 279.91 265.459 280.201 265.055 280.396C264.651 280.591 264.206 280.684 263.758 280.668C262.966 280.546 262.243 280.144 261.721 279.535C261.199 278.927 260.912 278.151 260.912 277.35C260.912 276.548 261.199 275.772 261.721 275.164C262.243 274.555 262.966 274.153 263.758 274.031C264.187 274.021 264.613 274.11 265.002 274.293C265.39 274.476 265.731 274.746 265.996 275.083V271.502L267.194 271.48ZM266.008 277.31C265.996 276.868 265.854 276.439 265.599 276.077C265.344 275.715 264.987 275.437 264.574 275.278C264.161 275.119 263.71 275.086 263.279 275.183C262.847 275.281 262.453 275.504 262.148 275.824C261.843 276.145 261.64 276.549 261.565 276.985C261.489 277.421 261.545 277.87 261.724 278.275C261.904 278.679 262.199 279.022 262.573 279.258C262.947 279.495 263.383 279.616 263.825 279.605C264.123 279.612 264.42 279.556 264.695 279.442C264.971 279.328 265.219 279.157 265.425 278.941C265.63 278.725 265.788 278.468 265.889 278.187C265.989 277.907 266.03 277.608 266.008 277.31Z" fill="white"/>
<g opacity="0.6">
<path d="M180.292 93.9614L178.266 91.0741C178.076 91.0741 177.875 91.0741 177.673 91.0741H175.357V93.9279H174.014V84.5271H177.673C180.113 84.5271 181.59 85.7693 181.59 87.8062C181.621 88.4582 181.436 89.1023 181.064 89.6385C180.692 90.1747 180.153 90.5731 179.531 90.7719L181.769 93.9279L180.292 93.9614ZM180.292 87.8397C180.292 86.4968 179.397 85.7358 177.673 85.7358H175.435V89.9661H177.673C179.352 89.9661 180.247 89.1827 180.247 87.8397H180.292Z" fill="#263238"/>
<path d="M189.983 90.8391H184.22C184.301 91.4487 184.614 92.0037 185.093 92.3891C185.572 92.7745 186.181 92.9609 186.794 92.9095C187.176 92.9239 187.557 92.8554 187.911 92.7086C188.265 92.5617 188.582 92.3401 188.842 92.059L189.558 92.8871C189.033 93.4209 188.364 93.7908 187.633 93.9523C186.902 94.1138 186.14 94.0598 185.438 93.7969C184.737 93.5339 184.127 93.0734 183.683 92.4709C183.238 91.8685 182.978 91.1501 182.933 90.4026C182.913 89.9258 182.991 89.45 183.162 89.0047C183.334 88.5594 183.595 88.1541 183.93 87.814C184.265 87.474 184.666 87.2064 185.109 87.0279C185.551 86.8495 186.026 86.7639 186.503 86.7766C186.978 86.765 187.45 86.852 187.89 87.0323C188.33 87.2126 188.728 87.4822 189.058 87.8241C189.388 88.1659 189.644 88.5726 189.809 89.0184C189.974 89.4641 190.045 89.9393 190.017 90.4138C190.018 90.5563 190.007 90.6986 189.983 90.8391ZM184.22 89.9102H188.786C188.786 89.3062 188.546 88.7269 188.119 88.2998C187.692 87.8727 187.112 87.6328 186.508 87.6328C185.904 87.6328 185.325 87.8727 184.898 88.2998C184.471 88.7269 184.231 89.3062 184.231 89.9102H184.22Z" fill="#263238"/>
<path d="M190.9 93.212L191.438 92.1936C192.182 92.6737 193.048 92.9301 193.933 92.9322C195.131 92.9322 195.623 92.5629 195.623 91.9586C195.623 90.3694 191.147 91.7459 191.147 88.9145C191.147 87.6387 192.266 86.7769 194.112 86.7769C195.016 86.7636 195.907 86.9874 196.698 87.426L196.149 88.4445C195.535 88.0633 194.824 87.8689 194.101 87.8849C192.982 87.8849 192.422 88.299 192.422 88.8585C192.422 90.5372 196.899 89.1719 196.899 91.9362C196.899 93.2232 195.713 94.0402 193.821 94.0402C192.786 94.0647 191.768 93.776 190.9 93.212Z" fill="#263238"/>
<path d="M204.935 90.8392H199.161C199.247 91.4464 199.561 91.9982 200.039 92.3826C200.517 92.7671 201.123 92.9554 201.735 92.9096C202.119 92.9241 202.502 92.8557 202.857 92.7089C203.213 92.5621 203.532 92.3405 203.794 92.059L204.51 92.8872C204.151 93.2661 203.714 93.5624 203.229 93.7556C202.744 93.9489 202.223 94.0344 201.701 94.0063C201.205 94.0441 200.707 93.9773 200.238 93.8104C199.769 93.6435 199.341 93.3802 198.98 93.0375C198.619 92.6948 198.334 92.2802 198.144 91.8206C197.953 91.361 197.861 90.8665 197.874 90.3691C197.855 89.8928 197.935 89.4176 198.107 88.973C198.279 88.5285 198.54 88.1239 198.875 87.7841C199.209 87.4444 199.61 87.1768 200.052 86.9978C200.493 86.8187 200.967 86.7321 201.444 86.7431C201.922 86.7293 202.399 86.8161 202.842 86.9978C203.285 87.1796 203.685 87.4522 204.016 87.7981C204.347 88.144 204.602 88.5556 204.764 89.0061C204.927 89.4567 204.993 89.9363 204.958 90.4139C204.958 90.5482 204.947 90.7161 204.935 90.8392ZM199.161 89.9103H203.727C203.671 89.3438 203.406 88.8184 202.984 88.4362C202.562 88.054 202.013 87.8424 201.444 87.8424C200.874 87.8424 200.326 88.054 199.904 88.4362C199.482 88.8184 199.217 89.3438 199.161 89.9103Z" fill="#263238"/>
<path d="M210.755 93.5475C210.309 93.8854 209.76 94.0592 209.2 94.04C208.898 94.0716 208.593 94.0355 208.307 93.9342C208.021 93.8329 207.762 93.669 207.547 93.4545C207.333 93.24 207.169 92.9803 207.067 92.6943C206.966 92.4084 206.93 92.1034 206.962 91.8017V87.8959H205.753V86.8327H206.962V85.2771H208.249V86.8327H210.285V87.8959H208.249V91.7457C208.226 91.9014 208.239 92.0601 208.287 92.21C208.334 92.36 208.414 92.4975 208.522 92.6124C208.629 92.7273 208.761 92.8166 208.907 92.8739C209.054 92.9311 209.211 92.9548 209.368 92.9432C209.731 92.9448 210.085 92.8269 210.375 92.6075L210.755 93.5475Z" fill="#263238"/>
<path d="M223.693 87.8399C223.693 89.8767 222.216 91.119 219.776 91.119H217.459V93.9616H216.116V84.5608H219.776C222.216 84.5608 223.693 85.803 223.693 87.8399ZM222.35 87.8399C222.35 86.4969 221.454 85.7359 219.731 85.7359H217.493V89.9439H219.731C221.454 89.9439 222.361 89.1828 222.361 87.8399H222.35Z" fill="#263238"/>
<path d="M231.057 89.6641V93.9616H229.837V93.0215C229.565 93.375 229.208 93.6538 228.799 93.8319C228.39 94.0099 227.942 94.0815 227.498 94.0399C225.887 94.0399 224.868 93.1782 224.868 91.9471C224.868 90.7161 225.607 89.8655 227.722 89.8655H229.77V89.6081C229.77 88.489 229.132 87.8959 227.856 87.8959C227.046 87.8888 226.256 88.1571 225.618 88.6569L225.081 87.6944C225.932 87.0687 226.968 86.7456 228.024 86.7767C229.96 86.7767 231.057 87.7168 231.057 89.6641ZM229.77 91.7905V90.7944H227.778C226.502 90.7944 226.144 91.2868 226.144 91.9136C226.144 92.5403 226.737 93.0327 227.711 93.0327C228.141 93.0675 228.571 92.9663 228.941 92.7434C229.31 92.5205 229.6 92.1872 229.77 91.7905Z" fill="#263238"/>
<path d="M232.545 93.2119L233.082 92.1935C233.826 92.6736 234.692 92.93 235.578 92.9321C236.775 92.9321 237.279 92.5628 237.279 91.9584C237.279 90.3693 232.802 91.7458 232.802 88.9144C232.802 87.6386 233.921 86.7768 235.768 86.7768C236.672 86.7619 237.564 86.9859 238.353 87.4259L237.805 88.4443C237.191 88.062 236.48 87.8675 235.757 87.8848C234.638 87.8848 234.078 88.2989 234.078 88.8584C234.078 90.5371 238.555 89.1718 238.555 91.9361C238.555 93.2231 237.368 94.04 235.477 94.04C234.439 94.0648 233.417 93.7762 232.545 93.2119Z" fill="#263238"/>
<path d="M239.281 93.212L239.818 92.1936C240.562 92.6749 241.428 92.9314 242.314 92.9322C243.5 92.9322 244.004 92.5629 244.004 91.9585C244.004 90.3694 239.527 91.7459 239.527 88.9145C239.527 87.6387 240.647 86.7769 242.493 86.7769C243.4 86.7638 244.295 86.9875 245.09 87.426L244.53 88.4444C243.917 88.0621 243.205 87.8676 242.482 87.8849C241.363 87.8849 240.803 88.2989 240.803 88.8585C240.803 90.5372 245.28 89.1719 245.28 91.9362C245.28 93.2232 244.094 94.0401 242.202 94.0401C241.167 94.0668 240.148 93.778 239.281 93.212Z" fill="#263238"/>
<path d="M257.535 86.844L254.883 93.9617H253.697L251.649 88.5675L249.567 93.9617H248.325L245.684 86.844H246.903L248.974 92.518L251.123 86.844H252.242L254.346 92.5404L256.472 86.844H257.535Z" fill="#263238"/>
<path d="M257.983 90.4141C257.969 89.6787 258.175 88.956 258.574 88.3381C258.973 87.7201 259.547 87.2349 260.222 86.9442C260.898 86.6535 261.645 86.5705 262.368 86.7058C263.091 86.841 263.757 87.1884 264.282 87.7037C264.807 88.219 265.166 88.8788 265.315 89.5992C265.463 90.3195 265.394 91.0678 265.115 91.7486C264.837 92.4294 264.362 93.0119 263.752 93.422C263.141 93.8321 262.423 94.0512 261.687 94.0513C261.201 94.073 260.715 93.9942 260.26 93.82C259.805 93.6458 259.391 93.3798 259.044 93.0385C258.696 92.6973 258.423 92.2882 258.24 91.8367C258.058 91.3852 257.97 90.9009 257.983 90.4141ZM264.082 90.4141C264.06 89.9458 263.901 89.4942 263.625 89.1154C263.349 88.7365 262.968 88.447 262.529 88.2828C262.09 88.1186 261.612 88.0868 261.155 88.1915C260.698 88.2962 260.282 88.5326 259.958 88.8716C259.634 89.2106 259.417 89.6371 259.333 90.0984C259.249 90.5597 259.303 91.0354 259.487 91.4665C259.671 91.8976 259.978 92.2653 260.369 92.5238C260.76 92.7823 261.218 92.9204 261.687 92.921C262.014 92.9296 262.338 92.8698 262.64 92.7454C262.942 92.6209 263.215 92.4347 263.44 92.1985C263.666 91.9624 263.84 91.6816 263.95 91.3742C264.061 91.0669 264.106 90.7398 264.082 90.4141Z" fill="#263238"/>
<path d="M270.998 86.7767V88.0301H270.696C270.383 88.009 270.069 88.0579 269.777 88.1731C269.485 88.2883 269.223 88.467 269.008 88.6963C268.794 88.9256 268.633 89.1996 268.538 89.4987C268.443 89.7977 268.416 90.1141 268.458 90.4251V93.9728H267.126V86.8551H268.357V88.0525C268.63 87.6107 269.024 87.2559 269.492 87.0299C269.96 86.8039 270.482 86.7161 270.998 86.7767Z" fill="#263238"/>
<path d="M279.226 84.0012V93.9615H277.995V92.8424C277.702 93.2355 277.317 93.5511 276.874 93.7617C276.431 93.9724 275.944 94.0717 275.454 94.0511C274.526 93.9995 273.652 93.5944 273.014 92.919C272.375 92.2436 272.019 91.3492 272.019 90.4195C272.019 89.4897 272.375 88.5953 273.014 87.9199C273.652 87.2445 274.526 86.8394 275.454 86.7878C275.927 86.7685 276.397 86.8596 276.829 87.0539C277.26 87.2482 277.64 87.5402 277.939 87.907V83.99L279.226 84.0012ZM277.95 90.4139C277.928 89.9451 277.769 89.4931 277.492 89.114C277.215 88.735 276.834 88.4455 276.394 88.2816C275.954 88.1177 275.476 88.0867 275.019 88.1922C274.561 88.2978 274.145 88.5354 273.822 88.8755C273.498 89.2155 273.282 89.6431 273.2 90.1051C273.117 90.5671 273.172 91.0431 273.358 91.474C273.544 91.9049 273.852 92.2718 274.245 92.529C274.637 92.7862 275.097 92.9224 275.566 92.9207C275.892 92.9278 276.215 92.8668 276.516 92.7417C276.816 92.6166 277.087 92.4301 277.312 92.1941C277.536 91.9581 277.709 91.6779 277.819 91.3713C277.929 91.0648 277.973 90.7387 277.95 90.4139Z" fill="#263238"/>
</g>
<path d="M299.738 179.005H153.31V204.074H299.738V179.005Z" fill="white"/>
<g opacity="0.4">
<path d="M167.334 187.455V194.64H166.707L162.085 188.809V194.64H161.324V187.455H161.929L166.562 193.286V187.455H167.334Z" fill="#263238"/>
<path d="M174.238 192.166H169.762C169.776 192.43 169.843 192.688 169.958 192.926C170.072 193.164 170.234 193.377 170.431 193.552C170.629 193.727 170.86 193.86 171.11 193.945C171.36 194.03 171.625 194.065 171.888 194.047C172.197 194.056 172.505 193.998 172.789 193.877C173.073 193.755 173.327 193.572 173.533 193.342L173.947 193.812C173.56 194.217 173.061 194.498 172.514 194.622C171.967 194.745 171.396 194.704 170.872 194.505C170.347 194.306 169.894 193.956 169.567 193.501C169.24 193.045 169.055 192.503 169.034 191.943C169.014 191.587 169.068 191.231 169.191 190.896C169.315 190.562 169.506 190.257 169.753 190C170 189.742 170.297 189.539 170.625 189.401C170.954 189.264 171.308 189.196 171.664 189.201C172.021 189.194 172.375 189.261 172.704 189.398C173.033 189.535 173.33 189.739 173.576 189.996C173.822 190.254 174.012 190.56 174.134 190.895C174.256 191.23 174.306 191.587 174.283 191.943C174.238 192.01 174.238 192.088 174.238 192.166ZM169.762 191.629H173.589C173.589 191.122 173.388 190.635 173.029 190.276C172.67 189.917 172.183 189.715 171.676 189.715C171.168 189.715 170.681 189.917 170.322 190.276C169.963 190.635 169.762 191.122 169.762 191.629Z" fill="#263238"/>
<path d="M183.54 189.245L181.503 194.64H180.809L179.108 190.219L177.407 194.64H176.713L174.688 189.245H175.359L177.049 193.834L178.784 189.245H179.41L181.134 193.834L182.846 189.245H183.54Z" fill="#263238"/>
<path d="M193.108 189.917C193.108 191.45 191.989 192.379 190.176 192.379H188.24V194.617H187.479V187.432H190.176C192 187.455 193.108 188.384 193.108 189.917ZM192.347 189.917C192.347 188.798 191.586 188.115 190.108 188.115H188.195V191.707H190.108C191.586 191.707 192.347 191.047 192.347 189.917Z" fill="#263238"/>
<path d="M198.614 191.294V194.651H197.92V193.812C197.72 194.114 197.442 194.357 197.115 194.515C196.788 194.673 196.424 194.739 196.062 194.707C194.843 194.707 194.093 194.069 194.093 193.14C194.093 192.211 194.63 191.607 196.174 191.607H197.887V191.282C197.906 191.081 197.88 190.879 197.809 190.69C197.738 190.501 197.624 190.331 197.477 190.192C197.33 190.054 197.154 189.951 196.961 189.892C196.768 189.832 196.564 189.818 196.365 189.85C195.707 189.838 195.067 190.065 194.563 190.488L194.238 189.939C194.875 189.44 195.668 189.182 196.477 189.212C196.761 189.177 197.049 189.207 197.32 189.298C197.592 189.39 197.839 189.541 198.044 189.74C198.249 189.94 198.407 190.183 198.506 190.452C198.604 190.721 198.641 191.009 198.614 191.294ZM197.887 193.017V192.133H196.197C195.145 192.133 194.809 192.547 194.809 193.107C194.809 193.666 195.313 194.125 196.174 194.125C196.541 194.147 196.904 194.051 197.212 193.851C197.52 193.652 197.756 193.36 197.887 193.017Z" fill="#263238"/>
<path d="M199.845 194.024L200.18 193.453C200.738 193.852 201.408 194.064 202.094 194.058C203.124 194.058 203.549 193.711 203.549 193.174C203.549 191.763 200.046 192.883 200.046 190.745C200.046 189.861 200.807 189.201 202.184 189.201C202.852 189.193 203.509 189.367 204.086 189.704L203.773 190.286C203.301 189.978 202.747 189.818 202.184 189.827C201.199 189.827 200.774 190.208 200.774 190.723C200.774 192.178 204.277 191.081 204.277 193.151C204.277 194.091 203.448 194.696 202.038 194.696C201.254 194.714 200.484 194.479 199.845 194.024Z" fill="#263238"/>
<path d="M204.87 194.024L205.195 193.453C205.759 193.847 206.431 194.058 207.12 194.058C208.138 194.058 208.563 193.711 208.563 193.174C208.563 191.763 205.06 192.883 205.06 190.745C205.06 189.861 205.821 189.201 207.198 189.201C207.869 189.195 208.53 189.368 209.112 189.704L208.787 190.286C208.316 189.975 207.762 189.815 207.198 189.827C206.224 189.827 205.788 190.208 205.788 190.723C205.788 192.178 209.291 191.081 209.291 193.151C209.291 194.091 208.474 194.696 207.052 194.696C206.271 194.716 205.505 194.48 204.87 194.024Z" fill="#263238"/>
<path d="M218.456 189.245L216.419 194.64H215.726L214.024 190.219L212.29 194.64H211.596L209.57 189.245H210.264L211.954 193.834L213.689 189.245H214.315L216.039 193.834L217.751 189.245H218.456Z" fill="#263238"/>
<path d="M218.858 191.943C218.861 191.401 219.023 190.873 219.325 190.423C219.627 189.974 220.056 189.625 220.556 189.418C221.057 189.212 221.607 189.159 222.138 189.265C222.669 189.371 223.156 189.632 223.539 190.015C223.922 190.398 224.183 190.885 224.289 191.416C224.395 191.947 224.342 192.497 224.136 192.998C223.929 193.498 223.58 193.927 223.131 194.229C222.681 194.531 222.153 194.693 221.612 194.696C221.246 194.71 220.882 194.648 220.541 194.515C220.201 194.382 219.892 194.179 219.633 193.921C219.375 193.662 219.172 193.353 219.039 193.013C218.906 192.672 218.844 192.308 218.858 191.943ZM223.604 191.943C223.584 191.551 223.45 191.173 223.217 190.857C222.985 190.541 222.665 190.3 222.297 190.164C221.929 190.028 221.529 190.003 221.147 190.093C220.765 190.182 220.418 190.381 220.148 190.666C219.878 190.951 219.698 191.309 219.63 191.695C219.562 192.081 219.609 192.479 219.764 192.839C219.92 193.199 220.178 193.505 220.507 193.72C220.835 193.935 221.219 194.048 221.612 194.047C221.884 194.05 222.154 193.998 222.405 193.892C222.655 193.786 222.882 193.629 223.069 193.431C223.256 193.234 223.4 192.999 223.492 192.743C223.584 192.487 223.622 192.214 223.604 191.943Z" fill="#263238"/>
<path d="M228.562 189.201V189.917H228.383C228.126 189.903 227.87 189.945 227.632 190.042C227.394 190.139 227.18 190.288 227.007 190.478C226.833 190.667 226.704 190.893 226.629 191.138C226.553 191.384 226.533 191.643 226.57 191.898V194.651H225.831V189.257H226.536V190.308C226.722 189.941 227.015 189.638 227.377 189.44C227.738 189.242 228.152 189.159 228.562 189.201Z" fill="#263238"/>
<path d="M234.739 187.03V194.64H234.045V193.577C233.83 193.932 233.523 194.223 233.157 194.42C232.791 194.617 232.379 194.712 231.963 194.696C231.265 194.651 230.61 194.342 230.131 193.832C229.652 193.321 229.386 192.648 229.386 191.948C229.386 191.248 229.652 190.575 230.131 190.064C230.61 189.554 231.265 189.245 231.963 189.201C232.373 189.192 232.778 189.29 233.137 189.487C233.496 189.683 233.798 189.97 234.011 190.32V187.074L234.739 187.03ZM234.023 191.943C234.003 191.551 233.869 191.174 233.637 190.858C233.405 190.542 233.086 190.301 232.719 190.165C232.351 190.029 231.952 190.003 231.57 190.092C231.189 190.18 230.841 190.378 230.571 190.662C230.301 190.946 230.12 191.302 230.05 191.688C229.981 192.074 230.026 192.471 230.18 192.831C230.334 193.192 230.591 193.499 230.918 193.715C231.244 193.931 231.628 194.046 232.019 194.047C232.293 194.052 232.564 194 232.816 193.895C233.068 193.79 233.296 193.633 233.484 193.435C233.672 193.238 233.818 193.003 233.91 192.746C234.003 192.489 234.041 192.215 234.023 191.943Z" fill="#263238"/>
</g>
<path d="M299.738 122.365H153.31V147.434H299.738V122.365Z" fill="white"/>
<g opacity="0.4">
<path d="M160.696 134.408C160.672 133.657 160.872 132.916 161.271 132.28C161.67 131.644 162.251 131.141 162.937 130.837C163.624 130.532 164.386 130.44 165.125 130.571C165.865 130.702 166.548 131.051 167.088 131.574C167.628 132.096 168 132.767 168.155 133.502C168.311 134.237 168.244 135.001 167.962 135.698C167.681 136.394 167.198 136.991 166.575 137.411C165.953 137.831 165.219 138.056 164.468 138.056C163.977 138.077 163.488 137.998 163.028 137.824C162.569 137.65 162.151 137.384 161.798 137.043C161.445 136.701 161.165 136.292 160.976 135.838C160.786 135.385 160.691 134.899 160.696 134.408ZM167.478 134.408C167.487 133.808 167.317 133.219 166.99 132.716C166.663 132.213 166.194 131.818 165.642 131.583C165.09 131.348 164.48 131.282 163.891 131.395C163.302 131.507 162.759 131.792 162.332 132.214C161.906 132.636 161.614 133.175 161.495 133.763C161.376 134.352 161.435 134.962 161.664 135.516C161.893 136.071 162.282 136.545 162.782 136.877C163.281 137.21 163.868 137.387 164.468 137.384C164.868 137.405 165.268 137.342 165.642 137.201C166.017 137.059 166.358 136.842 166.645 136.562C166.932 136.283 167.158 135.947 167.309 135.577C167.46 135.206 167.533 134.808 167.523 134.408H167.478Z" fill="#263238"/>
<path d="M169.761 130.379H170.488V138H169.761V130.379Z" fill="#263238"/>
<path d="M177.472 130.379V138H176.779V136.881C176.561 137.235 176.254 137.525 175.889 137.721C175.523 137.918 175.112 138.014 174.697 138C173.97 138 173.272 137.711 172.758 137.197C172.244 136.683 171.955 135.985 171.955 135.258C171.955 134.531 172.244 133.833 172.758 133.319C173.272 132.805 173.97 132.516 174.697 132.516C175.106 132.508 175.51 132.607 175.87 132.804C176.229 133 176.531 133.287 176.745 133.635V130.39L177.472 130.379ZM176.756 135.292C176.739 134.897 176.605 134.516 176.373 134.197C176.141 133.877 175.82 133.633 175.45 133.495C175.08 133.356 174.678 133.329 174.293 133.418C173.908 133.506 173.557 133.706 173.285 133.992C173.012 134.278 172.83 134.638 172.761 135.027C172.691 135.416 172.738 135.816 172.894 136.179C173.05 136.542 173.31 136.851 173.641 137.067C173.971 137.283 174.358 137.397 174.753 137.396C175.026 137.399 175.296 137.347 175.548 137.241C175.799 137.135 176.026 136.978 176.214 136.781C176.402 136.583 176.547 136.349 176.64 136.093C176.734 135.837 176.773 135.564 176.756 135.292Z" fill="#263238"/>
<path d="M187.97 133.277C187.97 134.799 186.851 135.728 185.037 135.728H183.113V137.966H182.352V130.815H185.037C186.862 130.815 187.97 131.733 187.97 133.277ZM187.209 133.277C187.209 132.158 186.448 131.464 184.97 131.464H183.068V135.057H184.97C186.448 135.057 187.209 134.408 187.209 133.277Z" fill="#263238"/>
<path d="M193.488 134.654V138.011H192.783V137.161C192.582 137.463 192.304 137.706 191.977 137.864C191.65 138.022 191.286 138.088 190.925 138.056C189.705 138.056 188.955 137.418 188.955 136.489C188.955 135.56 189.492 134.956 191.037 134.956H192.76V134.631C192.76 133.702 192.234 133.199 191.227 133.199C190.57 133.191 189.931 133.417 189.425 133.837L189.101 133.3C189.734 132.795 190.529 132.537 191.339 132.572C191.623 132.538 191.912 132.567 192.184 132.659C192.456 132.75 192.704 132.901 192.91 133.1C193.116 133.3 193.274 133.543 193.374 133.812C193.474 134.08 193.513 134.368 193.488 134.654ZM192.76 136.377V135.493H191.025C189.985 135.493 189.638 135.907 189.638 136.455C189.638 137.004 190.141 137.474 191.003 137.474C191.375 137.504 191.747 137.414 192.063 137.217C192.38 137.019 192.624 136.725 192.76 136.377Z" fill="#263238"/>
<path d="M194.717 137.418L195.041 136.836C195.602 137.238 196.277 137.45 196.966 137.441C197.985 137.441 198.41 137.094 198.41 136.568C198.41 135.158 194.907 136.266 194.907 134.128C194.907 133.244 195.668 132.595 197.045 132.595C197.717 132.584 198.379 132.758 198.958 133.098L198.634 133.68C198.163 133.369 197.609 133.209 197.045 133.221C196.071 133.221 195.634 133.591 195.634 134.106C195.634 135.572 199.137 134.464 199.137 136.545C199.137 137.474 198.32 138.079 196.899 138.079C196.119 138.102 195.353 137.87 194.717 137.418Z" fill="#263238"/>
<path d="M199.732 137.418L200.068 136.836C200.624 137.24 201.295 137.452 201.982 137.44C203.012 137.44 203.426 137.094 203.426 136.568C203.426 135.157 199.934 136.265 199.934 134.128C199.934 133.244 200.695 132.595 202.06 132.595C202.733 132.58 203.396 132.754 203.974 133.098L203.661 133.68C203.185 133.37 202.628 133.21 202.06 133.221C201.087 133.221 200.661 133.591 200.661 134.105C200.661 135.572 204.164 134.464 204.164 136.545C204.164 137.474 203.336 138.078 201.926 138.078C201.143 138.1 200.373 137.869 199.732 137.418Z" fill="#263238"/>
<path d="M213.317 132.594L211.28 138H210.597L208.885 133.523L207.184 138H206.501L204.453 132.594H205.147L206.848 137.183L208.583 132.594H209.209L210.933 137.183L212.645 132.594H213.317Z" fill="#263238"/>
<path d="M213.722 135.292C213.722 134.747 213.883 134.215 214.186 133.762C214.488 133.31 214.918 132.957 215.421 132.748C215.924 132.54 216.478 132.485 217.012 132.592C217.546 132.698 218.037 132.96 218.422 133.345C218.807 133.73 219.069 134.221 219.175 134.755C219.281 135.289 219.227 135.842 219.018 136.345C218.81 136.849 218.457 137.278 218.004 137.581C217.552 137.884 217.019 138.045 216.475 138.045C216.109 138.059 215.745 137.998 215.405 137.864C215.064 137.731 214.755 137.529 214.497 137.27C214.238 137.012 214.036 136.702 213.902 136.362C213.769 136.022 213.708 135.657 213.722 135.292ZM218.478 135.292C218.461 134.897 218.327 134.517 218.095 134.197C217.863 133.878 217.542 133.633 217.172 133.495C216.802 133.356 216.399 133.33 216.014 133.418C215.63 133.507 215.279 133.706 215.007 133.992C214.734 134.278 214.552 134.638 214.483 135.027C214.413 135.416 214.459 135.817 214.616 136.179C214.772 136.542 215.032 136.851 215.362 137.067C215.693 137.283 216.08 137.398 216.475 137.396C216.748 137.401 217.019 137.35 217.271 137.244C217.524 137.139 217.751 136.983 217.939 136.785C218.128 136.587 218.273 136.352 218.366 136.095C218.459 135.838 218.497 135.564 218.478 135.292Z" fill="#263238"/>
<path d="M223.48 132.561V133.266H223.301C223.044 133.254 222.787 133.298 222.549 133.397C222.312 133.495 222.098 133.645 221.925 133.835C221.752 134.025 221.623 134.252 221.547 134.498C221.472 134.744 221.452 135.004 221.488 135.258V138.011H220.761V132.606H221.455V133.669C221.642 133.302 221.935 133 222.296 132.802C222.658 132.605 223.07 132.521 223.48 132.561Z" fill="#263238"/>
<path d="M229.614 130.379V138H228.921V136.881C228.702 137.236 228.393 137.526 228.025 137.722C227.657 137.919 227.244 138.015 226.828 138C226.101 138 225.403 137.711 224.889 137.197C224.375 136.683 224.086 135.985 224.086 135.258C224.086 134.531 224.375 133.833 224.889 133.319C225.403 132.805 226.101 132.516 226.828 132.516C227.238 132.51 227.644 132.609 228.004 132.805C228.365 133.001 228.669 133.287 228.887 133.635V130.39L229.614 130.379ZM228.898 135.292C228.881 134.897 228.747 134.516 228.515 134.197C228.283 133.877 227.962 133.633 227.592 133.495C227.222 133.356 226.82 133.329 226.435 133.418C226.05 133.506 225.699 133.706 225.427 133.992C225.154 134.278 224.972 134.638 224.903 135.027C224.833 135.416 224.88 135.816 225.036 136.179C225.193 136.542 225.452 136.851 225.783 137.067C226.113 137.283 226.5 137.397 226.895 137.396C227.168 137.399 227.438 137.347 227.69 137.241C227.941 137.135 228.168 136.978 228.356 136.781C228.544 136.583 228.689 136.349 228.782 136.093C228.876 135.837 228.915 135.564 228.898 135.292Z" fill="#263238"/>
</g>
<path d="M335.64 45.7346H328.343V23.3518C328.343 19.2349 326.707 15.2867 323.796 12.3757C320.885 9.46467 316.937 7.82927 312.82 7.82927C308.703 7.82927 304.755 9.46467 301.844 12.3757C298.933 15.2867 297.298 19.2349 297.298 23.3518V45.7346H290.001V23.3518C290.001 17.2997 292.405 11.4955 296.685 7.21608C300.964 2.93664 306.768 0.532471 312.82 0.532471C318.872 0.532471 324.676 2.93664 328.956 7.21608C333.235 11.4955 335.64 17.2997 335.64 23.3518V45.7346Z" fill="#263238"/>
<g opacity="0.3">
<path d="M335.64 45.7346H328.343V23.3518C328.343 19.2349 326.707 15.2867 323.796 12.3757C320.885 9.46467 316.937 7.82927 312.82 7.82927C308.703 7.82927 304.755 9.46467 301.844 12.3757C298.933 15.2867 297.298 19.2349 297.298 23.3518V45.7346H290.001V23.3518C290.001 17.2997 292.405 11.4955 296.685 7.21608C300.964 2.93664 306.768 0.532471 312.82 0.532471C318.872 0.532471 324.676 2.93664 328.956 7.21608C333.235 11.4955 335.64 17.2997 335.64 23.3518V45.7346Z" fill="white"/>
</g>
<path d="M343.999 40.038V76.6675C343.999 77.2259 343.889 77.779 343.675 78.2949C343.462 78.8109 343.148 79.2797 342.754 79.6746C342.359 80.0695 341.89 80.3828 341.374 80.5965C340.858 80.8102 340.305 80.9202 339.746 80.9202H285.871C285.314 80.9187 284.763 80.8076 284.249 80.5931C283.735 80.3786 283.268 80.0649 282.875 79.67C282.482 79.2751 282.171 78.8067 281.959 78.2915C281.747 77.7763 281.639 77.2245 281.641 76.6675V40.038C281.639 39.481 281.747 38.9291 281.959 38.414C282.171 37.8988 282.482 37.4304 282.875 37.0355C283.268 36.6406 283.735 36.3269 284.249 36.1124C284.763 35.8979 285.314 35.7867 285.871 35.7853H339.746C340.451 35.7802 341.145 35.9576 341.761 36.3001C342.439 36.6605 343.005 37.1991 343.4 37.8578C343.794 38.5164 344.001 39.2703 343.999 40.038Z" fill="#0C7489"/>
<path opacity="0.2" d="M341.761 36.3001V72.1909C341.761 72.7488 341.651 73.3013 341.437 73.8167C341.223 74.332 340.91 74.8001 340.515 75.1941C340.12 75.5881 339.651 75.9003 339.135 76.1128C338.619 76.3253 338.066 76.4339 337.508 76.4324H283.633C282.937 76.4346 282.252 76.2614 281.641 75.9288V40.038C281.639 39.481 281.747 38.9291 281.959 38.414C282.171 37.8988 282.482 37.4304 282.875 37.0355C283.268 36.6406 283.735 36.3269 284.249 36.1124C284.763 35.8979 285.314 35.7867 285.871 35.7853H339.746C340.451 35.7802 341.145 35.9576 341.761 36.3001Z" fill="white"/>
<path opacity="0.5" d="M320.844 53.759C320.823 52.2984 320.404 50.8711 319.633 49.6309C318.861 48.3908 317.765 47.3849 316.463 46.7217C315.162 46.0585 313.704 45.7631 312.247 45.8674C310.79 45.9718 309.389 46.4718 308.195 47.3137C307.002 48.1556 306.06 49.3074 305.473 50.6449C304.886 51.9824 304.675 53.4548 304.863 54.9034C305.05 56.352 305.63 57.7218 306.539 58.8652C307.448 60.0086 308.652 60.8821 310.021 61.3915L309.652 71.1504H316.065L315.114 61.5818C316.782 61.0654 318.239 60.026 319.271 58.6173C320.303 57.2085 320.854 55.5052 320.844 53.759Z" fill="black"/>
<path d="M56.0234 61.9541L59.739 73.8953L63.4433 61.9541H56.0234Z" fill="#0C7489"/>
<path d="M90.1128 33.4272H29.3546C24.0453 33.4272 19.7412 37.7313 19.7412 43.0407V55.9891C19.7412 61.2985 24.0453 65.6025 29.3546 65.6025H90.1128C95.4221 65.6025 99.7262 61.2985 99.7262 55.9891V43.0407C99.7262 37.7313 95.4221 33.4272 90.1128 33.4272Z" fill="#0C7489"/>
<path d="M38.5433 49.498L40.6473 50.6843L40.0989 51.6468L37.9613 50.3934V52.7995H36.8422V50.3934L34.7046 51.6468L34.1562 50.6843L36.2826 49.498L34.1562 48.3789L34.7046 47.3941L36.8422 48.6475V46.2078H37.9613V48.5915L40.0989 47.3381L40.6473 48.3229L38.5433 49.498Z" fill="white"/>
<path d="M45.9731 49.498L48.0771 50.6843L47.5287 51.6468L45.3912 50.3934V52.7995H44.3392V50.3934L42.1792 51.6468L41.6309 50.6843L43.7572 49.498L41.6309 48.3789L42.1792 47.3941L44.3168 48.6475V46.2078H45.3688V48.5915L47.5063 47.3381L48.0547 48.3229L45.9731 49.498Z" fill="white"/>
<path d="M53.3714 49.4977L55.4754 50.684L54.927 51.6465L52.7895 50.3931V52.7992H51.6703V50.3931L49.5328 51.6465L48.9844 50.684L51.0996 49.4977L48.9844 48.3786L49.5328 47.3938L51.6703 48.6472V46.2634H52.7895V48.6472L54.927 47.3938L55.4754 48.3786L53.3714 49.4977Z" fill="white"/>
<path d="M60.836 49.4977L62.9399 50.684L62.3916 51.6465L60.254 50.3931V52.7992H59.1908V50.3931L57.0533 51.6465L56.5049 50.684L58.6201 49.4977L56.5049 48.3786L57.0533 47.3938L59.1908 48.6472V46.2634H60.254V48.6472L62.3916 47.3938L62.9399 48.3786L60.836 49.4977Z" fill="white"/>
<path d="M68.2669 49.4977L70.3708 50.684L69.8225 51.6465L67.6737 50.3931V52.7992H66.5546V50.3931L64.5625 51.6465L64.0029 50.684L66.1293 49.4977L64.0029 48.3786L64.5625 47.3938L66.7001 48.6472V46.2634H67.8192V48.6472L69.968 47.3938L70.5163 48.3786L68.2669 49.4977Z" fill="white"/>
<path d="M75.687 49.4977L77.8022 50.684L77.2538 51.6465L75.105 50.3931V52.7992H74.0419V50.3931L71.8931 51.6465L71.3447 50.684L73.4711 49.4977L71.3447 48.3786L71.8931 47.3938L74.0419 48.6472V46.2634H75.105V48.6472L77.2538 47.3938L77.8022 48.3786L75.687 49.4977Z" fill="white"/>
<path d="M83.1175 49.498L85.2215 50.6843L84.6731 51.6468L82.5355 50.3934V52.7995H81.4164V50.3934L79.2788 51.6468L78.7305 50.6843L80.8568 49.498L78.7305 48.3789L79.2788 47.3941L81.4164 48.6475V46.2078H82.5355V48.5915L84.6731 47.3381L85.2215 48.3229L83.1175 49.498Z" fill="white"/>
<path d="M108.286 145.33L115.113 140.91L107.425 136.187C107.425 136.187 101.572 140.495 103.922 143.416L108.286 145.33Z" fill="#B55B52"/>
<path d="M118.615 133.647L110.625 131.833L107.424 136.187L115.112 140.91L118.615 133.647Z" fill="#B55B52"/>
<path d="M80.2289 130.983C84.5488 137.519 88.8799 145.465 94.7777 150.557C94.8896 150.646 94.8449 150.557 94.4084 150.557C94.1846 150.613 94.2965 150.725 94.7553 150.557C96.0984 149.791 97.2804 148.773 98.2359 147.557C100.425 144.905 102.372 142.062 104.055 139.063C104.134 138.94 104.055 139.063 104.055 139.197C104.027 139.402 104.027 139.609 104.055 139.813C104.156 139.914 103.798 139.623 104.492 141.156C104.819 141.645 105.284 142.026 105.828 142.251C106.372 142.477 106.97 142.535 107.547 142.421C107.917 142.341 108.266 142.185 108.572 141.964C108.878 141.742 109.135 141.46 109.327 141.134C109.152 141.34 108.994 141.561 108.857 141.794L103.843 139.656C103.964 138.944 104.256 138.272 104.693 137.698C105.098 137.242 105.634 136.922 106.227 136.78C106.808 136.666 107.41 136.726 107.958 136.953C108.505 137.18 108.974 137.564 109.304 138.056C109.998 139.6 109.651 139.309 109.752 139.421C109.764 139.778 109.731 140.136 109.651 140.484C107.894 147.949 103.306 160.248 93.7929 160.316C87.078 159.7 81.9859 152.325 78.2144 147.669C75.5378 144.085 73.0715 140.348 70.8281 136.478L80.1729 130.994L80.2289 130.983Z" fill="#B55B52"/>
<path d="M76.7835 126.07C81.2601 127.547 90.3363 148.173 90.3363 148.173L74.9146 155.492C74.9146 155.492 71.781 139.287 72.3965 134.06C72.7825 130.934 74.3526 128.074 76.7835 126.07Z" fill="#0C7489"/>
<path opacity="0.7" d="M76.7835 126.07C81.2601 127.547 90.3363 148.173 90.3363 148.173L74.9146 155.492C74.9146 155.492 71.781 139.287 72.3965 134.06C72.7825 130.934 74.3526 128.074 76.7835 126.07Z" fill="white"/>
<path d="M94.9122 365.197L87.0559 367.424L85.1869 355.192L84.1797 348.656L92.0361 346.429L93.379 355.192L94.9122 365.197Z" fill="#B55B52"/>
<path d="M49.7447 365.834L41.6421 366.909L41.5638 355.191L41.5078 347.906L49.6216 346.854L49.6775 355.191L49.7447 365.834Z" fill="#B55B52"/>
<path opacity="0.2" d="M49.6216 346.854L49.6775 355.191H41.5638L41.5078 347.906L49.6216 346.854Z" fill="black"/>
<path opacity="0.2" d="M93.379 355.192H85.1869L84.1797 348.656L92.0361 346.429L93.379 355.192Z" fill="black"/>
<path d="M94.7774 363.966L85.8243 363.731C85.6616 363.725 85.5021 363.776 85.3719 363.873C85.2417 363.971 85.1486 364.11 85.108 364.268L83.2391 371.453C83.1803 371.626 83.1648 371.811 83.1941 371.991C83.2233 372.172 83.2963 372.342 83.4068 372.488C83.5172 372.634 83.6617 372.75 83.8275 372.827C83.9934 372.904 84.1756 372.94 84.3582 372.93C87.5813 372.93 92.1922 372.93 96.2771 373.008C101.011 373.143 104.022 372.908 109.572 373.008C112.93 373.098 113.971 369.752 112.583 369.405C106.237 367.838 102.097 368.151 96.6912 364.615C96.1249 364.227 95.4628 364.002 94.7774 363.966Z" fill="#263238"/>
<path d="M95.4617 364.962C95.4549 364.922 95.461 364.881 95.4791 364.845C95.4972 364.809 95.5264 364.779 95.5624 364.761C95.9429 364.582 99.2892 363.004 100.263 363.585C100.355 363.639 100.432 363.715 100.485 363.808C100.538 363.9 100.565 364.005 100.565 364.111C100.576 364.287 100.545 364.463 100.475 364.624C100.405 364.785 100.298 364.928 100.162 365.04C99.2444 365.801 96.9166 365.421 95.6072 365.119C95.5693 365.112 95.5347 365.093 95.5085 365.064C95.4823 365.036 95.4659 365 95.4617 364.962ZM96.2563 364.872C98.0581 365.219 99.4011 365.175 99.9159 364.738C100.007 364.668 100.078 364.575 100.124 364.47C100.169 364.364 100.186 364.248 100.173 364.134C100.177 364.091 100.168 364.049 100.148 364.011C100.128 363.974 100.098 363.942 100.061 363.921H99.9942C99.3787 363.664 97.5769 364.291 96.2563 364.872Z" fill="#0C7489"/>
<path d="M95.5285 365.085C95.5013 365.067 95.4803 365.042 95.4682 365.012C95.4562 364.981 95.4538 364.948 95.4613 364.917C95.5788 363.763 96.061 362.678 96.8379 361.817C96.9916 361.689 97.1712 361.596 97.3644 361.543C97.5575 361.491 97.7597 361.481 97.957 361.515C98.483 361.582 98.6285 361.85 98.6621 362.074C98.774 362.992 96.7595 364.704 95.7523 365.118C95.7082 365.13 95.662 365.13 95.618 365.118L95.5285 365.085ZM97.8675 361.895C97.7268 361.876 97.5837 361.886 97.447 361.925C97.3104 361.963 97.1831 362.03 97.0729 362.119C96.4528 362.808 96.0618 363.672 95.9537 364.592C96.9834 364.022 98.3599 362.679 98.2816 362.119C98.2816 362.119 98.2816 361.996 98.1137 361.94L97.8675 361.895Z" fill="#0C7489"/>
<path d="M49.4192 363.966L40.466 363.731C40.3034 363.725 40.1438 363.776 40.0136 363.873C39.8834 363.971 39.7904 364.11 39.7498 364.268L37.8696 371.453C37.8237 371.625 37.8177 371.806 37.8521 371.982C37.8866 372.157 37.9606 372.322 38.0685 372.465C38.1764 372.607 38.3154 372.723 38.4749 372.804C38.6343 372.884 38.8101 372.927 38.9888 372.93C42.2007 372.93 46.8228 372.93 50.9076 373.008C55.6416 373.143 58.6409 372.908 64.1918 373.008C67.5492 373.098 68.6012 369.752 67.2023 369.405C60.868 367.838 56.716 368.151 51.3217 364.615C50.7579 364.23 50.1004 364.006 49.4192 363.966Z" fill="#263238"/>
<path d="M50.0127 364.962C50.0067 364.921 50.0145 364.879 50.0347 364.842C50.0549 364.806 50.0865 364.777 50.1246 364.761C50.5051 364.582 53.8402 363.004 54.8138 363.585C54.9061 363.639 54.9826 363.715 55.0357 363.808C55.0887 363.9 55.1164 364.005 55.116 364.111C55.1279 364.286 55.0987 364.461 55.0306 364.622C54.9626 364.784 54.8577 364.927 54.7243 365.04C53.7954 365.801 51.4676 365.421 50.1582 365.119C50.1217 365.109 50.0887 365.089 50.0629 365.061C50.0372 365.034 50.0198 364.999 50.0127 364.962ZM50.8185 364.872C52.6091 365.219 53.9633 365.175 54.4781 364.738C54.5676 364.667 54.6379 364.574 54.6828 364.468C54.7277 364.363 54.7458 364.248 54.7355 364.134C54.7354 364.091 54.7239 364.048 54.7023 364.011C54.6807 363.974 54.6497 363.943 54.6124 363.921H54.5452C53.9857 363.664 52.1838 364.291 50.8632 364.872H50.8185Z" fill="#0C7489"/>
<path d="M50.1349 365.085C50.1068 365.068 50.0844 365.042 50.0704 365.013C50.0565 364.983 50.0517 364.949 50.0565 364.917C50.1794 363.763 50.6653 362.677 51.4443 361.817C51.5976 361.688 51.7772 361.594 51.9705 361.542C52.1638 361.49 52.3661 361.481 52.5634 361.515C53.0894 361.582 53.2349 361.85 53.2573 362.074C53.3804 362.992 51.3547 364.704 50.3587 365.118C50.3108 365.129 50.2611 365.129 50.2132 365.118L50.1349 365.085ZM52.4739 361.895C52.3331 361.876 52.1899 361.885 52.0532 361.924C51.9164 361.962 51.7891 362.029 51.6793 362.119C51.0641 362.811 50.6738 363.673 50.5601 364.592C51.5897 364.022 52.9663 362.679 52.8991 362.119C52.8895 362.075 52.8675 362.035 52.8358 362.003C52.8041 361.972 52.7639 361.95 52.7201 361.94C52.6415 361.91 52.558 361.895 52.4739 361.895Z" fill="#0C7489"/>
<path d="M33.0359 187.779C28.7384 206.379 36.1024 352.729 36.1024 352.729H50.3378L56.426 230.743L78.8088 352.729L94.0291 351.61C84.0799 257.132 75.2947 200.728 75.2947 200.728V193.599L33.0359 187.779Z" fill="#263238"/>
<path opacity="0.2" d="M94.0504 351.588L78.83 352.707L61.2036 256.685L56.436 230.732L50.3479 352.718H36.1124C36.1124 352.718 28.7485 206.346 33.0348 187.779L75.3383 193.61V200.739C75.3383 200.739 84.1012 257.166 94.0504 351.588Z" fill="white"/>
<path d="M32.1064 124.872C33.5972 133.654 34.4314 142.535 34.6021 151.441C34.7476 157.652 34.6021 163.561 34.3895 168.91C33.8299 181.456 32.6213 190.946 32.6772 194.203L75.3836 194.964C85.5678 150.31 76.8161 126.07 76.8161 126.07C73.5052 125.15 70.1416 124.433 66.7438 123.921C65.9978 123.824 65.2517 123.734 64.5056 123.652C58.4662 123.193 52.4054 123.081 46.3531 123.317C45.234 123.317 44.0365 123.417 42.9062 123.507C37.1985 123.988 32.1064 124.872 32.1064 124.872Z" fill="#0C7489"/>
<path d="M65.8937 125.107C65.8937 125.107 63.3533 128.789 61.3164 129.047C58.429 129.438 47.8867 122.981 47.8867 122.981C50.3264 121.179 51.5239 117.251 52.0499 113.099C52.4262 109.729 52.4973 106.331 52.2626 102.948L62.1222 113.67C60.824 117.027 60.0518 120.608 62.6034 123.126C63.5413 124.02 64.6647 124.697 65.8937 125.107Z" fill="#B55B52"/>
<path opacity="0.2" d="M62.5808 123.093C58.2377 120.723 54.5972 117.249 52.0273 113.021C52.4036 109.65 52.4747 106.253 52.24 102.87L62.0996 113.591C60.8014 116.982 60.0851 120.631 62.5808 123.093Z" fill="black"/>
<path d="M73.5134 93.2789C74.3528 96.379 73.5134 102.669 69.3502 100.43C65.187 98.192 72.1145 87.9294 73.5134 93.2789Z" fill="#263238"/>
<path d="M51.2653 96.4686C50.4483 104.303 49.5754 108.891 52.8544 113.513C57.8011 120.452 68.0412 118.381 71.186 110.894C74.0286 104.179 74.8791 92.4285 67.7502 88.131C66.1684 87.1804 64.3713 86.6465 62.5271 86.5793C60.6828 86.512 58.8517 86.9137 57.2049 87.7466C55.558 88.5795 54.1494 89.8165 53.1106 91.3418C52.0719 92.8672 51.4369 94.6311 51.2653 96.4686Z" fill="#B55B52"/>
<path d="M56.9741 92.4173L57.3658 83.6096C57.3658 83.6096 48.0098 82.4905 48.2224 87.3252C42.9177 89.6754 45.0217 97.8563 51.826 102.12C55.7878 99.2328 55.6647 91.8353 55.6647 91.8353C56.0676 92.0368 56.5152 92.227 56.9741 92.4173Z" fill="#263238"/>
<path d="M47.1824 102.456C47.3259 103.428 47.6609 104.362 48.1681 105.203C48.6752 106.045 49.3445 106.777 50.137 107.358C52.2633 108.902 54.2666 107.201 54.4457 104.717C54.6135 102.479 53.707 98.9756 51.2002 98.416C50.6472 98.3072 50.0758 98.3365 49.5369 98.5014C48.9979 98.6663 48.508 98.9617 48.1106 99.3613C47.7131 99.761 47.4205 100.253 47.2586 100.792C47.0967 101.332 47.0705 101.904 47.1824 102.456Z" fill="#B55B52"/>
<path d="M62.7606 100.486C62.6487 101.124 62.9061 101.684 63.3202 101.751C63.7343 101.818 64.1595 101.359 64.2602 100.721C64.361 100.083 64.1148 99.5239 63.7007 99.4567C63.2866 99.3896 62.8613 99.8484 62.7606 100.486Z" fill="#263238"/>
<path d="M69.9447 101.606C69.844 102.243 70.1014 102.814 70.5155 102.87C70.9295 102.926 71.3548 102.479 71.4555 101.841C71.5563 101.203 71.3101 100.643 70.896 100.576C70.4819 100.509 70.0566 100.979 69.9447 101.606Z" fill="#263238"/>
<path d="M67.6063 101.605C68.0871 103.602 68.8403 105.522 69.8446 107.313C69.3549 107.531 68.825 107.643 68.289 107.643C67.7531 107.643 67.2231 107.531 66.7334 107.313L67.6063 101.605Z" fill="#A02724"/>
<path d="M62.9172 109.215C63.1842 109.3 63.4573 109.363 63.7341 109.406C63.783 109.412 63.8324 109.399 63.8721 109.37C63.9117 109.341 63.9385 109.298 63.9468 109.249C63.9516 109.224 63.9513 109.198 63.946 109.173C63.9407 109.148 63.9304 109.125 63.9158 109.104C63.9012 109.083 63.8825 109.065 63.8609 109.052C63.8394 109.038 63.8153 109.029 63.7901 109.025C63.0001 108.919 62.2461 108.629 61.589 108.178C60.9319 107.727 60.3901 107.128 60.0074 106.429C59.9989 106.405 59.9856 106.384 59.9682 106.366C59.9509 106.347 59.9299 106.333 59.9067 106.324C59.8835 106.314 59.8586 106.31 59.8335 106.31C59.8084 106.311 59.7838 106.317 59.7612 106.328C59.7156 106.348 59.6795 106.385 59.6607 106.431C59.6418 106.477 59.6418 106.528 59.6605 106.574C59.9937 107.214 60.4547 107.778 61.0149 108.233C61.5751 108.687 62.2225 109.021 62.9172 109.215Z" fill="#263238"/>
<path d="M60.9235 97.8228C60.9872 97.844 61.0557 97.8469 61.121 97.8311C61.1863 97.8152 61.2458 97.7813 61.2928 97.7333C61.6305 97.3963 62.0417 97.1421 62.4941 96.9906C62.9465 96.8392 63.4278 96.7946 63.9004 96.8603C63.9482 96.8714 63.9976 96.8729 64.046 96.8648C64.0943 96.8567 64.1406 96.8391 64.1822 96.8132C64.2237 96.7872 64.2598 96.7533 64.2882 96.7133C64.3167 96.6734 64.337 96.6283 64.348 96.5805C64.3591 96.5328 64.3606 96.4833 64.3525 96.435C64.3444 96.3866 64.3268 96.3403 64.3009 96.2988C64.2749 96.2572 64.241 96.2212 64.2011 96.1927C64.1611 96.1642 64.116 96.1439 64.0683 96.1329C63.4747 96.032 62.8656 96.0761 62.2928 96.2612C61.7199 96.4463 61.2003 96.767 60.778 97.1961C60.7069 97.2674 60.667 97.364 60.667 97.4647C60.667 97.5654 60.7069 97.6619 60.778 97.7333C60.8197 97.7729 60.8693 97.8034 60.9235 97.8228Z" fill="#263238"/>
<path d="M73.514 99.6245C73.5831 99.6468 73.6575 99.6468 73.7266 99.6245C73.8229 99.596 73.9039 99.5305 73.9521 99.4425C74.0003 99.3545 74.0118 99.251 73.984 99.1545C73.8266 98.577 73.5316 98.0463 73.1242 97.6078C72.7169 97.1693 72.2093 96.836 71.645 96.6364C71.5487 96.6116 71.4464 96.6244 71.3591 96.6722C71.2718 96.72 71.206 96.7992 71.175 96.8938C71.1472 96.9903 71.1587 97.0938 71.2069 97.1819C71.2551 97.2699 71.3362 97.3353 71.4324 97.3639C71.88 97.5215 72.2812 97.7883 72.5997 98.14C72.9182 98.4918 73.144 98.9174 73.2566 99.3783C73.2762 99.4372 73.3098 99.4905 73.3547 99.5334C73.3996 99.5763 73.4543 99.6076 73.514 99.6245Z" fill="#263238"/>
<path d="M48.2214 87.3251C48.2214 87.3251 43.3867 82.524 59.7933 82.9604C76.2 83.3969 78.9306 92.5962 71.41 94.7338L71.0743 93.2341C69.7826 93.9001 68.3636 94.2825 66.9122 94.3558C65.4609 94.4292 64.0106 94.1917 62.6583 93.6594L63.8446 92.9208C63.8446 92.9208 52.642 94.0623 48.2214 87.3251Z" fill="#263238"/>
<path d="M61.3157 129.013C61.3157 129.013 59.2229 131.431 56.8391 133.814C53.3586 132.057 45.2113 127.346 45.6477 122.992C46.129 121.728 49.4416 120.922 49.4416 120.922C49.4416 120.922 52.9557 125.611 61.3157 129.013Z" fill="#0C7489"/>
<path d="M61.3164 129.013C63.0286 130.393 64.5359 132.01 65.793 133.814C68.3558 132.158 67.0688 124.056 66.1287 123.16C64.7733 122.42 63.2525 122.035 61.7081 122.041C62.2152 123.147 62.4446 124.361 62.3764 125.576C62.3081 126.791 61.9443 127.971 61.3164 129.013Z" fill="#0C7489"/>
<g opacity="0.5">
<path d="M61.3147 129.013C61.3147 129.013 59.2219 131.431 56.8382 133.814C53.3576 132.057 45.2103 127.346 45.6468 122.992C46.128 121.728 49.4406 120.922 49.4406 120.922C49.4406 120.922 52.9548 125.611 61.3147 129.013Z" fill="white"/>
<path d="M61.3154 129.013C63.0276 130.393 64.5349 132.01 65.792 133.814C68.3548 132.158 67.0678 124.056 66.1277 123.16C64.7724 122.42 63.2515 122.035 61.7071 122.041C62.2143 123.147 62.4437 124.361 62.3754 125.576C62.3071 126.791 61.9433 127.971 61.3154 129.013Z" fill="white"/>
</g>
<path opacity="0.2" d="M61.205 256.685L56.4375 230.732L57.3552 217C57.3552 217 63.8798 240.816 61.205 256.685Z" fill="black"/>
<path d="M36.5825 136.724C32.4416 143.629 26.029 153.511 22.5149 160.528C20.6459 164.501 20.0639 168.754 19.0455 173.04C18.0719 177.617 17.0982 182.284 16.0238 186.895L10.6743 186.425C10.4841 181.579 10.5289 176.778 10.8198 171.932C11.1892 166.885 11.4577 161.435 13.3603 156.645C17.143 147.434 22.1232 139.197 27.4615 130.905L36.5825 136.746V136.724Z" fill="#B55B52"/>
<path d="M32.1064 124.873C26.0967 126.428 15.3193 148.028 15.3193 148.028L28.0887 156.298L39.6047 145.107C40.2657 141.055 40.0172 136.907 38.8773 132.964C37.0083 126.227 32.1064 124.873 32.1064 124.873Z" fill="#0C7489"/>
<path opacity="0.7" d="M32.1064 124.873C26.0967 126.428 15.3193 148.028 15.3193 148.028L28.0887 156.298L39.6047 145.107C40.2657 141.055 40.0172 136.907 38.8773 132.964C37.0083 126.227 32.1064 124.873 32.1064 124.873Z" fill="white"/>
<path d="M36.6377 191.454L125.351 97.38C125.829 96.8732 126.402 96.4655 127.037 96.1801C127.673 95.8948 128.358 95.7374 129.054 95.717C129.751 95.6966 130.444 95.8135 131.095 96.0611C131.747 96.3087 132.343 96.6821 132.849 97.1601L134.991 99.1794C136.014 100.145 136.613 101.477 136.654 102.883C136.695 104.29 136.176 105.655 135.211 106.678L46.4978 200.752L36.6377 191.454Z" fill="#263238"/>
<path opacity="0.6" d="M36.6377 191.454L125.351 97.38C125.829 96.8732 126.402 96.4655 127.037 96.1801C127.673 95.8948 128.358 95.7374 129.054 95.717C129.751 95.6966 130.444 95.8135 131.095 96.0611C131.747 96.3087 132.343 96.6821 132.849 97.1601L134.991 99.1794C136.014 100.145 136.613 101.477 136.654 102.883C136.695 104.29 136.176 105.655 135.211 106.678L46.4978 200.752L36.6377 191.454Z" fill="white"/>
<path opacity="0.2" d="M133.501 97.7891L134.989 99.188C135.496 99.6647 135.904 100.237 136.189 100.871C136.475 101.505 136.632 102.19 136.653 102.885C136.674 103.58 136.557 104.273 136.31 104.923C136.063 105.574 135.69 106.169 135.213 106.675L46.4987 200.761L45.0215 199.362L133.736 105.276C134.212 104.769 134.584 104.173 134.83 103.523C135.077 102.872 135.192 102.179 135.17 101.484C135.148 100.789 134.99 100.104 134.703 99.4703C134.417 98.8363 134.008 98.265 133.501 97.7891Z" fill="black"/>
<path d="M105.197 134.217L121.637 149.728L123.775 147.457L121.649 145.453L125.028 141.861L123.786 140.686L128.867 135.303L130.109 136.478L133.288 133.109L135.414 135.124L137.619 132.773L136.377 131.598L139.555 128.218L137.059 125.868L139.141 123.664L142.89 127.189L146.695 123.16L130.255 107.649L105.197 134.217Z" fill="#263238"/>
<path opacity="0.6" d="M105.197 134.217L121.637 149.728L123.775 147.457L121.649 145.453L125.028 141.861L123.786 140.686L128.867 135.303L130.109 136.478L133.288 133.109L135.414 135.124L137.619 132.773L136.377 131.598L139.555 128.218L137.059 125.868L139.141 123.664L142.89 127.189L146.695 123.16L130.255 107.649L105.197 134.217Z" fill="white"/>
<g opacity="0.2">
<path opacity="0.6" d="M122.294 146.073L120.159 148.336L121.641 149.734L123.776 147.47L122.294 146.073Z" fill="black"/>
<path opacity="0.6" d="M130.109 136.478L128.867 135.291L123.786 140.686L125.028 141.861L121.649 145.453L120.16 144.054L123.551 140.462L122.298 139.287L127.379 133.893L128.632 135.079L131.799 131.71L133.288 133.109L130.109 136.478Z" fill="black"/>
<path opacity="0.6" d="M134.889 130.188L138.078 126.82L139.567 128.219L136.377 131.598L137.631 132.773L135.415 135.124L133.938 133.725L136.142 131.374L134.889 130.188Z" fill="black"/>
<path opacity="0.6" d="M137.648 122.26L135.567 124.467L137.049 125.864L139.13 123.657L137.648 122.26Z" fill="black"/>
<path opacity="0.6" d="M145.21 121.769L141.401 125.807L142.883 127.205L146.692 123.166L145.21 121.769Z" fill="black"/>
</g>
<path d="M122.988 98.152L95.7924 126.991C95.3429 127.468 95.3649 128.219 95.8416 128.668L105.71 137.974C106.186 138.424 106.937 138.402 107.387 137.925L134.583 109.086C135.032 108.609 135.01 107.858 134.533 107.409L124.665 98.1028C124.189 97.6534 123.438 97.6754 122.988 98.152Z" fill="#263238"/>
<path d="M47.0135 231.168C44.9495 233.358 42.4744 235.119 39.7297 236.352C36.9849 237.585 34.0241 238.264 31.0165 238.353C28.0089 238.441 25.0134 237.936 22.201 236.867C19.3886 235.797 16.8144 234.184 14.6255 232.12L7.19442 225.114C5.00501 223.05 3.24364 220.575 2.0109 217.83C0.778163 215.085 0.098212 212.124 0.00987542 209.117C-0.0784612 206.109 0.426554 203.114 1.49607 200.301C2.56559 197.489 4.17866 194.915 6.24316 192.726C8.30897 190.528 10.7884 188.759 13.5392 187.521C16.2899 186.283 19.258 185.601 22.2732 185.512C25.2884 185.424 28.2914 185.932 31.1099 187.006C33.9285 188.081 36.5072 189.701 38.6982 191.775L46.1181 198.78C48.3037 200.848 50.0606 203.326 51.2885 206.073C52.5164 208.82 53.1911 211.781 53.2743 214.789C53.3574 217.796 52.8473 220.791 51.773 223.601C50.6988 226.412 49.0815 228.983 47.0135 231.168Z" fill="#263238"/>
<path d="M38.4739 223.11C37.4469 224.202 36.215 225.079 34.8485 225.694C33.4821 226.309 32.0079 226.648 30.5102 226.693C29.0125 226.738 27.5207 226.487 26.12 225.955C24.7194 225.422 23.4373 224.62 22.3471 223.592L15.3189 216.877C14.2286 215.849 13.3516 214.617 12.7379 213.25C12.1241 211.883 11.7858 210.409 11.7421 208.911C11.6985 207.413 11.9504 205.922 12.4835 204.521C13.0165 203.121 13.8203 201.84 14.8488 200.75C15.8748 199.659 17.1061 198.781 18.4721 198.166C19.8381 197.552 21.3119 197.213 22.8091 197.17C24.3062 197.126 25.7973 197.378 27.1968 197.912C28.5962 198.446 29.8766 199.25 30.9645 200.28L38.0598 206.995C40.2506 209.078 41.5249 211.945 41.6025 214.967C41.6802 217.989 40.5549 220.918 38.4739 223.11Z" fill="white"/>
<path opacity="0.5" d="M122.988 98.152L95.7924 126.991C95.3429 127.468 95.3649 128.219 95.8416 128.668L105.71 137.974C106.186 138.424 106.937 138.402 107.387 137.925L134.583 109.086C135.032 108.609 135.01 107.858 134.533 107.409L124.665 98.1028C124.189 97.6534 123.438 97.6754 122.988 98.152Z" fill="white"/>
<g opacity="0.5">
<path d="M47.0135 231.168C44.9495 233.358 42.4744 235.119 39.7297 236.352C36.9849 237.585 34.0241 238.264 31.0165 238.353C28.0089 238.441 25.0134 237.936 22.201 236.867C19.3886 235.797 16.8144 234.184 14.6255 232.12L7.19442 225.114C5.00501 223.05 3.24364 220.575 2.0109 217.83C0.778163 215.085 0.098212 212.124 0.00987542 209.117C-0.0784612 206.109 0.426554 203.114 1.49607 200.301C2.56559 197.489 4.17866 194.915 6.24316 192.726C8.30897 190.528 10.7884 188.759 13.5392 187.521C16.2899 186.283 19.258 185.601 22.2732 185.512C25.2884 185.424 28.2914 185.932 31.1099 187.006C33.9285 188.081 36.5072 189.701 38.6982 191.775L46.1181 198.78C48.3037 200.848 50.0606 203.326 51.2885 206.073C52.5164 208.82 53.1911 211.781 53.2743 214.789C53.3574 217.796 52.8473 220.791 51.773 223.601C50.6988 226.412 49.0815 228.983 47.0135 231.168Z" fill="white"/>
<path d="M38.4739 223.11C37.4469 224.202 36.215 225.079 34.8485 225.694C33.4821 226.309 32.0079 226.648 30.5102 226.693C29.0125 226.738 27.5207 226.487 26.12 225.955C24.7194 225.422 23.4373 224.62 22.3471 223.592L15.3189 216.877C14.2286 215.849 13.3516 214.617 12.7379 213.25C12.1241 211.883 11.7858 210.409 11.7421 208.911C11.6985 207.413 11.9504 205.922 12.4835 204.521C13.0165 203.121 13.8203 201.84 14.8488 200.75C15.8748 199.659 17.1061 198.781 18.4721 198.166C19.8381 197.552 21.3119 197.213 22.8091 197.17C24.3062 197.126 25.7973 197.378 27.1968 197.912C28.5962 198.446 29.8766 199.25 30.9645 200.28L38.0598 206.995C40.2506 209.078 41.5249 211.945 41.6025 214.967C41.6802 217.989 40.5549 220.918 38.4739 223.11Z" fill="white"/>
</g>
<path opacity="0.2" d="M131.565 104.605L134.542 107.403C134.654 107.513 134.743 107.645 134.803 107.79C134.864 107.935 134.895 108.09 134.895 108.248C134.895 108.405 134.864 108.56 134.803 108.706C134.743 108.851 134.654 108.982 134.542 109.093L107.347 137.922C107.237 138.033 107.107 138.122 106.962 138.183C106.818 138.243 106.664 138.274 106.507 138.274C106.351 138.274 106.196 138.243 106.052 138.183C105.908 138.122 105.777 138.033 105.668 137.922L102.702 135.124C102.924 135.343 103.224 135.466 103.536 135.466C103.848 135.466 104.148 135.343 104.37 135.124L131.565 106.283C131.676 106.174 131.765 106.043 131.826 105.899C131.886 105.755 131.917 105.6 131.917 105.444C131.917 105.288 131.886 105.133 131.826 104.989C131.765 104.845 131.676 104.714 131.565 104.605Z" fill="black"/>
<g opacity="0.2">
<path d="M28.75 198.21L30.9883 200.303C28.7643 198.38 25.8846 197.39 22.9487 197.538C20.0129 197.686 17.2473 198.961 15.2279 201.097C13.2086 203.233 12.0911 206.066 12.1083 209.005C12.1255 211.945 13.2761 214.765 15.3203 216.877L13.082 214.773C10.8811 212.695 9.59574 209.828 9.50864 206.803C9.42154 203.778 10.5398 200.841 12.6176 198.641C14.6953 196.44 17.5622 195.154 20.5876 195.067C23.613 194.98 26.5491 196.098 28.75 198.176V198.21Z" fill="black"/>
<path d="M43.8463 196.733L46.0846 198.837C50.3659 203.04 52.8286 208.754 52.9439 214.752C53.0591 220.751 50.8177 226.555 46.701 230.92C42.5843 235.284 36.9204 237.86 30.9254 238.095C24.9304 238.33 19.0823 236.205 14.6367 232.176L12.3984 230.083C16.8292 234.207 22.7113 236.41 28.7609 236.213C34.8105 236.016 40.5364 233.433 44.689 229.029C48.8415 224.626 51.0835 218.758 50.9256 212.707C50.7678 206.657 48.2228 200.914 43.8463 196.733Z" fill="black"/>
</g>
<g opacity="0.2">
<path d="M28.75 198.21L30.9883 200.303C28.7643 198.38 25.8846 197.39 22.9487 197.538C20.0129 197.686 17.2473 198.961 15.2279 201.097C13.2086 203.233 12.0911 206.066 12.1083 209.005C12.1255 211.945 13.2761 214.765 15.3203 216.877L13.082 214.773C10.8811 212.695 9.59574 209.828 9.50864 206.803C9.42154 203.778 10.5398 200.841 12.6176 198.641C14.6953 196.44 17.5622 195.154 20.5876 195.067C23.613 194.98 26.5491 196.098 28.75 198.176V198.21Z" fill="black"/>
<path d="M28.75 198.21L30.9883 200.303C28.7643 198.38 25.8846 197.39 22.9487 197.538C20.0129 197.686 17.2473 198.961 15.2279 201.097C13.2086 203.233 12.0911 206.066 12.1083 209.005C12.1255 211.945 13.2761 214.765 15.3203 216.877L13.082 214.773C10.8811 212.695 9.59574 209.828 9.50864 206.803C9.42154 203.778 10.5398 200.841 12.6176 198.641C14.6953 196.44 17.5622 195.154 20.5876 195.067C23.613 194.98 26.5491 196.098 28.75 198.176V198.21Z" fill="black"/>
</g>
<path d="M11.7146 199.206L19.9403 197.146L19.0226 191.137L8.99512 193.162L11.7146 199.206Z" fill="#B55B52"/>
<path d="M10.9088 185.295L8.99512 193.129L19.0674 191.103C19.0674 191.103 19.2017 184.064 15.4637 183.605L10.9088 185.295Z" fill="#B55B52"/>
</svg>
