<svg width="445" height="342" viewBox="0 0 445 342" fill="none" xmlns="http://www.w3.org/2000/svg">
<path d="M260.999 285.575H117.89L110.059 55.4216H253.168L260.999 285.575Z" fill="#0C7489"/>
<path d="M268.145 278.43H125.036L117.195 48.2764H260.304L268.145 278.43Z" fill="#0C7489"/>
<path opacity="0.3" d="M268.145 278.43H125.036L117.195 48.2764H260.304L268.145 278.43Z" fill="white"/>
<path d="M220.195 142.984C235.518 127.397 234.866 101.909 218.739 86.0555C202.612 70.2019 177.117 69.9861 161.794 85.5733C146.471 101.161 147.123 126.649 163.25 142.502C179.377 158.356 204.872 158.572 220.195 142.984Z" fill="#0C7489"/>
<path d="M224.224 114.288C224.43 119.772 223.233 125.218 220.747 130.111C218.064 135.383 213.964 139.803 208.908 142.876C203.853 145.948 198.041 147.552 192.125 147.505C186.07 147.473 180.131 145.848 174.902 142.795C169.673 139.742 165.339 135.368 162.334 130.111C159.533 125.293 157.968 119.857 157.779 114.288C157.593 109.97 158.287 105.658 159.819 101.617C161.351 97.5746 163.688 93.8863 166.689 90.7758C169.691 87.6652 173.293 85.1972 177.277 83.5219C181.262 81.8466 185.545 80.9988 189.868 81.0301C198.772 81.0931 207.31 84.5838 213.708 90.7772C220.106 96.9705 223.872 105.39 224.224 114.288Z" fill="white"/>
<path opacity="0.6" d="M220.727 130.111C218.043 135.383 213.944 139.803 208.888 142.876C203.832 145.948 198.021 147.552 192.105 147.505C186.05 147.473 180.11 145.848 174.881 142.795C169.652 139.742 165.318 135.368 162.314 130.111C170.837 124.3 180.923 121.211 191.238 121.252C201.72 121.275 211.968 124.353 220.727 130.111Z" fill="#0C7489"/>
<path opacity="0.6" d="M201.349 113.459C206.983 107.727 206.743 98.3553 200.813 92.5258C194.883 86.6963 185.508 86.6169 179.874 92.3486C174.239 98.0802 174.479 107.452 180.409 113.282C186.339 119.111 195.714 119.191 201.349 113.459Z" fill="#0C7489"/>
<path d="M239.392 195.084H148.104L147.489 176.943H238.777L239.392 195.084Z" fill="white"/>
<path d="M240.5 227.506H149.203L148.588 209.365H239.885L240.5 227.506Z" fill="white"/>
<path d="M205.267 211.864L183.267 214.888C183.057 214.912 182.854 214.979 182.671 215.085C182.489 215.191 182.33 215.333 182.205 215.504C182.08 215.674 181.991 215.869 181.945 216.075C181.899 216.281 181.896 216.494 181.936 216.702L184.829 231.446C184.923 231.879 185.177 232.26 185.538 232.516C185.9 232.771 186.344 232.882 186.784 232.827L208.784 229.803C208.994 229.777 209.196 229.708 209.377 229.6C209.559 229.492 209.716 229.349 209.84 229.178C209.964 229.007 210.051 228.812 210.097 228.606C210.142 228.4 210.145 228.186 210.105 227.979L207.222 213.235C207.128 212.803 206.874 212.422 206.512 212.168C206.15 211.915 205.706 211.806 205.267 211.864ZM198.948 226.8L194.917 227.334L194.524 222.577C194.108 222.398 193.742 222.121 193.456 221.77C193.171 221.419 192.973 221.005 192.881 220.562C192.807 220.218 192.806 219.863 192.878 219.52C192.949 219.176 193.092 218.851 193.298 218.566C193.503 218.281 193.766 218.042 194.069 217.865C194.372 217.688 194.709 217.577 195.058 217.538C195.774 217.446 196.498 217.626 197.088 218.042C197.678 218.458 198.09 219.08 198.243 219.786C198.33 220.212 198.303 220.653 198.165 221.065C198.027 221.478 197.783 221.846 197.457 222.134L198.948 226.8Z" fill="#0C7489"/>
<path d="M203.09 211.068C202.702 211.118 202.308 211.02 201.987 210.794C201.667 210.569 201.442 210.231 201.357 209.849L201.075 208.408C200.672 206.441 199.57 204.687 197.972 203.471C196.375 202.255 194.39 201.66 192.388 201.796C191.377 201.854 190.39 202.128 189.495 202.601C188.6 203.074 187.817 203.733 187.199 204.536C186.582 205.338 186.144 206.263 185.916 207.25C185.688 208.236 185.674 209.26 185.877 210.252L186.2 211.915C186.237 212.099 186.236 212.289 186.196 212.473C186.155 212.656 186.077 212.83 185.966 212.982C185.855 213.133 185.714 213.26 185.551 213.354C185.388 213.448 185.207 213.507 185.02 213.527C184.631 213.581 184.235 213.486 183.913 213.259C183.591 213.033 183.368 212.693 183.287 212.308L183.015 210.907C182.738 209.598 182.729 208.246 182.988 206.933C183.247 205.62 183.769 204.373 184.522 203.267C185.275 202.161 186.244 201.219 187.37 200.496C188.497 199.774 189.758 199.287 191.077 199.065C193.938 198.585 196.875 199.224 199.277 200.851C201.679 202.478 203.362 204.968 203.977 207.803L204.3 209.456C204.337 209.642 204.335 209.835 204.293 210.02C204.251 210.206 204.171 210.381 204.056 210.533C203.942 210.685 203.797 210.811 203.631 210.904C203.464 210.996 203.28 211.052 203.09 211.068Z" fill="#0C7489"/>
<path d="M225.434 252.912H166.003L165.61 241.101H225.03L225.434 252.912Z" fill="#0C7489"/>
<path d="M196.761 186.014C196.779 186.445 196.709 186.875 196.556 187.278C196.402 187.681 196.169 188.048 195.869 188.358C195.57 188.668 195.21 188.914 194.813 189.081C194.415 189.248 193.988 189.333 193.557 189.329C192.668 189.323 191.816 188.975 191.176 188.358C190.537 187.741 190.159 186.902 190.12 186.014C190.102 185.583 190.172 185.153 190.325 184.75C190.479 184.347 190.712 183.979 191.012 183.669C191.312 183.359 191.671 183.113 192.069 182.946C192.466 182.779 192.894 182.695 193.325 182.698C194.214 182.703 195.068 183.05 195.708 183.667C196.348 184.285 196.725 185.125 196.761 186.014Z" fill="#263238"/>
<path d="M182.43 186.014C182.45 186.445 182.381 186.876 182.228 187.279C182.075 187.683 181.842 188.051 181.542 188.361C181.242 188.672 180.882 188.918 180.483 189.084C180.085 189.25 179.657 189.334 179.226 189.329C178.338 189.322 177.487 188.974 176.849 188.357C176.211 187.74 175.835 186.901 175.799 186.014C175.781 185.583 175.851 185.153 176.005 184.75C176.158 184.347 176.392 183.979 176.691 183.669C176.991 183.359 177.35 183.113 177.748 182.946C178.145 182.779 178.573 182.695 179.004 182.698C179.892 182.703 180.745 183.05 181.383 183.668C182.021 184.286 182.397 185.126 182.43 186.014Z" fill="#263238"/>
<path d="M168.19 186.014C168.208 186.445 168.138 186.875 167.984 187.278C167.831 187.681 167.597 188.048 167.298 188.358C166.998 188.668 166.638 188.914 166.241 189.081C165.843 189.248 165.416 189.333 164.985 189.329C164.097 189.325 163.244 188.978 162.606 188.36C161.967 187.742 161.592 186.902 161.558 186.014C161.541 185.583 161.611 185.153 161.764 184.75C161.917 184.347 162.151 183.979 162.45 183.669C162.75 183.359 163.11 183.113 163.507 182.946C163.905 182.779 164.332 182.695 164.763 182.698C165.652 182.703 166.504 183.05 167.142 183.668C167.781 184.286 168.156 185.126 168.19 186.014Z" fill="#263238"/>
<path d="M211.042 186.014C211.06 186.445 210.99 186.875 210.837 187.278C210.683 187.681 210.45 188.048 210.15 188.358C209.85 188.668 209.491 188.914 209.093 189.081C208.696 189.248 208.268 189.333 207.837 189.329C206.949 189.325 206.096 188.978 205.458 188.36C204.82 187.742 204.444 186.902 204.411 186.014C204.396 185.584 204.468 185.156 204.623 184.755C204.779 184.355 205.014 183.99 205.314 183.682C205.615 183.375 205.975 183.132 206.372 182.968C206.769 182.804 207.196 182.723 207.626 182.728C208.507 182.735 209.353 183.079 209.988 183.691C210.624 184.302 211.001 185.133 211.042 186.014Z" fill="#263238"/>
<path d="M225.323 186.014C225.342 186.445 225.273 186.876 225.12 187.279C224.967 187.683 224.734 188.051 224.434 188.361C224.134 188.672 223.774 188.918 223.375 189.084C222.977 189.25 222.549 189.334 222.118 189.329C221.23 189.322 220.379 188.974 219.741 188.357C219.103 187.74 218.727 186.901 218.691 186.014C218.673 185.583 218.743 185.153 218.897 184.75C219.05 184.347 219.284 183.979 219.583 183.669C219.883 183.359 220.242 183.113 220.64 182.946C221.038 182.779 221.465 182.695 221.896 182.698C222.784 182.703 223.637 183.05 224.275 183.668C224.914 184.286 225.289 185.126 225.323 186.014Z" fill="#263238"/>
<path d="M345.605 97.3467C346.945 99.5034 348.064 101.559 349.213 103.706C350.361 105.853 351.4 108.009 352.417 110.216C354.494 114.686 356.213 119.312 357.557 124.054C357.739 124.648 357.87 125.283 358.021 125.898L358.243 126.835L358.353 127.299L358.484 128.065C358.712 129.802 358.606 131.567 358.172 133.265C357.476 135.901 356.418 138.428 355.028 140.773C352.541 145.035 349.534 148.972 346.078 152.494L341.835 149.289C343.965 145.374 345.86 141.336 347.509 137.196C348.244 135.371 348.762 133.467 349.051 131.522C349.144 130.928 349.117 130.321 348.971 129.738L348.568 128.508C348.406 128.004 348.255 127.5 348.064 126.986C346.531 122.829 344.757 118.764 342.753 114.812C340.737 110.781 338.57 106.75 336.403 102.9L345.605 97.3467Z" fill="#FF8B7B"/>
<path d="M342.914 147.888L338.278 150.337L343.599 156.566C343.599 156.566 346.925 154.318 347.076 150.892L342.914 147.888Z" fill="#FF8B7B"/>
<path d="M332.06 154.177L337.754 158.702L343.599 156.566L338.278 150.337L332.06 154.177Z" fill="#FF8B7B"/>
<path d="M312.588 64.371C312.477 64.9354 312.084 65.3284 311.722 65.2579C311.359 65.1873 311.147 64.6633 311.258 64.109C311.369 63.5547 311.762 63.1011 312.135 63.2221C312.508 63.343 312.699 63.8066 312.588 64.371Z" fill="#263238"/>
<path d="M312.135 65.3386C311.12 66.9172 309.893 68.3483 308.487 69.5916C308.819 69.9356 309.221 70.2038 309.667 70.3778C310.112 70.5518 310.59 70.6273 311.067 70.5994L312.135 65.3386Z" fill="#FF5652"/>
<path d="M310.321 85.112V78.5007L319.069 79.5085C319.069 79.5085 318.928 85.1926 314.03 86.8656L310.321 85.112Z" fill="#FF8B7B"/>
<path d="M312.841 73.7439L318.998 75.5176L319.109 79.559L310.361 78.5008L312.841 73.7439Z" fill="#FF8B7B"/>
<path opacity="0.2" d="M318.998 75.5176L312.84 73.7439L311.641 76.0417C311.707 77.8523 312.272 79.6093 313.276 81.1179C314.279 82.6264 315.681 83.8275 317.325 84.5879C318.383 83.1101 319.002 81.3632 319.109 79.5489L318.998 75.5176Z" fill="black"/>
<path d="M315.269 61.6804C315.334 61.6786 315.397 61.6587 315.45 61.6228C315.504 61.5869 315.547 61.5365 315.573 61.4775C315.599 61.4185 315.608 61.3533 315.599 61.2893C315.59 61.2253 315.563 61.1653 315.521 61.116C315.167 60.7162 314.723 60.407 314.225 60.2141C313.727 60.0213 313.19 59.9504 312.659 60.0074C312.572 60.0222 312.495 60.0708 312.444 60.1426C312.393 60.2144 312.372 60.3035 312.387 60.3904C312.402 60.4778 312.45 60.5561 312.521 60.6088C312.593 60.6614 312.682 60.6843 312.77 60.6726C313.19 60.6313 313.615 60.6912 314.007 60.8472C314.4 61.0032 314.75 61.2509 315.027 61.5695C315.058 61.6032 315.096 61.6304 315.137 61.6494C315.179 61.6684 315.224 61.679 315.269 61.6804Z" fill="#263238"/>
<path d="M328.149 74.5703C327.141 79.7605 326.516 86.9462 330.165 90.403C330.165 90.403 328.754 95.6638 319.079 95.6638C308.487 95.6638 313.989 91.048 313.989 91.048C318.393 89.6774 318.353 84.6686 317.345 80.6373L328.149 74.5703Z" fill="#FF8B7B"/>
<path d="M332.13 93.8698C333.077 92.5395 333.037 88.3168 332.029 87.571C330.406 86.3717 323.442 86.0895 314.08 88.2462C315.088 92.3379 312.921 94.4745 312.921 94.4745L332.13 93.8698Z" fill="#0C7489"/>
<path d="M363.634 333.134C363.347 333.235 363.042 333.279 362.737 333.261C362.433 333.244 362.135 333.167 361.861 333.033C361.757 332.937 361.685 332.81 361.656 332.671C361.628 332.532 361.643 332.387 361.699 332.257C361.731 332.148 361.786 332.048 361.861 331.962C361.936 331.877 362.029 331.809 362.133 331.764C363.09 331.3 365.287 332.197 365.388 332.237C365.418 332.249 365.444 332.27 365.462 332.297C365.48 332.324 365.489 332.356 365.489 332.388C365.488 332.421 365.48 332.452 365.464 332.481C365.448 332.509 365.426 332.533 365.398 332.55C364.83 332.799 364.239 332.995 363.634 333.134ZM362.475 331.995C362.409 332.011 362.345 332.035 362.284 332.066C362.221 332.089 362.164 332.126 362.119 332.175C362.073 332.225 362.04 332.284 362.022 332.348C361.931 332.65 362.022 332.751 362.082 332.781C362.465 333.104 363.876 332.781 364.874 332.409C364.115 332.094 363.296 331.953 362.475 331.995Z" fill="#0C7489"/>
<path d="M365.358 332.56H365.277C364.471 332.328 362.757 331.108 362.737 330.312C362.737 330.186 362.779 330.063 362.858 329.964C362.937 329.865 363.047 329.796 363.171 329.768C363.29 329.723 363.418 329.706 363.545 329.716C363.672 329.727 363.796 329.765 363.906 329.829C364.854 330.312 365.458 332.267 365.479 332.358C365.493 332.383 365.5 332.41 365.5 332.439C365.5 332.467 365.493 332.495 365.479 332.519C365.463 332.535 365.444 332.547 365.423 332.554C365.402 332.561 365.38 332.563 365.358 332.56ZM363.342 330.05H363.261C363.06 330.121 363.06 330.222 363.06 330.272C363.06 330.746 364.209 331.703 365.075 332.086C364.864 331.522 364.4 330.403 363.785 330.07C363.649 330.008 363.494 330.001 363.352 330.05H363.342Z" fill="#0C7489"/>
<path d="M311.288 334.323C310.381 334.323 309.504 334.192 309.212 333.789C309.136 333.682 309.095 333.553 309.095 333.421C309.095 333.289 309.136 333.161 309.212 333.053C309.27 332.955 309.347 332.869 309.439 332.802C309.53 332.734 309.635 332.686 309.746 332.66C310.925 332.338 313.405 333.749 313.505 333.809C313.536 333.824 313.561 333.85 313.576 333.881C313.591 333.912 313.594 333.947 313.586 333.981C313.582 334.015 313.567 334.047 313.544 334.073C313.52 334.098 313.489 334.115 313.455 334.122C312.74 334.253 312.015 334.32 311.288 334.323ZM310.17 332.943C310.063 332.925 309.954 332.925 309.847 332.943C309.779 332.957 309.714 332.984 309.657 333.024C309.6 333.064 309.551 333.115 309.514 333.174C309.394 333.386 309.444 333.487 309.514 333.547C309.847 334.011 311.631 334.021 312.951 333.829C312.089 333.358 311.145 333.057 310.17 332.943Z" fill="#0C7489"/>
<path d="M313.445 334.122H313.375C312.518 333.739 310.825 332.207 310.956 331.401C310.956 331.209 311.117 330.978 311.581 330.937C311.746 330.918 311.914 330.933 312.074 330.981C312.233 331.03 312.381 331.111 312.508 331.219C313.154 331.992 313.541 332.947 313.617 333.951C313.616 333.979 313.61 334.008 313.598 334.034C313.585 334.06 313.568 334.083 313.546 334.102C313.515 334.118 313.48 334.124 313.445 334.122ZM311.712 331.25H311.611C311.309 331.25 311.288 331.391 311.288 331.431C311.208 331.915 312.357 333.124 313.234 333.648C313.157 332.839 312.829 332.075 312.296 331.461C312.131 331.32 311.919 331.245 311.702 331.25H311.712Z" fill="#0C7489"/>
<path d="M321.225 333.96H314.141L313.435 317.543H320.52L321.225 333.96Z" fill="#FF8B7B"/>
<path d="M373.259 330.675L366.335 332.177L359.371 316.888L366.305 315.387L373.259 330.675Z" fill="#FF8B7B"/>
<path d="M365.66 331.481L373.45 329.798C373.587 329.769 373.728 329.788 373.853 329.85C373.977 329.912 374.077 330.015 374.136 330.141L376.837 336.006C376.909 336.148 376.946 336.305 376.945 336.465C376.945 336.624 376.907 336.781 376.834 336.922C376.761 337.064 376.656 337.186 376.527 337.279C376.398 337.372 376.248 337.433 376.091 337.458C373.37 337.992 372.009 338.123 368.593 338.859C366.486 339.322 361.73 340.481 358.817 341.106C355.904 341.731 354.907 338.939 356.045 338.425C361.135 336.097 363.251 334.051 364.632 332.147C364.882 331.806 365.247 331.57 365.66 331.481Z" fill="#263238"/>
<path d="M314.191 333.134H321.931C322.072 333.135 322.208 333.183 322.318 333.271C322.427 333.359 322.504 333.481 322.536 333.618L323.937 339.917C323.978 340.069 323.983 340.229 323.951 340.383C323.919 340.538 323.851 340.682 323.753 340.806C323.655 340.93 323.529 341.028 323.386 341.094C323.243 341.161 323.087 341.192 322.929 341.187C320.137 341.136 316.106 340.975 312.599 340.975C308.487 340.975 304.95 341.197 300.132 341.197C297.22 341.197 296.413 338.254 297.633 337.982C303.176 336.772 307.711 336.641 312.498 333.689C313.001 333.352 313.587 333.16 314.191 333.134Z" fill="#263238"/>
<path d="M342.843 92.0255C349.484 93.5473 354.937 110.509 354.937 110.509L341.664 120.657C338.219 116.974 335.788 112.46 334.609 107.556C332.261 98.667 336.05 90.4533 342.843 92.0255Z" fill="#0C7489"/>
<path opacity="0.4" d="M342.843 92.0255C349.484 93.5473 354.937 110.509 354.937 110.509L341.664 120.657C338.219 116.974 335.788 112.46 334.609 107.556C332.261 98.667 336.05 90.4533 342.843 92.0255Z" fill="black"/>
<path d="M307.902 112.252C306.25 114.036 304.597 115.629 302.863 117.291C302.007 118.098 301.14 118.904 300.253 119.68L298.913 120.859L298.58 121.151L298.006 121.615C297.414 122.087 296.76 122.474 296.061 122.764C295.283 123.094 294.447 123.265 293.602 123.268C292.879 123.271 292.163 123.145 291.485 122.895C290.734 122.609 290.048 122.173 289.469 121.615C288.731 120.893 288.19 119.995 287.897 119.005C287.744 118.517 287.646 118.013 287.605 117.503C287.552 116.906 287.552 116.306 287.605 115.709C287.655 115.225 287.716 114.802 287.797 114.409C288.072 113.035 288.463 111.686 288.966 110.378C289.419 109.134 289.94 107.916 290.528 106.73C291.173 105.45 291.787 104.512 292.402 103.444C294.899 99.3536 297.749 95.4891 300.918 91.8946C304.056 88.3213 307.514 85.0423 311.248 82.0986L314.957 85.9182C312.357 89.4053 309.797 93.1442 307.429 96.8228C305.072 100.48 302.918 104.265 300.979 108.161C300.545 109.108 299.971 110.176 299.699 110.942C299.338 111.832 299.025 112.74 298.762 113.663C298.508 114.494 298.316 115.343 298.187 116.203C298.18 116.337 298.18 116.472 298.187 116.606C298.187 116.687 298.187 116.727 298.187 116.515C298.17 116.289 298.126 116.066 298.056 115.85C297.838 115.136 297.439 114.49 296.897 113.976C296.415 113.533 295.85 113.19 295.234 112.968C294.693 112.763 294.12 112.657 293.541 112.655C292.985 112.649 292.433 112.755 291.918 112.968C291.744 113.039 291.576 113.123 291.415 113.22L291.798 112.867L293.017 111.759L295.426 109.501C297.018 107.999 298.62 106.397 300.132 104.905L307.902 112.252Z" fill="#FF8B7B"/>
<path opacity="0.2" d="M337.149 104.482C340.757 108.05 341.936 114.56 342.188 120.204L341.603 120.657C338.158 116.974 335.728 112.46 334.549 107.556C334.418 107.032 334.297 106.548 334.206 105.973L337.149 104.482Z" fill="black"/>
<path d="M300.857 99.0803C299.406 106.74 298.499 122.472 302.702 153.613H340.656C340.918 147.798 337.26 119.398 342.873 91.9753C338.679 91.1699 334.437 90.6347 330.175 90.3728C324.804 90.0648 319.42 90.0648 314.05 90.3728C312.276 90.5341 310.522 90.7961 309.011 91.0682C307 91.4209 305.144 92.3758 303.688 93.8065C302.232 95.2372 301.245 97.0763 300.857 99.0803Z" fill="#0C7489"/>
<path opacity="0.4" d="M300.857 99.0803C299.406 106.74 298.499 122.472 302.702 153.613H340.656C340.918 147.798 337.26 119.398 342.873 91.9753C338.679 91.1699 334.437 90.6347 330.175 90.3728C324.804 90.0648 319.42 90.0648 314.05 90.3728C312.276 90.5341 310.522 90.7961 309.011 91.0682C307 91.4209 305.144 92.3758 303.688 93.8065C302.232 95.2372 301.245 97.0763 300.857 99.0803Z" fill="black"/>
<path opacity="0.2" d="M306.662 110.438L299.809 108.795C299.598 112.948 299.578 118.087 299.88 124.447C303.034 120.859 307.066 115.255 306.662 110.438Z" fill="black"/>
<path opacity="0.2" d="M313.435 317.543L313.798 326.009H320.893L320.53 317.543H313.435Z" fill="black"/>
<path opacity="0.2" d="M366.305 315.387L359.371 316.888L362.959 324.769L369.893 323.268L366.305 315.387Z" fill="black"/>
<path d="M331.515 66.9916C329.701 73.7842 328.976 77.8558 324.783 80.6777C318.484 84.9709 310.624 80.0528 310.422 72.8772C310.2 66.397 313.214 56.3692 320.5 54.9986C322.101 54.6981 323.753 54.8103 325.299 55.3246C326.844 55.8389 328.234 56.7383 329.336 57.9382C330.438 59.1381 331.216 60.5988 331.598 62.1827C331.979 63.7667 331.951 65.4216 331.515 66.9916Z" fill="#FF8B7B"/>
<path d="M315.612 67.2433C315.269 66.3363 313.707 59.3118 315.179 57.4877C316.65 55.6636 333.43 56.9838 335.909 59.4227C340.031 63.4539 337.169 67.0821 332.664 71.7482C329.278 75.2554 329.147 79.206 327.434 79.8107C324.41 80.8185 319.794 79.8712 318.867 76.6764C317.94 73.4817 315.612 67.2433 315.612 67.2433Z" fill="#263238"/>
<path d="M333.873 51.4308C327.947 48.9113 316.831 51.703 310.825 50.2517C310.748 52.4852 311.483 54.6709 312.893 56.4049C314.302 58.1388 316.292 59.3039 318.494 59.6848C323.477 60.6344 328.539 61.1035 333.611 61.0857C340.202 60.7833 338.912 53.5775 333.873 51.4308Z" fill="#263238"/>
<path d="M334.801 59.6344C336.965 59.8474 339.146 59.4309 341.079 58.4351C342.188 61.1158 336.091 61.8515 334.801 59.6344Z" fill="#263238"/>
<path d="M318.837 67.5255C318.701 69.2733 317.992 70.9274 316.821 72.232C315.269 73.9352 313.657 72.8669 313.384 70.8009C313.143 68.9263 313.646 65.7618 315.541 64.8548C317.436 63.9477 318.968 65.4192 318.837 67.5255Z" fill="#FF8B7B"/>
<path d="M316.156 153.643C316.156 153.643 324.219 207.813 328.623 228.11C333.45 250.332 359.391 323.852 359.391 323.852L372.08 321.101C372.08 321.101 353.939 261.176 349.908 230.106C346.784 206.241 340.646 153.623 340.646 153.623L316.156 153.643Z" fill="#0C7489"/>
<path d="M356.348 319.63C356.298 319.63 358.716 324.225 358.716 324.225L372.987 321.131L371.788 316.838L356.348 319.63Z" fill="#263238"/>
<path opacity="0.3" d="M321.246 172.943C330.548 174.767 329.56 209.456 328.441 227.304C325.761 214.686 321.83 190.418 319.149 173.195C319.799 172.874 320.539 172.785 321.246 172.943Z" fill="black"/>
<path d="M302.702 153.643C302.702 153.643 301.694 206.644 302.501 228.221C303.307 250.705 311.158 324.326 311.158 324.326H323.171C323.171 324.326 323.604 252.016 324.179 229.934C324.763 205.868 327.666 153.603 327.666 153.603L302.702 153.643Z" fill="#0C7489"/>
<path d="M308.85 319.589C308.789 319.589 309.525 324.568 309.525 324.568H324.128L324.531 320.123L308.85 319.589Z" fill="#263238"/>
<path d="M315.713 101.438C319.109 110.599 299.145 121.393 299.145 121.393L290.498 110.307C290.498 110.307 296.313 98.7979 303.367 93.6178C312.085 87.2283 313.123 94.4643 315.713 101.438Z" fill="#0C7489"/>
<path opacity="0.4" d="M315.713 101.438C319.109 110.599 299.145 121.393 299.145 121.393L290.498 110.307C290.498 110.307 296.313 98.7979 303.367 93.6178C312.085 87.2283 313.123 94.4643 315.713 101.438Z" fill="black"/>
<path d="M408.945 46.5623C408.312 46.4464 407.752 46.084 407.386 45.5547C407.021 45.0253 406.88 44.3724 406.996 43.7397L407.088 43.2386C407.514 41.1302 408.528 39.1853 410.013 37.6288C411.498 36.0723 413.393 34.9677 415.479 34.4426C417.597 33.8565 419.453 32.5688 420.743 30.7903C422.034 29.0118 422.683 26.8478 422.583 24.6526C422.484 22.4574 421.642 20.3611 420.196 18.7066C418.749 17.0521 416.784 15.9376 414.622 15.5455C412.091 15.0822 409.48 15.6434 407.362 17.1056C405.245 18.5678 403.795 20.8112 403.332 23.3424C403.216 23.9751 402.854 24.536 402.324 24.9016C401.795 25.2671 401.142 25.4074 400.509 25.2916C399.876 25.1758 399.316 24.8133 398.95 24.284C398.585 23.7546 398.444 23.1018 398.56 22.469C399.255 18.6723 401.43 15.3072 404.606 13.1139C407.782 10.9206 411.699 10.0788 415.496 10.7737C419.268 11.5152 422.601 13.7005 424.786 16.864C426.971 20.0274 427.834 23.9189 427.191 27.7092C426.699 30.3905 425.464 32.8796 423.626 34.8931C421.788 36.9065 419.422 38.3634 416.797 39.0976C415.586 39.385 414.48 40.0078 413.607 40.8947C412.734 41.7816 412.128 42.8967 411.86 44.112L411.768 44.613C411.652 45.2458 411.29 45.8067 410.76 46.1722C410.231 46.5378 409.578 46.6781 408.945 46.5623Z" fill="#0C7489"/>
<path d="M407.199 56.106C408.516 56.3471 409.78 55.4744 410.021 54.1567C410.262 52.839 409.39 51.5753 408.072 51.3341C406.754 51.093 405.491 51.9657 405.249 53.2834C405.008 54.6011 405.881 55.8648 407.199 56.106Z" fill="#0C7489"/>
<path d="M36.0547 69.5183C36.6875 69.4025 37.2484 69.04 37.6139 68.5107C37.9795 67.9814 38.1198 67.3285 38.0039 66.6957L37.9122 66.1947C37.486 64.0862 36.4718 62.1414 34.987 60.5849C33.5022 59.0284 31.6073 57.9238 29.5213 57.3986C27.4034 56.8125 25.5473 55.5248 24.2567 53.7463C22.9661 51.9678 22.3174 49.8039 22.4169 47.6087C22.5164 45.4135 23.3582 43.3171 24.8044 41.6627C26.2506 40.0082 28.2156 38.8937 30.3778 38.5016C32.9089 38.0383 35.5204 38.5995 37.6377 40.0617C39.7551 41.5239 41.2049 43.7673 41.6681 46.2984C41.784 46.9312 42.1464 47.4921 42.6757 47.8576C43.2051 48.2232 43.858 48.3635 44.4907 48.2476C45.1235 48.1318 45.6844 47.7694 46.0499 47.24C46.4155 46.7107 46.5558 46.0578 46.44 45.425C45.7451 41.6284 43.5704 38.2632 40.3944 36.0699C37.2183 33.8766 33.3011 33.0348 29.5044 33.7297C25.7321 34.4713 22.3986 36.6566 20.214 39.82C18.0294 42.9835 17.1665 46.8749 17.8091 50.6653C18.3012 53.3465 19.5364 55.8357 21.3741 57.8491C23.2118 59.8626 25.5781 61.3194 28.2034 62.0537C29.4144 62.341 30.5199 62.9639 31.3931 63.8508C32.2663 64.7377 32.8719 65.8527 33.1404 67.0681L33.2321 67.5691C33.348 68.2019 33.7104 68.7627 34.2397 69.1283C34.7691 69.4938 35.4219 69.6341 36.0547 69.5183Z" fill="#CACACA"/>
<path d="M37.8014 79.062C36.4837 79.3032 35.22 78.4305 34.9788 77.1128C34.7377 75.7951 35.6104 74.5314 36.9281 74.2902C38.2458 74.049 39.5095 74.9217 39.7507 76.2394C39.9918 77.5571 39.1191 78.8208 37.8014 79.062Z" fill="#CACACA"/>
</svg>
