<svg width="444" height="364" viewBox="0 0 444 364" fill="none" xmlns="http://www.w3.org/2000/svg">
<path d="M416.894 333.096C416.894 333.096 422.932 319.927 416.03 306.936C409.127 293.945 407.132 290.895 411.53 288.225C415.928 285.556 417.949 298.623 417.949 298.623C420.124 292.723 420.346 286.28 418.585 280.243C415.534 270.849 413.614 255.545 417.784 253.905C421.953 252.265 418.585 272.972 422.22 280.065C424.064 275.1 425.256 269.917 425.766 264.646C426.262 257.095 425.487 245.045 428.779 241.956C432.071 238.867 434.194 241.003 430.953 257.655C429.005 267.609 427.928 277.715 427.737 287.857C427.737 287.857 434.893 266.006 439.711 265.37C444.528 264.735 444.516 271.802 440.397 277.942C436.279 284.082 428.334 295.077 427.038 300.733C427.038 300.733 434.906 284.285 441.973 289.293C449.041 294.301 435.821 304.254 429.923 307.852C424.025 311.449 419.932 333.923 419.932 333.923L416.894 333.096Z" fill="#0C7489"/>
<path opacity="0.2" d="M416.894 333.096C416.894 333.096 422.932 319.927 416.03 306.936C409.127 293.945 407.132 290.895 411.53 288.225C415.928 285.556 417.949 298.623 417.949 298.623C420.124 292.723 420.346 286.28 418.585 280.243C415.534 270.849 413.614 255.545 417.784 253.905C421.953 252.265 418.585 272.972 422.22 280.065C424.064 275.1 425.256 269.917 425.766 264.646C426.262 257.095 425.487 245.045 428.779 241.956C432.071 238.867 434.194 241.003 430.953 257.655C429.005 267.609 427.928 277.715 427.737 287.857C427.737 287.857 434.893 266.006 439.711 265.37C444.528 264.735 444.516 271.802 440.397 277.942C436.279 284.082 428.334 295.077 427.038 300.733C427.038 300.733 434.906 284.285 441.973 289.293C449.041 294.301 435.821 304.254 429.923 307.852C424.025 311.449 419.932 333.923 419.932 333.923L416.894 333.096Z" fill="black"/>
<path d="M421.661 338.498C421.661 338.498 415.776 325.241 422.831 312.351C429.886 299.462 431.919 296.437 427.559 293.716C423.199 290.996 421.013 304.013 421.013 304.013C418.907 298.089 418.76 291.645 420.594 285.632C423.759 276.277 425.869 260.997 421.712 259.294C417.556 257.591 420.683 278.361 416.971 285.391C415.185 280.401 414.053 275.201 413.602 269.921C413.196 262.37 414.124 250.333 410.857 247.193C407.59 244.053 405.454 246.163 408.505 262.866C410.332 272.84 411.285 282.954 411.352 293.094C411.352 293.094 404.45 271.141 399.658 270.442C394.866 269.743 394.777 276.798 398.819 283.001C402.861 289.204 410.666 300.314 411.937 305.983C411.937 305.983 404.31 289.458 397.141 294.365C389.972 299.271 403.116 309.415 408.963 313.101C414.81 316.787 418.649 339.325 418.649 339.325L421.661 338.498Z" fill="#0C7489"/>
<path d="M394.535 329.042H443.105L439.177 363.807H398.463L394.535 329.042Z" fill="#263238"/>
<path d="M214.402 358.227V362.79C214.402 362.926 214.375 363.06 214.324 363.184C214.272 363.309 214.196 363.423 214.1 363.518C214.005 363.614 213.891 363.69 213.766 363.742C213.641 363.793 213.507 363.82 213.372 363.82H84.4539C83.3544 363.82 82.2716 363.551 81.3004 363.035C80.3292 362.52 79.4993 361.774 78.8833 360.863C78.2673 359.952 77.884 358.904 77.7671 357.811C77.6502 356.717 77.8032 355.612 78.2127 354.592L119.067 253.409L185.09 253.854L182.84 266.985L168.272 351.96C168.164 352.605 168.196 353.265 168.368 353.895C168.54 354.525 168.847 355.11 169.268 355.61C169.689 356.109 170.214 356.511 170.806 356.788C171.398 357.064 172.043 357.208 172.696 357.21H213.372C213.507 357.209 213.64 357.234 213.765 357.284C213.89 357.334 214.004 357.409 214.1 357.503C214.195 357.598 214.271 357.711 214.323 357.835C214.375 357.959 214.402 358.092 214.402 358.227Z" fill="#263238"/>
<path opacity="0.5" d="M214.402 358.227V362.79C214.402 362.926 214.375 363.06 214.324 363.184C214.272 363.309 214.196 363.423 214.1 363.518C214.005 363.614 213.891 363.69 213.766 363.742C213.641 363.793 213.507 363.82 213.372 363.82H84.4539C83.3544 363.82 82.2716 363.551 81.3004 363.035C80.3292 362.52 79.4993 361.774 78.8833 360.863C78.2673 359.952 77.884 358.904 77.7671 357.811C77.6502 356.717 77.8032 355.612 78.2127 354.592L103.546 291.861L119.067 253.409L185.09 253.854L182.84 266.985L176.484 303.937L168.26 351.96C168.151 352.605 168.184 353.265 168.356 353.895C168.527 354.525 168.835 355.11 169.256 355.61C169.676 356.109 170.201 356.511 170.793 356.788C171.385 357.064 172.03 357.208 172.683 357.21H213.36C213.495 357.207 213.63 357.231 213.757 357.28C213.883 357.33 213.998 357.404 214.095 357.499C214.192 357.594 214.269 357.707 214.322 357.832C214.375 357.957 214.402 358.091 214.402 358.227Z" fill="white"/>
<path opacity="0.2" d="M172.696 357.197H88.801C88.3176 357.196 87.842 357.076 87.416 356.848C86.99 356.619 86.6267 356.29 86.358 355.888C86.0893 355.486 85.9235 355.024 85.8751 354.543C85.8268 354.063 85.8974 353.577 86.0807 353.13L121.901 266.972H182.827L168.26 351.948C168.15 352.593 168.183 353.254 168.356 353.885C168.529 354.516 168.837 355.102 169.259 355.602C169.682 356.102 170.208 356.503 170.801 356.779C171.395 357.055 172.041 357.197 172.696 357.197Z" fill="black"/>
<path opacity="0.1" d="M185.09 253.842L182.84 266.972L176.497 303.924L103.546 291.861L119.067 253.397L185.09 253.842Z" fill="black"/>
<path d="M313.462 65.2307H7.81747C6.79087 65.2307 5.77431 65.4329 4.82585 65.8258C3.87739 66.2186 3.0156 66.7945 2.28968 67.5204C1.56376 68.2463 0.987933 69.1081 0.595068 70.0566C0.202203 71.005 0 72.0216 0 73.0482V279.976C0 282.049 0.823623 284.038 2.28968 285.504C3.75574 286.97 5.74415 287.793 7.81747 287.793H313.462C315.536 287.793 317.526 286.97 318.994 285.505C320.462 284.039 321.288 282.05 321.292 279.976V73.0482C321.288 70.9737 320.462 68.9853 318.994 67.5196C317.526 66.0539 315.536 65.2307 313.462 65.2307Z" fill="#263238"/>
<path opacity="0.6" d="M313.462 65.2307H7.81747C6.79087 65.2307 5.77431 65.4329 4.82585 65.8258C3.87739 66.2186 3.0156 66.7945 2.28968 67.5204C1.56376 68.2463 0.987933 69.1081 0.595068 70.0566C0.202203 71.005 0 72.0216 0 73.0482V279.976C0 282.049 0.823623 284.038 2.28968 285.504C3.75574 286.97 5.74415 287.793 7.81747 287.793H313.462C315.536 287.793 317.526 286.97 318.994 285.505C320.462 284.039 321.288 282.05 321.292 279.976V73.0482C321.288 70.9737 320.462 68.9853 318.994 67.5196C317.526 66.0539 315.536 65.2307 313.462 65.2307Z" fill="white"/>
<path opacity="0.2" d="M14.3003 287.781H7.81748C5.74636 287.781 3.75988 286.959 2.29418 285.496C0.828488 284.032 0.00337801 282.047 1.03351e-05 279.976V73.061C-0.00166068 72.0333 0.199315 71.0154 0.591432 70.0655C0.983548 69.1155 1.55911 68.2522 2.28519 67.525C3.01128 66.7977 3.87363 66.2208 4.82292 65.8271C5.77221 65.4334 6.78981 65.2308 7.81748 65.2308H14.3003C13.2694 65.2258 12.2477 65.4247 11.294 65.8161C10.3403 66.2075 9.47343 66.7837 8.7433 67.5114C8.01317 68.2392 7.43418 69.1042 7.03968 70.0566C6.64519 71.0091 6.44297 72.0301 6.44466 73.061V279.976C6.44463 281.005 6.64818 282.024 7.04358 282.975C7.43898 283.925 8.01843 284.788 8.74857 285.513C9.4787 286.238 10.3451 286.812 11.2979 287.201C12.2507 287.591 13.2711 287.788 14.3003 287.781Z" fill="black"/>
<path d="M314.25 71.9551H13.5376V271.485H314.25V71.9551Z" fill="#0C7489"/>
<path opacity="0.4" d="M159.743 147.905C174.163 147.905 185.852 136.216 185.852 121.796C185.852 107.377 174.163 95.6873 159.743 95.6873C145.324 95.6873 133.634 107.377 133.634 121.796C133.634 136.216 145.324 147.905 159.743 147.905Z" fill="white"/>
<path d="M153.515 117.83V115.441C153.515 114.301 153.968 113.208 154.774 112.403C155.579 111.597 156.672 111.144 157.812 111.144H161.625C162.193 111.137 162.758 111.244 163.285 111.456C163.812 111.669 164.292 111.985 164.696 112.384C165.1 112.784 165.421 113.26 165.64 113.785C165.86 114.309 165.972 114.872 165.972 115.441V117.881H168.756V115.441C168.753 113.564 168.006 111.765 166.679 110.438C165.352 109.111 163.553 108.364 161.676 108.36H157.862C155.986 108.364 154.187 109.111 152.86 110.438C151.533 111.765 150.786 113.564 150.782 115.441V117.881L153.515 117.83Z" fill="white"/>
<path d="M147.222 121.046V133.872C147.222 134.059 147.259 134.244 147.331 134.417C147.402 134.59 147.507 134.746 147.639 134.879C147.771 135.011 147.928 135.116 148.101 135.187C148.274 135.259 148.459 135.296 148.646 135.296H170.84C171.027 135.296 171.212 135.259 171.385 135.187C171.557 135.116 171.714 135.011 171.847 134.879C171.979 134.746 172.084 134.59 172.155 134.417C172.227 134.244 172.263 134.059 172.263 133.872V121.046C172.263 120.669 172.114 120.307 171.847 120.04C171.58 119.773 171.217 119.623 170.84 119.623H148.646C148.459 119.623 148.274 119.659 148.101 119.731C147.928 119.802 147.771 119.907 147.639 120.04C147.507 120.172 147.402 120.329 147.331 120.501C147.259 120.674 147.222 120.859 147.222 121.046ZM160.544 128.304V130.847H158.98V128.304C158.751 128.177 158.559 127.994 158.421 127.771C158.283 127.549 158.204 127.295 158.192 127.033C158.192 126.612 158.359 126.208 158.657 125.91C158.955 125.612 159.36 125.444 159.781 125.444C160.202 125.444 160.607 125.612 160.905 125.91C161.202 126.208 161.37 126.612 161.37 127.033C161.354 127.298 161.269 127.555 161.124 127.778C160.979 128 160.779 128.182 160.544 128.304Z" fill="white"/>
<path d="M96.0462 169.527H71.3862C69.9189 169.527 68.7295 170.717 68.7295 172.184V196.844C68.7295 198.311 69.9189 199.501 71.3862 199.501H96.0462C97.5134 199.501 98.7028 198.311 98.7028 196.844V172.184C98.7028 170.717 97.5134 169.527 96.0462 169.527Z" fill="white"/>
<path d="M134.067 169.489H109.407C107.939 169.489 106.75 170.679 106.75 172.146V196.806C106.75 198.273 107.939 199.463 109.407 199.463H134.067C135.534 199.463 136.723 198.273 136.723 196.806V172.146C136.723 170.679 135.534 169.489 134.067 169.489Z" fill="white"/>
<path d="M172.073 169.451H147.413C145.946 169.451 144.756 170.641 144.756 172.108V196.768C144.756 198.235 145.946 199.425 147.413 199.425H172.073C173.54 199.425 174.73 198.235 174.73 196.768V172.108C174.73 170.641 173.54 169.451 172.073 169.451Z" fill="white"/>
<path d="M210.08 169.4H185.42C183.953 169.4 182.764 170.59 182.764 172.057V196.717C182.764 198.184 183.953 199.373 185.42 199.373H210.08C211.548 199.373 212.737 198.184 212.737 196.717V172.057C212.737 170.59 211.548 169.4 210.08 169.4Z" fill="white"/>
<path d="M248.087 169.362H223.427C221.96 169.362 220.771 170.551 220.771 172.019V196.679C220.771 198.146 221.96 199.335 223.427 199.335H248.087C249.554 199.335 250.744 198.146 250.744 196.679V172.019C250.744 170.551 249.554 169.362 248.087 169.362Z" fill="white"/>
<path d="M229.159 184.934C229.159 179.658 231.981 176.658 235.769 176.658C239.557 176.658 242.366 179.658 242.366 184.934C242.366 190.209 239.544 193.209 235.769 193.209C231.994 193.209 229.159 190.209 229.159 184.934ZM240.053 184.934C240.053 180.79 238.286 178.718 235.769 178.718C233.252 178.718 231.473 180.79 231.473 184.934C231.473 189.077 233.227 191.149 235.769 191.149C238.311 191.149 240.053 189.065 240.053 184.934Z" fill="#263238"/>
<path d="M89.7424 184.73C89.7424 190.247 86.6154 193.209 82.1156 193.209C80.7112 193.259 79.3192 192.929 78.0861 192.255L78.8996 190.438C79.8438 190.983 80.9243 191.248 82.0139 191.2C85.2934 191.2 87.3781 189.141 87.3781 185.086V184.514C86.8357 185.224 86.1256 185.789 85.3114 186.157C84.4973 186.525 83.6045 186.686 82.713 186.624C79.4971 186.624 77.1836 184.705 77.1836 181.73C77.1836 178.756 79.7259 176.646 82.891 176.646C87.2891 176.658 89.7424 179.569 89.7424 184.73ZM86.8951 181.654C86.8951 179.989 85.6239 178.527 83.0817 178.527C82.6367 178.473 82.1853 178.514 81.7573 178.647C81.3292 178.78 80.9342 179.002 80.598 179.299C80.2619 179.595 79.9923 179.96 79.8069 180.368C79.6216 180.776 79.5246 181.219 79.5225 181.667C79.5225 183.573 80.9334 184.794 83.2088 184.794C85.4841 184.794 86.8951 183.434 86.8951 181.654Z" fill="#263238"/>
<path d="M115.126 184.934C115.126 179.658 117.948 176.658 121.736 176.658C125.524 176.658 128.333 179.658 128.333 184.934C128.333 190.209 125.511 193.209 121.736 193.209C117.961 193.209 115.126 190.209 115.126 184.934ZM126.02 184.934C126.02 180.79 124.265 178.718 121.736 178.718C119.206 178.718 117.439 180.79 117.439 184.934C117.439 189.077 119.194 191.149 121.736 191.149C124.278 191.149 126.02 189.077 126.02 184.934Z" fill="#263238"/>
<path d="M165.591 191.01V192.98H153.96V191.454L160.544 185.099C162.26 183.434 162.578 182.417 162.578 181.4C162.578 179.735 161.408 178.718 159.133 178.718C158.356 178.675 157.58 178.81 156.864 179.114C156.147 179.418 155.51 179.883 155.002 180.472L153.426 179.112C154.169 178.289 155.087 177.642 156.111 177.218C157.136 176.793 158.242 176.602 159.349 176.659C162.718 176.659 164.891 178.387 164.891 181.158C164.891 182.735 164.434 184.145 162.235 186.243L157.29 190.997L165.591 191.01Z" fill="#263238"/>
<path d="M199.657 176.836V192.98H197.369V178.858H193.708V176.836H199.657Z" fill="#263238"/>
<g opacity="0.6">
<path d="M131.308 162.206V162.778H126.897V156.536H131.168V157.108H127.558V159.333H130.774V159.93H127.558V162.244L131.308 162.206Z" fill="white"/>
<path d="M137.028 160.057V162.778H136.393V160.121C136.431 159.924 136.421 159.72 136.365 159.527C136.309 159.334 136.208 159.157 136.07 159.011C135.933 158.864 135.762 158.753 135.573 158.685C135.384 158.617 135.181 158.595 134.982 158.621C134.758 158.605 134.533 158.638 134.324 158.718C134.114 158.798 133.924 158.923 133.768 159.084C133.612 159.245 133.493 159.439 133.419 159.651C133.346 159.863 133.319 160.088 133.342 160.312V162.778H132.719V158.087H133.317V158.951C133.508 158.659 133.773 158.422 134.086 158.265C134.399 158.109 134.747 158.039 135.096 158.062C135.361 158.039 135.628 158.076 135.877 158.169C136.126 158.262 136.351 158.41 136.536 158.601C136.721 158.792 136.861 159.022 136.946 159.274C137.032 159.526 137.06 159.793 137.028 160.057Z" fill="white"/>
<path d="M141.185 162.473C140.906 162.699 140.553 162.817 140.194 162.803C140.011 162.818 139.827 162.794 139.654 162.731C139.481 162.668 139.324 162.569 139.194 162.439C139.063 162.31 138.963 162.154 138.898 161.982C138.834 161.81 138.807 161.626 138.821 161.443V158.659H137.982V158.125H138.821V157.108H139.456V158.125H140.88V158.659H139.456V161.456C139.456 162.015 139.736 162.307 140.257 162.307C140.51 162.315 140.757 162.234 140.956 162.079L141.185 162.473Z" fill="white"/>
<path d="M146.27 160.629H142.355C142.384 161.089 142.594 161.519 142.94 161.824C143.285 162.129 143.738 162.284 144.198 162.256C144.467 162.265 144.735 162.215 144.983 162.11C145.231 162.004 145.453 161.846 145.634 161.646L145.99 162.053C145.643 162.379 145.212 162.6 144.746 162.693C144.279 162.786 143.796 162.746 143.351 162.578C142.906 162.409 142.517 162.12 142.229 161.742C141.94 161.364 141.764 160.912 141.719 160.439C141.701 160.129 141.748 159.82 141.855 159.53C141.963 159.239 142.129 158.974 142.344 158.751C142.559 158.528 142.818 158.351 143.104 158.233C143.39 158.114 143.697 158.056 144.007 158.062C144.316 158.056 144.622 158.114 144.907 158.233C145.192 158.352 145.449 158.528 145.662 158.752C145.874 158.976 146.038 159.241 146.143 159.531C146.248 159.822 146.291 160.131 146.27 160.439C146.27 160.439 146.27 160.553 146.27 160.629ZM142.355 160.159H145.672C145.636 159.744 145.445 159.358 145.138 159.077C144.831 158.795 144.43 158.639 144.013 158.639C143.597 158.639 143.196 158.795 142.888 159.077C142.581 159.358 142.391 159.744 142.355 160.159Z" fill="white"/>
<path d="M149.918 158.062V158.659H149.765C149.542 158.647 149.318 158.685 149.111 158.77C148.904 158.855 148.719 158.985 148.568 159.15C148.417 159.316 148.305 159.512 148.239 159.726C148.174 159.94 148.157 160.166 148.189 160.388V162.777H147.541V158.087H148.151V159.002C148.314 158.684 148.571 158.423 148.887 158.255C149.203 158.087 149.562 158.019 149.918 158.062Z" fill="white"/>
<path d="M157.392 158.087L155.053 163.337C154.659 164.252 154.163 164.545 153.489 164.545C153.281 164.552 153.074 164.518 152.88 164.443C152.685 164.369 152.508 164.257 152.358 164.112L152.65 163.642C152.759 163.759 152.891 163.851 153.038 163.912C153.185 163.973 153.343 164.003 153.502 163.998C153.921 163.998 154.201 163.807 154.468 163.223L154.671 162.765L152.625 158.087H153.286L155.04 162.066L156.807 158.087H157.392Z" fill="white"/>
<path d="M157.709 160.439C157.707 159.965 157.845 159.502 158.106 159.107C158.367 158.713 158.739 158.405 159.176 158.222C159.612 158.039 160.093 157.99 160.557 158.081C161.022 158.171 161.449 158.398 161.784 158.732C162.12 159.065 162.349 159.491 162.442 159.955C162.535 160.419 162.489 160.9 162.308 161.337C162.128 161.775 161.821 162.149 161.428 162.412C161.035 162.675 160.572 162.816 160.099 162.816C159.783 162.828 159.468 162.775 159.173 162.66C158.878 162.545 158.61 162.371 158.386 162.148C158.162 161.925 157.986 161.658 157.87 161.364C157.753 161.07 157.699 160.755 157.709 160.439ZM161.828 160.439C161.813 160.097 161.698 159.768 161.497 159.491C161.296 159.215 161.019 159.004 160.699 158.884C160.379 158.764 160.031 158.741 159.698 158.818C159.365 158.894 159.062 159.067 158.826 159.315C158.591 159.562 158.433 159.874 158.373 160.21C158.314 160.546 158.354 160.893 158.49 161.206C158.625 161.52 158.85 161.787 159.137 161.973C159.423 162.16 159.757 162.258 160.099 162.256C160.332 162.255 160.561 162.206 160.774 162.113C160.987 162.019 161.179 161.883 161.337 161.713C161.496 161.543 161.618 161.342 161.695 161.123C161.773 160.903 161.805 160.671 161.79 160.439H161.828Z" fill="white"/>
<path d="M167.942 158.087V162.778H167.345V161.913C167.171 162.202 166.922 162.439 166.624 162.598C166.326 162.757 165.991 162.832 165.654 162.816C165.386 162.842 165.114 162.808 164.861 162.716C164.607 162.624 164.377 162.476 164.188 162.284C163.999 162.091 163.855 161.858 163.768 161.603C163.681 161.347 163.652 161.075 163.684 160.807V158.087H164.307V160.744C164.269 160.941 164.278 161.145 164.335 161.338C164.391 161.531 164.492 161.708 164.629 161.854C164.767 162 164.937 162.112 165.127 162.18C165.316 162.248 165.518 162.269 165.718 162.244C165.939 162.257 166.16 162.221 166.365 162.139C166.571 162.057 166.756 161.931 166.907 161.77C167.059 161.608 167.173 161.416 167.242 161.206C167.311 160.996 167.333 160.773 167.307 160.553V158.087H167.942Z" fill="white"/>
<path d="M172.074 158.062V158.659H171.921C171.698 158.647 171.474 158.685 171.267 158.77C171.06 158.855 170.875 158.985 170.724 159.15C170.573 159.316 170.461 159.513 170.396 159.727C170.33 159.94 170.313 160.166 170.345 160.388V162.777H169.709V158.087H170.32V159.002C170.482 158.686 170.737 158.427 171.05 158.259C171.364 158.091 171.721 158.022 172.074 158.062Z" fill="white"/>
<path d="M175.188 159.663C175.165 159.01 175.338 158.365 175.684 157.811C176.03 157.257 176.534 156.819 177.131 156.553C177.728 156.287 178.39 156.206 179.034 156.319C179.677 156.432 180.272 156.735 180.743 157.189C181.213 157.643 181.537 158.227 181.673 158.866C181.809 159.505 181.751 160.17 181.506 160.776C181.262 161.382 180.842 161.901 180.3 162.267C179.759 162.632 179.12 162.828 178.467 162.828C178.041 162.846 177.617 162.776 177.219 162.625C176.821 162.473 176.457 162.243 176.151 161.947C175.844 161.651 175.601 161.296 175.435 160.904C175.27 160.511 175.185 160.089 175.188 159.663ZM181.073 159.663C181.088 159.139 180.945 158.623 180.663 158.18C180.382 157.738 179.974 157.391 179.492 157.183C179.011 156.976 178.478 156.918 177.963 157.016C177.448 157.115 176.975 157.366 176.604 157.736C176.233 158.107 175.982 158.581 175.884 159.096C175.785 159.611 175.843 160.143 176.051 160.625C176.258 161.106 176.606 161.514 177.048 161.796C177.49 162.078 178.007 162.221 178.531 162.205C179.205 162.205 179.852 161.938 180.328 161.461C180.805 160.984 181.073 160.337 181.073 159.663Z" fill="white"/>
<path d="M184.327 157.108H182.141V156.536H187.225V157.108H185.026V162.778H184.365L184.327 157.108Z" fill="white"/>
<path d="M193.111 158.659C193.111 159.93 192.145 160.782 190.568 160.782H188.903V162.752H188.217V156.511H190.543C192.145 156.536 193.111 157.388 193.111 158.659ZM192.45 158.659C192.45 157.655 191.789 157.083 190.543 157.083H188.89V160.197H190.543C191.789 160.223 192.45 159.663 192.45 158.659Z" fill="white"/>
</g>
<g opacity="0.6">
<path d="M135.02 215.72L135.274 215.225C135.845 215.72 136.578 215.987 137.333 215.975C138.49 215.975 138.999 215.492 138.999 214.869C138.999 213.165 135.185 214.208 135.185 211.907C135.185 210.992 135.897 210.204 137.473 210.204C138.157 210.194 138.828 210.384 139.405 210.75L139.189 211.271C138.676 210.944 138.082 210.768 137.473 210.763C136.342 210.763 135.834 211.271 135.834 211.894C135.834 213.598 139.647 212.568 139.647 214.831C139.647 215.759 138.922 216.534 137.333 216.534C136.487 216.566 135.66 216.275 135.02 215.72Z" fill="white"/>
<path d="M144.998 214.335H141.083C141.113 214.795 141.323 215.224 141.669 215.529C142.014 215.834 142.466 215.99 142.926 215.962C143.196 215.971 143.464 215.921 143.712 215.815C143.96 215.71 144.182 215.552 144.363 215.352L144.719 215.759C144.495 216.015 144.217 216.217 143.904 216.351C143.592 216.485 143.253 216.548 142.914 216.534C142.591 216.554 142.268 216.506 141.965 216.394C141.662 216.281 141.386 216.107 141.154 215.883C140.922 215.658 140.739 215.387 140.618 215.088C140.496 214.789 140.438 214.467 140.448 214.144C140.432 213.836 140.48 213.527 140.588 213.237C140.696 212.948 140.863 212.683 141.077 212.461C141.292 212.238 141.549 212.061 141.835 211.942C142.12 211.823 142.427 211.763 142.736 211.767C143.045 211.759 143.353 211.816 143.64 211.935C143.926 212.053 144.185 212.229 144.399 212.453C144.613 212.677 144.778 212.943 144.884 213.234C144.989 213.525 145.032 213.835 145.011 214.144C145.011 214.144 144.998 214.271 144.998 214.335ZM141.083 213.865H144.401C144.365 213.45 144.174 213.064 143.867 212.782C143.56 212.501 143.159 212.345 142.742 212.345C142.326 212.345 141.924 212.501 141.617 212.782C141.31 213.064 141.12 213.45 141.083 213.865Z" fill="white"/>
<path d="M150.63 213.763V216.483H150.007V213.826C150.043 213.63 150.031 213.428 149.974 213.236C149.917 213.045 149.816 212.87 149.678 212.725C149.541 212.58 149.371 212.47 149.183 212.403C148.995 212.336 148.794 212.314 148.596 212.339C148.372 212.323 148.148 212.356 147.938 212.436C147.728 212.516 147.539 212.641 147.382 212.802C147.226 212.963 147.107 213.157 147.034 213.369C146.96 213.581 146.934 213.806 146.956 214.03V216.483H146.27V211.805H146.88V212.67C147.07 212.374 147.334 212.135 147.647 211.976C147.96 211.818 148.31 211.745 148.66 211.767C148.928 211.738 149.199 211.77 149.453 211.861C149.706 211.952 149.937 212.098 150.126 212.29C150.315 212.482 150.459 212.714 150.546 212.969C150.633 213.224 150.662 213.495 150.63 213.763Z" fill="white"/>
<path d="M156.642 209.873V216.483H156.032V215.555C155.846 215.865 155.58 216.119 155.263 216.291C154.945 216.463 154.588 216.547 154.227 216.534C153.625 216.49 153.062 216.22 152.651 215.778C152.24 215.336 152.011 214.754 152.011 214.151C152.011 213.547 152.24 212.966 152.651 212.524C153.062 212.081 153.625 211.811 154.227 211.767C154.578 211.755 154.927 211.834 155.239 211.996C155.551 212.159 155.815 212.4 156.006 212.695V209.873H156.642ZM156.019 214.144C156.004 213.804 155.889 213.475 155.689 213.198C155.489 212.922 155.212 212.711 154.893 212.591C154.574 212.471 154.226 212.447 153.894 212.522C153.561 212.598 153.258 212.77 153.022 213.016C152.786 213.262 152.627 213.572 152.566 213.908C152.505 214.243 152.544 214.59 152.677 214.903C152.811 215.217 153.034 215.485 153.319 215.673C153.603 215.861 153.937 215.962 154.278 215.962C154.514 215.966 154.748 215.921 154.967 215.83C155.185 215.739 155.382 215.604 155.545 215.433C155.709 215.263 155.835 215.06 155.917 214.838C155.998 214.616 156.033 214.38 156.019 214.144Z" fill="white"/>
<path d="M164.269 213.585V216.483H163.659V215.759C163.482 216.019 163.24 216.228 162.956 216.364C162.673 216.5 162.358 216.559 162.045 216.534C160.99 216.534 160.341 215.975 160.341 215.161C160.341 214.348 160.799 213.89 162.146 213.89H163.634V213.61C163.652 213.439 163.631 213.266 163.573 213.103C163.516 212.941 163.423 212.794 163.301 212.672C163.179 212.55 163.032 212.457 162.869 212.399C162.707 212.342 162.534 212.321 162.362 212.339C161.791 212.331 161.235 212.529 160.799 212.899L160.519 212.428C161.056 212 161.727 211.774 162.413 211.793C162.658 211.763 162.907 211.789 163.141 211.868C163.375 211.947 163.589 212.077 163.766 212.248C163.944 212.42 164.081 212.629 164.168 212.86C164.255 213.091 164.29 213.339 164.269 213.585ZM163.634 215.072V214.309H162.159C161.257 214.309 160.964 214.665 160.964 215.148C160.964 215.631 161.396 216.026 162.146 216.026C162.464 216.046 162.779 215.965 163.047 215.794C163.314 215.622 163.52 215.369 163.634 215.072Z" fill="white"/>
<path d="M170.332 211.805V215.86C170.382 216.179 170.356 216.505 170.256 216.811C170.156 217.118 169.985 217.396 169.757 217.624C169.529 217.852 169.251 218.023 168.944 218.123C168.638 218.223 168.312 218.249 167.993 218.199C167.203 218.23 166.428 217.978 165.807 217.487L166.125 217.004C166.646 217.425 167.298 217.65 167.968 217.64C169.163 217.64 169.697 217.106 169.697 215.949V215.352C169.496 215.645 169.223 215.881 168.905 216.039C168.587 216.197 168.234 216.271 167.879 216.254C167.567 216.278 167.253 216.236 166.957 216.133C166.662 216.03 166.391 215.866 166.161 215.653C165.932 215.44 165.749 215.182 165.623 214.895C165.498 214.608 165.434 214.298 165.434 213.985C165.434 213.672 165.498 213.362 165.623 213.075C165.749 212.788 165.932 212.53 166.161 212.317C166.391 212.104 166.662 211.941 166.957 211.838C167.253 211.734 167.567 211.693 167.879 211.716C168.24 211.699 168.599 211.775 168.922 211.938C169.245 212.101 169.521 212.344 169.722 212.644V211.754L170.332 211.805ZM169.722 214.03C169.735 213.675 169.641 213.325 169.453 213.024C169.266 212.723 168.992 212.486 168.669 212.341C168.345 212.197 167.985 212.152 167.636 212.213C167.287 212.275 166.964 212.439 166.708 212.685C166.453 212.931 166.277 213.248 166.203 213.595C166.129 213.942 166.16 214.303 166.293 214.632C166.426 214.961 166.654 215.242 166.947 215.441C167.241 215.639 167.588 215.746 167.942 215.746C168.174 215.76 168.407 215.726 168.625 215.645C168.843 215.565 169.042 215.44 169.209 215.279C169.377 215.118 169.509 214.923 169.597 214.708C169.685 214.493 169.728 214.262 169.722 214.03Z" fill="white"/>
<path d="M175.633 213.585V216.483H175.035V215.759C174.858 216.018 174.615 216.226 174.332 216.362C174.049 216.498 173.735 216.558 173.421 216.534C172.353 216.534 171.705 215.975 171.705 215.161C171.705 214.348 172.175 213.89 173.523 213.89H174.997V213.61C174.997 212.81 174.552 212.339 173.726 212.339C173.159 212.332 172.608 212.531 172.175 212.899L171.883 212.428C172.425 212 173.099 211.775 173.79 211.793C174.034 211.766 174.281 211.793 174.514 211.873C174.746 211.952 174.958 212.083 175.134 212.254C175.31 212.425 175.447 212.633 175.533 212.864C175.619 213.094 175.653 213.34 175.633 213.585ZM174.997 215.072V214.309H173.536C172.62 214.309 172.328 214.665 172.328 215.148C172.328 215.631 172.773 216.026 173.523 216.026C173.839 216.048 174.153 215.967 174.419 215.795C174.685 215.623 174.888 215.369 174.997 215.072Z" fill="white"/>
<path d="M177.209 210.318C177.227 210.208 177.284 210.108 177.369 210.036C177.454 209.964 177.562 209.925 177.673 209.925C177.784 209.925 177.892 209.964 177.977 210.036C178.062 210.108 178.119 210.208 178.137 210.318C178.119 210.428 178.062 210.528 177.977 210.6C177.892 210.672 177.784 210.711 177.673 210.711C177.562 210.711 177.454 210.672 177.369 210.6C177.284 210.528 177.227 210.428 177.209 210.318ZM177.349 211.805H177.984V216.483H177.349V211.805Z" fill="white"/>
<path d="M184.047 213.763V216.483H183.425V213.826C183.46 213.63 183.449 213.428 183.392 213.237C183.335 213.045 183.233 212.87 183.096 212.725C182.958 212.58 182.789 212.47 182.601 212.403C182.413 212.336 182.212 212.314 182.014 212.339C181.79 212.323 181.565 212.356 181.355 212.436C181.146 212.516 180.956 212.641 180.8 212.802C180.644 212.964 180.525 213.157 180.451 213.369C180.377 213.581 180.351 213.806 180.374 214.03V216.483H179.751V211.805H180.348V212.67C180.538 212.374 180.803 212.135 181.116 211.976C181.428 211.818 181.778 211.746 182.128 211.767C182.392 211.747 182.657 211.785 182.905 211.879C183.152 211.973 183.376 212.121 183.559 212.312C183.743 212.502 183.882 212.732 183.966 212.982C184.05 213.233 184.078 213.5 184.047 213.763Z" fill="white"/>
</g>
<path opacity="0.4" d="M195.157 248.261H124.317C121.518 248.258 118.834 247.143 116.856 245.163C114.878 243.182 113.767 240.497 113.767 237.698C113.767 234.899 114.878 232.214 116.856 230.233C118.834 228.253 121.518 227.138 124.317 227.135H195.157C197.959 227.135 200.646 228.248 202.627 230.229C204.608 232.21 205.72 234.897 205.72 237.698C205.72 240.5 204.608 243.186 202.627 245.167C200.646 247.148 197.959 248.261 195.157 248.261Z" fill="white"/>
<path d="M132.109 237.164C132.103 236.669 132.198 236.178 132.39 235.722C132.582 235.266 132.865 234.854 133.223 234.512C133.581 234.17 134.005 233.905 134.469 233.733C134.933 233.562 135.428 233.488 135.922 233.516C136.427 233.498 136.93 233.589 137.397 233.781C137.864 233.974 138.285 234.265 138.63 234.635L137.969 235.27C137.713 234.995 137.402 234.778 137.055 234.633C136.709 234.489 136.335 234.42 135.96 234.431C135.509 234.436 135.066 234.552 134.67 234.769C134.275 234.986 133.939 235.298 133.693 235.677C133.448 236.056 133.3 236.489 133.263 236.939C133.226 237.389 133.3 237.841 133.481 238.255C133.661 238.669 133.94 239.031 134.295 239.311C134.649 239.59 135.068 239.777 135.512 239.855C135.957 239.934 136.414 239.901 136.842 239.759C137.271 239.618 137.658 239.373 137.969 239.045L138.63 239.681C138.283 240.051 137.86 240.343 137.391 240.536C136.922 240.729 136.416 240.819 135.909 240.8C135.417 240.827 134.924 240.754 134.461 240.583C133.998 240.413 133.576 240.149 133.219 239.808C132.863 239.467 132.58 239.056 132.389 238.601C132.198 238.147 132.103 237.657 132.109 237.164Z" fill="white"/>
<path d="M139.316 237.164C139.281 236.404 139.474 235.65 139.871 235C140.267 234.349 140.85 233.833 141.543 233.517C142.236 233.201 143.007 233.1 143.758 233.226C144.509 233.352 145.205 233.701 145.757 234.226C146.308 234.752 146.689 235.43 146.851 236.175C147.014 236.919 146.949 237.694 146.666 238.402C146.384 239.109 145.896 239.715 145.266 240.143C144.635 240.57 143.891 240.799 143.13 240.8C142.637 240.826 142.144 240.751 141.682 240.58C141.219 240.409 140.796 240.145 140.439 239.804C140.082 239.464 139.798 239.054 139.605 238.6C139.412 238.146 139.314 237.658 139.316 237.164ZM145.862 237.164C145.87 236.614 145.714 236.074 145.413 235.613C145.113 235.152 144.682 234.791 144.176 234.576C143.669 234.361 143.11 234.301 142.57 234.405C142.03 234.508 141.532 234.771 141.141 235.158C140.75 235.545 140.484 236.04 140.375 236.579C140.267 237.119 140.321 237.678 140.531 238.187C140.742 238.695 141.099 239.129 141.557 239.434C142.015 239.738 142.554 239.9 143.104 239.897C143.468 239.91 143.83 239.847 144.168 239.715C144.507 239.582 144.814 239.382 145.073 239.126C145.331 238.87 145.534 238.564 145.67 238.227C145.806 237.889 145.871 237.528 145.862 237.164Z" fill="white"/>
<path d="M154.557 233.656V240.774H153.718L149.447 235.461V240.774H148.43V233.656H149.269L153.54 238.957V233.656H154.557Z" fill="white"/>
<path d="M158.104 234.482H155.663V233.656H161.523V234.533H159.108V240.774H158.104V234.482Z" fill="white"/>
<path d="M162.654 233.656H163.671V240.774H162.654V233.656Z" fill="white"/>
<path d="M171.934 233.656V240.774H171.095L166.824 235.461V240.774H165.807V233.656H166.607L170.878 238.957V233.656H171.934Z" fill="white"/>
<path d="M174.006 237.647V233.656H175.023V237.66C175.023 239.236 175.747 239.948 177.031 239.948C178.315 239.948 179.04 239.236 179.04 237.66V233.656H180.031V237.698C180.031 238.497 179.714 239.263 179.149 239.828C178.584 240.393 177.817 240.711 177.018 240.711C176.219 240.711 175.453 240.393 174.888 239.828C174.323 239.263 174.006 238.497 174.006 237.698V237.647Z" fill="white"/>
<path d="M187.276 239.834V240.724H182.115V233.656H187.2V234.533H183.132V236.719H186.691V237.584H183.132V239.885L187.276 239.834Z" fill="white"/>
<path opacity="0.1" d="M282.903 72.8831C241.325 114.538 134.537 207.255 13.5376 200.39V72.8831H282.903Z" fill="white"/>
<path opacity="0.1" d="M314.237 149.443V272.425H133.202C140.143 247.588 154.023 213.572 180.946 189.268C229.376 145.541 285.586 145.668 314.237 149.443Z" fill="white"/>
<path d="M352.485 53.2693L356.705 71.9041L360.926 53.2693H352.485Z" fill="#0C7489"/>
<path opacity="0.7" d="M352.485 53.2693L356.705 71.9041L360.926 53.2693H352.485Z" fill="white"/>
<path d="M403.941 0.504639H309.483C303.453 0.504639 298.564 5.39325 298.564 11.4237V46.4815C298.564 52.5119 303.453 57.4006 309.483 57.4006H403.941C409.971 57.4006 414.86 52.5119 414.86 46.4815V11.4237C414.86 5.39325 409.971 0.504639 403.941 0.504639Z" fill="#0C7489"/>
<path opacity="0.7" d="M403.941 0.504639H309.483C303.453 0.504639 298.564 5.39325 298.564 11.4237V46.4815C298.564 52.5119 303.453 57.4006 309.483 57.4006H403.941C409.971 57.4006 414.86 52.5119 414.86 46.4815V11.4237C414.86 5.39325 409.971 0.504639 403.941 0.504639Z" fill="white"/>
<g opacity="0.5">
<path d="M321.787 21.3764V23.8297H320.783V21.3764L317.961 16.7495H319.054L321.329 20.5629L323.617 16.7495H324.622L321.787 21.3764Z" fill="#263238"/>
<path d="M324.393 21.1477C324.383 20.59 324.539 20.0419 324.841 19.5733C325.144 19.1047 325.579 18.7368 326.091 18.5163C326.604 18.2959 327.17 18.2329 327.718 18.3355C328.266 18.4381 328.772 18.7016 329.17 19.0924C329.568 19.4831 329.84 19.9835 329.953 20.5298C330.065 21.0761 330.013 21.6435 329.802 22.1598C329.591 22.676 329.231 23.1178 328.768 23.4288C328.305 23.7398 327.76 23.9059 327.202 23.906C326.833 23.9237 326.464 23.8649 326.118 23.7332C325.773 23.6015 325.458 23.3998 325.195 23.1408C324.931 22.8817 324.723 22.571 324.585 22.228C324.447 21.885 324.382 21.5172 324.393 21.1477ZM329.007 21.1477C329.028 20.897 328.997 20.6448 328.915 20.4068C328.834 20.1689 328.704 19.9505 328.534 19.7653C328.363 19.5802 328.156 19.4324 327.926 19.3313C327.696 19.2303 327.447 19.1781 327.196 19.1781C326.944 19.1781 326.695 19.2303 326.465 19.3313C326.235 19.4324 326.028 19.5802 325.858 19.7653C325.687 19.9505 325.557 20.1689 325.476 20.4068C325.394 20.6448 325.363 20.897 325.384 21.1477C325.363 21.3983 325.394 21.6505 325.476 21.8885C325.557 22.1264 325.687 22.3449 325.858 22.53C326.028 22.7151 326.235 22.8629 326.465 22.964C326.695 23.0651 326.944 23.1172 327.196 23.1172C327.447 23.1172 327.696 23.0651 327.926 22.964C328.156 22.8629 328.363 22.7151 328.534 22.53C328.704 22.3449 328.834 22.1264 328.915 21.8885C328.997 21.6505 329.028 21.3983 329.007 21.1477Z" fill="#263238"/>
<path d="M336.367 18.4529V23.8425H335.451V23.029C335.24 23.3123 334.963 23.54 334.644 23.6928C334.325 23.8456 333.974 23.9187 333.621 23.9061C333.305 23.9385 332.986 23.8997 332.688 23.7926C332.389 23.6856 332.118 23.5128 331.895 23.2872C331.672 23.0616 331.502 22.7888 331.398 22.489C331.294 22.1891 331.259 21.8698 331.295 21.5544V18.4529H332.274V21.4528C332.274 22.5078 332.808 23.029 333.735 23.029C333.968 23.0441 334.201 23.0075 334.418 22.9218C334.635 22.836 334.83 22.7032 334.989 22.533C335.148 22.3628 335.268 22.1594 335.339 21.9374C335.41 21.7155 335.431 21.4805 335.401 21.2494V18.4529H336.367Z" fill="#263238"/>
<path d="M341.134 18.4021V19.3555H340.905C340.668 19.34 340.43 19.3776 340.209 19.4653C339.988 19.5531 339.79 19.6889 339.628 19.8629C339.466 20.037 339.345 20.2448 339.273 20.4715C339.202 20.6981 339.182 20.9378 339.214 21.1732V23.8553H338.21V18.453H339.151V19.3682C339.354 19.0346 339.649 18.7663 340.001 18.5951C340.352 18.4239 340.745 18.357 341.134 18.4021Z" fill="#263238"/>
<path d="M344.705 20.2833C344.672 19.5229 344.868 18.7701 345.266 18.1216C345.665 17.4732 346.248 16.9588 346.941 16.6446C347.634 16.3305 348.406 16.231 349.156 16.359C349.906 16.4869 350.601 16.8364 351.151 17.3626C351.701 17.8887 352.081 18.5674 352.242 19.3113C352.403 20.0551 352.338 20.8302 352.055 21.5367C351.772 22.2432 351.284 22.8487 350.653 23.2755C350.023 23.7023 349.28 23.9308 348.519 23.9315C348.025 23.9594 347.53 23.8854 347.066 23.7141C346.601 23.5428 346.177 23.2779 345.82 22.9358C345.462 22.5936 345.178 22.1816 344.987 21.7254C344.795 21.2691 344.699 20.7782 344.705 20.2833ZM351.252 20.2833C351.259 19.7332 351.103 19.1932 350.802 18.7322C350.502 18.2713 350.071 17.9102 349.565 17.6949C349.058 17.4797 348.499 17.4201 347.959 17.5237C347.419 17.6274 346.921 17.8895 346.53 18.2768C346.14 18.664 345.873 19.1588 345.764 19.6982C345.656 20.2376 345.71 20.7972 345.921 21.3055C346.131 21.8139 346.488 22.248 346.946 22.5527C347.405 22.8574 347.943 23.0187 348.493 23.0163C348.857 23.0285 349.219 22.9664 349.557 22.8337C349.896 22.701 350.204 22.5006 350.462 22.2447C350.72 21.9888 350.923 21.6828 351.059 21.3455C351.195 21.0083 351.26 20.6468 351.252 20.2833Z" fill="#263238"/>
<path d="M355.142 17.5631H352.701V16.686H358.548V17.5631H356.108V23.7917H355.104L355.142 17.5631Z" fill="#263238"/>
<path d="M365.437 19.2158C365.437 20.7538 364.319 21.6945 362.463 21.6945H360.709V23.8427H359.692V16.7371H362.463C364.319 16.7371 365.437 17.665 365.437 19.2158ZM364.421 19.2158C364.421 18.1989 363.734 17.6141 362.438 17.6141H360.709V20.8047H362.438C363.734 20.8047 364.421 20.2327 364.421 19.2158Z" fill="#263238"/>
<path d="M369.188 20.2834C369.222 19.5478 369.468 18.8378 369.897 18.2392C370.326 17.6406 370.919 17.179 371.605 16.9102C372.29 16.6413 373.039 16.5768 373.76 16.7242C374.482 16.8716 375.145 17.2248 375.67 17.7411L375.009 18.3894C374.754 18.1127 374.443 17.8936 374.097 17.7468C373.751 17.5999 373.377 17.5286 373.001 17.5377C372.276 17.5377 371.581 17.8257 371.068 18.3382C370.556 18.8507 370.268 19.5458 370.268 20.2707C370.268 20.9955 370.556 21.6906 371.068 22.2031C371.581 22.7157 372.276 23.0036 373.001 23.0036C373.377 23.0127 373.751 22.9414 374.097 22.7946C374.443 22.6477 374.754 22.4286 375.009 22.1519L375.67 22.8002C375.145 23.3165 374.482 23.6697 373.76 23.8171C373.039 23.9646 372.29 23.8999 371.605 23.6311C370.919 23.3623 370.326 22.9007 369.897 22.3021C369.468 21.7035 369.222 20.9935 369.188 20.2579V20.2834Z" fill="#263238"/>
<path d="M376.255 21.1477C376.244 20.59 376.401 20.0419 376.703 19.5733C377.006 19.1047 377.441 18.7368 377.953 18.5163C378.465 18.2959 379.032 18.2329 379.58 18.3355C380.128 18.4381 380.634 18.7016 381.032 19.0924C381.43 19.4831 381.702 19.9835 381.815 20.5298C381.927 21.0761 381.875 21.6435 381.664 22.1598C381.453 22.676 381.093 23.1178 380.63 23.4288C380.167 23.7398 379.622 23.9059 379.064 23.906C378.695 23.9237 378.326 23.8649 377.98 23.7332C377.635 23.6015 377.32 23.3998 377.056 23.1408C376.793 22.8817 376.585 22.571 376.447 22.228C376.309 21.885 376.244 21.5172 376.255 21.1477ZM380.869 21.1477C380.89 20.897 380.859 20.6448 380.777 20.4068C380.696 20.1689 380.566 19.9505 380.395 19.7653C380.225 19.5802 380.018 19.4324 379.788 19.3313C379.558 19.2303 379.309 19.1781 379.057 19.1781C378.806 19.1781 378.557 19.2303 378.327 19.3313C378.097 19.4324 377.89 19.5802 377.719 19.7653C377.549 19.9505 377.419 20.1689 377.338 20.4068C377.256 20.6448 377.225 20.897 377.246 21.1477C377.225 21.3983 377.256 21.6505 377.338 21.8885C377.419 22.1264 377.549 22.3449 377.719 22.53C377.89 22.7151 378.097 22.8629 378.327 22.964C378.557 23.0651 378.806 23.1172 379.057 23.1172C379.309 23.1172 379.558 23.0651 379.788 22.964C380.018 22.8629 380.225 22.7151 380.395 22.53C380.566 22.3449 380.696 22.1264 380.777 21.8885C380.859 21.6505 380.89 21.3983 380.869 21.1477Z" fill="#263238"/>
<path d="M388.293 16.292V23.8298H387.365V22.9781C387.143 23.2747 386.853 23.5129 386.518 23.6723C386.184 23.8317 385.816 23.9076 385.446 23.8934C384.748 23.8459 384.095 23.5354 383.617 23.0245C383.14 22.5136 382.875 21.8405 382.875 21.1414C382.875 20.4422 383.14 19.7691 383.617 19.2582C384.095 18.7474 384.748 18.4368 385.446 18.3894C385.805 18.3784 386.161 18.4507 386.488 18.6007C386.814 18.7507 387.101 18.9742 387.327 19.2537V16.292H388.293ZM387.327 21.135C387.31 20.7793 387.188 20.4365 386.977 20.1492C386.767 19.862 386.476 19.643 386.142 19.5193C385.808 19.3957 385.445 19.3729 385.099 19.4538C384.752 19.5347 384.436 19.7157 384.191 19.9744C383.947 20.233 383.783 20.5579 383.721 20.9087C383.66 21.2595 383.702 21.6207 383.844 21.9474C383.986 22.2742 384.22 22.5521 384.519 22.7466C384.817 22.9412 385.166 23.0438 385.522 23.0417C385.768 23.0477 386.013 23.002 386.241 22.9078C386.468 22.8135 386.674 22.6727 386.844 22.4943C387.014 22.316 387.145 22.104 387.228 21.8721C387.311 21.6402 387.345 21.3935 387.327 21.1477V21.135Z" fill="#263238"/>
<path d="M394.992 21.4782H390.632C390.692 21.9401 390.928 22.3611 391.289 22.6544C391.651 22.9478 392.112 23.0909 392.576 23.0544C392.866 23.0648 393.155 23.0122 393.423 22.9003C393.691 22.7884 393.931 22.6198 394.127 22.4061L394.674 23.029C394.276 23.4326 393.769 23.7123 393.215 23.8343C392.662 23.9563 392.084 23.9153 391.553 23.7164C391.022 23.5174 390.56 23.169 390.223 22.7132C389.886 22.2574 389.688 21.7137 389.653 21.1477C389.639 20.7866 389.699 20.4265 389.83 20.0896C389.96 19.7526 390.159 19.4461 390.412 19.1888C390.666 18.9315 390.97 18.7289 391.305 18.5936C391.64 18.4583 391.999 18.3931 392.36 18.4021C392.725 18.3839 393.089 18.4446 393.428 18.5798C393.768 18.7151 394.074 18.9219 394.326 19.186C394.578 19.4501 394.77 19.7655 394.889 20.1106C395.009 20.4557 395.052 20.8224 395.017 21.1858C395.014 21.2837 395.006 21.3813 394.992 21.4782ZM390.632 20.7791H394.14C394.103 20.3478 393.905 19.9462 393.586 19.6535C393.268 19.3608 392.85 19.1984 392.418 19.1984C391.985 19.1984 391.568 19.3608 391.249 19.6535C390.93 19.9462 390.732 20.3478 390.695 20.7791H390.632Z" fill="#263238"/>
</g>
<g opacity="0.5">
<path d="M342.024 34.9777C342.024 38.9818 339.774 41.1173 336.481 41.1173C335.467 41.1532 334.462 40.9161 333.571 40.4309L334.206 39.1598C334.894 39.5511 335.678 39.7405 336.469 39.7063C338.846 39.7063 340.358 38.2191 340.358 35.2828V34.876C339.965 35.3915 339.451 35.8017 338.861 36.07C338.271 36.3384 337.624 36.4566 336.977 36.4141C336.476 36.4691 335.97 36.4187 335.489 36.2661C335.009 36.1135 334.566 35.8621 334.189 35.5281C333.812 35.1941 333.509 34.7848 333.3 34.3266C333.09 33.8684 332.979 33.3714 332.973 32.8676C332.985 32.3476 333.104 31.8355 333.321 31.3628C333.538 30.8902 333.85 30.467 334.237 30.1193C334.624 29.7717 335.078 29.5068 335.571 29.3412C336.064 29.1755 336.586 29.1124 337.104 29.1559C340.244 29.1305 342.024 31.2406 342.024 34.9777ZM339.952 32.8168C339.952 31.6092 338.986 30.5542 337.155 30.5542C336.836 30.5204 336.512 30.554 336.206 30.6528C335.901 30.7517 335.619 30.9134 335.379 31.1278C335.14 31.3422 334.948 31.6044 334.816 31.8975C334.684 32.1906 334.615 32.5081 334.613 32.8295C334.613 34.2023 335.63 35.0921 337.27 35.0921C337.596 35.1253 337.926 35.0921 338.24 34.9947C338.554 34.8973 338.844 34.7375 339.095 34.5251C339.345 34.3127 339.55 34.0519 339.697 33.7583C339.845 33.4648 339.931 33.1446 339.952 32.8168Z" fill="#263238"/>
<path d="M343.625 35.1304C343.625 31.317 345.672 29.1306 348.417 29.1306C351.163 29.1306 353.184 31.317 353.184 35.1304C353.184 38.9438 351.137 41.1174 348.417 41.1174C345.697 41.1174 343.625 38.9438 343.625 35.1304ZM351.506 35.1304C351.506 32.1305 350.235 30.6305 348.417 30.6305C346.599 30.6305 345.303 32.1305 345.303 35.1304C345.303 38.1302 346.574 39.6302 348.417 39.6302C350.26 39.6302 351.506 38.1302 351.506 35.1304Z" fill="#263238"/>
<path d="M362.985 39.5284V40.9902H354.557V39.8461L359.337 35.2446C360.608 34.0371 360.798 33.2998 360.798 32.5626C360.798 31.3677 359.947 30.6304 358.256 30.6304C357.694 30.5973 357.132 30.6949 356.613 30.9154C356.095 31.1359 355.635 31.4735 355.269 31.9016L354.125 30.9101C354.663 30.3147 355.326 29.8461 356.067 29.5384C356.808 29.2306 357.607 29.0913 358.409 29.1305C360.849 29.1305 362.425 30.4016 362.425 32.3973C362.407 33.1172 362.224 33.8232 361.891 34.462C361.559 35.1007 361.085 35.6553 360.506 36.0836L356.922 39.5284H362.985Z" fill="#263238"/>
<path d="M367.993 29.2705V40.9903H366.328V30.7323H363.633V29.2705H367.993Z" fill="#263238"/>
<path d="M370.548 35.1304C370.548 31.317 372.594 29.1306 375.34 29.1306C378.086 29.1306 380.107 31.317 380.107 35.1304C380.107 38.9438 378.073 41.1174 375.34 41.1174C372.607 41.1174 370.548 38.9438 370.548 35.1304ZM378.442 35.1304C378.442 32.1305 377.17 30.6305 375.34 30.6305C373.51 30.6305 372.226 32.1305 372.226 35.1304C372.226 38.1302 373.497 39.6302 375.34 39.6302C377.183 39.6302 378.442 38.1302 378.442 35.1304Z" fill="#263238"/>
</g>
<path d="M346.256 107.928C353.844 113.179 362.332 116.992 371.297 119.177H371.386C370.715 119.158 370.054 119.344 369.492 119.711C368.938 120.057 368.497 120.556 368.221 121.148C368.128 121.329 368.076 121.529 368.069 121.732C368.272 119.063 367.115 116.063 366.302 113.178C364.84 108.614 363.124 103.937 361.408 99.3478L366.314 96.7166C370.369 102.932 383.907 122.61 374.666 128.304C373.082 129.228 371.209 129.527 369.416 129.143C359.347 127.652 349.744 123.906 341.324 118.186C340.739 117.779 340.231 117.423 339.544 116.915L346.281 107.903L346.256 107.928Z" fill="#DC897C"/>
<path d="M344.833 106.542C349.283 107.079 353.509 108.795 357.074 111.513L351.989 127.249C351.989 127.249 327.278 104.47 344.833 106.542Z" fill="#0C7489"/>
<path opacity="0.6" d="M344.782 119.775C347.044 122.366 349.437 124.839 351.952 127.186L354.049 120.715L357.074 111.449C353.513 108.733 349.292 107.018 344.846 106.479C334.041 105.271 339.202 113.356 344.782 119.775Z" fill="white"/>
<path opacity="0.2" d="M344.782 119.775C347.044 122.365 349.437 124.839 351.951 127.186L354.048 120.715C351.411 118.66 348.164 117.542 344.82 117.538C344.744 118.281 344.731 119.029 344.782 119.775Z" fill="black"/>
<path d="M289.907 83.2681C289.907 83.2681 278.086 122.571 302.987 127.847C327.889 133.122 330.583 115.034 330.583 115.034C330.583 115.034 310.118 84.0689 289.907 83.2681Z" fill="#263238"/>
<path d="M284.073 96.2842C284.027 96.2973 283.979 96.2973 283.933 96.2842C283.897 96.2668 283.865 96.2422 283.839 96.212C283.813 96.1817 283.793 96.1465 283.781 96.1083C283.769 96.0702 283.765 96.0301 283.77 95.9904C283.774 95.9507 283.786 95.9122 283.806 95.8775C284.178 95.1992 284.702 94.6166 285.337 94.1754C285.972 93.7343 286.701 93.4466 287.467 93.3352C287.546 93.3377 287.622 93.3686 287.68 93.4223C287.738 93.476 287.775 93.5488 287.784 93.6276C287.788 93.6677 287.783 93.708 287.771 93.7464C287.759 93.7847 287.739 93.8203 287.713 93.851C287.687 93.8817 287.656 93.907 287.62 93.9254C287.584 93.9438 287.545 93.9549 287.505 93.9581C286.842 94.0663 286.213 94.3239 285.664 94.7115C285.116 95.0992 284.663 95.6066 284.34 96.1953C284.307 96.2324 284.265 96.2601 284.218 96.2758C284.171 96.2914 284.121 96.2943 284.073 96.2842Z" fill="#263238"/>
<path d="M287.632 101.166C287.472 102.698 287.126 104.204 286.602 105.653C286.996 105.888 287.446 106.012 287.905 106.012C288.364 106.012 288.814 105.888 289.208 105.653L287.632 101.166Z" fill="#DE5753"/>
<path d="M285.23 99.4496C285.496 100.149 286.094 100.568 286.501 100.39C286.907 100.212 287.136 99.5132 286.869 98.814C286.602 98.1149 286.005 97.6954 285.598 97.8734C285.191 98.0514 284.975 98.7505 285.23 99.4496Z" fill="#263238"/>
<path d="M285.802 97.8352H284.06C284.06 97.8352 285.306 98.8013 285.802 97.8352Z" fill="#263238"/>
<path d="M310.538 106.047C310.494 106.161 310.434 106.268 310.36 106.364C310.246 106.581 310.118 106.784 309.991 107C309.246 108.34 308.254 109.526 307.068 110.496C303.254 113.534 299.937 114.449 297.051 113.572L296.632 113.432C292.348 111.691 289.005 106.568 286.348 99.7927C285.169 97.1414 284.427 94.3169 284.149 91.4286C284.149 91.4286 284.149 91.3269 284.149 91.3015C284.149 91.2761 284.149 91.0727 284.149 90.971C284.05 89.3157 284.365 87.6617 285.067 86.159C285.768 84.6563 286.833 83.3524 288.166 82.3655C289.305 81.471 290.542 80.7078 291.852 80.0901C304.551 73.8997 316.906 94.0599 310.538 106.047Z" fill="#E4897B"/>
<path opacity="0.2" d="M309.991 107C309.246 108.339 308.254 109.526 307.067 110.496C303.254 113.534 299.936 114.449 297.051 113.572C299.857 112.892 302.383 111.36 304.284 109.186C305.017 108.427 305.908 107.837 306.894 107.459C307.881 107.082 308.938 106.925 309.991 107Z" fill="black"/>
<path d="M284.085 91.3524C284.085 91.3524 287.632 100.682 297.992 100.517C297.992 100.517 306.076 108.144 311.529 105.716C318.965 102.424 320.491 88.8991 312.915 79.4546C303.076 67.2008 281.619 76.0352 284.085 91.3524Z" fill="#263238"/>
<path d="M292.449 99.9835C291.788 98.5725 291.801 95.687 294.127 94.9752C296.454 94.2634 300.483 99.2081 295.475 103.072C294.763 103.632 293.822 102.907 292.449 99.9835Z" fill="#E4897B"/>
<path d="M295.233 74.37C295.233 74.37 285.623 76.264 282.522 81.9968C278.886 88.6576 278.708 93.8184 288.369 97.2504C288.369 97.2504 300.584 85.8102 305.847 84.5391C308.914 83.7781 312.039 83.2764 315.19 83.0392C311.681 72.8828 299.11 70.1626 295.233 74.37Z" fill="#263238"/>
<path d="M304.551 110.737C304.551 110.737 311.16 115.313 312.877 122.864L333.482 110.839C333.482 110.839 317.351 107.165 314.58 100.924C314.58 100.924 303.801 102.259 304.551 110.737Z" fill="#E4897B"/>
<path d="M325.015 160.248C325.015 160.248 298.321 134.024 295.449 125.787C295.449 125.787 306.673 108.309 329.108 107.572C351.544 106.835 366.81 149.519 366.81 149.519L325.015 160.248Z" fill="#0C7489"/>
<path opacity="0.6" d="M366.811 149.532L325.028 160.26C325.028 160.26 319.207 154.528 312.698 147.549C310.69 145.375 308.593 143.087 306.572 140.825C301.271 134.812 296.593 128.94 295.462 125.749C295.462 125.749 306.673 108.271 329.109 107.534C351.544 106.797 366.811 149.532 366.811 149.532Z" fill="white"/>
<path d="M300.076 96.0429C300.076 96.0429 303.979 109.008 317.682 113.305C331.384 117.601 327.94 131.597 341.223 129.944C348.29 129.067 354.341 114.69 332.668 101.979C320.033 94.5938 324.94 70.3152 298.119 72.5905C298.093 72.6032 303.661 89.2424 300.076 96.0429Z" fill="#263238"/>
<path d="M313.385 357.884L307.029 356.435C307.983 324.656 312.571 286.23 316.626 257.362C317.262 252.837 317.898 248.566 318.482 244.575C318.775 242.681 319.042 240.863 319.308 239.109C320.58 230.453 321.749 223.614 322.448 219.381C322.969 216.292 323.262 214.602 323.262 214.602L346.142 220.182L344.502 225.953L339.1 245.02L338.49 247.193L334.905 259.765L328.829 281.158C329.211 313.458 313.385 357.884 313.385 357.884Z" fill="#E4897B"/>
<path d="M367.789 352.57L361.281 352.24C356.324 318.072 354.239 275.336 353.337 245.63C353.21 241.028 353.095 236.732 353.006 232.817C353.006 232.626 353.006 232.436 353.006 232.245C352.841 224.504 352.765 218.351 352.727 214.449C352.727 211.398 352.727 209.733 352.727 209.733L376.204 211.271L375.2 221.059L373.726 235.423L373.433 238.245L372.416 248.032L369.671 274.332C375.671 306.11 367.789 352.57 367.789 352.57Z" fill="#E4897B"/>
<path d="M370.23 351.299C370.23 350.485 360.188 351.121 360.188 351.121C360.188 351.121 354.023 357.388 348.036 358.748C342.049 360.108 345.404 363.756 352.09 363.756H368.615C373.395 363.807 370.42 359.752 370.23 351.299Z" fill="#263238"/>
<path d="M354.035 353.447C353.89 353.316 353.789 353.143 353.746 352.952C353.703 352.761 353.72 352.561 353.794 352.38C353.833 352.237 353.901 352.104 353.993 351.989C354.084 351.873 354.198 351.777 354.328 351.706C355.04 351.415 355.819 351.327 356.578 351.452C355.764 351.019 355.052 350.498 355.014 349.964C355.014 349.621 355.218 349.342 355.675 349.125C355.875 349.035 356.092 348.988 356.311 348.988C356.53 348.988 356.747 349.035 356.946 349.125C358.306 349.697 359.145 352.036 359.184 352.125C359.21 352.191 359.21 352.264 359.184 352.329V352.392C359.159 352.42 359.129 352.442 359.095 352.456C357.799 353.12 356.396 353.55 354.951 353.727C354.622 353.749 354.296 353.649 354.035 353.447ZM354.595 352.176C354.526 352.211 354.464 352.26 354.414 352.318C354.364 352.377 354.326 352.446 354.302 352.519C354.201 352.913 354.302 353.015 354.302 353.053C354.785 353.447 356.616 352.888 358.116 352.265C356.974 351.905 355.755 351.87 354.595 352.164V352.176ZM355.866 349.634C355.726 349.634 355.497 349.825 355.51 349.964C355.51 350.409 356.972 351.236 358.446 351.757C358.118 350.876 357.517 350.123 356.73 349.609C356.603 349.549 356.464 349.518 356.323 349.52C356.179 349.519 356.036 349.549 355.904 349.609L355.866 349.634Z" fill="#263238"/>
<path d="M316.601 351.299C316.601 350.485 306.572 351.121 306.572 351.121C306.572 351.121 300.407 357.388 294.42 358.748C288.433 360.108 291.776 363.756 298.462 363.756H314.987C319.779 363.807 316.817 359.752 316.601 351.299Z" fill="#263238"/>
<path d="M300.419 353.447C300.277 353.314 300.178 353.141 300.135 352.95C300.092 352.76 300.107 352.561 300.178 352.38C300.217 352.237 300.285 352.104 300.377 351.989C300.468 351.873 300.582 351.777 300.712 351.706C301.424 351.416 302.203 351.328 302.962 351.452C302.148 351.019 301.436 350.498 301.411 349.964C301.411 349.625 301.627 349.346 302.059 349.125C302.259 349.035 302.476 348.988 302.695 348.988C302.914 348.988 303.131 349.035 303.33 349.125C304.69 349.697 305.529 352.036 305.568 352.125C305.583 352.157 305.591 352.192 305.591 352.227C305.591 352.262 305.583 352.297 305.568 352.329C305.568 352.329 305.568 352.329 305.568 352.392L305.479 352.456C304.177 353.117 302.771 353.548 301.322 353.727C300.998 353.743 300.678 353.644 300.419 353.447ZM300.979 352.176C300.911 352.211 300.852 352.26 300.804 352.319C300.755 352.378 300.72 352.446 300.699 352.519C300.597 352.913 300.699 353.015 300.763 353.053C301.233 353.447 303.063 352.888 304.576 352.265C303.411 351.89 302.163 351.855 300.979 352.164V352.176ZM302.25 349.634C302.11 349.634 301.881 349.825 301.894 349.964C301.894 350.409 303.356 351.236 304.843 351.757C304.51 350.875 303.904 350.123 303.114 349.609C302.987 349.548 302.848 349.517 302.708 349.52C302.563 349.519 302.42 349.549 302.288 349.609L302.25 349.634Z" fill="#263238"/>
<path d="M319.601 224.16L325.016 186.026V160.222C339.29 149.494 366.81 149.494 366.81 149.494C366.81 149.494 387.949 178.819 377.679 227.033L351.137 230.846L349.447 221.847L346.116 230.846L319.601 224.16Z" fill="#263238"/>
<path opacity="0.2" d="M319.601 224.16L325.016 186.026V160.222C339.29 149.494 366.81 149.494 366.81 149.494C366.81 149.494 387.949 178.819 377.679 227.033L351.137 230.846L349.447 221.847L346.116 230.846L319.601 224.16Z" fill="white"/>
<path opacity="0.2" d="M349.447 221.987L354.531 206.11C354.531 206.11 359.896 204.483 366.785 193.831C366.81 193.831 365.616 211.957 349.447 221.987Z" fill="black"/>
<path opacity="0.2" d="M338.134 167.557L350.045 166.426C351.946 170.878 352.605 175.763 351.951 180.561L344.325 185.149L338.795 181.222C338.795 181.222 338.617 171.141 338.134 167.557Z" fill="black"/>
<path opacity="0.2" d="M366.811 164.646C368.409 168.574 369.589 172.66 370.332 176.836L374.552 178.628L376.827 175.794C376.827 175.794 375.289 167.493 372.683 163.426L366.811 164.646Z" fill="black"/>
<path d="M319.105 221.987L347.273 230.249L345.506 234.037L318.749 225.8L319.105 221.987Z" fill="#263238"/>
<path d="M350.044 229.703L350.515 233.185L378.136 229.703L378.556 225.317L350.044 229.703Z" fill="#263238"/>
<path d="M355.841 154.845C360.359 154.082 364.925 153.636 369.505 153.511L367.802 150.702C363.347 150.584 358.89 150.848 354.48 151.49L355.841 154.845Z" fill="#263238"/>
<path d="M330.507 158.303C326.859 159.879 324.762 161.061 324.762 161.061V164.532C326.812 163.498 328.867 162.553 330.927 161.697L330.507 158.303Z" fill="#263238"/>
<path d="M332.261 161.201C339.326 158.431 346.657 156.391 354.137 155.112L352.866 151.731C345.614 152.94 338.526 154.979 331.74 157.807L332.261 161.201Z" fill="#263238"/>
<path d="M255.892 171.129L248.672 168.23L247.401 175.044C247.401 175.044 253.909 178.984 256.629 174.294L255.892 171.129Z" fill="#E4897B"/>
<path d="M245.087 168.65L242.773 173.912L247.451 175.044L248.671 168.23L245.087 168.65Z" fill="#E4897B"/>
<path d="M366.696 97.8987L365.845 90.1702L359.26 92.3057C359.26 92.3057 358.854 99.9325 364.281 100.085L366.696 97.8987Z" fill="#E4897B"/>
<path d="M363.773 87.2085L358.04 87.6661L359.26 92.3058L365.845 90.1702L363.773 87.2085Z" fill="#E4897B"/>
<path opacity="0.2" d="M312.698 147.587C310.69 145.414 308.593 143.126 306.571 140.863C305.796 136.134 305.3 131.965 305.3 131.965C307.722 133.761 309.663 136.126 310.953 138.851C312.244 141.576 312.843 144.576 312.698 147.587Z" fill="black"/>
<path d="M306.038 129.779C303.127 141.517 298.731 152.837 292.958 163.464C287.238 174.332 265.489 175.641 254.557 175.921L254.049 170.379C260.633 168.828 281.099 164.748 283.895 158.812C288.46 148.527 292.217 137.902 295.132 127.033L306.038 129.753V129.779Z" fill="#DC897C"/>
<path d="M299.809 120.194C293.593 124.262 290.263 134.838 289.208 140.011L302.122 149.519L308.643 143.164C311.287 128.571 302.173 118.656 299.809 120.194Z" fill="#0C7489"/>
<path opacity="0.6" d="M299.809 120.194C293.593 124.262 290.263 134.838 289.208 140.011L302.122 149.519L308.643 143.164C311.287 128.571 302.173 118.656 299.809 120.194Z" fill="white"/>
<path d="M362.858 100.377L353.629 101.369C353.499 101.373 353.37 101.349 353.249 101.3C353.129 101.252 353.02 101.178 352.929 101.085C352.838 100.992 352.768 100.881 352.722 100.759C352.676 100.637 352.656 100.507 352.663 100.377L352.104 80.84C352.086 80.5639 352.169 80.2906 352.337 80.0709C352.506 79.8512 352.748 79.6999 353.019 79.6452L362.235 78.6664C362.365 78.6607 362.496 78.6827 362.617 78.7308C362.739 78.779 362.849 78.8523 362.94 78.9459C363.031 79.0395 363.101 79.1513 363.146 79.274C363.191 79.3967 363.21 79.5275 363.201 79.6579L363.76 99.1952C363.778 99.468 363.696 99.7381 363.531 99.9554C363.365 100.173 363.126 100.323 362.858 100.377Z" fill="#263238"/>
<path opacity="0.6" d="M362.858 100.377L353.629 101.369C353.499 101.373 353.37 101.349 353.249 101.3C353.129 101.252 353.02 101.178 352.929 101.085C352.838 100.992 352.768 100.881 352.722 100.759C352.676 100.637 352.656 100.507 352.663 100.377L352.104 80.84C352.086 80.5639 352.169 80.2906 352.337 80.0709C352.506 79.8512 352.748 79.6999 353.019 79.6452L362.235 78.6664C362.365 78.6607 362.496 78.6827 362.617 78.7308C362.739 78.779 362.849 78.8523 362.94 78.9459C363.031 79.0395 363.101 79.1513 363.146 79.274C363.191 79.3967 363.21 79.5275 363.201 79.6579L363.76 99.1952C363.778 99.468 363.696 99.7381 363.531 99.9554C363.365 100.173 363.126 100.323 362.858 100.377Z" fill="white"/>
<path d="M362.044 100.466L352.828 101.445C352.698 101.453 352.567 101.432 352.445 101.386C352.323 101.339 352.212 101.267 352.12 101.175C352.027 101.083 351.956 100.972 351.909 100.85C351.862 100.727 351.842 100.597 351.849 100.466L351.303 80.9164C351.279 80.6424 351.359 80.3695 351.526 80.151C351.693 79.9324 351.935 79.7838 352.205 79.7343L361.421 78.7555C361.551 78.75 361.68 78.7716 361.8 78.819C361.921 78.8664 362.03 78.9385 362.121 79.0307C362.212 79.1229 362.283 79.2332 362.329 79.3543C362.374 79.4755 362.394 79.6049 362.387 79.7343L362.946 99.2843C362.97 99.5583 362.89 99.8312 362.724 100.05C362.557 100.268 362.314 100.417 362.044 100.466Z" fill="#263238"/>
<path opacity="0.7" d="M362.044 100.466L352.828 101.445C352.698 101.453 352.567 101.432 352.445 101.386C352.323 101.339 352.212 101.267 352.12 101.175C352.027 101.083 351.956 100.972 351.909 100.85C351.862 100.727 351.842 100.597 351.849 100.466L351.303 80.9164C351.279 80.6424 351.359 80.3695 351.526 80.151C351.693 79.9324 351.935 79.7838 352.205 79.7343L361.421 78.7555C361.551 78.75 361.68 78.7716 361.8 78.819C361.921 78.8664 362.03 78.9385 362.121 79.0307C362.212 79.1229 362.283 79.2332 362.329 79.3543C362.374 79.4755 362.394 79.6049 362.387 79.7343L362.946 99.2843C362.97 99.5583 362.89 99.8312 362.724 100.05C362.557 100.268 362.314 100.417 362.044 100.466Z" fill="white"/>
<path d="M361.434 79.1368L359.019 79.391L358.714 80.141L354.976 80.535L354.633 79.8613L352.218 80.1156C352.043 80.152 351.888 80.2508 351.78 80.3934C351.672 80.536 351.62 80.7128 351.633 80.891L352.18 100.428C352.174 100.513 352.187 100.598 352.217 100.678C352.247 100.758 352.293 100.83 352.354 100.89C352.414 100.95 352.486 100.997 352.566 101.027C352.645 101.057 352.731 101.069 352.815 101.064L362.031 100.085C362.205 100.051 362.36 99.9551 362.468 99.8146C362.576 99.6741 362.628 99.499 362.616 99.3224L362.069 79.7724C362.073 79.6879 362.059 79.6037 362.028 79.5249C361.998 79.4462 361.951 79.3747 361.891 79.3149C361.831 79.2552 361.76 79.2085 361.681 79.1778C361.602 79.1472 361.518 79.1332 361.434 79.1368Z" fill="#0C7489"/>
<path opacity="0.8" d="M360.201 86.2042L353.426 86.9288C353.343 86.9324 353.26 86.9188 353.183 86.8887C353.106 86.8587 353.036 86.8129 352.977 86.7544C352.919 86.6958 352.873 86.6257 352.843 86.5485C352.813 86.4713 352.799 86.3887 352.803 86.3059V84.4247C352.787 84.2493 352.837 84.0743 352.942 83.9334C353.048 83.7926 353.202 83.6958 353.375 83.662L360.163 82.9374C360.245 82.9355 360.328 82.9508 360.404 82.9824C360.481 83.014 360.55 83.0612 360.607 83.121C360.665 83.1807 360.709 83.2518 360.738 83.3296C360.766 83.4074 360.778 83.4903 360.773 83.573L360.836 85.4543C360.847 85.637 360.787 85.8169 360.669 85.9566C360.55 86.0963 360.383 86.1849 360.201 86.2042Z" fill="white"/>
</svg>
