<svg width="60" height="59" viewBox="0 0 60 59" fill="none" xmlns="http://www.w3.org/2000/svg">
<mask id="mask0_19_1704" style="mask-type:luminance" maskUnits="userSpaceOnUse" x="0" y="0" width="29" height="59">
<path d="M0 0H28.7496V58.4878H0V0Z" fill="white"/>
</mask>
<g mask="url(#mask0_19_1704)">
<mask id="mask1_19_1704" style="mask-type:luminance" maskUnits="userSpaceOnUse" x="-1" y="0" width="30" height="59">
<path d="M28.4047 9.42368V49.2182C28.4047 50.4731 28.0946 51.646 27.6987 52.746C27.2318 53.8459 26.524 54.8637 25.6503 55.7247C24.7875 56.5857 23.7696 57.2916 22.6679 57.7695C21.5661 58.2365 20.3075 58.4754 19.0507 58.4754C16.5353 58.4754 14.1749 57.4594 12.5697 55.7247C11.9477 55.1027 11.3129 54.3129 10.9171 53.523C10.5231 52.8189 10.2111 51.9561 10.0561 51.1681C8.64241 50.5461 7.29988 49.7563 6.12698 48.8114C4.86836 47.8665 3.7666 46.6936 2.9038 45.3547C1.95892 44.014 1.18003 42.531 0.700297 40.8802C0.233328 39.41 -0.00562859 37.7592 -0.00562859 36.0372C-0.00562859 35.4152 -0.00562835 34.7804 0.0782798 34.0745C0.162188 33.4525 0.233328 32.8195 0.388376 32.1975C0.545248 31.6466 0.700297 31.0958 0.941077 30.5467C1.09613 29.9958 1.33508 29.5289 1.56309 29.051C1.09613 28.0349 0.773261 27.0061 0.545248 25.9901C0.304468 24.8884 0.233328 23.7884 0.233328 22.6155C0.233328 20.9647 0.472284 19.3158 0.941077 17.8309C1.40805 16.264 2.11397 14.7701 3.06068 13.4422C3.92347 12.1854 5.02523 11.0143 6.19812 9.9855C7.29988 9.04062 8.5585 8.26356 9.97218 7.62877C10.1272 6.7678 10.4391 5.90682 10.8331 5.11699C11.3001 4.17211 11.851 3.39504 12.5587 2.68912C13.4215 1.89928 14.4394 1.19336 15.5411 0.726391C16.6429 0.261247 17.8413 0.00952148 19.0872 0.00952148C20.344 0.00952148 21.6026 0.248478 22.7044 0.715447C23.8061 1.18242 24.824 1.88834 25.6868 2.67635C26.5477 3.53732 27.2555 4.55517 27.7352 5.73901C28.0946 6.99581 28.4047 8.16688 28.4047 9.42368ZM26.2012 49.2182V9.42368C26.2012 8.4788 25.9622 7.54486 25.6503 6.67112C25.2545 5.81015 24.7875 5.02214 24.0816 4.40012C23.4577 3.7781 22.6679 3.22723 21.8051 2.83322C20.9423 2.5213 20.0813 2.36625 19.0507 2.36625C18.104 2.36625 17.1701 2.5213 16.3802 2.83322C15.5174 3.22723 14.7258 3.7781 14.0198 4.40012C13.3978 5.02214 12.847 5.81015 12.5223 6.67112C12.1283 7.53392 11.9714 8.4788 11.9714 9.42368C11.9714 10.0457 12.0553 10.6787 12.2103 11.2295C12.3672 11.8516 12.6062 12.4006 12.9181 12.9515C13.23 13.5024 13.5401 13.9675 14.0198 14.3633C14.4157 14.7573 14.8097 15.1532 15.3606 15.4633C16.4641 15.5472 17.5659 15.7752 18.4998 16.2531C19.6016 16.7201 20.5483 17.353 21.3272 18.1301C22.1881 18.9911 22.8959 20.0089 23.3738 21.1927C23.8408 22.2088 24.0816 23.4656 24.0816 24.7205C24.0816 25.3426 23.9977 26.0613 23.8408 26.6833C23.6857 27.3892 23.4468 28.0222 23.2188 28.6442C22.9068 29.2662 22.5128 29.8171 22.117 30.3661C21.7212 30.917 21.2542 31.384 20.7033 31.778C20.4644 32.0169 20.2364 32.0899 19.9135 32.0899C19.6727 32.006 19.4465 31.933 19.2057 31.6941C18.9668 31.4551 18.8957 31.145 18.9668 30.9061C18.9668 30.5941 19.1218 30.3552 19.2787 30.2001L19.3626 30.1162C19.7566 29.8043 20.0685 29.4103 20.3805 29.0163C20.6924 28.6205 21.0025 28.1535 21.2433 27.6756C21.3983 27.2086 21.5534 26.7307 21.7102 26.1798C21.7941 25.7147 21.8653 25.1638 21.8653 24.6859C21.8653 23.668 21.7102 22.8071 21.3144 21.9352C21.0025 21.0724 20.4516 20.2843 19.8168 19.6623C19.1109 18.9564 18.3192 18.4894 17.4583 18.0954C16.6666 17.7835 15.7327 17.5446 14.786 17.5446C14.2351 17.5446 13.7681 17.6285 13.3723 17.6996C12.9053 17.7835 12.4274 17.9386 11.9604 18.1666C11.5646 18.3216 11.0976 18.5606 10.7018 18.7886C10.306 19.1005 9.99589 19.4106 9.60006 19.7335C9.44501 19.9724 9.13309 20.0454 8.89414 20.0454C8.58222 20.0454 8.34326 19.9615 8.10248 19.8046C7.86352 19.5657 7.79056 19.2556 7.79056 19.0166C7.70847 18.7047 7.87447 18.4657 8.03134 18.2268C8.49831 17.7598 8.97804 17.3658 9.44501 17.0539C9.99589 16.6599 10.5468 16.3479 11.0976 16.109C11.4096 15.9539 11.7197 15.87 12.0443 15.7989C12.1283 15.715 12.1994 15.715 12.2833 15.715C12.1283 15.5599 11.9714 15.3192 11.8163 15.1641C11.5756 14.7701 11.2655 14.3743 11.0247 13.993C10.6307 13.2871 10.3188 12.5812 10.1637 11.8753C10.0068 11.3244 9.85179 10.7753 9.85179 10.2245C8.90508 10.6914 8.04228 11.3244 7.25245 11.9464C6.30574 12.8074 5.52685 13.6684 4.82093 14.6971C4.0311 15.87 3.40726 17.2089 3.01143 18.5496C2.54446 19.8885 2.38941 21.3004 2.38941 22.7122C2.38941 23.7282 2.47332 24.757 2.70133 25.7731C2.94029 26.7909 3.25221 27.7358 3.64804 28.6807L3.73012 28.7646V28.6807C3.88699 29.1476 4.04204 29.4705 4.28282 29.8536C4.52178 30.2476 4.74979 30.5577 4.98875 30.9535C5.61076 31.8984 6.40242 32.6754 7.26522 33.4653C7.88723 33.9322 8.52202 34.4101 9.14404 34.8771C9.06195 34.5652 8.98899 34.2551 8.98899 34.0143C8.83394 33.3102 8.75003 32.6754 8.75003 32.0534C8.75003 31.5864 8.83394 31.1924 8.90508 30.7145C8.90508 30.2476 8.98899 29.8536 9.14404 29.3738C9.22795 28.9798 9.38482 28.5128 9.53987 28.1188C9.69674 27.723 9.93569 27.329 10.1637 26.9459C10.3188 26.707 10.5577 26.479 10.7857 26.3951C11.0976 26.313 11.3366 26.3951 11.6485 26.5519C11.8875 26.707 12.0443 26.9459 12.1155 27.174C12.1994 27.4841 12.1994 27.723 12.0316 28.0349C11.8765 28.2739 11.7197 28.584 11.5646 28.9798C11.4096 29.2899 11.3257 29.6018 11.2527 29.9247C11.0976 30.3187 11.0976 30.6306 11.0137 30.9407C10.9298 31.3365 10.9298 31.6466 10.9298 32.0425C10.9298 32.8305 11.0849 33.5364 11.2417 34.3135C11.4807 35.0194 11.7926 35.6542 12.1866 36.2762C12.2705 36.3601 12.3435 36.4312 12.4274 36.5152C12.5113 36.5991 12.5113 36.7541 12.5825 36.8252C12.6664 36.9821 12.7375 37.1372 12.8944 37.2211C12.9783 37.3761 13.1333 37.5312 13.2884 37.688C14.08 38.4761 14.9428 39.0269 15.8877 39.41C16.8344 39.804 17.8523 40.032 18.954 40.032C19.1948 40.032 19.3499 40.032 19.5049 40.032C19.6618 40.032 19.9007 39.9481 20.0558 39.9481C20.2127 39.9481 20.3677 39.9481 20.5246 39.8642C20.6796 39.8642 20.9186 39.7803 21.0754 39.7803C21.3855 39.6964 21.6263 39.6964 21.8653 39.8642C22.1042 40.0192 22.3323 40.2582 22.4162 40.4862C22.5001 40.7963 22.4162 41.1082 22.2611 41.3472C22.1772 41.5861 21.9492 41.7412 21.6373 41.8142C21.3983 41.8981 21.2433 41.9692 21.0153 41.9692C20.7745 42.0531 20.5483 42.0531 20.3075 42.1242C20.0685 42.1242 19.8405 42.1242 19.6855 42.1242C19.4465 42.2082 19.2185 42.2082 18.9796 42.2082C17.637 42.2082 16.3073 41.8981 15.1216 41.4183C13.8648 40.8693 12.6901 40.1633 11.7434 39.2185C11.5883 38.9795 11.3494 38.7515 11.1925 38.5964C11.0374 38.3575 10.8824 38.2024 10.7255 37.9744C9.22794 37.4236 7.8161 36.6355 6.55747 35.7016C5.30067 34.6856 4.12595 33.4999 3.25221 32.1738C3.09533 32.0169 2.94029 31.778 2.85638 31.6229L2.77247 31.778C2.61742 32.0899 2.53351 32.4 2.46055 32.7958C2.37664 33.261 2.22159 33.8118 2.22159 34.4466C2.13768 34.9957 2.06654 35.5466 2.06654 36.0956C2.06654 37.5914 2.3055 39.0032 2.77247 40.3312C3.1683 41.7412 3.79031 42.998 4.65311 44.1818C5.36086 45.1997 6.22184 46.1446 7.16854 47.0055C7.95837 47.6275 8.82117 48.2605 9.76788 48.7275C9.85179 48.4885 9.85179 48.2605 9.85179 48.0216C9.93569 47.6275 10.0068 47.2317 10.0907 46.8487C10.2476 46.4547 10.3315 46.0606 10.4866 45.6776C10.6416 45.3657 10.7985 44.9717 11.0374 44.6597C11.1925 44.3496 11.4333 44.1946 11.6595 44.1107C11.9714 44.0268 12.2833 44.1107 12.5223 44.1946C12.763 44.3496 12.9892 44.5886 12.9892 44.9005C13.0731 45.1395 13.0731 45.4496 12.9053 45.6885C12.7503 46.0005 12.5952 46.2394 12.5113 46.5513C12.3544 46.8614 12.2705 47.1004 12.1994 47.4123C12.1155 47.7224 12.0443 48.0343 12.0443 48.3572C11.9604 48.6673 11.9604 48.9792 11.9604 49.3021C11.9604 50.2469 12.1155 51.1791 12.5113 51.9689C12.8214 52.8299 13.3723 53.6197 14.0071 54.3256C14.7148 54.9476 15.5047 55.4967 16.3675 55.8196C17.1573 56.2154 18.0931 56.3704 19.0379 56.3704C20.0558 56.3704 20.9186 56.2154 21.7941 55.8196C22.6551 55.5095 23.4468 54.9586 24.0688 54.3256C24.7765 53.6197 25.2435 52.8299 25.6375 51.9689C25.9731 51.1079 26.2012 50.163 26.2012 49.2182Z" fill="white"/>
</mask>
<g mask="url(#mask1_19_1704)">
<path d="M-1.33514e-05 0.00952148V58.4754H28.4048V0.00952148H-1.33514e-05Z" fill="url(#paint0_linear_19_1704)"/>
</g>
</g>
<mask id="mask2_19_1704" style="mask-type:luminance" maskUnits="userSpaceOnUse" x="31" y="0" width="29" height="59">
<path d="M31.2012 0H60V58.4878H31.2012V0Z" fill="white"/>
</mask>
<g mask="url(#mask2_19_1704)">
<mask id="mask3_19_1704" style="mask-type:luminance" maskUnits="userSpaceOnUse" x="31" y="0" width="29" height="59">
<path d="M31.5878 9.42356V49.218C31.5878 50.473 31.8286 51.6459 32.2955 52.7458C32.7625 53.8458 33.3973 54.8636 34.2601 55.7246C35.1211 56.5856 36.1389 57.2915 37.3264 57.7694C38.4282 58.2364 39.601 58.4753 40.8597 58.4753C43.3751 58.4753 45.7337 57.4593 47.3389 55.7246C48.0448 55.1026 48.5975 54.3127 48.9915 53.5229C49.3873 52.8188 49.6992 51.956 49.8543 51.168C51.268 50.546 52.6087 49.7561 53.7834 48.8113C55.0402 47.8664 56.142 46.6935 57.0047 45.3546C57.9515 44.0139 58.7303 42.5309 59.2083 40.8801C59.6752 39.3862 59.9999 37.7463 59.9999 36.0134C59.9999 35.3914 59.916 34.7566 59.843 34.0507C59.7591 33.4287 59.688 32.7957 59.5329 32.1737C59.3761 31.6228 59.221 31.0719 58.9821 30.5229C58.8252 29.972 58.5862 29.505 58.4312 29.0271C58.8252 28.0111 59.1371 26.9823 59.3761 25.9645C59.6169 24.8645 59.688 23.7646 59.688 22.5917C59.688 20.9409 59.449 19.2901 58.9821 17.8071C58.5151 16.2402 57.8074 14.7463 56.8606 13.4183C55.9997 12.1615 54.98 10.9905 53.7232 9.96167C52.6214 9.01678 51.3628 8.2379 49.951 7.60494C49.7941 6.74396 49.4822 5.88299 49.0882 5.09315C48.6923 4.14827 48.0703 3.37121 47.3626 2.66528C46.4998 1.87545 45.4819 1.16952 44.3802 0.702556C43.2547 0.248356 42.08 0.00939941 40.8232 0.00939941C39.5646 0.00939941 38.3917 0.248356 37.2899 0.715325C36.1152 1.18229 35.0864 1.88822 34.2236 2.67623C33.3608 3.5372 32.726 4.55505 32.2591 5.73888C31.8286 6.99569 31.5878 8.16676 31.5878 9.42356ZM33.7092 49.218V9.42356C33.7092 8.47868 33.9482 7.54474 34.2601 6.671C34.6541 5.81002 35.205 5.02202 35.8288 4.4C36.4508 3.77798 37.2425 3.2271 38.1035 2.8331C38.9663 2.52118 39.913 2.36613 40.8597 2.36613C41.8046 2.36613 42.7403 2.52118 43.5302 2.8331C44.393 3.2271 45.1828 3.77798 45.8905 4.4C46.5125 5.02202 47.0634 5.81002 47.3863 6.671C47.7821 7.5338 47.9372 8.47868 47.9372 9.42356C47.9372 10.0456 47.8533 10.6785 47.6982 11.2294C47.5432 11.8514 47.3024 12.4005 46.9923 12.9514C46.6804 13.5022 46.3684 13.9674 45.8905 14.3632C45.4947 14.7572 45.0989 15.153 44.6319 15.4631C43.459 15.547 42.3554 15.7751 41.4106 16.253C40.3088 16.7199 39.3621 17.3529 38.5832 18.13C37.7204 18.9909 37.0145 20.0088 36.5347 21.1926C36.1389 22.2086 35.8288 23.4655 35.8288 24.7204C35.8288 25.3424 35.9127 26.0611 36.0678 26.6832C36.2228 27.3891 36.4636 28.022 36.7755 28.6441C37.0145 29.2661 37.3975 29.817 37.7934 30.366C38.1874 30.9169 38.6543 31.3839 39.2052 31.7779C39.446 32.0168 39.7579 32.0898 39.9969 32.0898C40.2358 32.0059 40.5478 31.9329 40.7028 31.6939C40.9436 31.455 41.0147 31.1449 41.0147 30.9059C40.9308 30.594 40.8597 30.3551 40.6189 30.2V30.1508C40.1519 29.8407 39.8291 29.4467 39.5171 29.0508C39.2052 28.6568 38.8951 28.1899 38.7273 27.7119C38.4884 27.245 38.3315 26.7671 38.1764 26.2162C38.0925 25.7492 38.0196 25.2002 38.0196 24.7204C38.0196 23.7044 38.2603 22.8434 38.5704 21.9697C38.9663 21.1087 39.4332 20.3189 40.141 19.6969C40.763 18.9909 41.5547 18.5258 42.4156 18.13C43.2784 17.8199 44.1412 17.5809 45.1718 17.5809C45.6388 17.5809 46.1167 17.6648 46.5837 17.736C47.0507 17.8199 47.4465 17.9749 47.9262 18.2029C48.3932 18.358 48.789 18.5969 49.183 18.8249C49.5789 19.135 49.9747 19.447 50.2848 19.7698C50.4417 20.0088 50.7517 20.0799 51.0764 20.0799C51.3154 20.0799 51.6273 19.996 51.7824 19.841C52.0231 19.602 52.1782 19.2901 52.1782 19.0511C52.1782 18.741 52.0231 18.5021 51.8663 18.2613C51.3993 17.7962 50.9196 17.4003 50.4526 17.0902C49.9017 16.6944 49.3508 16.3843 48.8 16.1454C48.488 15.9903 48.1779 15.9064 47.8533 15.8334C47.7694 15.7495 47.6982 15.7495 47.6143 15.7495C47.7694 15.5945 47.9262 15.3555 48.0813 15.2005C48.3932 14.8046 48.6321 14.4106 48.8729 14.0276C49.2669 13.3217 49.5789 12.6157 49.8178 11.9116C49.9747 11.3607 50.0586 10.8099 50.0586 10.2608C51.0035 10.726 51.8663 11.3607 52.6579 11.9828C53.6028 12.8437 54.3817 13.7047 55.0894 14.7335C55.8793 15.9064 56.5013 17.2453 56.9683 18.586C57.3641 19.9249 57.521 21.3367 57.521 22.7468C57.521 23.7646 57.4371 24.7934 57.209 25.8094C56.9683 26.8273 56.6582 27.7721 56.2623 28.717C56.0234 29.1822 55.8665 29.505 55.6403 29.8881C55.3995 30.2839 55.1734 30.594 54.9326 30.988C54.3106 31.9329 53.5189 32.7118 52.6579 33.5016C52.1071 33.9668 51.3993 34.4465 50.7773 34.9117C50.8612 34.6016 50.9323 34.2896 50.9323 34.0507C51.0874 33.3448 51.1713 32.7118 51.1713 32.0898C51.1713 31.6228 51.0874 31.2288 51.0874 30.7491C51.0035 30.2839 50.9323 29.8881 50.7773 29.4102C50.6934 29.0162 50.5365 28.5492 50.3815 28.1534C50.2264 27.7594 49.9856 27.3654 49.7576 26.9823C49.6026 26.7433 49.3636 26.5153 49.1356 26.4314C48.8966 26.3475 48.5847 26.4314 48.2728 26.5865H48.3567C48.0448 26.7434 47.8897 26.9823 47.8058 27.2085C47.7219 27.5204 47.7219 27.7594 47.8897 28.0695C48.1287 28.3102 48.2856 28.6203 48.3567 29.0162C48.5136 29.3263 48.5975 29.6364 48.7525 29.9611C48.8364 30.3551 48.9076 30.6652 48.9076 30.9771C48.9915 31.3711 48.9915 31.683 48.9915 32.077C48.9915 32.8668 48.9076 33.5728 48.6814 34.3498C48.4406 35.0558 48.1287 35.6887 47.8186 36.3107C47.6617 36.3946 47.5778 36.4676 47.5067 36.5515C47.5067 36.6354 47.4228 36.7905 47.3516 36.8616C47.2677 37.0167 47.1948 37.1735 47.0397 37.2556C46.9558 37.4125 46.8008 37.5675 46.6439 37.7226C45.938 38.5124 44.9913 39.0633 44.0445 39.4445C43.0997 39.8404 42.08 40.0665 40.9782 40.0665C40.7393 40.0665 40.5842 40.0665 40.4274 40.0665C40.2723 40.0665 40.1173 39.9845 39.8765 39.9845C39.7214 39.9845 39.5646 39.9845 39.4095 39.9006C39.2545 39.9006 39.0976 39.8166 38.8586 39.8166C38.6197 39.7327 38.3078 39.7327 38.0688 39.9006C37.828 40.0556 37.6018 40.2946 37.5179 40.5226C37.434 40.8327 37.5179 41.1446 37.673 41.3835C37.828 41.6225 38.0688 41.7775 38.295 41.8487C38.5358 41.9326 38.7638 42.0056 38.9188 42.0056C39.1578 42.0895 39.3858 42.0895 39.6248 42.1606C39.8655 42.1606 40.0917 42.1606 40.2486 42.1606C40.4876 42.2445 40.7156 42.2445 40.9545 42.2445C42.2971 42.2445 43.625 41.9326 44.8836 41.4547C46.0565 40.9038 47.244 40.1997 48.1889 39.2548C48.3458 39.014 48.5847 38.7879 48.7398 38.6328C48.8966 38.392 49.0517 38.237 49.2067 38.0108C50.7043 37.4599 52.118 36.6701 53.3766 35.738C54.6334 34.7201 55.8081 33.5363 56.753 32.2083C56.8369 32.0533 56.9938 31.8143 57.1489 31.6593V31.8143C57.3039 32.1244 57.3878 32.4364 57.4608 32.8304C57.6158 33.2973 57.6997 33.8482 57.7709 34.4812C57.7709 35.032 57.8548 35.5811 57.8548 36.132C57.8548 37.6277 57.6158 39.0396 57.2328 40.3657C56.7658 41.7775 56.131 43.0344 55.3521 44.2182C54.5623 45.2342 53.7834 46.1791 52.7528 47.0401C51.9629 47.6621 51.1002 48.2969 50.1534 48.7638C50.1534 48.5231 50.0695 48.2969 50.0695 48.0579C49.9856 47.6621 49.9145 47.2681 49.8306 46.885C49.7467 46.491 49.5916 46.0952 49.4348 45.7139C49.2797 45.402 49.1228 45.008 48.8839 44.6961C48.7288 44.386 48.488 44.2291 48.2619 44.1452C47.9499 44.0631 47.638 44.1452 47.3991 44.2291C47.1601 44.386 47.0032 44.625 46.9321 44.9351C46.8482 45.174 46.8482 45.4859 47.016 45.7249C47.171 46.0368 47.3279 46.2758 47.41 46.5859C47.5669 46.8978 47.6508 47.1367 47.7219 47.4468C47.8058 47.7588 47.8788 48.0689 47.8788 48.3917C47.9627 48.7036 47.9627 49.0137 47.9627 49.3366C47.9627 50.2815 47.8058 51.2154 47.41 52.0053C47.0999 52.8662 46.549 53.6561 45.9142 54.3602C45.2065 54.9822 44.4167 55.5331 43.5539 55.8559C42.764 56.2499 41.8301 56.4068 40.8834 56.4068C39.9367 56.4068 39.0027 56.2499 38.129 55.8559C37.2662 55.5458 36.4745 54.9949 35.8525 54.3602C35.2287 53.6561 34.6778 52.8662 34.2838 52.0053C33.9482 51.1078 33.7092 50.1629 33.7092 49.218Z" fill="white"/>
</mask>
<g mask="url(#mask3_19_1704)">
<path d="M31.5878 0.00939941V58.4753H59.9999V0.00939941H31.5878Z" fill="url(#paint1_linear_19_1704)"/>
</g>
</g>
<defs>
<linearGradient id="paint0_linear_19_1704" x1="-0.000388084" y1="29.2475" x2="28.4052" y2="29.2475" gradientUnits="userSpaceOnUse">
<stop stop-color="#00C5FF"/>
<stop offset="0.0078125" stop-color="#00C5FF"/>
<stop offset="0.015525" stop-color="#00C4FF"/>
<stop offset="0.015625" stop-color="#00C4FF"/>
<stop offset="0.0234375" stop-color="#00C4FF"/>
<stop offset="0.03125" stop-color="#00C3FF"/>
<stop offset="0.0390625" stop-color="#00C2FF"/>
<stop offset="0.046875" stop-color="#00C2FF"/>
<stop offset="0.0546875" stop-color="#00C1FF"/>
<stop offset="0.0625" stop-color="#00C0FF"/>
<stop offset="0.0703125" stop-color="#00C0FF"/>
<stop offset="0.078125" stop-color="#00BFFF"/>
<stop offset="0.0859375" stop-color="#00BEFF"/>
<stop offset="0.09375" stop-color="#00BEFF"/>
<stop offset="0.101562" stop-color="#00BDFF"/>
<stop offset="0.109375" stop-color="#00BCFF"/>
<stop offset="0.117187" stop-color="#00BCFF"/>
<stop offset="0.125" stop-color="#00BBFF"/>
<stop offset="0.132812" stop-color="#00BBFF"/>
<stop offset="0.140625" stop-color="#00BAFF"/>
<stop offset="0.148438" stop-color="#00B9FF"/>
<stop offset="0.15625" stop-color="#00B9FF"/>
<stop offset="0.164063" stop-color="#00B8FF"/>
<stop offset="0.171875" stop-color="#00B7FF"/>
<stop offset="0.179687" stop-color="#00B7FF"/>
<stop offset="0.1875" stop-color="#00B6FF"/>
<stop offset="0.195312" stop-color="#00B5FF"/>
<stop offset="0.203125" stop-color="#00B5FF"/>
<stop offset="0.210938" stop-color="#00B4FF"/>
<stop offset="0.21875" stop-color="#00B3FF"/>
<stop offset="0.226562" stop-color="#00B3FF"/>
<stop offset="0.234375" stop-color="#00B2FF"/>
<stop offset="0.242188" stop-color="#00B1FF"/>
<stop offset="0.25" stop-color="#00B1FF"/>
<stop offset="0.257812" stop-color="#00B0FF"/>
<stop offset="0.265625" stop-color="#00AFFF"/>
<stop offset="0.273437" stop-color="#00AFFF"/>
<stop offset="0.28125" stop-color="#00AEFF"/>
<stop offset="0.289062" stop-color="#00ADFF"/>
<stop offset="0.296875" stop-color="#00ADFF"/>
<stop offset="0.304688" stop-color="#00ACFF"/>
<stop offset="0.3125" stop-color="#00ACFF"/>
<stop offset="0.320312" stop-color="#00ABFF"/>
<stop offset="0.328125" stop-color="#00AAFF"/>
<stop offset="0.335938" stop-color="#00AAFF"/>
<stop offset="0.34375" stop-color="#00A9FF"/>
<stop offset="0.351462" stop-color="#00A9FF"/>
<stop offset="0.351562" stop-color="#00A8FF"/>
<stop offset="0.359375" stop-color="#00A8FF"/>
<stop offset="0.367187" stop-color="#00A7FF"/>
<stop offset="0.375" stop-color="#00A6FF"/>
<stop offset="0.382812" stop-color="#00A6FF"/>
<stop offset="0.390625" stop-color="#00A5FF"/>
<stop offset="0.398438" stop-color="#00A4FF"/>
<stop offset="0.40625" stop-color="#00A4FF"/>
<stop offset="0.414062" stop-color="#00A3FF"/>
<stop offset="0.421875" stop-color="#00A2FF"/>
<stop offset="0.429688" stop-color="#00A2FF"/>
<stop offset="0.4375" stop-color="#00A1FF"/>
<stop offset="0.445312" stop-color="#00A0FF"/>
<stop offset="0.453125" stop-color="#00A0FF"/>
<stop offset="0.460937" stop-color="#009FFF"/>
<stop offset="0.46875" stop-color="#009FFF"/>
<stop offset="0.476562" stop-color="#009EFF"/>
<stop offset="0.484375" stop-color="#009DFF"/>
<stop offset="0.492188" stop-color="#009DFF"/>
<stop offset="0.5" stop-color="#009CFF"/>
<stop offset="0.507812" stop-color="#009BFF"/>
<stop offset="0.515625" stop-color="#009BFF"/>
<stop offset="0.523437" stop-color="#009AFF"/>
<stop offset="0.53125" stop-color="#0099FF"/>
<stop offset="0.539062" stop-color="#0099FF"/>
<stop offset="0.546875" stop-color="#0098FF"/>
<stop offset="0.554688" stop-color="#0097FF"/>
<stop offset="0.5625" stop-color="#0097FF"/>
<stop offset="0.570312" stop-color="#0096FF"/>
<stop offset="0.578125" stop-color="#0095FF"/>
<stop offset="0.585938" stop-color="#0095FF"/>
<stop offset="0.59375" stop-color="#0094FF"/>
<stop offset="0.601562" stop-color="#0093FF"/>
<stop offset="0.609375" stop-color="#0093FF"/>
<stop offset="0.617188" stop-color="#0092FF"/>
<stop offset="0.625" stop-color="#0091FF"/>
<stop offset="0.632712" stop-color="#0091FF"/>
<stop offset="0.632812" stop-color="#0091FF"/>
<stop offset="0.640625" stop-color="#0090FF"/>
<stop offset="0.648438" stop-color="#0090FF"/>
<stop offset="0.65625" stop-color="#008FFF"/>
<stop offset="0.664063" stop-color="#008EFF"/>
<stop offset="0.671875" stop-color="#008EFF"/>
<stop offset="0.679688" stop-color="#008DFF"/>
<stop offset="0.6875" stop-color="#008CFF"/>
<stop offset="0.695312" stop-color="#008CFF"/>
<stop offset="0.703125" stop-color="#008BFF"/>
<stop offset="0.710937" stop-color="#008AFF"/>
<stop offset="0.71875" stop-color="#008AFF"/>
<stop offset="0.726562" stop-color="#0089FF"/>
<stop offset="0.734375" stop-color="#0088FF"/>
<stop offset="0.742187" stop-color="#0088FF"/>
<stop offset="0.75" stop-color="#0087FF"/>
<stop offset="0.757812" stop-color="#0086FF"/>
<stop offset="0.765625" stop-color="#0086FF"/>
<stop offset="0.773438" stop-color="#0085FF"/>
<stop offset="0.78125" stop-color="#0084FF"/>
<stop offset="0.789062" stop-color="#0084FF"/>
<stop offset="0.796875" stop-color="#0083FF"/>
<stop offset="0.804688" stop-color="#0083FF"/>
<stop offset="0.8125" stop-color="#0082FF"/>
<stop offset="0.820312" stop-color="#0081FF"/>
<stop offset="0.828125" stop-color="#0081FF"/>
<stop offset="0.835938" stop-color="#0080FF"/>
<stop offset="0.84375" stop-color="#007FFF"/>
<stop offset="0.851563" stop-color="#007FFF"/>
<stop offset="0.859375" stop-color="#007EFF"/>
<stop offset="0.867188" stop-color="#007DFF"/>
<stop offset="0.875" stop-color="#007DFF"/>
<stop offset="0.882812" stop-color="#007CFF"/>
<stop offset="0.890625" stop-color="#007BFF"/>
<stop offset="0.898437" stop-color="#007BFF"/>
<stop offset="0.90625" stop-color="#007AFF"/>
<stop offset="0.914062" stop-color="#0079FF"/>
<stop offset="0.921875" stop-color="#0079FF"/>
<stop offset="0.929687" stop-color="#0078FF"/>
<stop offset="0.9375" stop-color="#0077FF"/>
<stop offset="0.945312" stop-color="#0077FF"/>
<stop offset="0.953125" stop-color="#0076FF"/>
<stop offset="0.960938" stop-color="#0076FF"/>
<stop offset="0.96875" stop-color="#0075FF"/>
<stop offset="0.976562" stop-color="#0074FF"/>
<stop offset="0.984375" stop-color="#0074FF"/>
<stop offset="0.992188" stop-color="#0073FF"/>
<stop offset="1" stop-color="#0072FF"/>
</linearGradient>
<linearGradient id="paint1_linear_19_1704" x1="31.5882" y1="29.2474" x2="59.9994" y2="29.2474" gradientUnits="userSpaceOnUse">
<stop stop-color="#F32D78"/>
<stop offset="0.0078125" stop-color="#F32D79"/>
<stop offset="0.0117188" stop-color="#F22E7A"/>
<stop offset="0.015625" stop-color="#F22E7A"/>
<stop offset="0.0195312" stop-color="#F22E7B"/>
<stop offset="0.0234375" stop-color="#F22F7B"/>
<stop offset="0.0273438" stop-color="#F22F7C"/>
<stop offset="0.03125" stop-color="#F12F7C"/>
<stop offset="0.0351562" stop-color="#F1307D"/>
<stop offset="0.0390625" stop-color="#F1307D"/>
<stop offset="0.0429688" stop-color="#F1307E"/>
<stop offset="0.046875" stop-color="#F1307E"/>
<stop offset="0.0507812" stop-color="#F0317F"/>
<stop offset="0.0546875" stop-color="#F0317F"/>
<stop offset="0.0585938" stop-color="#F03180"/>
<stop offset="0.0625" stop-color="#F03280"/>
<stop offset="0.0664062" stop-color="#F03281"/>
<stop offset="0.0703125" stop-color="#EF3281"/>
<stop offset="0.0742188" stop-color="#EF3382"/>
<stop offset="0.078125" stop-color="#EF3382"/>
<stop offset="0.0820312" stop-color="#EF3383"/>
<stop offset="0.0859375" stop-color="#EF3383"/>
<stop offset="0.0898438" stop-color="#EE3484"/>
<stop offset="0.09375" stop-color="#EE3484"/>
<stop offset="0.0976562" stop-color="#EE3485"/>
<stop offset="0.101562" stop-color="#EE3585"/>
<stop offset="0.105469" stop-color="#EE3586"/>
<stop offset="0.109375" stop-color="#ED3586"/>
<stop offset="0.113281" stop-color="#ED3687"/>
<stop offset="0.117188" stop-color="#ED3687"/>
<stop offset="0.121094" stop-color="#ED3688"/>
<stop offset="0.125" stop-color="#ED3788"/>
<stop offset="0.128906" stop-color="#EC3789"/>
<stop offset="0.132812" stop-color="#EC3789"/>
<stop offset="0.136719" stop-color="#EC378A"/>
<stop offset="0.140625" stop-color="#EC388B"/>
<stop offset="0.144531" stop-color="#EC388B"/>
<stop offset="0.148438" stop-color="#EB388C"/>
<stop offset="0.152344" stop-color="#EB398C"/>
<stop offset="0.15625" stop-color="#EB398D"/>
<stop offset="0.160156" stop-color="#EB398D"/>
<stop offset="0.164062" stop-color="#EB3A8E"/>
<stop offset="0.167969" stop-color="#EA3A8E"/>
<stop offset="0.171875" stop-color="#EA3A8F"/>
<stop offset="0.175781" stop-color="#EA3A8F"/>
<stop offset="0.179688" stop-color="#EA3B90"/>
<stop offset="0.183594" stop-color="#EA3B90"/>
<stop offset="0.1875" stop-color="#E93B91"/>
<stop offset="0.191406" stop-color="#E93C91"/>
<stop offset="0.195312" stop-color="#E93C92"/>
<stop offset="0.199219" stop-color="#E93C92"/>
<stop offset="0.203125" stop-color="#E93D93"/>
<stop offset="0.207031" stop-color="#E83D93"/>
<stop offset="0.210938" stop-color="#E83D94"/>
<stop offset="0.214844" stop-color="#E83D94"/>
<stop offset="0.21875" stop-color="#E83E95"/>
<stop offset="0.222656" stop-color="#E83E95"/>
<stop offset="0.226562" stop-color="#E73E96"/>
<stop offset="0.230469" stop-color="#E73F96"/>
<stop offset="0.234375" stop-color="#E73F97"/>
<stop offset="0.238281" stop-color="#E73F97"/>
<stop offset="0.242188" stop-color="#E74098"/>
<stop offset="0.246094" stop-color="#E64098"/>
<stop offset="0.25" stop-color="#E64099"/>
<stop offset="0.253906" stop-color="#E64099"/>
<stop offset="0.257813" stop-color="#E6419A"/>
<stop offset="0.261719" stop-color="#E6419A"/>
<stop offset="0.265625" stop-color="#E5419B"/>
<stop offset="0.269531" stop-color="#E5429B"/>
<stop offset="0.273438" stop-color="#E5429C"/>
<stop offset="0.277344" stop-color="#E5429C"/>
<stop offset="0.28125" stop-color="#E5439D"/>
<stop offset="0.285156" stop-color="#E4439D"/>
<stop offset="0.289063" stop-color="#E4439E"/>
<stop offset="0.292969" stop-color="#E4439E"/>
<stop offset="0.296875" stop-color="#E4449F"/>
<stop offset="0.300781" stop-color="#E444A0"/>
<stop offset="0.304688" stop-color="#E344A0"/>
<stop offset="0.308594" stop-color="#E345A1"/>
<stop offset="0.3125" stop-color="#E345A1"/>
<stop offset="0.316406" stop-color="#E345A2"/>
<stop offset="0.320313" stop-color="#E346A2"/>
<stop offset="0.324219" stop-color="#E246A3"/>
<stop offset="0.328125" stop-color="#E246A3"/>
<stop offset="0.332031" stop-color="#E246A4"/>
<stop offset="0.335938" stop-color="#E247A4"/>
<stop offset="0.339844" stop-color="#E247A5"/>
<stop offset="0.34375" stop-color="#E147A5"/>
<stop offset="0.347656" stop-color="#E148A6"/>
<stop offset="0.351563" stop-color="#E148A6"/>
<stop offset="0.355469" stop-color="#E148A7"/>
<stop offset="0.359375" stop-color="#E149A7"/>
<stop offset="0.363281" stop-color="#E049A8"/>
<stop offset="0.367188" stop-color="#E049A8"/>
<stop offset="0.371094" stop-color="#E04AA9"/>
<stop offset="0.375" stop-color="#E04AA9"/>
<stop offset="0.378906" stop-color="#E04AAA"/>
<stop offset="0.382813" stop-color="#DF4AAA"/>
<stop offset="0.386719" stop-color="#DF4BAB"/>
<stop offset="0.390625" stop-color="#DF4BAB"/>
<stop offset="0.394531" stop-color="#DF4BAC"/>
<stop offset="0.398438" stop-color="#DF4CAC"/>
<stop offset="0.402344" stop-color="#DE4CAD"/>
<stop offset="0.40625" stop-color="#DE4CAD"/>
<stop offset="0.410156" stop-color="#DE4DAE"/>
<stop offset="0.414063" stop-color="#DE4DAE"/>
<stop offset="0.417969" stop-color="#DE4DAF"/>
<stop offset="0.421875" stop-color="#DD4DAF"/>
<stop offset="0.425781" stop-color="#DD4EB0"/>
<stop offset="0.429688" stop-color="#DD4EB0"/>
<stop offset="0.433594" stop-color="#DD4EB1"/>
<stop offset="0.4375" stop-color="#DD4FB1"/>
<stop offset="0.441406" stop-color="#DC4FB2"/>
<stop offset="0.445313" stop-color="#DC4FB2"/>
<stop offset="0.449219" stop-color="#DC50B3"/>
<stop offset="0.453125" stop-color="#DC50B3"/>
<stop offset="0.457031" stop-color="#DC50B4"/>
<stop offset="0.460938" stop-color="#DB50B5"/>
<stop offset="0.464844" stop-color="#DB51B5"/>
<stop offset="0.46875" stop-color="#DB51B6"/>
<stop offset="0.472656" stop-color="#DB51B6"/>
<stop offset="0.476563" stop-color="#DB52B7"/>
<stop offset="0.480469" stop-color="#DA52B7"/>
<stop offset="0.484375" stop-color="#DA52B8"/>
<stop offset="0.488281" stop-color="#DA53B8"/>
<stop offset="0.492188" stop-color="#DA53B9"/>
<stop offset="0.496094" stop-color="#DA53B9"/>
<stop offset="0.5" stop-color="#D953BA"/>
<stop offset="0.503906" stop-color="#D954BA"/>
<stop offset="0.507813" stop-color="#D954BB"/>
<stop offset="0.511719" stop-color="#D954BB"/>
<stop offset="0.515625" stop-color="#D955BC"/>
<stop offset="0.519531" stop-color="#D855BC"/>
<stop offset="0.523438" stop-color="#D855BD"/>
<stop offset="0.527344" stop-color="#D856BD"/>
<stop offset="0.53125" stop-color="#D856BE"/>
<stop offset="0.535156" stop-color="#D856BE"/>
<stop offset="0.539063" stop-color="#D756BF"/>
<stop offset="0.542969" stop-color="#D757BF"/>
<stop offset="0.546875" stop-color="#D757C0"/>
<stop offset="0.550781" stop-color="#D757C0"/>
<stop offset="0.554688" stop-color="#D758C1"/>
<stop offset="0.558594" stop-color="#D658C1"/>
<stop offset="0.5625" stop-color="#D658C2"/>
<stop offset="0.566406" stop-color="#D659C2"/>
<stop offset="0.570313" stop-color="#D659C3"/>
<stop offset="0.574219" stop-color="#D659C3"/>
<stop offset="0.578125" stop-color="#D559C4"/>
<stop offset="0.582031" stop-color="#D55AC4"/>
<stop offset="0.585938" stop-color="#D55AC5"/>
<stop offset="0.589844" stop-color="#D55AC5"/>
<stop offset="0.59375" stop-color="#D55BC6"/>
<stop offset="0.597656" stop-color="#D45BC6"/>
<stop offset="0.601563" stop-color="#D45BC7"/>
<stop offset="0.605469" stop-color="#D45CC7"/>
<stop offset="0.609375" stop-color="#D45CC8"/>
<stop offset="0.613281" stop-color="#D45CC9"/>
<stop offset="0.617188" stop-color="#D35DC9"/>
<stop offset="0.621094" stop-color="#D35DCA"/>
<stop offset="0.625" stop-color="#D35DCA"/>
<stop offset="0.628906" stop-color="#D35DCB"/>
<stop offset="0.632813" stop-color="#D35ECB"/>
<stop offset="0.636719" stop-color="#D25ECC"/>
<stop offset="0.640625" stop-color="#D25ECC"/>
<stop offset="0.644531" stop-color="#D25FCD"/>
<stop offset="0.648438" stop-color="#D25FCD"/>
<stop offset="0.652344" stop-color="#D25FCE"/>
<stop offset="0.65625" stop-color="#D160CE"/>
<stop offset="0.660156" stop-color="#D160CF"/>
<stop offset="0.664063" stop-color="#D160CF"/>
<stop offset="0.667969" stop-color="#D160D0"/>
<stop offset="0.671875" stop-color="#D161D0"/>
<stop offset="0.675781" stop-color="#D061D1"/>
<stop offset="0.679688" stop-color="#D061D1"/>
<stop offset="0.683594" stop-color="#D062D2"/>
<stop offset="0.6875" stop-color="#D062D2"/>
<stop offset="0.691406" stop-color="#D062D3"/>
<stop offset="0.695313" stop-color="#CF63D3"/>
<stop offset="0.699219" stop-color="#CF63D4"/>
<stop offset="0.703125" stop-color="#CF63D4"/>
<stop offset="0.707031" stop-color="#CF63D5"/>
<stop offset="0.710938" stop-color="#CF64D5"/>
<stop offset="0.714844" stop-color="#CE64D6"/>
<stop offset="0.71875" stop-color="#CE64D6"/>
<stop offset="0.722656" stop-color="#CE65D7"/>
<stop offset="0.726563" stop-color="#CE65D7"/>
<stop offset="0.730469" stop-color="#CE65D8"/>
<stop offset="0.734375" stop-color="#CD66D8"/>
<stop offset="0.738281" stop-color="#CD66D9"/>
<stop offset="0.742188" stop-color="#CD66D9"/>
<stop offset="0.746094" stop-color="#CD66DA"/>
<stop offset="0.75" stop-color="#CD67DA"/>
<stop offset="0.753906" stop-color="#CC67DB"/>
<stop offset="0.757813" stop-color="#CC67DB"/>
<stop offset="0.761719" stop-color="#CC68DC"/>
<stop offset="0.765625" stop-color="#CC68DC"/>
<stop offset="0.769531" stop-color="#CC68DD"/>
<stop offset="0.773438" stop-color="#CB69DE"/>
<stop offset="0.777344" stop-color="#CB69DE"/>
<stop offset="0.78125" stop-color="#CB69DF"/>
<stop offset="0.785156" stop-color="#CB69DF"/>
<stop offset="0.789063" stop-color="#CB6AE0"/>
<stop offset="0.792969" stop-color="#CA6AE0"/>
<stop offset="0.796875" stop-color="#CA6AE1"/>
<stop offset="0.800781" stop-color="#CA6BE1"/>
<stop offset="0.804688" stop-color="#CA6BE2"/>
<stop offset="0.808594" stop-color="#CA6BE2"/>
<stop offset="0.8125" stop-color="#C96CE3"/>
<stop offset="0.816406" stop-color="#C96CE3"/>
<stop offset="0.820313" stop-color="#C96CE4"/>
<stop offset="0.824219" stop-color="#C96CE4"/>
<stop offset="0.828125" stop-color="#C96DE5"/>
<stop offset="0.832031" stop-color="#C86DE5"/>
<stop offset="0.835938" stop-color="#C86DE6"/>
<stop offset="0.839844" stop-color="#C86EE6"/>
<stop offset="0.84375" stop-color="#C86EE7"/>
<stop offset="0.847656" stop-color="#C86EE7"/>
<stop offset="0.851563" stop-color="#C76FE8"/>
<stop offset="0.855469" stop-color="#C76FE8"/>
<stop offset="0.859375" stop-color="#C76FE9"/>
<stop offset="0.863281" stop-color="#C770E9"/>
<stop offset="0.867188" stop-color="#C770EA"/>
<stop offset="0.871094" stop-color="#C670EA"/>
<stop offset="0.875" stop-color="#C670EB"/>
<stop offset="0.878906" stop-color="#C671EB"/>
<stop offset="0.882813" stop-color="#C671EC"/>
<stop offset="0.886719" stop-color="#C671EC"/>
<stop offset="0.890625" stop-color="#C572ED"/>
<stop offset="0.894531" stop-color="#C572ED"/>
<stop offset="0.898438" stop-color="#C572EE"/>
<stop offset="0.902344" stop-color="#C573EE"/>
<stop offset="0.90625" stop-color="#C573EF"/>
<stop offset="0.910156" stop-color="#C473EF"/>
<stop offset="0.914063" stop-color="#C473F0"/>
<stop offset="0.917969" stop-color="#C474F0"/>
<stop offset="0.921875" stop-color="#C474F1"/>
<stop offset="0.925781" stop-color="#C474F1"/>
<stop offset="0.929688" stop-color="#C375F2"/>
<stop offset="0.933594" stop-color="#C375F3"/>
<stop offset="0.9375" stop-color="#C375F3"/>
<stop offset="0.941406" stop-color="#C376F4"/>
<stop offset="0.945313" stop-color="#C376F4"/>
<stop offset="0.949219" stop-color="#C276F5"/>
<stop offset="0.953125" stop-color="#C276F5"/>
<stop offset="0.957031" stop-color="#C277F6"/>
<stop offset="0.960938" stop-color="#C277F6"/>
<stop offset="0.964844" stop-color="#C277F7"/>
<stop offset="0.96875" stop-color="#C178F7"/>
<stop offset="0.972656" stop-color="#C178F8"/>
<stop offset="0.976563" stop-color="#C178F8"/>
<stop offset="0.980469" stop-color="#C179F9"/>
<stop offset="0.984375" stop-color="#C179F9"/>
<stop offset="0.988281" stop-color="#C079FA"/>
<stop offset="0.992188" stop-color="#C079FA"/>
<stop offset="1" stop-color="#C07AFB"/>
</linearGradient>
</defs>
</svg>
