<svg width="825" height="825" viewBox="0 0 825 825" fill="none" xmlns="http://www.w3.org/2000/svg">
<path d="M561.033 671.286L561.132 670.676L563.92 638.039H575.817L567.319 671.286" fill="#263238"/>
<path d="M671.121 671.286L671.022 670.676L668.217 638.039H656.337L664.834 671.286" fill="#263238"/>
<path d="M545.358 671.286L545.457 670.676L550.869 638.039H562.749L551.644 671.286" fill="#263238"/>
<path d="M686.796 671.286L686.681 670.676L681.285 638.039H669.405L680.509 671.286" fill="#263238"/>
<g opacity="0.2">
<path d="M545.358 671.286L545.457 670.676L550.869 638.039H562.749L551.644 671.286" fill="white"/>
<path d="M686.796 671.286L686.681 670.676L681.285 638.039H669.405L680.509 671.286" fill="white"/>
</g>
<path d="M687.687 442.678H544.483C540.857 442.678 537.917 445.619 537.917 449.245V638.748C537.917 642.375 540.857 645.315 544.483 645.315H687.687C691.314 645.315 694.254 642.375 694.254 638.748V449.245C694.254 445.619 691.314 442.678 687.687 442.678Z" fill="#0C7489"/>
<path opacity="0.4" d="M687.687 442.678H544.483C540.857 442.678 537.917 445.619 537.917 449.245V638.748C537.917 642.375 540.857 645.315 544.483 645.315H687.687C691.314 645.315 694.254 642.375 694.254 638.748V449.245C694.254 445.619 691.314 442.678 687.687 442.678Z" fill="white"/>
<path opacity="0.5" d="M687.868 486.865H544.285V560.01H687.868V486.865Z" fill="white"/>
<path opacity="0.5" d="M687.868 564.877H544.285V638.022H687.868V564.877Z" fill="white"/>
<path opacity="0.5" d="M687.868 449.955H544.285V481.982H687.868V449.955Z" fill="white"/>
<path opacity="0.5" d="M627.825 455.285H604.329C603.625 455.281 602.935 455.082 602.338 454.709C601.74 454.336 601.259 453.804 600.946 453.173L599.379 449.955H632.775L631.125 453.173C630.823 453.795 630.356 454.322 629.773 454.694C629.191 455.067 628.516 455.271 627.825 455.285Z" fill="black"/>
<path opacity="0.5" d="M627.825 492.178H604.329C603.624 492.179 602.933 491.981 602.335 491.608C601.737 491.234 601.256 490.7 600.946 490.066L599.379 486.865H632.775L631.125 490.066C630.826 490.691 630.359 491.22 629.776 491.593C629.193 491.966 628.517 492.169 627.825 492.178Z" fill="black"/>
<path opacity="0.5" d="M627.825 570.207H604.329C603.624 570.207 602.933 570.009 602.335 569.636C601.737 569.263 601.256 568.729 600.946 568.095L599.379 564.877H632.775L631.125 568.095C630.826 568.72 630.359 569.248 629.776 569.622C629.193 569.995 628.517 570.198 627.825 570.207Z" fill="black"/>
<path d="M657.838 420.321L670.246 442.679H654.802L657.838 420.321Z" fill="#0C7489"/>
<path opacity="0.2" d="M657.838 420.321L670.246 442.679H654.802L657.838 420.321Z" fill="black"/>
<path d="M661.98 442.679H632.775L641.916 404.844H671.121L661.98 442.679Z" fill="#0C7489"/>
<path opacity="0.5" d="M636.801 439.675L644.49 407.847H667.095L659.406 439.675H636.801Z" fill="white"/>
<path d="M576.526 425.452L569.283 442.678H588.654L576.526 425.452Z" fill="#0C7489"/>
<path d="M616.077 442.679H578.985L570.273 415.8H607.381L616.077 442.679Z" fill="#0C7489"/>
<path opacity="0.2" d="M616.077 442.679H578.985L570.273 415.8H607.381L616.077 442.679Z" fill="white"/>
<path opacity="0.5" d="M581.031 438.801L574.827 419.677H605.335L611.523 438.801H581.031Z" fill="white"/>
<path d="M450.829 240.553H213.774C204.297 240.553 196.614 248.236 196.614 257.713V678.513C196.614 687.99 204.297 695.673 213.774 695.673H450.829C460.307 695.673 467.99 687.99 467.99 678.513V257.713C467.99 248.236 460.307 240.553 450.829 240.553Z" fill="#263238"/>
<path d="M458.832 256.905V678.447C458.832 679.326 458.657 680.197 458.316 681.007C457.975 681.818 457.475 682.552 456.847 683.167C456.218 683.782 455.473 684.265 454.655 684.588C453.837 684.911 452.963 685.067 452.083 685.047H211.794C210.994 685.058 210.201 684.908 209.461 684.605C208.72 684.302 208.049 683.853 207.487 683.285C206.924 682.716 206.482 682.04 206.188 681.297C205.893 680.553 205.751 679.758 205.771 678.958V256.36C205.741 255.654 205.85 254.949 206.093 254.285C206.337 253.622 206.71 253.013 207.19 252.494C207.67 251.976 208.249 251.557 208.892 251.264C209.535 250.97 210.229 250.807 210.936 250.783H271.012C271.85 250.8 272.663 251.065 273.35 251.544C274.037 252.022 274.567 252.694 274.873 253.473L277.365 259.611C277.67 260.39 278.2 261.06 278.888 261.536C279.576 262.012 280.39 262.273 281.226 262.284H383.526C384.36 262.28 385.173 262.026 385.861 261.555C386.549 261.085 387.081 260.419 387.387 259.644L389.878 253.489C390.182 252.707 390.711 252.032 391.398 251.55C392.086 251.069 392.9 250.802 393.739 250.783H452.958C454.544 250.831 456.048 251.499 457.146 252.644C458.245 253.788 458.85 255.318 458.832 256.905Z" fill="#0C7489"/>
<path opacity="0.3" d="M458.832 256.905V678.447C458.832 679.326 458.657 680.197 458.316 681.007C457.975 681.818 457.475 682.552 456.847 683.167C456.218 683.782 455.473 684.265 454.655 684.588C453.837 684.911 452.963 685.067 452.083 685.047H211.794C210.994 685.058 210.201 684.908 209.461 684.605C208.72 684.302 208.049 683.853 207.487 683.285C206.924 682.716 206.482 682.04 206.188 681.297C205.893 680.553 205.751 679.758 205.771 678.958V256.36C205.741 255.654 205.85 254.949 206.093 254.285C206.337 253.622 206.71 253.013 207.19 252.494C207.67 251.976 208.249 251.557 208.892 251.264C209.535 250.97 210.229 250.807 210.936 250.783H271.012C271.85 250.8 272.663 251.065 273.35 251.544C274.037 252.022 274.567 252.694 274.873 253.473L277.365 259.611C277.67 260.39 278.2 261.06 278.888 261.536C279.576 262.012 280.39 262.273 281.226 262.284H383.526C384.36 262.28 385.173 262.026 385.861 261.555C386.549 261.085 387.081 260.419 387.387 259.644L389.878 253.489C390.182 252.707 390.711 252.032 391.398 251.55C392.086 251.069 392.9 250.802 393.739 250.783H452.958C454.544 250.831 456.048 251.499 457.146 252.644C458.245 253.788 458.85 255.318 458.832 256.905Z" fill="black"/>
<path opacity="0.6" d="M458.832 279.18H205.771V654.076H458.832V279.18Z" fill="white"/>
<path opacity="0.6" d="M233.673 269.098H236.792V264.924H233.673V269.098Z" fill="white"/>
<path opacity="0.6" d="M228.575 269.098H231.693V263.538H228.575V269.098Z" fill="white"/>
<path opacity="0.6" d="M223.476 269.098H226.594V262.152H223.476V269.098Z" fill="white"/>
<path opacity="0.6" d="M218.378 269.098H221.496V260.766H218.378V269.098Z" fill="white"/>
<path opacity="0.6" d="M430.188 263.406H428.34V267.581H430.188V263.406Z" fill="white"/>
<path opacity="0.6" d="M431.459 269.098H446.226V261.888H431.459V269.098Z" fill="white"/>
<path opacity="0.6" d="M332.26 251.378C332.26 252.066 332.056 252.739 331.674 253.312C331.291 253.884 330.747 254.331 330.111 254.594C329.475 254.858 328.775 254.926 328.1 254.792C327.424 254.658 326.804 254.326 326.317 253.839C325.83 253.352 325.499 252.732 325.364 252.057C325.23 251.381 325.299 250.681 325.562 250.045C325.826 249.409 326.272 248.865 326.845 248.483C327.417 248.1 328.09 247.896 328.779 247.896C329.237 247.894 329.69 247.982 330.114 248.157C330.537 248.331 330.922 248.587 331.246 248.911C331.569 249.235 331.826 249.619 332 250.043C332.174 250.466 332.263 250.92 332.26 251.378Z" fill="white"/>
<path opacity="0.6" d="M339.289 251.377C339.289 251.818 339.159 252.249 338.914 252.615C338.669 252.981 338.321 253.267 337.914 253.435C337.507 253.604 337.06 253.648 336.627 253.562C336.195 253.476 335.798 253.264 335.487 252.952C335.175 252.641 334.963 252.244 334.877 251.812C334.791 251.38 334.835 250.932 335.004 250.525C335.173 250.118 335.458 249.77 335.824 249.525C336.191 249.281 336.621 249.15 337.062 249.15C337.653 249.15 338.219 249.385 338.637 249.802C339.055 250.22 339.289 250.787 339.289 251.377Z" fill="white"/>
<path d="M458.832 279.18H205.771V322.459H458.832V279.18Z" fill="#0C7489"/>
<path d="M448.09 304.359V301.059H445.153C444.965 300.22 444.63 299.422 444.163 298.699L446.242 296.62L443.85 294.228L441.771 296.307C441.047 295.849 440.248 295.519 439.411 295.333V292.396H436.111V295.35C435.276 295.539 434.478 295.868 433.752 296.323L431.673 294.244L429.33 296.604L431.409 298.683C430.943 299.405 430.608 300.204 430.419 301.042H427.482V304.342H430.419C430.611 305.175 430.946 305.968 431.409 306.685L429.33 308.764L431.673 311.124L433.752 309.045C434.481 309.499 435.277 309.833 436.111 310.035V312.955H439.411V310.035C440.247 309.836 441.044 309.501 441.771 309.045L443.85 311.124L446.193 308.764L444.114 306.685C444.577 305.968 444.912 305.175 445.104 304.342L448.09 304.359ZM437.794 305.761C437.183 305.761 436.586 305.58 436.079 305.24C435.571 304.901 435.175 304.418 434.942 303.853C434.709 303.288 434.649 302.667 434.77 302.068C434.89 301.469 435.185 300.919 435.619 300.488C436.052 300.057 436.603 299.765 437.203 299.648C437.802 299.531 438.423 299.594 438.987 299.83C439.55 300.066 440.031 300.464 440.368 300.974C440.705 301.483 440.883 302.082 440.88 302.692C440.88 303.097 440.8 303.497 440.645 303.871C440.49 304.244 440.262 304.583 439.975 304.868C439.689 305.154 439.348 305.379 438.974 305.533C438.6 305.686 438.199 305.764 437.794 305.761Z" fill="white"/>
<path d="M227.65 293.601L216.513 304.178H219.961V311.768H235.339V304.178H238.771L227.65 293.601Z" fill="white"/>
<path opacity="0.4" d="M379.319 395.125C379.328 404.429 376.578 413.526 371.416 421.266C366.254 429.006 358.913 435.041 350.32 438.608C341.727 442.174 332.269 443.111 323.144 441.301C314.018 439.491 305.634 435.015 299.054 428.438C292.473 421.862 287.99 413.482 286.174 404.357C284.357 395.233 285.288 385.775 288.848 377.179C292.408 368.584 298.438 361.238 306.175 356.071C313.911 350.903 323.007 348.147 332.31 348.15C338.484 348.139 344.599 349.347 350.305 351.703C356.011 354.059 361.196 357.519 365.563 361.883C369.929 366.246 373.392 371.429 375.753 377.133C378.113 382.838 379.325 388.952 379.319 395.125Z" fill="black"/>
<path opacity="0.8" d="M367.851 425.914C363.437 431.01 357.978 435.096 351.846 437.897C345.714 440.697 339.051 442.147 332.31 442.147C325.569 442.147 318.906 440.697 312.774 437.897C306.642 435.096 301.183 431.01 296.769 425.914C298.472 419.809 301.717 414.244 306.194 409.756C310.67 405.269 316.226 402.008 322.328 400.29C319.065 398.144 316.582 395.003 315.246 391.333C313.911 387.664 313.794 383.661 314.914 379.92C316.034 376.18 318.331 372.9 321.464 370.568C324.596 368.236 328.397 366.976 332.302 366.976C336.207 366.976 340.008 368.236 343.14 370.568C346.272 372.9 348.569 376.18 349.689 379.92C350.809 383.661 350.693 387.664 349.357 391.333C348.022 395.003 345.539 398.144 342.276 400.29C348.378 402.01 353.935 405.271 358.414 409.758C362.893 414.246 366.143 419.809 367.851 425.914Z" fill="white"/>
<g opacity="0.5">
<path d="M244.035 470.052V470.91H239.002V463.98H243.952V464.838H240.058V466.95H243.54V467.791H240.058V470.035L244.035 470.052Z" fill="black"/>
<path d="M244.959 467.775H247.632V468.6H244.959V467.775Z" fill="black"/>
<path d="M257.796 467.89V470.91H256.855V468.006C256.855 466.966 256.36 466.471 255.502 466.471C255.273 466.449 255.041 466.479 254.825 466.559C254.609 466.64 254.414 466.768 254.255 466.935C254.096 467.102 253.977 467.303 253.907 467.523C253.837 467.743 253.819 467.976 253.852 468.204V470.91H252.912V468.006C252.912 466.966 252.417 466.471 251.542 466.471C251.313 466.449 251.081 466.479 250.865 466.559C250.649 466.64 250.454 466.768 250.295 466.935C250.136 467.102 250.017 467.303 249.947 467.523C249.877 467.743 249.859 467.976 249.892 468.204V470.91H249.15V465.663H250.057V466.455C250.262 466.175 250.534 465.951 250.849 465.803C251.163 465.656 251.51 465.591 251.856 465.613C252.222 465.587 252.588 465.664 252.912 465.836C253.236 466.008 253.505 466.268 253.687 466.587C253.916 466.271 254.22 466.016 254.571 465.847C254.923 465.677 255.311 465.597 255.7 465.613C255.995 465.599 256.29 465.649 256.563 465.761C256.837 465.873 257.082 466.043 257.282 466.261C257.482 466.478 257.632 466.737 257.72 467.018C257.809 467.3 257.835 467.598 257.796 467.89Z" fill="black"/>
<path d="M263.719 467.742V470.91H262.812V470.25C262.619 470.501 262.368 470.701 262.081 470.834C261.793 470.966 261.478 471.026 261.162 471.009C259.974 471.009 259.215 470.365 259.215 469.458C259.215 468.55 259.759 467.923 261.327 467.923H262.828V467.742C262.828 466.933 262.366 466.471 261.426 466.471C260.829 466.469 260.248 466.666 259.776 467.032L259.38 466.323C260.002 465.858 260.765 465.619 261.541 465.646C262.894 465.613 263.719 466.306 263.719 467.742ZM262.762 469.309V468.6H261.294C260.353 468.6 260.089 468.979 260.089 469.425C260.089 469.87 260.518 470.266 261.244 470.266C261.566 470.286 261.885 470.205 262.158 470.033C262.43 469.861 262.642 469.608 262.762 469.309Z" fill="black"/>
<path d="M265.303 464.046C265.303 463.962 265.32 463.879 265.353 463.802C265.385 463.725 265.433 463.655 265.493 463.597C265.553 463.538 265.624 463.492 265.702 463.462C265.78 463.431 265.863 463.417 265.947 463.419C266.07 463.422 266.19 463.462 266.291 463.533C266.392 463.603 266.469 463.702 266.514 463.817C266.559 463.932 266.569 464.058 266.543 464.178C266.517 464.299 266.456 464.409 266.368 464.495C266.28 464.581 266.168 464.639 266.047 464.662C265.926 464.685 265.8 464.671 265.687 464.623C265.573 464.576 265.476 464.495 265.408 464.393C265.34 464.29 265.304 464.169 265.303 464.046ZM265.485 465.696H266.425V470.943H265.485V465.696Z" fill="black"/>
<path d="M268.24 463.65H269.181V470.992H268.24V463.65Z" fill="black"/>
</g>
<g opacity="0.8">
<path d="M414.232 505.213H250.371C247.08 505.213 243.924 503.906 241.597 501.579C239.27 499.252 237.963 496.096 237.963 492.805C237.963 489.515 239.27 486.359 241.597 484.032C243.924 481.705 247.08 480.397 250.371 480.397H414.232C417.523 480.397 420.679 481.705 423.006 484.032C425.333 486.359 426.64 489.515 426.64 492.805C426.64 496.096 425.333 499.252 423.006 501.579C420.679 503.906 417.523 505.213 414.232 505.213Z" fill="white"/>
</g>
<g opacity="0.5">
<path d="M244.596 527.456C244.596 528.957 243.507 529.865 241.709 529.865H240.059V531.96H239.069V525.03H241.775C243.507 525.03 244.596 525.938 244.596 527.456ZM243.606 527.456C243.606 526.466 242.946 525.888 241.676 525.888H240.026V529.006H241.676C242.946 529.006 243.606 528.429 243.606 527.456Z" fill="black"/>
<path d="M250.025 528.792V531.96H249.15V531.3C248.959 531.552 248.708 531.753 248.42 531.886C248.132 532.018 247.816 532.077 247.5 532.059C246.312 532.059 245.553 531.415 245.553 530.508C245.553 529.6 246.098 528.973 247.665 528.973H249.15V528.792C249.15 527.983 248.688 527.521 247.748 527.521C247.15 527.519 246.57 527.716 246.098 528.082L245.702 527.373C246.331 526.908 247.098 526.67 247.88 526.696C249.15 526.663 250.025 527.356 250.025 528.792ZM249.068 530.359V529.65H247.599C246.659 529.65 246.395 530.029 246.395 530.475C246.395 530.92 246.84 531.316 247.55 531.316C247.885 531.358 248.224 531.286 248.514 531.113C248.804 530.939 249.028 530.674 249.15 530.359H249.068Z" fill="black"/>
<path d="M251.13 531.399L251.526 530.657C252.07 531.015 252.707 531.204 253.358 531.201C254.232 531.201 254.612 530.937 254.612 530.492C254.612 529.304 251.312 530.327 251.312 528.231C251.312 527.307 252.153 526.664 253.49 526.664C254.158 526.653 254.818 526.818 255.404 527.142L254.991 527.885C254.541 527.606 254.019 527.462 253.49 527.472C252.648 527.472 252.252 527.786 252.252 528.198C252.252 529.436 255.552 528.429 255.552 530.459C255.552 531.416 254.678 532.026 253.292 532.026C252.524 532.044 251.769 531.825 251.13 531.399Z" fill="black"/>
<path d="M256.08 531.399L256.476 530.656C257.027 531.012 257.668 531.201 258.324 531.201C259.199 531.201 259.562 530.937 259.562 530.491C259.562 529.303 256.262 530.326 256.262 528.231C256.262 527.307 257.103 526.663 258.456 526.663C259.125 526.654 259.784 526.819 260.37 527.142L259.958 527.884C259.5 527.607 258.974 527.465 258.44 527.472C257.615 527.472 257.202 527.785 257.202 528.198C257.202 529.435 260.502 528.429 260.502 530.458C260.502 531.415 259.628 532.026 258.225 532.026C257.463 532.038 256.716 531.819 256.08 531.399Z" fill="black"/>
<path d="M269.544 526.713L267.581 531.96H266.673L265.155 528L263.621 531.976H262.713L260.7 526.713H261.591L263.126 530.887L264.776 526.713H265.65L267.3 530.904L268.851 526.713H269.544Z" fill="black"/>
<path d="M269.874 529.337C269.868 528.797 270.022 528.267 270.317 527.815C270.612 527.363 271.035 527.009 271.532 526.798C272.029 526.587 272.577 526.528 273.107 526.629C273.638 526.731 274.126 526.987 274.51 527.367C274.894 527.746 275.156 528.231 275.264 528.76C275.372 529.289 275.32 529.838 275.115 530.338C274.91 530.837 274.561 531.264 274.113 531.565C273.664 531.865 273.137 532.026 272.597 532.026C272.238 532.042 271.879 531.984 271.544 531.855C271.208 531.726 270.903 531.529 270.648 531.276C270.392 531.024 270.191 530.721 270.058 530.387C269.925 530.053 269.862 529.696 269.874 529.337ZM274.362 529.337C274.362 529.105 274.317 528.875 274.228 528.661C274.139 528.447 274.009 528.252 273.845 528.088C273.681 527.924 273.487 527.794 273.272 527.705C273.058 527.617 272.829 527.571 272.597 527.571C272.365 527.571 272.135 527.617 271.921 527.705C271.707 527.794 271.512 527.924 271.348 528.088C271.184 528.252 271.054 528.447 270.966 528.661C270.877 528.875 270.831 529.105 270.831 529.337C270.831 529.568 270.877 529.798 270.966 530.012C271.054 530.226 271.184 530.421 271.348 530.585C271.512 530.749 271.707 530.879 271.921 530.968C272.135 531.056 272.365 531.102 272.597 531.102C272.829 531.102 273.058 531.056 273.272 530.968C273.487 530.879 273.681 530.749 273.845 530.585C274.009 530.421 274.139 530.226 274.228 530.012C274.317 529.798 274.362 529.568 274.362 529.337Z" fill="black"/>
<path d="M279.461 526.663V527.587H279.246C279.018 527.587 278.792 527.633 278.583 527.724C278.373 527.815 278.185 527.949 278.03 528.116C277.875 528.284 277.756 528.482 277.682 528.697C277.607 528.913 277.578 529.142 277.596 529.369V531.976H276.639V526.729H277.547V527.604C277.746 527.284 278.03 527.026 278.369 526.859C278.707 526.693 279.086 526.625 279.461 526.663Z" fill="black"/>
<path d="M285.533 524.7V532.042H284.625V531.217C284.408 531.508 284.123 531.741 283.795 531.896C283.467 532.051 283.107 532.124 282.744 532.108C282.069 532.055 281.439 531.75 280.98 531.253C280.52 530.756 280.265 530.104 280.265 529.427C280.265 528.75 280.52 528.098 280.98 527.601C281.439 527.104 282.069 526.799 282.744 526.746C283.094 526.732 283.442 526.801 283.761 526.948C284.079 527.094 284.358 527.313 284.576 527.587V524.7H285.533ZM284.592 529.419C284.576 529.074 284.459 528.741 284.255 528.462C284.052 528.182 283.771 527.969 283.447 527.848C283.123 527.727 282.771 527.703 282.434 527.781C282.098 527.858 281.791 528.032 281.552 528.282C281.313 528.532 281.153 528.846 281.091 529.186C281.03 529.526 281.069 529.877 281.205 530.195C281.341 530.513 281.567 530.784 281.855 530.974C282.143 531.165 282.481 531.267 282.827 531.267C283.079 531.289 283.332 531.252 283.568 531.16C283.803 531.068 284.014 530.923 284.185 530.736C284.355 530.55 284.481 530.327 284.551 530.084C284.622 529.841 284.636 529.585 284.592 529.336V529.419Z" fill="black"/>
</g>
<g opacity="0.8">
<path d="M414.232 566.264H250.371C247.08 566.264 243.924 564.956 241.597 562.629C239.27 560.302 237.963 557.146 237.963 553.856C237.963 550.565 239.27 547.409 241.597 545.082C243.924 542.755 247.08 541.448 250.371 541.448H414.232C417.523 541.448 420.679 542.755 423.006 545.082C425.333 547.409 426.64 550.565 426.64 553.856C426.64 557.146 425.333 560.302 423.006 562.629C420.679 564.956 417.523 566.264 414.232 566.264Z" fill="white"/>
</g>
<path d="M372.982 617.413H291.621C289.991 617.413 288.378 617.092 286.873 616.469C285.367 615.845 283.999 614.931 282.847 613.779C281.695 612.627 280.781 611.259 280.157 609.754C279.534 608.248 279.213 606.635 279.213 605.005C279.213 603.376 279.534 601.762 280.157 600.257C280.781 598.752 281.695 597.384 282.847 596.232C283.999 595.079 285.367 594.165 286.873 593.542C288.378 592.918 289.991 592.597 291.621 592.597H372.982C376.273 592.597 379.429 593.905 381.756 596.232C384.083 598.559 385.39 601.715 385.39 605.005C385.39 608.296 384.083 611.452 381.756 613.779C379.429 616.106 376.273 617.413 372.982 617.413Z" fill="#0C7489"/>
<path d="M310.443 604.45C309.991 604.45 309.559 604.382 309.146 604.247C308.734 604.105 308.409 603.925 308.171 603.704L308.485 603.043C308.711 603.241 308.999 603.405 309.35 603.535C309.7 603.665 310.064 603.73 310.443 603.73C310.788 603.73 311.067 603.69 311.282 603.611C311.497 603.532 311.655 603.425 311.757 603.289C311.859 603.148 311.909 602.989 311.909 602.814C311.909 602.611 311.842 602.447 311.706 602.323C311.576 602.198 311.404 602.099 311.189 602.026C310.98 601.947 310.748 601.879 310.494 601.823C310.24 601.766 309.983 601.701 309.723 601.628C309.468 601.548 309.234 601.45 309.019 601.331C308.81 601.212 308.641 601.054 308.511 600.856C308.381 600.653 308.316 600.393 308.316 600.076C308.316 599.771 308.395 599.492 308.553 599.237C308.717 598.977 308.965 598.771 309.299 598.619C309.638 598.46 310.067 598.381 310.587 598.381C310.932 598.381 311.274 598.426 311.613 598.517C311.952 598.607 312.246 598.737 312.494 598.907L312.215 599.585C311.96 599.415 311.692 599.294 311.409 599.22C311.127 599.141 310.853 599.102 310.587 599.102C310.254 599.102 309.98 599.144 309.765 599.229C309.55 599.314 309.392 599.427 309.29 599.568C309.194 599.709 309.146 599.867 309.146 600.043C309.146 600.252 309.211 600.418 309.341 600.543C309.477 600.667 309.649 600.766 309.858 600.839C310.073 600.913 310.307 600.981 310.562 601.043C310.816 601.099 311.07 601.164 311.325 601.238C311.585 601.311 311.819 601.407 312.028 601.526C312.243 601.645 312.415 601.803 312.545 602.001C312.675 602.198 312.74 602.453 312.74 602.763C312.74 603.063 312.658 603.343 312.494 603.603C312.33 603.857 312.076 604.063 311.731 604.221C311.392 604.374 310.963 604.45 310.443 604.45ZM313.86 604.382V599.89H314.673V604.382H313.86ZM314.267 599.025C314.108 599.025 313.976 598.975 313.868 598.873C313.766 598.771 313.716 598.647 313.716 598.5C313.716 598.347 313.766 598.22 313.868 598.119C313.976 598.017 314.108 597.966 314.267 597.966C314.425 597.966 314.555 598.017 314.656 598.119C314.764 598.215 314.818 598.336 314.818 598.483C314.818 598.636 314.767 598.766 314.665 598.873C314.563 598.975 314.43 599.025 314.267 599.025ZM318.193 606.078C317.781 606.078 317.38 606.018 316.99 605.9C316.606 605.787 316.292 605.623 316.049 605.408L316.439 604.781C316.648 604.962 316.905 605.103 317.21 605.205C317.515 605.312 317.835 605.366 318.168 605.366C318.699 605.366 319.089 605.241 319.338 604.993C319.586 604.744 319.711 604.365 319.711 603.857V602.907L319.795 602.018L319.753 601.119V599.89H320.524V603.772C320.524 604.563 320.327 605.145 319.931 605.518C319.536 605.891 318.956 606.078 318.193 606.078ZM318.092 604.196C317.657 604.196 317.267 604.105 316.922 603.925C316.583 603.738 316.312 603.481 316.108 603.153C315.911 602.826 315.812 602.447 315.812 602.018C315.812 601.582 315.911 601.204 316.108 600.882C316.312 600.554 316.583 600.3 316.922 600.119C317.267 599.938 317.657 599.848 318.092 599.848C318.476 599.848 318.826 599.927 319.143 600.085C319.459 600.238 319.711 600.475 319.897 600.797C320.089 601.119 320.185 601.526 320.185 602.018C320.185 602.503 320.089 602.907 319.897 603.23C319.711 603.552 319.459 603.795 319.143 603.959C318.826 604.117 318.476 604.196 318.092 604.196ZM318.185 603.484C318.485 603.484 318.75 603.422 318.982 603.297C319.213 603.173 319.394 603.001 319.524 602.78C319.66 602.56 319.728 602.306 319.728 602.018C319.728 601.729 319.66 601.475 319.524 601.255C319.394 601.034 319.213 600.865 318.982 600.746C318.75 600.622 318.485 600.56 318.185 600.56C317.886 600.56 317.617 600.622 317.38 600.746C317.148 600.865 316.964 601.034 316.829 601.255C316.699 601.475 316.634 601.729 316.634 602.018C316.634 602.306 316.699 602.56 316.829 602.78C316.964 603.001 317.148 603.173 317.38 603.297C317.617 603.422 317.886 603.484 318.185 603.484ZM324.478 599.848C324.845 599.848 325.167 599.918 325.444 600.06C325.727 600.201 325.947 600.416 326.105 600.704C326.264 600.992 326.343 601.356 326.343 601.797V604.382H325.529V601.89C325.529 601.455 325.422 601.128 325.207 600.907C324.998 600.687 324.701 600.577 324.317 600.577C324.029 600.577 323.777 600.633 323.562 600.746C323.348 600.859 323.181 601.026 323.062 601.246C322.949 601.467 322.893 601.741 322.893 602.068V604.382H322.079V599.89H322.859V601.102L322.732 600.78C322.879 600.486 323.105 600.257 323.41 600.093C323.715 599.93 324.071 599.848 324.478 599.848ZM330.125 604.382V599.89H330.938V604.382H330.125ZM330.532 599.025C330.373 599.025 330.241 598.975 330.133 598.873C330.032 598.771 329.981 598.647 329.981 598.5C329.981 598.347 330.032 598.22 330.133 598.119C330.241 598.017 330.373 597.966 330.532 597.966C330.69 597.966 330.82 598.017 330.922 598.119C331.029 598.215 331.083 598.336 331.083 598.483C331.083 598.636 331.032 598.766 330.93 598.873C330.828 598.975 330.696 599.025 330.532 599.025ZM334.891 599.848C335.258 599.848 335.58 599.918 335.857 600.06C336.14 600.201 336.36 600.416 336.518 600.704C336.676 600.992 336.756 601.356 336.756 601.797V604.382H335.942V601.89C335.942 601.455 335.835 601.128 335.62 600.907C335.411 600.687 335.114 600.577 334.73 600.577C334.442 600.577 334.19 600.633 333.975 600.746C333.761 600.859 333.594 601.026 333.475 601.246C333.362 601.467 333.306 601.741 333.306 602.068V604.382H332.492V599.89H333.272V601.102L333.145 600.78C333.292 600.486 333.518 600.257 333.823 600.093C334.128 599.93 334.484 599.848 334.891 599.848Z" fill="white"/>
<path d="M627.165 305.118L556.314 304.458C554.698 304.436 553.156 303.774 552.027 302.618C550.898 301.461 550.274 299.903 550.292 298.287L550.968 276.92C550.977 276.12 551.143 275.33 551.457 274.595C551.771 273.859 552.226 273.193 552.798 272.634C553.369 272.074 554.046 271.633 554.788 271.335C555.53 271.037 556.323 270.888 557.123 270.897L628.073 271.574C629.689 271.595 631.231 272.257 632.36 273.414C633.489 274.571 634.113 276.128 634.095 277.745L633.419 299.112C633.41 299.919 633.241 300.717 632.921 301.458C632.6 302.199 632.135 302.869 631.553 303.428C630.971 303.987 630.283 304.425 629.529 304.715C628.776 305.005 627.972 305.142 627.165 305.118Z" fill="#0C7489"/>
<path d="M590.7 299.723C590.7 299.723 581.724 319.523 562.089 325.578C562.089 325.578 572.979 319.473 572.418 298.667L590.7 299.723Z" fill="#0C7489"/>
<path d="M568.673 287.76L570.323 288.684L569.564 289.955L567.914 288.932V290.813H566.462V288.932L564.812 289.955L564.069 288.684L565.719 287.76L564.069 286.836L564.812 285.566L566.462 286.589V284.691H567.914V286.589L569.564 285.566L570.323 286.836L568.673 287.76Z" fill="white"/>
<path d="M578.803 287.76L580.453 288.684L579.694 289.955L578.044 288.932V290.813H576.592V288.932L574.942 289.955L574.2 288.75L575.85 287.826L574.2 286.902L574.959 285.632L576.609 286.655V284.757H578.061V286.655L579.711 285.632L580.47 286.902L578.803 287.76Z" fill="white"/>
<path d="M588.951 287.76L590.601 288.684L589.842 289.955L588.192 288.932V290.813H586.724V288.932L585.074 289.955L584.331 288.684L585.981 287.76L584.331 286.836L585.074 285.566L586.724 286.589V284.691H588.192V286.589L589.842 285.566L590.601 286.836L588.951 287.76Z" fill="white"/>
<path d="M599.082 287.76L600.732 288.684L599.973 289.955L598.323 288.932V290.813H596.871V288.932L595.221 289.955L594.479 288.684L596.129 287.76L594.479 286.836L595.221 285.566L596.871 286.589V284.691H598.323V286.589L599.973 285.566L600.732 286.836L599.082 287.76Z" fill="white"/>
<path d="M609.213 287.76L610.863 288.684L610.104 289.955L608.454 288.932V290.813H607.002V288.932L605.352 289.955L604.593 288.684L606.243 287.76L604.593 286.836L605.352 285.566L607.002 286.589V284.691H608.454V286.589L610.104 285.566L610.863 286.836L609.213 287.76Z" fill="white"/>
<path d="M619.361 287.76L621.011 288.684L620.252 289.955L618.602 288.932V290.813H617.1V288.932L615.45 289.955L614.708 288.684L616.358 287.76L614.708 286.836L615.45 285.566L617.1 286.589V284.691H618.569V286.589L620.219 285.566L620.978 286.836L619.361 287.76Z" fill="white"/>
<path d="M515.031 339.9C524.469 341.369 533.626 370.442 537.603 372.9C541.579 375.359 538.164 345.675 538.164 345.675L545.721 344.669C545.721 344.669 554.664 389.417 541.612 389.087C531.712 388.839 519.832 372.224 516.862 363.759L515.031 339.9Z" fill="#EBB376"/>
<path opacity="0.1" d="M541.612 388.971C535.59 388.823 528.841 382.635 523.825 375.903C520.958 372.163 518.636 368.036 516.928 363.644L515.955 351.434L515.031 339.884C524.469 341.352 533.626 370.425 537.603 372.884C541.579 375.342 538.164 345.659 538.164 345.659L545.721 344.652C545.721 344.652 554.664 389.301 541.612 388.971Z" fill="black"/>
<path opacity="0.2" d="M523.826 375.903C520.958 372.163 518.636 368.036 516.929 363.644L515.955 351.434C515.955 351.434 526.251 361.796 523.826 375.903Z" fill="black"/>
<path d="M480.282 279.774C480.282 279.774 463.469 279.576 464.277 302.693C465.086 325.809 481.256 326.123 475.827 332.805C480.65 334.85 485.835 335.904 491.073 335.904C496.311 335.904 501.496 334.85 506.319 332.805C506.319 332.805 503.333 331.634 504.752 327.393C506.171 323.153 513.959 317.081 514.652 308.138C515.345 299.195 497.673 277.464 480.282 279.774Z" fill="#263238"/>
<path d="M496.897 324.027C496.897 324.027 518.347 320.051 514.767 299.657C511.83 282.942 504.025 277.58 496.897 275.187C493.827 274.153 490.503 274.151 487.432 275.182C484.361 276.212 481.711 278.219 479.886 280.896C479.886 280.896 465.333 276.771 467.857 300.696C470.382 324.621 486.189 334.95 496.897 324.027Z" fill="#263238"/>
<path d="M536.002 665.759L526.465 660.875L529.93 646.619L533.131 633.567L545.143 637.494L540.309 652.46L536.002 665.759Z" fill="#EBB376"/>
<path d="M523.809 658.631C524.37 657.575 537.174 665 537.174 665C537.174 665 541.183 677.325 548.163 683.15C555.142 688.974 548.361 691.482 539.533 687.093L517.687 676.203C511.5 673.052 518.001 669.653 523.809 658.631Z" fill="#263238"/>
<path d="M541.513 671.269C540.126 670.147 538.88 668.862 537.801 667.441C537.792 667.403 537.792 667.364 537.801 667.326C537.793 667.277 537.793 667.227 537.801 667.177C537.793 667.145 537.793 667.111 537.801 667.078C537.814 667.018 537.85 666.965 537.9 666.93C538.015 666.814 540.655 664.29 542.85 664.438C543.173 664.46 543.487 664.551 543.772 664.705C544.056 664.858 544.305 665.072 544.5 665.329C544.708 665.522 544.851 665.776 544.907 666.054C544.963 666.333 544.93 666.622 544.813 666.88C544.417 667.557 543.163 667.771 541.777 667.821C542.862 668.145 543.834 668.769 544.582 669.619C544.708 669.797 544.795 669.999 544.838 670.212C544.88 670.425 544.878 670.645 544.83 670.857C544.648 671.748 544.17 672.028 543.807 672.111C543.387 672.136 542.967 672.074 542.572 671.93C542.178 671.785 541.817 671.56 541.513 671.269ZM539.121 667.821C540.655 669.619 542.718 671.566 543.592 671.352C543.675 671.352 543.906 671.352 544.021 670.708C544.046 670.594 544.045 670.476 544.019 670.362C543.994 670.248 543.944 670.141 543.873 670.048C543.196 669.025 540.754 668.25 539.121 667.821ZM543.51 665.494C543.274 665.324 542.993 665.226 542.701 665.214C541.331 665.359 540.042 665.937 539.022 666.864C541.348 667.095 543.757 666.996 544.087 666.418C544.186 666.237 543.972 665.923 543.823 665.742C543.731 665.645 543.625 665.562 543.51 665.494Z" fill="#0C7489"/>
<path opacity="0.2" d="M540.193 652.756L529.831 646.899L533.065 633.699L545.127 637.56L540.193 652.756Z" fill="black"/>
<path d="M519.172 677.671H508.266L505.147 663.646L502.309 650.793L515.064 648.846L517.242 664.108L519.172 677.671Z" fill="#EBB376"/>
<path d="M504.669 677.242C504.669 676.038 519.519 676.978 519.519 676.978C519.519 676.978 528.61 686.218 537.438 688.297C546.265 690.376 541.332 695.673 531.465 695.673H506.995C499.95 695.673 504.372 689.7 504.669 677.242Z" fill="#263238"/>
<path d="M527.224 680.757C525.092 680.492 523.021 679.861 521.103 678.893L520.971 678.794V678.711C520.938 678.609 520.938 678.499 520.971 678.398C520.971 678.266 522.274 674.817 524.271 673.976C524.571 673.837 524.897 673.765 525.228 673.765C525.558 673.765 525.885 673.837 526.185 673.976C526.861 674.306 527.175 674.718 527.158 675.23C527.158 676.005 526.053 676.781 524.848 677.424C525.96 677.223 527.107 677.349 528.148 677.787C528.339 677.892 528.507 678.033 528.643 678.203C528.779 678.373 528.88 678.568 528.94 678.777C529.062 679.055 529.093 679.365 529.027 679.661C528.962 679.958 528.805 680.226 528.577 680.427C528.179 680.692 527.7 680.809 527.224 680.757ZM522.456 678.645C524.634 679.553 527.406 680.378 528.033 679.8C528.033 679.8 528.28 679.602 528.132 679.025C528.105 678.914 528.054 678.811 527.983 678.723C527.911 678.635 527.821 678.563 527.719 678.513C526.647 677.886 524.122 678.266 522.456 678.645ZM525.096 674.57C524.891 674.574 524.689 674.619 524.502 674.702C523.343 675.464 522.454 676.573 521.961 677.87C524.155 677.045 526.267 675.89 526.3 675.23C526.3 675.015 525.987 674.834 525.789 674.735C525.574 674.625 525.337 674.569 525.096 674.57Z" fill="#0C7489"/>
<path opacity="0.2" d="M517.275 664.422L505.18 663.927L502.326 650.925L515.08 648.912L517.275 664.422Z" fill="black"/>
<path d="M465.993 420.981L492.773 416.691L517.044 411.741L523.644 451.341C523.644 451.341 557.816 500.841 566.099 534.897C574.382 568.953 543.312 647.955 543.312 647.955L529.04 641.635C529.04 641.635 538.94 565.653 538.709 556.528C538.56 550.588 519.074 523.198 505.445 504.735C505.049 509.371 509.471 555.588 509.471 555.588L519.09 656.898H501.105C439.263 464.854 465.993 420.981 465.993 420.981Z" fill="#263238"/>
<path opacity="0.6" d="M501.105 656.832H519.024L509.404 555.522C509.404 555.522 505.015 508.992 505.378 504.669C508.068 508.316 510.988 512.292 513.942 516.401C525.937 533.082 538.527 551.678 538.692 556.446C538.923 565.587 529.023 641.57 529.023 641.57L543.295 647.889C543.295 647.889 574.365 568.854 566.082 534.815C557.799 500.775 523.627 451.275 523.627 451.275L517.027 411.675L492.756 416.625L465.976 420.915C465.976 420.915 439.263 464.855 501.105 656.832Z" fill="white"/>
<path d="M528.231 635.184L549.302 642.444L544.599 649.671L527.291 643.484L528.231 635.184Z" fill="#0C7489"/>
<path d="M498.531 654.407L521.07 651.321L519.948 659.736L501.336 662.079L498.531 654.407Z" fill="#0C7489"/>
<path opacity="0.2" d="M505.378 504.669C508.068 508.315 510.988 512.292 513.942 516.4C509.223 491.947 503.662 468.138 503.662 468.138C502.958 480.341 503.533 492.585 505.378 504.669Z" fill="black"/>
<path d="M516.565 413.292L467.709 416.674C467.709 416.674 467.049 390.505 463.155 376.893C462.627 375.061 462.049 373.147 461.406 371.101C460.498 368.23 459.459 365.145 458.271 361.779C457.99 360.987 457.281 359.007 456.423 356.713C455.744 354.883 455.609 352.895 456.034 350.99C456.458 349.084 457.424 347.342 458.815 345.972C460.17 344.615 461.89 343.681 463.765 343.282C467.362 342.49 470.91 341.748 472.84 341.451C480.159 340.29 487.544 339.59 494.95 339.355C501.22 339.355 508.15 339.718 512.11 339.999L515.542 340.263C515.542 340.263 517.093 340.609 518.083 349.701C518.974 358.248 518.545 382.206 516.565 413.292Z" fill="#0C7489"/>
<path d="M493.35 349.8C481.024 347.572 477.559 342.094 477.559 342.094C485.809 335.065 479.935 321.865 479.935 321.865L494.785 325.413C494.33 327.472 494.026 329.562 493.878 331.666C493.3 340.725 497.392 341.022 497.392 341.022C499.653 345.988 493.35 349.8 493.35 349.8Z" fill="#EBB376"/>
<path opacity="0.2" d="M494.67 325.33C494.214 327.39 493.911 329.48 493.762 331.584C486.651 329.554 479.886 321.783 479.886 321.783L494.67 325.33Z" fill="black"/>
<path d="M493.581 283.008C506.533 284.179 510.081 291.489 509.833 304.936C509.52 321.733 504.751 333.267 488.862 328.234C467.28 321.42 472.048 281.077 493.581 283.008Z" fill="#EBB376"/>
<path d="M501.6 303.451C502.466 305.486 503.574 307.408 504.9 309.177C504.471 309.675 503.913 310.047 503.288 310.25C502.662 310.454 501.993 310.482 501.353 310.332L501.6 303.451Z" fill="#D58745"/>
<path d="M493.68 301.686C493.68 302.742 492.971 303.567 492.261 303.534C491.552 303.501 491.04 302.577 491.106 301.504C491.172 300.432 491.816 299.623 492.525 299.656C493.235 299.689 493.746 300.613 493.68 301.686Z" fill="#263238"/>
<path d="M492.211 299.689L494.604 298.93C494.604 298.93 493.35 300.811 492.211 299.689Z" fill="#263238"/>
<path d="M506.962 302.346C506.88 303.402 506.253 304.227 505.543 304.178C504.834 304.128 504.306 303.237 504.388 302.165C504.471 301.092 505.081 300.267 505.807 300.317C506.533 300.366 507.028 301.274 506.962 302.346Z" fill="#263238"/>
<path d="M505.494 300.3L507.886 299.541C507.886 299.541 506.55 301.472 505.494 300.3Z" fill="#263238"/>
<path d="M488.549 294.772C488.396 294.768 488.25 294.71 488.136 294.607C488.027 294.491 487.966 294.338 487.966 294.178C487.966 294.019 488.027 293.866 488.136 293.749C488.998 293 490.021 292.461 491.126 292.175C492.232 291.889 493.388 291.863 494.505 292.099C494.582 292.117 494.655 292.149 494.719 292.195C494.784 292.24 494.838 292.298 494.881 292.364C494.923 292.431 494.951 292.505 494.965 292.583C494.978 292.661 494.976 292.74 494.959 292.817C494.941 292.894 494.909 292.967 494.864 293.031C494.818 293.096 494.761 293.151 494.694 293.193C494.627 293.235 494.553 293.263 494.475 293.277C494.398 293.29 494.318 293.288 494.241 293.271C493.326 293.076 492.379 293.09 491.47 293.313C490.561 293.536 489.715 293.962 488.994 294.558C488.94 294.624 488.872 294.677 488.795 294.714C488.718 294.751 488.634 294.771 488.549 294.772Z" fill="#263238"/>
<path d="M508.893 295.152C508.756 295.149 508.623 295.102 508.513 295.02C507.916 294.453 507.196 294.03 506.409 293.784C505.623 293.538 504.79 293.475 503.976 293.601C503.823 293.637 503.662 293.612 503.527 293.532C503.392 293.452 503.292 293.323 503.25 293.172C503.209 293.021 503.23 292.86 503.307 292.724C503.384 292.588 503.512 292.488 503.662 292.446C504.661 292.272 505.687 292.33 506.66 292.616C507.633 292.902 508.527 293.409 509.272 294.096C509.333 294.146 509.384 294.207 509.421 294.276C509.459 294.345 509.482 294.421 509.49 294.5C509.497 294.578 509.489 294.657 509.466 294.732C509.443 294.807 509.405 294.877 509.355 294.938C509.299 295.006 509.229 295.061 509.149 295.098C509.069 295.136 508.981 295.154 508.893 295.152Z" fill="#263238"/>
<path d="M477.444 303.6C477.444 303.6 484.456 293.485 484.275 285.186C484.275 285.186 510.906 276.936 509.833 303.187C509.833 303.187 514.42 280.269 492.195 277.744C469.969 275.22 467.115 307.84 477.757 318.582C477.757 318.565 473.088 309.903 477.444 303.6Z" fill="#263238"/>
<path d="M479.308 306.504C479.315 305.756 479.174 305.015 478.894 304.322C478.614 303.629 478.2 302.997 477.676 302.464C477.152 301.931 476.528 301.506 475.84 301.214C475.152 300.922 474.413 300.768 473.666 300.762C469.607 300.844 466.95 308.913 476.768 311.8C478.17 312.213 479.11 310.876 479.308 306.504Z" fill="#EBB376"/>
<path d="M500.098 316.371C498.516 316.449 496.952 316.008 495.644 315.114C494.337 314.22 493.357 312.923 492.855 311.421C492.832 311.348 492.823 311.272 492.83 311.196C492.837 311.12 492.858 311.047 492.894 310.979C492.929 310.912 492.977 310.852 493.036 310.803C493.094 310.754 493.162 310.718 493.234 310.695C493.309 310.672 493.388 310.664 493.465 310.672C493.543 310.679 493.619 310.702 493.688 310.739C493.757 310.776 493.818 310.826 493.867 310.886C493.917 310.947 493.954 311.016 493.977 311.091C494.416 312.396 495.281 313.516 496.433 314.27C497.585 315.024 498.958 315.369 500.329 315.249C500.484 315.24 500.637 315.292 500.754 315.393C500.871 315.495 500.944 315.639 500.956 315.793C500.965 315.948 500.914 316.101 500.812 316.218C500.71 316.335 500.567 316.408 500.412 316.42L500.098 316.371Z" fill="#263238"/>
<path d="M509.635 299.524C509.51 299.524 509.389 299.483 509.288 299.409C509.187 299.335 509.113 299.231 509.074 299.112C504.025 282.612 484.687 285.186 484.506 285.219C484.43 285.23 484.353 285.226 484.279 285.207C484.204 285.188 484.135 285.154 484.073 285.108C484.012 285.062 483.961 285.005 483.921 284.939C483.882 284.873 483.857 284.8 483.846 284.724C483.835 284.648 483.839 284.571 483.858 284.497C483.877 284.423 483.911 284.353 483.957 284.291C484.003 284.23 484.06 284.179 484.126 284.14C484.192 284.101 484.265 284.075 484.341 284.064C484.539 284.064 504.85 281.342 510.196 298.766C510.219 298.839 510.227 298.917 510.219 298.993C510.211 299.07 510.188 299.144 510.152 299.212C510.115 299.28 510.065 299.339 510.004 299.387C509.944 299.435 509.875 299.471 509.8 299.491L509.635 299.524Z" fill="#263238"/>
<path d="M543.18 327.393C543.18 327.393 549.995 327.277 550.226 328.465C550.457 329.653 550.011 339.636 549.104 341.038C548.114 342.306 546.979 343.452 545.721 344.454L546.381 362.142L542.322 363.561L538.643 347.374C538.643 347.374 534.468 343.299 535.689 338.134C536.91 332.97 543.18 327.393 543.18 327.393Z" fill="#EBB376"/>
<path opacity="0.1" d="M543.18 327.393C543.18 327.393 549.995 327.277 550.226 328.465C550.457 329.653 550.011 339.636 549.104 341.038C548.114 342.306 546.979 343.452 545.721 344.454L546.381 362.142L542.322 363.561L538.643 347.374C538.643 347.374 534.468 343.299 535.689 338.134C536.91 332.97 543.18 327.393 543.18 327.393Z" fill="black"/>
<path d="M531.613 336.105C531.608 336.253 531.634 336.4 531.691 336.537C531.747 336.674 531.832 336.798 531.94 336.899C532.047 337.001 532.176 337.078 532.316 337.126C532.456 337.174 532.605 337.192 532.752 337.177L544.302 336.286C544.624 336.255 544.924 336.11 545.148 335.877C545.372 335.644 545.505 335.339 545.523 335.016L546.348 311.916C546.357 311.758 546.334 311.6 546.28 311.451C546.226 311.302 546.143 311.166 546.035 311.051C545.927 310.935 545.797 310.842 545.652 310.778C545.507 310.714 545.351 310.68 545.193 310.678L533.643 311.569C533.308 311.636 533.004 311.814 532.783 312.075C532.561 312.335 532.434 312.663 532.422 313.005L531.613 336.105Z" fill="#263238"/>
<path opacity="0.5" d="M533.709 312.774L532.95 336.072C532.928 336.21 532.938 336.351 532.981 336.484C533.023 336.617 533.097 336.738 533.195 336.838C533.293 336.937 533.413 337.013 533.545 337.057C533.677 337.102 533.818 337.115 533.956 337.095L543.774 336.336C544.434 336.336 545.622 335.824 545.638 335.164L546.463 311.8C546.463 311.14 545.325 310.711 544.665 310.761L534.765 311.52C534.462 311.553 534.183 311.702 533.986 311.936C533.789 312.169 533.69 312.469 533.709 312.774Z" fill="white"/>
<path d="M519.833 353.628L524.238 343.349C524.238 343.349 525.674 329.571 526.367 328.086C527.06 326.601 538.28 327.162 539.567 327.08C540.854 326.997 540.557 340.742 539.385 342.194C538.214 343.646 533.627 344.801 533.627 344.801L526.581 358.463L519.833 353.628Z" fill="#EBB376"/>
<path d="M507.424 348.051C506.236 352.77 501.666 356.4 492.211 356.301C486.85 356.21 481.654 354.432 477.361 351.219C473.945 348.708 470.986 345.627 468.616 342.111C469.986 341.864 471.372 341.649 472.758 341.435C480.077 340.273 487.461 339.574 494.868 339.339C498.778 339.339 502.92 339.455 506.418 339.636C507.645 342.261 507.998 345.211 507.424 348.051Z" fill="#EBB376"/>
<path d="M467.577 412.979L465.531 421.922L518.265 419.15L516.747 410.322L467.577 412.979Z" fill="#263238"/>
<path d="M497.541 420.618C497.053 420.62 496.581 420.441 496.218 420.115C495.855 419.788 495.627 419.338 495.577 418.852L494.967 413.143C494.919 412.602 495.085 412.063 495.429 411.642C495.6 411.438 495.812 411.271 496.05 411.152C496.288 411.032 496.549 410.963 496.815 410.949L504.504 410.421C505.021 410.384 505.533 410.552 505.928 410.889C506.322 411.225 506.57 411.703 506.616 412.219L507.144 417.846C507.192 418.375 507.032 418.901 506.698 419.314C506.529 419.517 506.32 419.682 506.085 419.802C505.849 419.921 505.592 419.991 505.329 420.007L497.706 420.618H497.541ZM496.617 412.962L497.211 418.671C497.223 418.757 497.267 418.835 497.335 418.89C497.402 418.945 497.487 418.973 497.574 418.968L505.197 418.374C505.242 418.368 505.286 418.354 505.326 418.331C505.365 418.308 505.4 418.278 505.428 418.242C505.487 418.173 505.516 418.085 505.51 417.994L504.966 412.368C504.964 412.325 504.953 412.283 504.934 412.245C504.916 412.207 504.889 412.172 504.857 412.145C504.824 412.117 504.787 412.096 504.746 412.083C504.705 412.071 504.662 412.066 504.619 412.071L496.93 412.599C496.883 412.597 496.836 412.606 496.793 412.627C496.75 412.647 496.712 412.677 496.683 412.714C496.666 412.754 496.657 412.796 496.657 412.838C496.657 412.881 496.666 412.923 496.683 412.962H496.617Z" fill="white"/>
<path d="M504.9 415.8H502.062C501.843 415.8 501.633 415.713 501.478 415.558C501.324 415.404 501.237 415.194 501.237 414.975C501.241 414.758 501.329 414.55 501.483 414.396C501.637 414.243 501.844 414.154 502.062 414.15H504.9C505.117 414.154 505.325 414.243 505.478 414.396C505.632 414.55 505.721 414.758 505.725 414.975C505.725 415.194 505.638 415.404 505.483 415.558C505.328 415.713 505.119 415.8 504.9 415.8Z" fill="white"/>
<path opacity="0.2" d="M474.853 375.127C470.184 376.777 464.953 373.89 461.406 371.101C460.498 368.23 459.459 365.145 458.271 361.779C457.99 360.987 457.281 359.007 456.423 356.713C455.744 354.883 455.609 352.895 456.034 350.99C456.458 349.084 457.424 347.341 458.815 345.972C467.791 354.436 481.09 372.999 474.853 375.127Z" fill="black"/>
<path d="M458.7 344.85C459.636 344.095 460.717 343.542 461.877 343.223C463.036 342.904 464.249 342.828 465.439 342.998C466.629 343.168 467.772 343.582 468.795 344.213C469.819 344.844 470.701 345.678 471.388 346.665C478.632 357.043 490.792 374.302 492.261 375.144C494.356 376.365 510.163 361.795 524.254 343.315L532.884 346.615C532.884 346.615 510.592 392.452 494.769 392.65C482.905 392.799 465.069 368.742 456.967 356.647C455.718 354.824 455.202 352.596 455.523 350.409C455.844 348.222 456.979 346.237 458.7 344.85Z" fill="#EBB376"/>
<path opacity="0.2" d="M474.853 429.248C474.853 429.248 470.827 440.187 460.878 444.098V448.025C460.878 448.025 475.464 441.821 477.51 431.525L474.853 429.248Z" fill="black"/>
<path opacity="0.2" d="M463.534 486.865L477.51 484.242L480.843 512.325L467.461 514.272L465.531 495.99L477.609 494.274L476.916 487.344L476.718 493.498L463.138 495.676L463.534 486.865Z" fill="black"/>
<path d="M147.923 614.643C147.923 613.866 145.335 536.988 132.884 524.952C120.926 513.356 107.155 524.538 106.559 524.952L104.903 522.959C105.058 522.829 121.055 509.783 134.67 522.959C147.846 535.746 150.408 611.2 150.512 614.41L147.923 614.643Z" fill="#0C7489"/>
<path d="M149.088 629.811C148.726 626.032 140.52 537.299 173.989 498.86L175.956 500.568C143.135 538.127 151.495 628.621 151.677 629.527L149.088 629.811Z" fill="#0C7489"/>
<path d="M148.389 620.105L145.8 619.923C145.8 618.888 152.349 516.099 127.94 493.683L129.7 491.768C154.99 515.038 148.674 615.808 148.389 620.105Z" fill="#0C7489"/>
<path d="M151.677 620.027H149.088C149.088 617.179 149.891 550.319 168.994 539.369C170.833 538.182 172.931 537.451 175.11 537.24C177.29 537.028 179.488 537.341 181.522 538.153C193.118 542.967 198.839 563.494 199.072 564.348L196.484 565.047C196.484 564.84 190.867 544.857 180.461 540.56C178.78 539.878 176.957 539.618 175.152 539.803C173.347 539.988 171.615 540.612 170.107 541.621C152.376 551.794 151.677 619.457 151.677 620.027Z" fill="#0C7489"/>
<path d="M144.196 620.079L141.607 619.923C141.607 619.406 144.455 567.351 130.451 549.051C127.086 544.702 123.488 542.605 119.683 542.89C110.623 543.511 102.961 556.868 102.909 556.997L100.632 555.729C100.994 555.134 109.044 541.026 119.502 540.198C124.213 539.861 128.587 542.269 132.444 547.394C147.121 566.549 144.325 617.904 144.196 620.079Z" fill="#0C7489"/>
<path d="M146.655 627.223C146.293 622.046 137.466 502.976 153.049 481.802L155.12 483.355C140.107 503.675 149.166 625.722 149.244 627.016L146.655 627.223Z" fill="#0C7489"/>
<path d="M185.534 550.5C185.534 550.5 176.242 553.943 179.011 562.045C181.781 570.147 211.212 583.478 211.212 583.478C211.212 583.478 223.533 572.166 212.222 553.788C200.91 535.409 185.793 544.702 185.534 550.5Z" fill="#0C7489"/>
<path opacity="0.2" d="M185.534 550.5C185.534 550.5 176.242 553.943 179.011 562.045C181.781 570.147 211.212 583.478 211.212 583.478C211.212 583.478 223.533 572.166 212.222 553.788C200.91 535.409 185.793 544.702 185.534 550.5Z" fill="white"/>
<path d="M145.076 535.073C145.076 535.073 154.99 534.659 155.43 543.201C155.87 551.743 134.075 575.453 134.075 575.453C134.075 575.453 118.337 569.784 121.702 548.455C125.067 527.126 142.591 529.818 145.076 535.073Z" fill="#0C7489"/>
<path opacity="0.2" d="M145.076 535.073C145.076 535.073 154.99 534.659 155.43 543.201C155.87 551.743 134.075 575.453 134.075 575.453C134.075 575.453 118.337 569.784 121.702 548.455C125.067 527.126 142.591 529.818 145.076 535.073Z" fill="white"/>
<path d="M136.664 494.175C136.664 494.175 143.29 493.45 142.747 489.438C142.203 485.426 117.043 475.046 102.211 491.794C102.211 491.794 111.711 508.127 125.507 508.334C139.304 508.541 136.664 494.175 136.664 494.175Z" fill="#0C7489"/>
<path opacity="0.2" d="M136.664 494.175C136.664 494.175 143.29 493.45 142.747 489.438C142.203 485.426 117.043 475.046 102.211 491.794C102.211 491.794 111.711 508.127 125.507 508.334C139.304 508.541 136.664 494.175 136.664 494.175Z" fill="white"/>
<path d="M149.088 484.39C149.088 484.39 143.109 487.29 141.323 483.588C139.537 479.887 155.533 457.703 176.992 464.149C176.992 464.149 177.561 483.044 166.017 490.499C154.472 497.954 149.088 484.39 149.088 484.39Z" fill="#0C7489"/>
<path opacity="0.2" d="M149.088 484.39C149.088 484.39 143.109 487.29 141.323 483.588C139.537 479.887 155.533 457.703 176.992 464.149C176.992 464.149 177.561 483.044 166.017 490.499C154.472 497.954 149.088 484.39 149.088 484.39Z" fill="white"/>
<path d="M117.69 547.239C117.69 547.239 122.246 543.563 117.328 541.751C112.409 539.94 88.233 540.483 88 564.401C88 564.401 116.137 569.086 119.605 559.974C123.074 550.863 117.69 547.239 117.69 547.239Z" fill="#0C7489"/>
<path opacity="0.2" d="M117.69 547.239C117.69 547.239 122.246 543.563 117.328 541.751C112.409 539.94 88.233 540.483 88 564.401C88 564.401 116.137 569.086 119.605 559.974C123.074 550.863 117.69 547.239 117.69 547.239Z" fill="white"/>
<path d="M174.973 493.58C174.973 493.58 170.391 489.878 175.335 488.092C180.279 486.306 204.404 486.798 204.663 510.742C204.663 510.742 176.526 515.401 173.032 506.289C169.537 497.178 174.973 493.58 174.973 493.58Z" fill="#0C7489"/>
<path opacity="0.2" d="M174.973 493.58C174.973 493.58 170.391 489.878 175.335 488.092C180.279 486.306 204.404 486.798 204.663 510.742C204.663 510.742 176.526 515.401 173.032 506.289C169.537 497.178 174.973 493.58 174.973 493.58Z" fill="white"/>
<path d="M160.193 512.838C160.193 512.838 159.779 508.36 163.403 510.12C167.026 511.88 179.606 525.47 166.561 538.36C166.561 538.36 148.985 525.418 152.143 518.559C155.301 511.699 160.193 512.838 160.193 512.838Z" fill="#0C7489"/>
<path opacity="0.2" d="M160.193 512.838C160.193 512.838 159.779 508.36 163.403 510.12C167.026 511.88 179.606 525.47 166.561 538.36C166.561 538.36 148.985 525.418 152.143 518.559C155.301 511.699 160.193 512.838 160.193 512.838Z" fill="white"/>
<path d="M113.6 519.232C113.6 519.232 116.344 515.66 112.332 515.219C108.32 514.779 90.459 519.542 94.73 537.403C94.73 537.403 116.525 535.772 117.457 528.343C118.389 520.914 113.6 519.232 113.6 519.232Z" fill="#0C7489"/>
<path opacity="0.2" d="M113.6 519.232C113.6 519.232 116.344 515.66 112.332 515.219C108.32 514.779 90.459 519.542 94.73 537.403C94.73 537.403 116.525 535.772 117.457 528.343C118.389 520.914 113.6 519.232 113.6 519.232Z" fill="white"/>
<path d="M187.294 686.344H112.461L104.385 604.419H195.345L187.294 686.344Z" fill="#0C7489"/>
<path opacity="0.5" d="M187.294 686.344H112.461L104.385 604.419H195.345L187.294 686.344Z" fill="white"/>
<path d="M199.357 595.385H100.399V613.452H199.357V595.385Z" fill="#0C7489"/>
<path opacity="0.2" d="M199.357 595.385H100.399V613.452H199.357V595.385Z" fill="white"/>
</svg>
