<svg width="1084" height="1255" viewBox="0 0 1084 1255" fill="none" xmlns="http://www.w3.org/2000/svg">
<path d="M741.165 319.336H173.374C160.544 319.336 150.143 329.737 150.143 342.567V1011.12C150.143 1023.95 160.544 1034.35 173.374 1034.35H741.165C753.995 1034.35 764.396 1023.95 764.396 1011.12V342.567C764.396 329.737 753.995 319.336 741.165 319.336Z" fill="#0C7489"/>
<path opacity="0.6" d="M741.165 319.336H173.374C160.544 319.336 150.143 329.737 150.143 342.567V1011.12C150.143 1023.95 160.544 1034.35 173.374 1034.35H741.165C753.995 1034.35 764.396 1023.95 764.396 1011.12V342.567C764.396 329.737 753.995 319.336 741.165 319.336Z" fill="white"/>
<path d="M664.903 647.265H249.668V718.354H664.903V647.265Z" fill="white"/>
<g opacity="0.4">
<path d="M286.799 689.728V691.6H272.391V671.226H286.354V673.066H274.549V680.334H285.085V682.143H274.549V689.728H286.799Z" fill="#263238"/>
<path d="M289.687 682.81H297.335V684.587H289.687V682.81Z" fill="#263238"/>
<path d="M327.199 682.715V691.601H325.136V682.905C325.136 679.731 323.518 678.018 320.757 678.018C320.041 677.984 319.326 678.108 318.663 678.38C318 678.651 317.404 679.065 316.918 679.591C316.431 680.117 316.065 680.743 315.846 681.425C315.626 682.107 315.558 682.829 315.647 683.54V691.601H313.552V682.905C313.552 679.731 311.934 678.018 309.141 678.018C308.425 677.984 307.711 678.108 307.048 678.38C306.385 678.651 305.789 679.065 305.302 679.591C304.816 680.117 304.45 680.743 304.23 681.425C304.011 682.107 303.943 682.829 304.032 683.54V691.601H301.937V676.272H303.936V679.065C304.535 678.129 305.369 677.367 306.355 676.855C307.341 676.342 308.444 676.098 309.554 676.145C310.675 676.05 311.798 676.304 312.77 676.872C313.741 677.44 314.514 678.295 314.981 679.319C315.615 678.296 316.512 677.462 317.578 676.904C318.644 676.346 319.84 676.084 321.042 676.145C321.904 676.08 322.769 676.208 323.574 676.521C324.379 676.835 325.104 677.324 325.695 677.955C326.285 678.585 326.727 679.34 326.988 680.164C327.248 680.987 327.32 681.859 327.199 682.715Z" fill="#263238"/>
<path d="M344.4 682.079V691.6H342.4V689.188C341.832 690.047 341.043 690.736 340.116 691.183C339.188 691.63 338.158 691.818 337.132 691.727C333.673 691.727 331.547 689.918 331.547 687.284C331.547 684.65 333.07 682.936 337.45 682.936H342.305V682.016C342.305 679.382 340.845 677.954 337.989 677.954C336.125 677.933 334.315 678.574 332.88 679.763L331.959 678.239C333.752 676.797 336.007 676.053 338.306 676.145C339.116 676.046 339.938 676.13 340.712 676.391C341.485 676.652 342.19 677.084 342.774 677.653C343.359 678.222 343.808 678.916 344.09 679.682C344.371 680.448 344.477 681.267 344.4 682.079ZM342.305 686.998V684.491H337.513C334.562 684.491 333.578 685.634 333.578 687.221C333.578 688.807 335.006 690.109 337.45 690.109C338.485 690.177 339.515 689.912 340.389 689.352C341.263 688.793 341.934 687.968 342.305 686.998Z" fill="#263238"/>
<path d="M349.541 671.448C349.545 671.252 349.588 671.059 349.667 670.88C349.746 670.7 349.859 670.538 350 670.402C350.142 670.267 350.309 670.161 350.491 670.089C350.674 670.018 350.869 669.984 351.065 669.988C351.256 669.984 351.447 670.018 351.626 670.087C351.804 670.157 351.968 670.261 352.106 670.393C352.245 670.526 352.356 670.684 352.433 670.86C352.51 671.036 352.552 671.225 352.556 671.416C352.56 671.615 352.525 671.812 352.452 671.997C352.379 672.181 352.27 672.35 352.131 672.492C351.992 672.633 351.826 672.746 351.643 672.823C351.46 672.9 351.263 672.94 351.065 672.94C350.866 672.944 350.669 672.908 350.484 672.835C350.299 672.762 350.131 672.653 349.989 672.514C349.847 672.375 349.735 672.209 349.658 672.026C349.581 671.843 349.541 671.647 349.541 671.448ZM350.017 676.272H352.08V691.6H350.017V676.272Z" fill="#263238"/>
<path d="M357.824 669.988H359.887V691.6H357.824V669.988Z" fill="#263238"/>
</g>
<path d="M664.903 744.378H249.668V815.467H664.903V744.378Z" fill="white"/>
<g opacity="0.4">
<path d="M288.322 775.416C288.322 779.763 285.149 782.398 280.007 782.398H274.549V788.745H272.391V768.37H280.007C285.18 768.434 288.322 771.068 288.322 775.416ZM286.164 775.416C286.164 772.242 284.038 770.306 279.817 770.306H274.422V780.493H279.817C284.038 780.493 286.164 778.621 286.164 775.416Z" fill="#263238"/>
<path d="M303.968 779.32V788.84H301.969V786.428C301.401 787.287 300.611 787.976 299.684 788.423C298.757 788.87 297.726 789.058 296.701 788.967C293.241 788.967 291.115 787.158 291.115 784.493C291.115 781.827 292.638 780.081 297.018 780.081H301.874V779.129C301.874 776.527 300.382 775.099 297.526 775.099C295.671 775.074 293.869 775.716 292.448 776.908L291.496 775.353C293.304 773.942 295.551 773.211 297.843 773.29C298.664 773.183 299.499 773.265 300.284 773.529C301.069 773.793 301.784 774.232 302.374 774.813C302.964 775.394 303.414 776.102 303.69 776.883C303.967 777.663 304.062 778.497 303.968 779.32ZM301.905 784.207V781.7H297.018C294.066 781.7 293.114 782.874 293.114 784.461C293.114 786.048 294.511 787.317 296.986 787.317C298.031 787.394 299.073 787.134 299.959 786.574C300.845 786.014 301.527 785.184 301.905 784.207Z" fill="#263238"/>
<path d="M307.459 787.063L308.379 785.445C309.98 786.562 311.886 787.16 313.838 787.158C316.726 787.158 317.932 786.175 317.932 784.651C317.932 780.652 307.999 783.794 307.999 777.764C307.999 775.257 310.157 773.385 314.06 773.385C315.964 773.368 317.838 773.861 319.487 774.813L318.567 776.463C317.232 775.582 315.66 775.128 314.06 775.162C311.299 775.162 310.061 776.241 310.061 777.701C310.061 781.827 319.995 778.717 319.995 784.588C319.995 787.254 317.678 788.967 313.648 788.967C311.432 789.025 309.259 788.356 307.459 787.063Z" fill="#263238"/>
<path d="M321.677 787.063L322.629 785.444C324.211 786.575 326.111 787.175 328.056 787.158C330.975 787.158 332.15 786.174 332.15 784.651C332.15 780.652 322.248 783.794 322.248 777.764C322.248 775.257 324.406 773.385 328.278 773.385C330.183 773.36 332.059 773.853 333.705 774.813L332.816 776.463C331.468 775.584 329.887 775.131 328.278 775.162C325.517 775.162 324.311 776.241 324.311 777.701C324.311 781.826 334.244 778.716 334.244 784.588C334.244 787.253 331.896 788.967 327.897 788.967C325.672 789.02 323.491 788.352 321.677 787.063Z" fill="#263238"/>
<path d="M360.204 773.511L354.428 788.808H352.493L347.796 776.273L342.972 788.808H341.036L335.101 773.511H337.069L341.893 786.523L346.812 773.511H348.589L353.476 786.523L358.332 773.511H360.204Z" fill="#263238"/>
<path d="M361.347 781.16C361.347 779.616 361.805 778.106 362.663 776.822C363.521 775.539 364.74 774.538 366.167 773.947C367.593 773.356 369.163 773.202 370.677 773.503C372.192 773.804 373.583 774.548 374.675 775.639C375.766 776.731 376.51 778.122 376.811 779.637C377.113 781.151 376.958 782.721 376.367 784.147C375.776 785.574 374.775 786.793 373.492 787.651C372.208 788.509 370.698 788.967 369.154 788.967C368.119 789.002 367.088 788.825 366.125 788.445C365.162 788.065 364.287 787.491 363.555 786.759C362.823 786.027 362.249 785.152 361.869 784.189C361.489 783.226 361.312 782.195 361.347 781.16ZM374.835 781.16C374.785 780.041 374.407 778.961 373.749 778.055C373.09 777.149 372.18 776.457 371.131 776.064C370.082 775.671 368.941 775.596 367.849 775.846C366.757 776.097 365.763 776.663 364.991 777.475C364.219 778.286 363.702 779.306 363.505 780.409C363.308 781.512 363.439 782.648 363.883 783.676C364.326 784.705 365.063 785.58 366 786.194C366.937 786.807 368.034 787.131 369.154 787.126C369.929 787.141 370.698 786.995 371.413 786.697C372.128 786.398 372.773 785.954 373.308 785.393C373.842 784.832 374.254 784.166 374.517 783.437C374.78 782.708 374.888 781.933 374.835 781.16Z" fill="#263238"/>
<path d="M388.862 773.385V775.384H388.354C387.628 775.349 386.904 775.475 386.232 775.752C385.56 776.029 384.957 776.451 384.466 776.987C383.975 777.523 383.609 778.161 383.392 778.854C383.176 779.548 383.114 780.281 383.213 781.001V788.809H381.15V773.512H383.118V776.495C383.653 775.46 384.487 774.61 385.511 774.056C386.536 773.501 387.703 773.267 388.862 773.385Z" fill="#263238"/>
<path d="M406.412 767.386V788.967H404.445V785.952C403.829 786.955 402.958 787.777 401.921 788.335C400.884 788.892 399.718 789.165 398.542 789.126C396.561 788.999 394.703 788.123 393.345 786.676C391.988 785.229 391.232 783.319 391.232 781.334C391.232 779.35 391.988 777.44 393.345 775.993C394.703 774.546 396.561 773.67 398.542 773.543C399.703 773.517 400.85 773.797 401.87 774.354C402.889 774.911 403.744 775.726 404.349 776.717V767.386H406.412ZM404.381 781.319C404.331 780.2 403.954 779.12 403.295 778.214C402.636 777.308 401.726 776.615 400.677 776.223C399.628 775.83 398.487 775.754 397.395 776.005C396.303 776.256 395.309 776.822 394.537 777.633C393.765 778.445 393.248 779.465 393.051 780.568C392.854 781.67 392.985 782.807 393.429 783.835C393.873 784.864 394.609 785.739 395.546 786.353C396.483 786.966 397.58 787.29 398.7 787.285C399.489 787.302 400.273 787.152 401 786.844C401.727 786.536 402.38 786.078 402.917 785.499C403.454 784.92 403.862 784.234 404.114 783.486C404.367 782.738 404.457 781.946 404.381 781.16V781.319Z" fill="#263238"/>
</g>
<path opacity="0.2" d="M664.903 887.984H249.668V959.073H664.903V887.984Z" fill="black"/>
<g opacity="0.5">
<path d="M350.652 855.327H343.861L342.401 858.501H341.068L346.622 846.346H347.891L353.445 858.501H352.112L350.652 855.327ZM350.176 854.28L347.256 847.742L344.337 854.28H350.176Z" fill="black"/>
<path d="M355.222 845.679H356.46V858.564H355.222V845.679Z" fill="black"/>
<path d="M364.521 849.361V850.567H364.204C363.76 850.529 363.315 850.591 362.899 850.75C362.484 850.908 362.109 851.159 361.804 851.482C361.499 851.806 361.271 852.194 361.137 852.618C361.003 853.042 360.966 853.491 361.03 853.931V858.596H359.792V849.456H360.998V851.233C361.317 850.593 361.827 850.068 362.459 849.732C363.091 849.396 363.812 849.266 364.521 849.361Z" fill="black"/>
<path d="M374.613 854.375H366.837C366.861 854.82 366.974 855.255 367.168 855.657C367.362 856.058 367.633 856.416 367.967 856.711C368.301 857.007 368.69 857.233 369.111 857.377C369.533 857.52 369.979 857.579 370.423 857.549C370.951 857.567 371.476 857.471 371.963 857.269C372.451 857.066 372.889 856.761 373.248 856.374L373.914 857.168C373.259 857.857 372.414 858.336 371.486 858.546C370.558 858.756 369.589 858.687 368.701 858.348C367.812 858.009 367.044 857.415 366.492 856.64C365.94 855.865 365.63 854.945 365.6 853.994C365.569 853.391 365.663 852.788 365.875 852.223C366.087 851.657 366.413 851.141 366.832 850.707C367.252 850.273 367.756 849.929 368.314 849.697C368.871 849.466 369.471 849.351 370.074 849.361C370.678 849.346 371.278 849.458 371.837 849.688C372.395 849.918 372.899 850.262 373.317 850.698C373.735 851.134 374.058 851.652 374.264 852.22C374.471 852.787 374.557 853.392 374.517 853.994C374.517 853.994 374.613 854.248 374.613 854.375ZM366.964 853.455H373.311C373.311 852.613 372.977 851.806 372.382 851.211C371.787 850.615 370.98 850.281 370.138 850.281C369.296 850.281 368.489 850.615 367.894 851.211C367.299 851.806 366.964 852.613 366.964 853.455Z" fill="black"/>
<path d="M383.784 853.074V858.723H382.705V857.295C382.369 857.817 381.894 858.236 381.334 858.505C380.774 858.773 380.15 858.882 379.532 858.818C377.469 858.818 376.358 857.739 376.358 856.152C376.358 854.565 377.247 853.55 379.881 853.55H382.705V853.01C382.705 851.455 381.817 850.598 380.103 850.598C378.948 850.555 377.819 850.94 376.929 851.677L376.39 850.757C377.442 849.918 378.758 849.479 380.103 849.519C380.594 849.435 381.098 849.468 381.574 849.614C382.051 849.761 382.486 850.018 382.844 850.364C383.203 850.71 383.474 851.136 383.638 851.607C383.801 852.077 383.851 852.58 383.784 853.074ZM382.579 855.994V854.47H379.691C377.913 854.47 377.342 855.168 377.342 856.12C377.342 857.072 378.199 857.834 379.659 857.834C380.316 857.884 380.972 857.716 381.523 857.354C382.074 856.992 382.49 856.458 382.705 855.835L382.579 855.994Z" fill="black"/>
<path d="M395.4 845.679V858.564H394.226V856.755C393.865 857.361 393.347 857.858 392.727 858.194C392.107 858.529 391.407 858.69 390.703 858.66C389.536 858.563 388.448 858.031 387.655 857.17C386.862 856.309 386.422 855.181 386.422 854.01C386.422 852.839 386.862 851.711 387.655 850.85C388.448 849.989 389.536 849.457 390.703 849.361C391.39 849.342 392.071 849.498 392.682 849.815C393.292 850.131 393.813 850.597 394.194 851.17V845.679H395.4ZM394.194 853.994C394.163 853.33 393.938 852.69 393.546 852.153C393.155 851.616 392.614 851.205 391.991 850.972C391.369 850.739 390.692 850.694 390.044 850.843C389.396 850.991 388.806 851.327 388.346 851.807C387.887 852.288 387.579 852.893 387.461 853.547C387.342 854.201 387.418 854.875 387.679 855.486C387.94 856.098 388.375 856.619 388.929 856.986C389.484 857.352 390.133 857.548 390.798 857.549C391.271 857.577 391.744 857.504 392.186 857.335C392.629 857.166 393.03 856.904 393.363 856.568C393.696 856.232 393.954 855.828 394.119 855.384C394.285 854.941 394.353 854.467 394.321 853.994H394.194Z" fill="black"/>
<path d="M406.666 849.425L402.096 859.675C401.335 861.452 400.351 862.024 398.923 862.024C398.103 862.046 397.307 861.75 396.701 861.199L397.272 860.278C397.718 860.725 398.323 860.976 398.954 860.976C399.78 860.976 400.319 860.596 400.859 859.421L401.239 858.565L397.146 849.425H398.574L402.033 857.2L405.46 849.425H406.666Z" fill="black"/>
<path d="M419.869 853.074V858.723H418.694V857.295C418.358 857.817 417.883 858.236 417.323 858.505C416.763 858.773 416.139 858.882 415.521 858.818C413.458 858.818 412.347 857.739 412.347 856.152C412.347 854.565 413.236 853.55 415.87 853.55H418.758V853.01C418.758 851.455 417.901 850.598 416.187 850.598C415.033 850.555 413.903 850.94 413.014 851.677L412.442 850.757C413.507 849.918 414.832 849.48 416.187 849.519C416.678 849.435 417.182 849.468 417.659 849.614C418.135 849.761 418.57 850.018 418.928 850.364C419.287 850.71 419.559 851.136 419.722 851.607C419.885 852.077 419.936 852.58 419.869 853.074ZM418.631 855.994V854.47H415.775C413.997 854.47 413.426 855.168 413.426 856.12C413.426 857.072 414.283 857.834 415.743 857.834C416.376 857.859 417 857.678 417.521 857.317C418.042 856.957 418.432 856.436 418.631 855.835V855.994Z" fill="black"/>
<path d="M443.004 853.264V858.564H441.798V853.391C441.798 851.455 440.815 850.472 439.164 850.472C438.739 850.438 438.312 850.497 437.911 850.645C437.511 850.793 437.148 851.025 436.846 851.327C436.544 851.629 436.312 851.992 436.164 852.392C436.016 852.792 435.957 853.22 435.991 853.645V858.437H434.785V853.391C434.785 851.455 433.801 850.472 432.119 850.472C431.694 850.438 431.266 850.497 430.866 850.645C430.466 850.793 430.102 851.025 429.801 851.327C429.499 851.629 429.266 851.992 429.119 852.392C428.971 852.792 428.912 853.22 428.945 853.645V858.437H427.707V849.297H428.882V850.979C429.232 850.411 429.729 849.948 430.322 849.64C430.914 849.333 431.579 849.192 432.246 849.234C432.911 849.182 433.576 849.341 434.146 849.688C434.715 850.036 435.161 850.554 435.419 851.17C435.789 850.548 436.321 850.039 436.959 849.698C437.596 849.356 438.315 849.196 439.037 849.234C439.586 849.136 440.149 849.173 440.68 849.342C441.211 849.511 441.692 849.807 442.083 850.204C442.474 850.601 442.762 851.087 442.922 851.62C443.083 852.153 443.111 852.718 443.004 853.264Z" fill="black"/>
<path d="M454.239 854.375H446.59C446.655 855.273 447.071 856.11 447.748 856.704C448.426 857.298 449.309 857.601 450.208 857.549C450.731 857.569 451.252 857.474 451.735 857.271C452.217 857.068 452.649 856.762 453.001 856.375L453.699 857.168C453.253 857.655 452.708 858.04 452.1 858.297C451.492 858.554 450.836 858.678 450.176 858.66C449.547 858.7 448.917 858.608 448.326 858.389C447.735 858.171 447.196 857.831 446.744 857.391C446.292 856.952 445.938 856.422 445.704 855.837C445.47 855.252 445.361 854.624 445.384 853.994C445.384 852.816 445.852 851.686 446.686 850.853C447.519 850.019 448.649 849.551 449.827 849.551C451.006 849.551 452.136 850.019 452.969 850.853C453.802 851.686 454.27 852.816 454.27 853.994C454.27 853.994 454.239 854.248 454.239 854.375ZM446.59 853.455H453.096C453.096 852.592 452.753 851.765 452.143 851.155C451.533 850.544 450.706 850.202 449.843 850.202C448.98 850.202 448.153 850.544 447.543 851.155C446.933 851.765 446.59 852.592 446.59 853.455Z" fill="black"/>
<path d="M471.884 853.264V858.564H470.646V853.391C470.646 851.455 469.694 850.472 468.044 850.472C467.617 850.433 467.187 850.488 466.785 850.633C466.382 850.779 466.016 851.012 465.713 851.315C465.41 851.617 465.178 851.983 465.032 852.386C464.886 852.789 464.831 853.219 464.87 853.645V858.437H463.632V853.391C463.632 851.455 462.68 850.472 460.998 850.472C460.572 850.433 460.142 850.488 459.739 850.633C459.336 850.779 458.971 851.012 458.668 851.315C458.365 851.617 458.132 851.983 457.987 852.386C457.841 852.789 457.786 853.219 457.825 853.645V858.437H456.587V849.297H457.761V850.979C458.108 850.408 458.606 849.944 459.199 849.636C459.792 849.328 460.459 849.189 461.125 849.234C461.791 849.182 462.456 849.341 463.025 849.688C463.595 850.036 464.041 850.554 464.299 851.17C464.668 850.548 465.2 850.039 465.838 849.698C466.476 849.356 467.195 849.196 467.917 849.234C468.465 849.136 469.029 849.173 469.56 849.342C470.09 849.511 470.572 849.807 470.963 850.204C471.353 850.601 471.641 851.087 471.802 851.62C471.962 852.153 471.991 852.718 471.884 853.264Z" fill="black"/>
<path d="M484.515 853.994C484.546 854.604 484.45 855.214 484.235 855.785C484.019 856.357 483.688 856.878 483.262 857.316C482.836 857.753 482.325 858.099 481.76 858.33C481.194 858.561 480.587 858.673 479.977 858.66C479.272 858.69 478.573 858.529 477.953 858.194C477.332 857.858 476.814 857.361 476.454 856.755V858.564H475.248V845.679H476.486V851.17C476.865 850.595 477.385 850.127 477.996 849.811C478.607 849.494 479.289 849.339 479.977 849.361C480.586 849.342 481.192 849.45 481.757 849.678C482.323 849.906 482.834 850.248 483.261 850.683C483.687 851.119 484.019 851.638 484.235 852.207C484.45 852.777 484.546 853.386 484.515 853.994ZM483.277 853.994C483.246 853.33 483.021 852.69 482.629 852.153C482.238 851.616 481.697 851.205 481.075 850.972C480.452 850.739 479.775 850.694 479.127 850.843C478.479 850.991 477.889 851.327 477.43 851.807C476.971 852.288 476.663 852.893 476.544 853.547C476.425 854.201 476.501 854.875 476.762 855.486C477.023 856.098 477.458 856.619 478.012 856.986C478.567 857.352 479.217 857.548 479.881 857.549C480.344 857.559 480.803 857.472 481.23 857.295C481.657 857.118 482.042 856.853 482.362 856.519C482.681 856.185 482.928 855.788 483.085 855.353C483.243 854.918 483.308 854.456 483.277 853.994Z" fill="black"/>
<path d="M495.02 854.375H487.435C487.459 854.82 487.571 855.255 487.765 855.657C487.959 856.058 488.231 856.416 488.564 856.711C488.898 857.007 489.287 857.233 489.709 857.376C490.13 857.52 490.576 857.579 491.021 857.549C491.548 857.548 492.069 857.431 492.547 857.206C493.024 856.982 493.446 856.654 493.782 856.247L494.48 857.041C493.824 857.73 492.979 858.209 492.052 858.419C491.124 858.629 490.155 858.56 489.267 858.221C488.378 857.882 487.609 857.288 487.058 856.513C486.506 855.738 486.195 854.818 486.165 853.867C486.135 853.264 486.228 852.661 486.44 852.096C486.652 851.53 486.978 851.014 487.398 850.58C487.817 850.146 488.321 849.802 488.879 849.57C489.437 849.339 490.036 849.224 490.64 849.234C491.242 849.219 491.841 849.33 492.398 849.561C492.955 849.791 493.457 850.136 493.873 850.572C494.289 851.009 494.608 851.528 494.811 852.095C495.014 852.662 495.096 853.266 495.051 853.867L495.02 854.375ZM487.371 853.455H493.718C493.718 852.613 493.384 851.806 492.789 851.211C492.194 850.615 491.386 850.281 490.545 850.281C489.703 850.281 488.896 850.615 488.301 851.211C487.706 851.806 487.371 852.613 487.371 853.455Z" fill="black"/>
<path d="M502.16 849.361V850.567H501.875C501.432 850.529 500.986 850.591 500.57 850.75C500.155 850.908 499.78 851.159 499.475 851.482C499.17 851.805 498.942 852.194 498.808 852.618C498.674 853.042 498.637 853.491 498.701 853.931V858.596H497.463V849.456H498.638V851.233C498.96 850.596 499.471 850.073 500.102 849.738C500.733 849.403 501.452 849.271 502.16 849.361Z" fill="black"/>
<path d="M510.158 849.519C510.158 848.25 509.142 847.393 507.365 847.393C506.74 847.358 506.115 847.465 505.538 847.707C504.96 847.949 504.446 848.319 504.033 848.789L503.112 848.091C503.653 847.481 504.325 847.001 505.078 846.687C505.831 846.374 506.646 846.236 507.46 846.282C509.904 846.282 511.459 847.457 511.459 849.456C511.459 852.407 508.285 852.63 508.285 855.042H506.984C506.984 852.058 510.158 851.773 510.158 849.519ZM506.73 857.739C506.77 857.528 506.882 857.338 507.047 857.201C507.212 857.064 507.42 856.989 507.635 856.989C507.849 856.989 508.057 857.064 508.222 857.201C508.387 857.338 508.499 857.528 508.539 857.739C508.564 857.872 508.56 858.009 508.526 858.14C508.492 858.271 508.429 858.393 508.343 858.497C508.257 858.601 508.148 858.685 508.026 858.742C507.904 858.8 507.77 858.83 507.635 858.83C507.499 858.83 507.366 858.8 507.243 858.742C507.121 858.685 507.013 858.601 506.926 858.497C506.84 858.393 506.778 858.271 506.744 858.14C506.71 858.009 506.705 857.872 506.73 857.739Z" fill="black"/>
<path d="M518.758 846.409H521.583V856.248H527.676V858.533H518.758V846.409Z" fill="black"/>
<path d="M528.311 853.899C528.247 852.871 528.494 851.847 529.019 850.961C529.544 850.075 530.323 849.367 531.255 848.929C532.187 848.491 533.229 848.342 534.246 848.503C535.263 848.665 536.209 849.127 536.96 849.832C537.711 850.537 538.233 851.451 538.459 852.456C538.684 853.461 538.603 854.51 538.225 855.468C537.847 856.427 537.189 857.249 536.339 857.829C535.488 858.409 534.482 858.721 533.452 858.723C532.792 858.766 532.131 858.674 531.508 858.451C530.886 858.228 530.316 857.879 529.834 857.427C529.352 856.975 528.968 856.428 528.706 855.821C528.444 855.214 528.309 854.56 528.311 853.899ZM535.832 853.899C535.795 853.438 535.625 852.998 535.342 852.632C535.059 852.267 534.675 851.991 534.239 851.84C533.802 851.689 533.33 851.668 532.882 851.78C532.433 851.892 532.027 852.133 531.713 852.472C531.399 852.811 531.19 853.235 531.113 853.69C531.036 854.146 531.093 854.615 531.277 855.039C531.461 855.463 531.765 855.824 532.152 856.078C532.538 856.332 532.99 856.468 533.452 856.469C533.783 856.475 534.111 856.411 534.415 856.282C534.719 856.152 534.993 855.96 535.217 855.717C535.442 855.474 535.613 855.187 535.719 854.874C535.825 854.56 535.864 854.228 535.832 853.899Z" fill="black"/>
<path d="M550.05 849.202V857.009C550.137 857.711 550.06 858.423 549.825 859.09C549.59 859.757 549.204 860.36 548.696 860.852C548.189 861.344 547.574 861.712 546.9 861.926C546.227 862.14 545.512 862.195 544.814 862.087C543.181 862.15 541.57 861.694 540.212 860.786L541.291 858.85C542.218 859.513 543.325 859.878 544.465 859.897C546.369 859.897 547.226 859.04 547.226 857.358V856.946C546.846 857.341 546.386 857.65 545.877 857.852C545.368 858.055 544.821 858.146 544.274 858.12C543.648 858.172 543.019 858.095 542.425 857.891C541.831 857.688 541.285 857.363 540.823 856.938C540.361 856.513 539.992 855.997 539.739 855.422C539.487 854.847 539.357 854.226 539.357 853.598C539.357 852.97 539.487 852.349 539.739 851.774C539.992 851.199 540.361 850.682 540.823 850.257C541.285 849.832 541.831 849.508 542.425 849.304C543.019 849.101 543.648 849.023 544.274 849.075C544.871 849.027 545.471 849.124 546.023 849.355C546.575 849.587 547.064 849.948 547.448 850.408V849.202H550.05ZM547.384 853.614C547.395 853.296 547.337 852.979 547.216 852.685C547.095 852.391 546.913 852.125 546.683 851.907C546.452 851.688 546.177 851.52 545.877 851.415C545.577 851.31 545.258 851.27 544.941 851.297C544.616 851.259 544.287 851.29 543.975 851.388C543.663 851.486 543.375 851.649 543.131 851.866C542.886 852.084 542.69 852.35 542.556 852.649C542.423 852.947 542.353 853.271 542.353 853.598C542.353 853.925 542.423 854.248 542.556 854.546C542.69 854.845 542.886 855.112 543.131 855.329C543.375 855.546 543.663 855.709 543.975 855.807C544.287 855.906 544.616 855.937 544.941 855.899C545.255 855.925 545.571 855.886 545.869 855.782C546.167 855.679 546.44 855.515 546.67 855.299C546.901 855.084 547.083 854.822 547.206 854.532C547.329 854.242 547.39 853.929 547.384 853.614Z" fill="black"/>
<path d="M557.254 846.409C557.258 846.197 557.305 845.987 557.393 845.793C557.481 845.6 557.608 845.426 557.765 845.283C557.923 845.14 558.108 845.032 558.31 844.963C558.511 844.895 558.724 844.869 558.936 844.886C559.144 844.864 559.354 844.885 559.553 844.948C559.753 845.011 559.937 845.114 560.095 845.251C560.252 845.387 560.38 845.555 560.47 845.744C560.56 845.932 560.611 846.137 560.618 846.346C560.618 846.792 560.441 847.22 560.126 847.535C559.81 847.851 559.383 848.028 558.936 848.028C558.49 848.028 558.063 847.851 557.747 847.535C557.432 847.22 557.254 846.792 557.254 846.346V846.409ZM557.572 849.202H560.269V858.723H557.572V849.202Z" fill="black"/>
<path d="M572.297 853.074V858.437H569.6V853.518C569.6 851.995 568.901 851.297 567.695 851.297C566.489 851.297 565.442 852.09 565.442 853.804V858.437H562.745V848.917H565.347V850.027C565.756 849.605 566.251 849.276 566.799 849.063C567.347 848.849 567.934 848.756 568.521 848.79C569.069 848.762 569.616 848.859 570.122 849.072C570.628 849.285 571.079 849.61 571.442 850.021C571.805 850.433 572.07 850.921 572.218 851.45C572.366 851.978 572.393 852.534 572.297 853.074Z" fill="black"/>
</g>
<path d="M664.903 883.636H249.668V954.725H664.903V883.636Z" fill="#0C7489"/>
<path d="M403.651 930.224L398.573 922.893H397.05H391.02V930.288H387.529V905.946H397.05C403.397 905.946 407.174 909.12 407.174 914.452C407.254 916.14 406.775 917.808 405.811 919.196C404.847 920.585 403.452 921.617 401.842 922.132L407.618 930.288L403.651 930.224ZM403.651 914.356C403.651 910.865 401.335 908.898 396.86 908.898H390.957V919.847H396.86C401.239 919.878 403.556 917.847 403.556 914.388L403.651 914.356Z" fill="white"/>
<path d="M428.786 922.132H413.839C414.074 923.701 414.888 925.126 416.122 926.125C417.356 927.123 418.919 927.624 420.503 927.527C421.499 927.562 422.492 927.382 423.412 926.999C424.332 926.616 425.159 926.038 425.835 925.305L427.676 927.463C426.317 928.842 424.59 929.799 422.701 930.221C420.813 930.642 418.842 930.51 417.027 929.84C415.211 929.17 413.627 927.991 412.465 926.444C411.303 924.896 410.612 923.046 410.475 921.116C410.408 919.87 410.601 918.623 411.04 917.455C411.479 916.287 412.155 915.223 413.025 914.328C413.896 913.434 414.942 912.73 416.097 912.259C417.253 911.789 418.494 911.563 419.741 911.595C420.982 911.561 422.217 911.787 423.365 912.259C424.513 912.731 425.549 913.438 426.408 914.335C427.266 915.232 427.926 916.299 428.347 917.467C428.768 918.635 428.939 919.878 428.85 921.116C428.85 921.402 428.818 921.814 428.786 922.132ZM413.839 919.72H425.644C425.493 918.26 424.806 916.908 423.715 915.925C422.625 914.942 421.209 914.398 419.741 914.398C418.274 914.398 416.858 914.942 415.768 915.925C414.677 916.908 413.99 918.26 413.839 919.72Z" fill="white"/>
<path d="M451.128 911.817V927.685C451.128 934.191 447.796 937.206 441.608 937.206C438.45 937.342 435.342 936.377 432.817 934.477L434.403 931.906C436.434 933.483 438.941 934.323 441.512 934.287C445.86 934.287 447.86 932.287 447.86 928.098V926.638C447.038 927.58 446.016 928.326 444.868 928.821C443.72 929.315 442.476 929.545 441.227 929.494C438.862 929.494 436.593 928.555 434.921 926.882C433.248 925.21 432.309 922.942 432.309 920.576C432.309 918.211 433.248 915.943 434.921 914.271C436.593 912.598 438.862 911.659 441.227 911.659C442.533 911.619 443.83 911.885 445.015 912.436C446.199 912.987 447.239 913.808 448.05 914.832V911.976L451.128 911.817ZM447.955 920.545C448.025 919.277 447.713 918.017 447.059 916.929C446.405 915.84 445.44 914.972 444.288 914.438C443.136 913.904 441.851 913.727 440.597 913.931C439.344 914.135 438.181 914.71 437.258 915.582C436.335 916.455 435.695 917.584 435.42 918.823C435.146 920.063 435.249 921.357 435.718 922.537C436.186 923.717 436.998 924.73 438.048 925.444C439.098 926.158 440.338 926.541 441.608 926.543C442.42 926.591 443.233 926.471 443.996 926.19C444.76 925.909 445.457 925.473 446.044 924.91C446.631 924.347 447.096 923.668 447.408 922.917C447.72 922.166 447.874 921.358 447.86 920.545H447.955Z" fill="white"/>
<path d="M456.905 906.105C456.909 905.813 456.97 905.525 457.086 905.257C457.201 904.989 457.368 904.747 457.578 904.543C457.787 904.34 458.034 904.18 458.305 904.072C458.576 903.964 458.866 903.911 459.158 903.915C459.465 903.878 459.777 903.907 460.073 903.999C460.369 904.091 460.642 904.245 460.873 904.45C461.105 904.656 461.291 904.908 461.418 905.191C461.545 905.473 461.611 905.779 461.611 906.089C461.611 906.399 461.545 906.705 461.418 906.988C461.291 907.27 461.105 907.523 460.873 907.728C460.642 907.933 460.369 908.087 460.073 908.18C459.777 908.272 459.465 908.3 459.158 908.263C458.868 908.272 458.579 908.222 458.308 908.118C458.037 908.014 457.789 907.857 457.58 907.656C457.37 907.455 457.202 907.214 457.086 906.948C456.97 906.682 456.909 906.395 456.905 906.105ZM457.508 911.818H460.84V930.225H457.508V911.818Z" fill="white"/>
<path d="M464.87 928.289L466.267 925.654C468.157 926.882 470.36 927.543 472.614 927.559C475.787 927.559 476.993 926.607 476.993 925.051C476.993 920.926 465.346 924.512 465.346 917.149C465.346 913.976 468.298 911.627 473.026 911.627C475.368 911.59 477.677 912.17 479.723 913.309L478.295 915.943C476.71 914.946 474.866 914.438 472.995 914.483C470.075 914.483 468.647 915.562 468.647 917.022C468.647 921.37 480.326 917.816 480.326 924.988C480.326 928.162 477.152 930.447 472.36 930.447C469.705 930.486 467.098 929.735 464.87 928.289Z" fill="white"/>
<path d="M494.988 929.241C493.833 930.123 492.41 930.582 490.957 930.542C490.174 930.632 489.381 930.544 488.636 930.287C487.891 930.029 487.214 929.608 486.653 929.053C486.093 928.499 485.664 927.826 485.398 927.084C485.133 926.342 485.037 925.55 485.118 924.766V914.642H481.944V911.913H485.118V907.882H488.291V911.913H493.782V914.642H488.482V924.639C488.407 925.047 488.427 925.468 488.542 925.867C488.656 926.266 488.861 926.634 489.14 926.941C489.42 927.248 489.766 927.486 490.153 927.638C490.54 927.789 490.956 927.849 491.37 927.813C492.308 927.822 493.223 927.521 493.972 926.956L494.988 929.241Z" fill="white"/>
<path d="M514.982 922.132H500.129C500.365 923.707 501.184 925.137 502.425 926.136C503.665 927.136 505.236 927.632 506.826 927.527C507.817 927.564 508.805 927.385 509.721 927.001C510.636 926.618 511.457 926.039 512.125 925.305L513.966 927.463C512.612 928.845 510.887 929.806 508.999 930.23C507.111 930.654 505.14 930.522 503.326 929.851C501.511 929.18 499.929 927.998 498.77 926.449C497.612 924.899 496.926 923.047 496.797 921.116C496.731 919.87 496.923 918.624 497.362 917.455C497.801 916.287 498.477 915.223 499.348 914.328C500.218 913.434 501.264 912.73 502.42 912.259C503.576 911.789 504.816 911.563 506.064 911.595C507.303 911.566 508.535 911.795 509.681 912.269C510.827 912.743 511.862 913.45 512.719 914.346C513.576 915.242 514.237 916.307 514.659 917.472C515.082 918.638 515.256 919.879 515.172 921.116C515.139 921.46 515.075 921.8 514.982 922.132ZM500.129 919.72H511.967C511.784 918.279 511.082 916.955 509.992 915.995C508.902 915.035 507.5 914.506 506.048 914.506C504.596 914.506 503.194 915.035 502.104 915.995C501.014 916.955 500.312 918.279 500.129 919.72Z" fill="white"/>
<path d="M529.612 911.627V914.801H528.85C528.025 914.743 527.197 914.872 526.429 915.178C525.66 915.485 524.971 915.961 524.413 916.571C523.854 917.182 523.441 917.91 523.204 918.703C522.966 919.495 522.911 920.331 523.043 921.148V930.32H519.71V911.913H522.884V915.086C523.554 913.924 524.546 912.98 525.739 912.367C526.932 911.753 528.277 911.496 529.612 911.627Z" fill="white"/>
<g opacity="0.6">
<path d="M384.578 398.01L386.006 395.027C388.468 397.091 391.583 398.215 394.797 398.2C399.398 398.2 401.366 396.423 401.366 394.106C401.366 387.759 385.244 391.694 385.244 381.824C385.244 377.699 388.418 374.208 395.431 374.208C398.453 374.159 401.426 374.973 404 376.556L402.731 379.73C400.551 378.334 398.02 377.586 395.431 377.572C390.893 377.572 389.084 379.476 389.084 381.793C389.084 388.14 405.238 384.205 405.238 394.011C405.238 398.073 402.064 401.564 394.924 401.564C391.163 401.643 387.496 400.383 384.578 398.01Z" fill="#263238"/>
<path d="M409.491 374.62C409.495 374.301 409.562 373.985 409.689 373.692C409.816 373.399 410 373.134 410.231 372.912C410.461 372.691 410.733 372.518 411.031 372.402C411.329 372.287 411.647 372.232 411.966 372.24C412.281 372.227 412.596 372.277 412.892 372.387C413.187 372.497 413.458 372.665 413.689 372.88C413.919 373.096 414.104 373.355 414.233 373.643C414.363 373.931 414.433 374.241 414.441 374.557C414.441 375.213 414.181 375.843 413.716 376.307C413.252 376.771 412.623 377.032 411.966 377.032C411.31 377.032 410.68 376.771 410.216 376.307C409.751 375.843 409.491 375.213 409.491 374.557V374.62ZM410.125 380.967H413.807V401.152H410.125V380.967Z" fill="#263238"/>
<path d="M440.053 380.872V398.295C440.053 405.436 436.435 408.673 429.611 408.673C426.187 408.781 422.828 407.718 420.091 405.658L421.836 402.833C424.047 404.582 426.793 405.513 429.611 405.468C434.372 405.468 436.53 403.246 436.53 398.676V397.089C435.632 398.127 434.513 398.95 433.256 399.499C431.998 400.048 430.634 400.309 429.262 400.263C427.934 400.339 426.604 400.142 425.354 399.686C424.104 399.23 422.961 398.524 421.994 397.61C421.026 396.696 420.256 395.595 419.729 394.373C419.203 393.151 418.931 391.834 418.931 390.504C418.931 389.173 419.203 387.857 419.729 386.635C420.256 385.413 421.026 384.312 421.994 383.398C422.961 382.484 424.104 381.778 425.354 381.322C426.604 380.866 427.934 380.669 429.262 380.745C430.665 380.672 432.066 380.92 433.358 381.47C434.651 382.02 435.8 382.857 436.72 383.919V380.745L440.053 380.872ZM436.498 390.393C436.568 389.006 436.22 387.629 435.5 386.441C434.78 385.253 433.721 384.308 432.459 383.728C431.196 383.148 429.789 382.96 428.419 383.187C427.048 383.415 425.778 384.048 424.77 385.004C423.763 385.961 423.066 387.198 422.768 388.554C422.47 389.911 422.586 391.326 423.1 392.617C423.614 393.907 424.504 395.014 425.653 395.794C426.802 396.574 428.159 396.992 429.548 396.994C430.456 397.074 431.371 396.963 432.233 396.668C433.096 396.373 433.887 395.901 434.557 395.283C435.226 394.664 435.759 393.912 436.12 393.076C436.482 392.239 436.665 391.336 436.657 390.425L436.498 390.393Z" fill="#263238"/>
<path d="M466.203 389.441V401.057H462.522V389.727C462.522 385.76 460.554 383.824 457.095 383.824C456.216 383.766 455.335 383.903 454.515 384.224C453.695 384.546 452.956 385.044 452.35 385.683C451.744 386.322 451.286 387.087 451.009 387.923C450.732 388.759 450.643 389.646 450.747 390.52V400.93H447.098V380.745H450.62V383.919C451.487 382.844 452.6 381.994 453.865 381.441C455.13 380.888 456.511 380.65 457.888 380.745C459.033 380.669 460.181 380.844 461.25 381.259C462.32 381.675 463.286 382.32 464.079 383.149C464.872 383.979 465.473 384.972 465.84 386.059C466.207 387.146 466.331 388.301 466.203 389.441Z" fill="#263238"/>
<path d="M502.033 380.872V401.056H498.574V397.883C497.768 398.921 496.726 399.752 495.533 400.304C494.34 400.856 493.032 401.114 491.719 401.056C490.539 401.178 489.347 401.033 488.23 400.633C487.113 400.233 486.1 399.587 485.266 398.744C484.431 397.9 483.797 396.88 483.409 395.759C483.021 394.638 482.889 393.444 483.023 392.266V380.65H486.673V391.853C486.673 395.788 488.672 397.788 492.132 397.788C493.012 397.851 493.895 397.718 494.718 397.399C495.541 397.079 496.282 396.582 496.889 395.941C497.497 395.301 497.954 394.533 498.229 393.695C498.504 392.856 498.589 391.967 498.479 391.091V380.65L502.033 380.872Z" fill="#263238"/>
<path d="M529.898 390.965C529.969 392.327 529.756 393.69 529.271 394.965C528.786 396.24 528.041 397.401 527.082 398.371C526.123 399.342 524.972 400.102 523.703 400.603C522.433 401.103 521.074 401.334 519.71 401.279C518.37 401.331 517.037 401.072 515.814 400.521C514.592 399.97 513.514 399.143 512.665 398.105V408.515H509.015V380.968H512.506V384.141C513.344 383.036 514.437 382.151 515.692 381.559C516.946 380.968 518.325 380.689 519.71 380.745C521.066 380.687 522.42 380.911 523.685 381.404C524.949 381.897 526.098 382.649 527.056 383.61C528.014 384.571 528.762 385.722 529.251 386.988C529.74 388.254 529.961 389.609 529.898 390.965ZM526.216 390.965C526.154 389.638 525.704 388.359 524.923 387.285C524.141 386.211 523.062 385.39 521.819 384.924C520.575 384.457 519.222 384.365 517.927 384.659C516.632 384.954 515.452 385.621 514.532 386.579C513.613 387.537 512.994 388.744 512.753 390.05C512.512 391.356 512.66 392.704 513.177 393.927C513.694 395.15 514.559 396.195 515.663 396.932C516.768 397.669 518.065 398.066 519.393 398.073C520.319 398.093 521.238 397.92 522.094 397.566C522.95 397.211 523.723 396.684 524.364 396.016C525.005 395.347 525.501 394.554 525.82 393.684C526.138 392.815 526.273 391.889 526.216 390.965Z" fill="#263238"/>
</g>
<path d="M664.903 550.121H249.668V621.21H664.903V550.121Z" fill="white"/>
<g opacity="0.4">
<path d="M272.391 574.082H274.549V592.584H285.942V594.456H272.391V574.082Z" fill="#263238"/>
<path d="M300.699 584.967V594.488H298.732V592.108C298.154 592.957 297.363 593.639 296.438 594.084C295.513 594.53 294.487 594.724 293.463 594.647C290.004 594.647 287.878 592.838 287.878 590.172C287.878 587.506 289.369 585.856 293.781 585.856H298.636V584.936C298.636 582.302 297.145 580.873 294.289 580.873C292.434 580.849 290.632 581.491 289.211 582.682L288.259 581.127C290.071 579.724 292.315 578.994 294.606 579.064C295.413 578.967 296.232 579.051 297.003 579.31C297.773 579.569 298.476 579.997 299.06 580.563C299.644 581.129 300.094 581.818 300.378 582.58C300.662 583.342 300.771 584.158 300.699 584.967ZM298.636 589.855V587.348H293.844C290.861 587.348 289.909 588.522 289.909 590.109C289.909 591.695 291.337 592.965 293.781 592.965C294.815 593.028 295.843 592.761 296.716 592.202C297.589 591.643 298.261 590.821 298.636 589.855Z" fill="#263238"/>
<path d="M304.19 592.838L305.111 591.219C306.711 592.336 308.617 592.935 310.569 592.933C313.489 592.933 314.663 591.949 314.663 590.426C314.663 586.427 304.761 589.569 304.761 583.539C304.761 581.032 306.888 579.159 310.791 579.159C312.696 579.134 314.572 579.628 316.218 580.587L315.298 582.238C313.963 581.356 312.391 580.902 310.791 580.937C308.03 580.937 306.824 582.016 306.824 583.475C306.824 587.601 316.726 584.491 316.726 590.362C316.726 593.028 314.409 594.742 310.379 594.742C308.165 594.79 305.994 594.122 304.19 592.838Z" fill="#263238"/>
<path d="M328.754 593.536C327.852 594.251 326.731 594.633 325.58 594.615C324.977 594.68 324.366 594.609 323.794 594.407C323.221 594.205 322.701 593.878 322.272 593.449C321.843 593.019 321.515 592.499 321.313 591.927C321.111 591.354 321.04 590.744 321.105 590.14V580.905H318.344V579.159H321.105V575.795H323.168V579.159H327.802V580.905H323.168V590.045C323.114 590.41 323.143 590.784 323.254 591.136C323.365 591.489 323.554 591.812 323.808 592.08C324.061 592.349 324.373 592.557 324.718 592.688C325.064 592.819 325.434 592.87 325.802 592.838C326.636 592.863 327.449 592.58 328.087 592.044L328.754 593.536Z" fill="#263238"/>
<path d="M357.316 574.082V594.456H355.539L342.464 577.922V594.456H340.306V574.082H342.083L355.19 590.616V574.082H357.316Z" fill="#263238"/>
<path d="M375.216 584.967V594.488H373.184V592.108C372.612 592.962 371.821 593.647 370.895 594.093C369.969 594.54 368.941 594.731 367.916 594.647C364.457 594.647 362.331 592.838 362.331 590.172C362.331 587.506 363.854 585.856 368.265 585.856H373.184V584.936C373.184 582.301 371.693 580.873 368.837 580.873C366.982 580.849 365.18 581.491 363.759 582.682L362.807 581.127C364.615 579.716 366.862 578.986 369.154 579.064C369.959 578.972 370.774 579.059 371.541 579.321C372.307 579.582 373.006 580.011 373.586 580.577C374.167 581.142 374.614 581.829 374.896 582.588C375.178 583.348 375.287 584.16 375.216 584.967ZM373.153 589.855V587.347H368.329C365.377 587.347 364.425 588.522 364.425 590.109C364.425 591.695 365.853 592.965 368.297 592.965C369.337 593.035 370.372 592.771 371.251 592.212C372.13 591.652 372.808 590.826 373.184 589.855H373.153Z" fill="#263238"/>
<path d="M406.095 585.57V594.456H404.032V585.792C404.032 582.619 402.382 580.905 399.621 580.905C398.905 580.872 398.191 580.995 397.527 581.267C396.864 581.539 396.269 581.952 395.782 582.478C395.295 583.004 394.929 583.63 394.71 584.312C394.49 584.994 394.423 585.716 394.511 586.427V594.456H392.448V585.792C392.448 582.619 390.798 580.905 388.005 580.905C387.29 580.872 386.575 580.995 385.912 581.267C385.249 581.539 384.653 581.952 384.167 582.478C383.68 583.004 383.314 583.63 383.095 584.312C382.875 584.994 382.807 585.716 382.896 586.427V594.456H380.833V579.159H382.705V581.952C383.304 581.017 384.138 580.254 385.124 579.742C386.11 579.23 387.213 578.985 388.323 579.033C389.448 578.94 390.574 579.195 391.55 579.762C392.526 580.33 393.305 581.183 393.781 582.206C394.408 581.184 395.299 580.349 396.36 579.79C397.421 579.232 398.614 578.97 399.811 579.033C400.68 578.948 401.556 579.061 402.375 579.363C403.193 579.665 403.933 580.149 404.537 580.779C405.142 581.408 405.596 582.166 405.866 582.996C406.136 583.825 406.214 584.706 406.095 585.57Z" fill="#263238"/>
<path d="M425.105 587.443H412.41C412.455 588.189 412.646 588.92 412.974 589.592C413.301 590.264 413.758 590.865 414.318 591.361C414.878 591.856 415.531 592.236 416.238 592.479C416.946 592.721 417.694 592.822 418.44 592.774C419.321 592.803 420.198 592.639 421.01 592.293C421.821 591.948 422.547 591.43 423.137 590.775L424.28 592.108C423.18 593.256 421.766 594.055 420.215 594.405C418.664 594.755 417.044 594.64 415.557 594.075C414.071 593.509 412.784 592.518 411.858 591.226C410.931 589.934 410.406 588.397 410.348 586.808C410.295 585.797 410.451 584.787 410.805 583.839C411.16 582.891 411.705 582.025 412.407 581.296C413.109 580.568 413.953 579.991 414.887 579.601C415.821 579.212 416.825 579.018 417.837 579.033C418.848 579.013 419.852 579.203 420.785 579.592C421.718 579.98 422.56 580.558 423.258 581.289C423.957 582.02 424.495 582.888 424.84 583.838C425.186 584.788 425.33 585.799 425.264 586.808C425.137 586.998 425.105 587.221 425.105 587.443ZM412.41 585.919H423.264C423.264 584.48 422.692 583.1 421.675 582.082C420.657 581.064 419.277 580.493 417.837 580.493C416.398 580.493 415.018 581.064 414 582.082C412.982 583.1 412.41 584.48 412.41 585.919Z" fill="#263238"/>
</g>
<path d="M664.903 453.008H249.668V524.097H664.903V453.008Z" fill="white"/>
<g opacity="0.4">
<path d="M274.549 478.842V486.839H285.085V488.712H274.549V497.344H272.391V476.969H286.354V478.842H274.549Z" fill="#263238"/>
<path d="M289.623 477.191C289.617 476.888 289.702 476.589 289.867 476.333C290.032 476.078 290.269 475.878 290.549 475.759C290.828 475.64 291.137 475.607 291.436 475.664C291.734 475.722 292.008 475.868 292.223 476.083C292.438 476.298 292.584 476.572 292.642 476.871C292.699 477.169 292.667 477.478 292.547 477.758C292.428 478.037 292.228 478.275 291.973 478.44C291.717 478.605 291.419 478.689 291.115 478.683C290.719 478.683 290.34 478.526 290.06 478.246C289.78 477.966 289.623 477.587 289.623 477.191ZM290.067 482.047H292.13V497.344H290.067V482.047Z" fill="#263238"/>
<path d="M305.618 481.92V483.92H305.11C304.381 483.884 303.653 484.01 302.979 484.289C302.304 484.568 301.7 484.993 301.208 485.532C300.717 486.072 300.351 486.714 300.137 487.412C299.923 488.11 299.865 488.846 299.969 489.569V497.376H297.906V482.079H299.874V484.935C300.423 483.918 301.263 483.088 302.286 482.551C303.309 482.014 304.469 481.794 305.618 481.92Z" fill="#263238"/>
<path d="M307.332 495.599L308.252 493.948C309.839 495.098 311.752 495.71 313.711 495.694C316.631 495.694 317.805 494.678 317.805 493.187C317.805 489.188 307.903 492.33 307.903 486.268C307.903 483.793 310.03 481.92 313.933 481.92C315.84 481.879 317.72 482.374 319.36 483.348L318.44 484.999C317.105 484.117 315.533 483.663 313.933 483.698C311.172 483.698 309.966 484.777 309.966 486.236C309.966 490.362 319.868 487.252 319.868 493.123C319.868 495.757 317.551 497.471 313.521 497.471C311.31 497.529 309.14 496.872 307.332 495.599Z" fill="#263238"/>
<path d="M331.928 496.424C331.016 497.117 329.899 497.485 328.754 497.471C328.152 497.542 327.542 497.475 326.969 497.277C326.397 497.08 325.876 496.755 325.446 496.328C325.016 495.901 324.688 495.383 324.486 494.811C324.284 494.24 324.213 493.63 324.279 493.028V483.793H321.518V482.047H324.279V478.588H326.342V481.952H330.975V483.698H326.342V492.806C326.289 493.173 326.319 493.547 326.429 493.901C326.54 494.255 326.729 494.579 326.981 494.85C327.234 495.121 327.545 495.332 327.89 495.467C328.235 495.602 328.606 495.658 328.976 495.63C329.807 495.641 330.616 495.36 331.261 494.837L331.928 496.424Z" fill="#263238"/>
<path d="M360.49 476.969V497.344H358.713L345.638 480.81V497.344H343.48V476.969H345.257L358.364 493.504V476.969H360.49Z" fill="#263238"/>
<path d="M378.358 487.855V497.376H376.358V494.996C375.789 495.843 375.003 496.523 374.082 496.964C373.161 497.405 372.139 497.591 371.122 497.503C367.631 497.503 365.504 495.726 365.504 493.06C365.504 490.394 367.028 488.744 371.439 488.744H376.358V487.792C376.358 485.189 374.867 483.761 372.01 483.761C370.156 483.737 368.354 484.378 366.932 485.57L365.98 484.015C367.79 482.606 370.036 481.877 372.328 481.952C373.131 481.859 373.945 481.946 374.711 482.208C375.476 482.469 376.173 482.899 376.751 483.465C377.329 484.031 377.773 484.718 378.051 485.478C378.329 486.238 378.434 487.05 378.358 487.855ZM376.295 492.742V490.235H371.471C368.519 490.235 367.567 491.41 367.567 492.965C367.567 494.52 368.995 495.853 371.439 495.853C372.483 495.925 373.523 495.662 374.408 495.103C375.293 494.544 375.976 493.717 376.358 492.742H376.295Z" fill="#263238"/>
<path d="M409.237 488.458V497.344H407.174V488.68C407.174 485.507 405.523 483.793 402.762 483.793C402.047 483.76 401.332 483.883 400.669 484.155C400.006 484.427 399.41 484.84 398.924 485.366C398.437 485.892 398.071 486.518 397.852 487.2C397.632 487.882 397.564 488.604 397.653 489.315V497.344H395.59V488.68C395.59 485.507 393.94 483.793 391.147 483.793C390.431 483.76 389.717 483.883 389.054 484.155C388.391 484.427 387.795 484.84 387.308 485.366C386.822 485.892 386.456 486.518 386.236 487.2C386.017 487.882 385.949 488.604 386.037 489.315V497.344H383.975V482.047H385.879V484.935C386.478 484 387.312 483.238 388.297 482.725C389.283 482.213 390.386 481.968 391.496 482.016C392.621 481.923 393.748 482.178 394.724 482.745C395.7 483.313 396.478 484.166 396.955 485.189C397.576 484.162 398.466 483.323 399.528 482.764C400.591 482.205 401.786 481.946 402.985 482.016C403.841 481.939 404.705 482.054 405.511 482.353C406.318 482.653 407.048 483.128 407.647 483.746C408.246 484.363 408.7 485.107 408.975 485.922C409.25 486.737 409.339 487.604 409.237 488.458Z" fill="#263238"/>
<path d="M428.246 490.33H415.552C415.596 491.077 415.788 491.807 416.115 492.48C416.443 493.152 416.9 493.753 417.46 494.248C418.02 494.744 418.673 495.124 419.38 495.366C420.087 495.609 420.836 495.709 421.582 495.662C422.466 495.691 423.346 495.524 424.158 495.173C424.97 494.821 425.694 494.295 426.279 493.631L427.421 494.996C426.321 496.144 424.908 496.943 423.356 497.293C421.805 497.643 420.185 497.528 418.699 496.962C417.213 496.397 415.926 495.406 414.999 494.114C414.073 492.821 413.548 491.285 413.489 489.696C413.437 488.685 413.593 487.674 413.947 486.726C414.301 485.778 414.846 484.913 415.548 484.184C416.25 483.455 417.095 482.878 418.029 482.489C418.963 482.099 419.967 481.906 420.979 481.92C421.989 481.901 422.993 482.091 423.926 482.479C424.86 482.868 425.702 483.446 426.4 484.177C427.098 484.908 427.637 485.776 427.982 486.726C428.327 487.676 428.471 488.687 428.405 489.696C428.278 489.854 428.246 490.077 428.246 490.33ZM415.552 488.775H426.406C426.406 487.336 425.834 485.956 424.816 484.938C423.799 483.92 422.418 483.348 420.979 483.348C419.54 483.348 418.159 483.92 417.142 484.938C416.124 485.956 415.552 487.336 415.552 488.775Z" fill="#263238"/>
</g>
<path d="M934.223 259.268H862.111C856.226 259.268 850.582 261.606 846.421 265.767C842.26 269.928 839.922 275.572 839.922 281.457V344.206C839.919 347.122 840.491 350.01 841.604 352.705C842.718 355.4 844.352 357.849 846.412 359.912C848.473 361.975 850.92 363.612 853.614 364.729C856.308 365.845 859.195 366.42 862.111 366.42H883.17L878.15 386.224L898.23 366.42H934.349C940.24 366.42 945.89 364.08 950.056 359.914C954.222 355.748 956.562 350.098 956.562 344.206V281.457C956.562 278.53 955.983 275.632 954.859 272.93C953.734 270.229 952.086 267.776 950.01 265.713C947.934 263.651 945.47 262.02 942.761 260.914C940.051 259.807 937.15 259.248 934.223 259.268Z" fill="#0C7489"/>
<path opacity="0.7" d="M934.223 259.268H862.111C856.226 259.268 850.582 261.606 846.421 265.767C842.26 269.928 839.922 275.572 839.922 281.457V344.206C839.919 347.122 840.491 350.01 841.604 352.705C842.718 355.4 844.352 357.849 846.412 359.912C848.473 361.975 850.92 363.612 853.614 364.729C856.308 365.845 859.195 366.42 862.111 366.42H883.17L878.15 386.224L898.23 366.42H934.349C940.24 366.42 945.89 364.08 950.056 359.914C954.222 355.748 956.562 350.098 956.562 344.206V281.457C956.562 278.53 955.983 275.632 954.859 272.93C953.734 270.229 952.086 267.776 950.01 265.713C947.934 263.651 945.47 262.02 942.761 260.914C940.051 259.807 937.15 259.248 934.223 259.268Z" fill="white"/>
<path d="M898.179 340.567C913.636 340.567 926.166 328.037 926.166 312.58C926.166 297.124 913.636 284.594 898.179 284.594C882.723 284.594 870.193 297.124 870.193 312.58C870.193 328.037 882.723 340.567 898.179 340.567Z" fill="white"/>
<path d="M898.179 276.788C891.1 276.788 884.18 278.887 878.294 282.82C872.408 286.753 867.82 292.343 865.111 298.883C862.402 305.423 861.693 312.62 863.075 319.563C864.456 326.506 867.865 332.884 872.87 337.89C877.876 342.895 884.254 346.304 891.197 347.685C898.14 349.066 905.336 348.358 911.877 345.648C918.417 342.939 924.007 338.352 927.94 332.466C931.873 326.58 933.972 319.66 933.972 312.58C933.975 307.879 933.052 303.223 931.254 298.879C929.457 294.535 926.82 290.588 923.496 287.264C920.172 283.94 916.225 281.303 911.881 279.506C907.537 277.708 902.881 276.785 898.179 276.788ZM918.485 301.888L896.924 327.289C896.618 327.656 896.234 327.95 895.8 328.15C895.366 328.35 894.892 328.45 894.414 328.444C893.937 328.447 893.465 328.345 893.031 328.145C892.598 327.946 892.213 327.653 891.904 327.289L877.874 310.748C877.577 310.421 877.35 310.038 877.204 309.621C877.059 309.204 877 308.762 877.029 308.322C877.058 307.881 877.176 307.451 877.375 307.057C877.574 306.663 877.85 306.313 878.187 306.028C878.525 305.743 878.916 305.529 879.337 305.399C879.759 305.268 880.203 305.224 880.642 305.269C881.081 305.313 881.507 305.446 881.894 305.658C882.28 305.871 882.621 306.159 882.894 306.506L894.414 320.085L913.465 297.646C914.038 297.014 914.833 296.63 915.683 296.573C916.534 296.517 917.373 296.793 918.024 297.343C918.675 297.893 919.087 298.674 919.173 299.522C919.259 300.37 919.012 301.218 918.485 301.888Z" fill="#0C7489"/>
<path d="M867.461 693.188C867.461 693.188 820.403 687.241 749.1 706.702C749.1 706.702 737.64 579.286 738.991 561.772C740.343 544.257 849.081 549.392 849.081 549.392C849.081 549.392 851.784 600.396 858.866 631.156C865.947 661.915 871.137 687.268 867.461 693.188Z" fill="#0C7489"/>
<path opacity="0.2" d="M867.461 693.188C867.461 693.188 820.403 687.241 749.1 706.702C749.1 706.702 737.64 579.286 738.991 561.772C740.343 544.257 849.081 549.392 849.081 549.392C849.081 549.392 851.784 600.396 858.866 631.156C865.947 661.915 871.137 687.268 867.461 693.188Z" fill="black"/>
<path d="M714.719 1115.01L733.91 1120.44L738.478 1090.57L740.937 1074.6L721.746 1069.16L718.476 1090.57L714.719 1115.01Z" fill="#E4897B"/>
<path d="M825.052 1116.57L844.837 1119.2L845.027 1090.57L845.162 1072.79L825.349 1070.19L825.214 1090.57L825.052 1116.57Z" fill="#E4897B"/>
<path opacity="0.2" d="M825.35 1070.19L825.214 1090.57H845.027L845.162 1072.79L825.35 1070.19Z" fill="black"/>
<path opacity="0.2" d="M718.476 1090.57H738.477L740.937 1074.6L721.746 1069.16L718.476 1090.57Z" fill="black"/>
<path d="M629.523 572.232L610.467 566.61L613.954 588.368C613.954 588.368 631.253 592.342 632.874 583.341L629.523 572.232Z" fill="#E4897B"/>
<path d="M591.439 571.664L600.791 589.341L613.954 588.368L610.467 566.61L591.439 571.664Z" fill="#E4897B"/>
<path d="M655.822 577.8L624.522 570.799L621.684 585.99L650.092 592.909L655.822 577.8Z" fill="#E4897B"/>
<path d="M750.506 564.069L748.668 566.259C744.721 570.881 735.153 582.044 725.179 591.666C717.07 599.504 708.962 606.343 703.556 607.721C688.23 611.668 632.523 595.261 632.523 595.261L638.28 572.664C638.28 572.664 690.176 579.557 694.204 579.557C697.258 579.557 728.828 533.823 736.477 530.066L750.506 564.069Z" fill="#0C7489"/>
<path opacity="0.2" d="M748.668 566.258C744.721 570.88 735.153 582.044 725.179 591.666C727.179 575.827 732.991 561.285 740.64 552.095C741.353 551.208 742.17 550.41 743.073 549.717L748.668 566.258Z" fill="black"/>
<path d="M714.962 1112.01L736.748 1111.44C737.14 1111.43 737.526 1111.55 737.84 1111.78C738.155 1112.02 738.379 1112.35 738.477 1112.74L743.072 1130.28C743.182 1130.7 743.196 1131.14 743.113 1131.56C743.03 1131.99 742.852 1132.39 742.592 1132.74C742.333 1133.09 741.998 1133.37 741.613 1133.57C741.228 1133.77 740.803 1133.88 740.369 1133.9C732.504 1133.9 721.125 1133.9 711.259 1134.09C699.691 1134.41 692.339 1133.84 678.824 1134.09C670.715 1134.3 668.012 1126.14 671.472 1125.3C686.96 1121.47 697.096 1122.22 710.286 1113.57C711.678 1112.64 713.292 1112.1 714.962 1112.01Z" fill="#263238"/>
<path d="M713.07 1114.82C709.881 1115.52 704.205 1116.47 701.934 1114.6C701.603 1114.33 701.342 1113.98 701.173 1113.58C701.004 1113.19 700.931 1112.76 700.961 1112.33C700.96 1112.07 701.027 1111.82 701.155 1111.6C701.283 1111.37 701.468 1111.19 701.691 1111.06C704.097 1109.63 712.232 1113.49 713.178 1113.92C713.261 1113.97 713.33 1114.04 713.378 1114.12C713.425 1114.2 713.45 1114.29 713.449 1114.38C713.444 1114.49 713.404 1114.59 713.335 1114.67C713.267 1114.75 713.173 1114.8 713.07 1114.82ZM702.258 1111.82H702.096C702.006 1111.87 701.931 1111.94 701.879 1112.03C701.827 1112.12 701.799 1112.23 701.799 1112.33C701.777 1112.61 701.821 1112.89 701.929 1113.15C702.038 1113.41 702.206 1113.64 702.421 1113.82C703.691 1114.87 706.989 1114.98 711.367 1114.11C708.205 1112.79 703.799 1111.25 702.313 1111.82H702.258Z" fill="#0C7489"/>
<path d="M713.07 1114.82H712.746C710.286 1113.79 705.367 1109.63 705.637 1107.38C705.637 1106.84 706.069 1106.17 707.367 1106C707.843 1105.94 708.327 1105.98 708.791 1106.1C709.255 1106.23 709.689 1106.44 710.07 1106.73C712.773 1108.76 713.394 1114.09 713.448 1114.3C713.456 1114.39 713.443 1114.47 713.41 1114.54C713.377 1114.62 713.325 1114.69 713.259 1114.74L713.07 1114.82ZM707.015 1107.06C706.61 1107.19 706.583 1107.41 706.583 1107.49C706.421 1108.84 709.772 1112.14 712.286 1113.55C711.996 1111.28 710.993 1109.16 709.421 1107.49C709.154 1107.27 708.842 1107.1 708.507 1107.01C708.171 1106.92 707.819 1106.9 707.475 1106.95C707.317 1106.96 707.163 1107 707.015 1107.06Z" fill="#0C7489"/>
<path d="M825.836 1112.01L847.621 1111.44C848.018 1111.42 848.407 1111.54 848.726 1111.78C849.045 1112.02 849.275 1112.35 849.378 1112.74L853.946 1130.28C854.062 1130.7 854.079 1131.14 853.998 1131.57C853.917 1131.99 853.74 1132.4 853.479 1132.75C853.219 1133.1 852.882 1133.38 852.494 1133.58C852.107 1133.78 851.679 1133.89 851.243 1133.9C843.378 1133.9 831.999 1133.9 822.106 1134.09C810.564 1134.41 803.185 1133.84 789.671 1134.09C781.562 1134.3 778.859 1126.14 782.319 1125.3C797.807 1121.47 807.916 1122.22 821.106 1113.57C822.513 1112.64 824.147 1112.09 825.836 1112.01Z" fill="#263238"/>
<path d="M823.971 1114.82C820.781 1115.52 815.078 1116.47 812.835 1114.6C812.504 1114.33 812.243 1113.98 812.074 1113.58C811.905 1113.19 811.832 1112.76 811.862 1112.33C811.861 1112.07 811.928 1111.82 812.056 1111.6C812.184 1111.37 812.369 1111.19 812.592 1111.06C814.97 1109.63 823.133 1113.49 824.052 1113.92C824.142 1113.96 824.217 1114.02 824.266 1114.11C824.315 1114.19 824.335 1114.29 824.322 1114.38C824.315 1114.48 824.277 1114.58 824.215 1114.66C824.152 1114.73 824.067 1114.79 823.971 1114.82ZM813.159 1111.82H812.997C812.908 1111.87 812.835 1111.94 812.787 1112.03C812.739 1112.12 812.718 1112.23 812.727 1112.33C812.7 1112.61 812.742 1112.89 812.851 1113.15C812.959 1113.41 813.13 1113.64 813.348 1113.82C814.619 1114.87 817.889 1114.98 822.295 1114.11C819.079 1112.79 814.673 1111.25 813.186 1111.82H813.159Z" fill="#0C7489"/>
<path d="M823.971 1114.82H823.62C821.187 1113.79 816.241 1109.63 816.538 1107.38C816.538 1106.84 816.943 1106.17 818.241 1106.01C818.717 1105.94 819.202 1105.97 819.666 1106.1C820.131 1106.22 820.565 1106.44 820.944 1106.73C822.835 1108.84 824.017 1111.49 824.322 1114.3C824.336 1114.39 824.326 1114.47 824.292 1114.55C824.259 1114.62 824.203 1114.69 824.133 1114.74L823.971 1114.82ZM817.889 1107.06C817.511 1107.19 817.484 1107.41 817.484 1107.49C817.295 1108.84 820.674 1112.14 823.187 1113.55C822.878 1111.28 821.877 1109.17 820.322 1107.49C820.055 1107.27 819.743 1107.11 819.407 1107.01C819.072 1106.92 818.72 1106.9 818.376 1106.95L817.889 1107.06Z" fill="#0C7489"/>
<path d="M865.866 681.565C876.353 727.001 858.352 1084.46 858.352 1084.46H823.592L808.726 786.573L753.992 1084.46L716.827 1081.76C741.153 850.984 762.587 713.216 762.587 713.216V695.809L865.866 681.565Z" fill="#263238"/>
<path opacity="0.4" d="M716.827 1081.76L753.992 1084.46L797.077 849.957L808.726 786.573L823.592 1084.46H858.352C858.352 1084.46 876.353 727.001 865.866 681.565L762.533 695.809V713.216C762.533 713.216 741.126 850.984 716.827 1081.76Z" fill="white"/>
<path d="M847.135 513.281C846.069 535.005 846.621 556.779 848.784 578.422C850.243 593.558 852.244 607.856 854.379 620.749C859.379 650.995 865.055 673.673 865.866 681.592L762.534 695.836C724.855 590.423 739.045 529.174 739.045 529.174C746.772 525.984 754.688 523.276 762.75 521.066C764.453 520.606 766.183 520.174 767.966 519.768C782.48 516.912 797.144 514.891 811.889 513.714C814.592 513.47 817.538 513.281 820.295 513.146C834.404 512.443 847.135 513.281 847.135 513.281Z" fill="#263238"/>
<path d="M791.833 465.845C792.59 480.306 794.131 507.443 806.159 514.335C806.159 514.335 798.672 528.58 782.481 530.039C770.237 531.121 771.048 519.038 771.048 519.038C778.129 513.768 776.454 504.821 771.048 494.712L791.833 465.845Z" fill="#E4897B"/>
<path opacity="0.2" d="M783.346 477.63L771.129 494.712C772.415 497.048 773.5 499.49 774.372 502.01C780.049 499.74 786.563 491.198 785.617 485.009C785.32 482.43 784.551 479.929 783.346 477.63Z" fill="black"/>
<path d="M739.126 436.734C736.775 444.249 738.072 459.655 748.532 454.655C758.993 449.654 743.181 423.842 739.126 436.734Z" fill="#263238"/>
<path d="M793.185 446.897C794.347 466.169 795.888 477.386 787.482 488.306C774.697 504.713 749.938 498.604 743.019 480.008C736.802 463.25 735.964 434.545 753.83 424.815C757.79 422.66 762.233 421.545 766.741 421.575C771.249 421.604 775.677 422.777 779.609 424.983C783.54 427.189 786.848 430.357 789.223 434.189C791.597 438.022 792.96 442.394 793.185 446.897Z" fill="#E4897B"/>
<path d="M779.67 436.41V414.787C779.67 414.787 802.591 413.084 801.564 424.815C814.267 431.112 808.267 450.871 791.211 460.547C781.859 453.06 782.941 435.059 782.941 435.059C781.94 435.572 780.805 436.005 779.67 436.41Z" fill="#263238"/>
<path d="M802.51 461.926C802.068 464.283 801.159 466.529 799.836 468.529C798.513 470.53 796.803 472.246 794.807 473.575C789.401 477.116 784.725 472.765 784.535 466.683C784.373 461.277 786.941 452.736 793.158 451.655C794.518 451.443 795.909 451.571 797.207 452.029C798.505 452.486 799.669 453.258 800.596 454.276C801.522 455.293 802.182 456.525 802.516 457.86C802.85 459.195 802.848 460.592 802.51 461.926Z" fill="#E4897B"/>
<path d="M764.723 455.493C764.912 457.06 764.236 458.412 763.209 458.52C762.182 458.628 761.209 457.466 761.02 455.817C760.831 454.168 761.507 452.898 762.507 452.79C763.507 452.682 764.534 453.817 764.723 455.493Z" fill="#263238"/>
<path d="M747.046 457.466C747.235 459.034 746.559 460.385 745.532 460.493C744.505 460.601 743.532 459.439 743.343 457.79C743.154 456.141 743.829 454.871 744.856 454.763C745.884 454.655 746.803 455.898 747.046 457.466Z" fill="#263238"/>
<path d="M752.749 457.601C751.383 462.434 749.355 467.055 746.721 471.332C747.887 471.931 749.167 472.277 750.476 472.347C751.785 472.417 753.094 472.209 754.317 471.737L752.749 457.601Z" fill="#DE5753"/>
<path d="M763.425 476.765C762.759 476.935 762.081 477.061 761.398 477.143C761.276 477.143 761.159 477.095 761.073 477.008C760.987 476.922 760.939 476.805 760.939 476.684C760.939 476.562 760.987 476.445 761.073 476.359C761.159 476.272 761.276 476.224 761.398 476.224C763.339 476.048 765.212 475.418 766.864 474.385C768.517 473.352 769.904 471.945 770.913 470.278C770.936 470.223 770.97 470.174 771.013 470.133C771.056 470.092 771.107 470.06 771.163 470.04C771.219 470.02 771.278 470.011 771.337 470.015C771.396 470.019 771.454 470.034 771.507 470.061C771.563 470.087 771.613 470.124 771.654 470.17C771.695 470.215 771.726 470.269 771.746 470.327C771.767 470.385 771.775 470.446 771.771 470.507C771.767 470.568 771.751 470.628 771.723 470.683C770.84 472.218 769.645 473.552 768.216 474.599C766.787 475.647 765.156 476.384 763.425 476.765Z" fill="#263238"/>
<path d="M769.48 449.195C769.316 449.233 769.146 449.228 768.985 449.181C768.824 449.133 768.678 449.045 768.561 448.925C767.778 448.067 766.806 447.403 765.723 446.986C764.639 446.568 763.473 446.408 762.317 446.519C762.198 446.547 762.074 446.549 761.954 446.527C761.834 446.505 761.719 446.458 761.618 446.389C761.517 446.321 761.43 446.232 761.365 446.129C761.299 446.026 761.255 445.91 761.236 445.789C761.212 445.67 761.213 445.548 761.237 445.429C761.261 445.31 761.308 445.197 761.376 445.097C761.444 444.996 761.531 444.91 761.632 444.844C761.733 444.777 761.847 444.731 761.966 444.708C763.425 444.534 764.905 444.711 766.282 445.223C767.659 445.736 768.894 446.569 769.885 447.654C769.974 447.738 770.044 447.838 770.092 447.95C770.14 448.061 770.165 448.182 770.165 448.303C770.165 448.425 770.14 448.545 770.092 448.656C770.044 448.768 769.974 448.868 769.885 448.952C769.77 449.062 769.631 449.145 769.48 449.195Z" fill="#263238"/>
<path d="M738.694 452.249C738.52 452.316 738.327 452.316 738.153 452.249C737.924 452.169 737.737 452.003 737.63 451.785C737.524 451.567 737.508 451.316 737.586 451.087C738.032 449.696 738.808 448.433 739.849 447.407C740.889 446.381 742.162 445.622 743.559 445.195C743.796 445.134 744.047 445.169 744.257 445.293C744.467 445.418 744.62 445.62 744.681 445.857C744.742 446.093 744.706 446.345 744.582 446.555C744.458 446.765 744.255 446.918 744.019 446.979C742.913 447.319 741.909 447.926 741.093 448.746C740.278 449.566 739.677 450.575 739.342 451.682C739.291 451.823 739.205 451.95 739.091 452.049C738.978 452.148 738.841 452.217 738.694 452.249Z" fill="#263238"/>
<path d="M789.833 444.411C789.833 444.411 776.319 439.464 770.156 431.626C770.156 431.626 757.885 434.842 755.371 439.735C754.224 438.752 753.482 437.38 753.287 435.883C753.092 434.385 753.459 432.869 754.317 431.626C754.317 431.626 745.127 433.572 743.316 439.735C741.822 439.024 740.596 437.852 739.818 436.393C739.039 434.933 738.75 433.262 738.991 431.626C738.991 431.626 734.91 433.167 733.585 439.735C733.585 439.735 723.449 418.598 756.939 412.543C754.405 411.683 751.749 411.236 749.073 411.219C749.073 411.219 772.453 401.786 790.968 410.408C809.483 419.03 806.267 435.734 789.833 444.411Z" fill="#263238"/>
<path d="M873.84 699.783L841.405 704.108C841.405 704.108 828.025 610.613 822.133 580.422V515.984L839.08 511.524L852.217 515.984C855.819 528.949 858.591 542.13 860.515 555.447C862.109 565.556 863.542 576.367 864.812 587.314C866.569 602.234 868.029 617.425 869.272 631.642C871.218 654.59 872.515 674.889 873.218 687.295C873.624 695.08 873.84 699.783 873.84 699.783Z" fill="#0C7489"/>
<path d="M822.16 580.368C822.16 580.368 824.863 534.878 839.107 511.416C839.107 511.416 838.756 504.713 835.918 503.632C833.08 502.551 822.16 509.038 822.16 509.038C822.16 509.038 815.376 504.389 813.889 506.551C812.402 508.713 808.78 523.093 822.16 580.368Z" fill="#0C7489"/>
<path opacity="0.7" d="M822.16 580.368C822.16 580.368 824.863 534.878 839.107 511.416C839.107 511.416 838.756 504.713 835.918 503.632C833.08 502.551 822.16 509.038 822.16 509.038C822.16 509.038 815.376 504.389 813.889 506.551C812.402 508.713 808.78 523.093 822.16 580.368Z" fill="white"/>
<path d="M748.424 712.243L752.127 714.946C752.127 714.946 746.722 684.809 748.938 608.586C748.938 604.91 749.181 601.369 749.316 597.991C752.019 533.499 762.074 521.768 762.831 521.066L753.479 524.255L736.532 530.093C731.423 585.098 748.424 712.243 748.424 712.243Z" fill="#0C7489"/>
<path d="M749.884 586.882C749.884 586.882 740.532 542.662 743.316 527.417C746.1 512.173 756.074 518.957 756.074 518.957C756.074 518.957 765.236 511.551 767.966 519.714C767.966 519.714 755.371 528.58 749.884 586.882Z" fill="#0C7489"/>
<path opacity="0.7" d="M749.884 586.882C749.884 586.882 740.532 542.662 743.316 527.417C746.1 512.173 756.074 518.957 756.074 518.957C756.074 518.957 765.236 511.551 767.966 519.714C767.966 519.714 755.371 528.58 749.884 586.882Z" fill="white"/>
<path opacity="0.2" d="M864.758 587.206C850.919 579.449 849.081 559.204 849.081 559.204C849.919 558.879 855.054 557.123 860.46 555.339C862.055 565.448 863.488 576.259 864.758 587.206Z" fill="black"/>
<path opacity="0.2" d="M797.077 849.957L808.726 786.574L806.483 753.031C806.483 753.031 790.509 811.197 797.077 849.957Z" fill="black"/>
<path opacity="0.2" d="M873.164 687.187C864.461 686.592 856.947 686.025 856.947 686.025L855.298 650.644C858.01 648.946 861.268 648.347 864.407 648.968C866.545 643.315 868.165 637.48 869.245 631.534C871.137 654.482 872.461 674.808 873.164 687.187Z" fill="black"/>
<path d="M876.137 631.507L859.19 658.725L872.596 666.429L888.517 641.913L876.137 631.507Z" fill="#E4897B"/>
<path d="M851.487 515.552C862.893 516.795 911.383 583.341 913.519 603.397C915.654 623.452 885.03 658.077 885.03 658.077L864.596 646.049C864.596 646.049 885.354 614.127 886.436 605.505C887.517 596.883 848.459 562.042 848.459 562.042C845.506 554.016 843.881 545.562 843.648 537.013C843.108 522.363 851.487 515.552 851.487 515.552Z" fill="#0C7489"/>
<path d="M855.271 650.671C855.271 650.671 872.705 654.401 879.732 665.375C879.732 665.375 872.434 688.214 867.218 690.701C862.001 693.188 849.081 693.188 849.081 693.188C849.081 693.188 848.243 667.78 855.271 650.671Z" fill="#0C7489"/>
</svg>
